<?xml version="1.0" encoding="utf-8"?>
<!-- Generator: Adobe Illustrator 24.1.1, SVG Export Plug-In . SVG Version: 6.00 Build 0)  -->
<svg version="1.1" xmlns="http://www.w3.org/2000/svg" xmlns:xlink="http://www.w3.org/1999/xlink" x="0px" y="0px"
	 viewBox="0 0 500 500" style="enable-background:new 0 0 500 500;" xml:space="preserve">
<style type="text/css">
	.st0{opacity:0.5;}
	.st1{fill:#BEBDEF;}
	.st2{fill:none;stroke:#BEBDEF;stroke-width:2;stroke-linecap:round;stroke-linejoin:round;stroke-miterlimit:10;}
	.st3{fill:none;stroke:#BEBDEF;stroke-width:2.1471;stroke-linecap:round;stroke-linejoin:round;stroke-dasharray:5.3677,7.5148;}
	.st4{fill:none;stroke:#BEBDEF;stroke-width:2;stroke-linecap:round;stroke-linejoin:round;stroke-dasharray:5,7;}
</style>
<g id="BACKGROUND">
</g>
<g id="OBJECTS">
	<g class="st0">
		<g>
			<path class="st1" d="M452.83,145.95c10.28-4.39,11.2-18.08,6.17-26.73c0.06,0,0.13,0,0.19,0c-3.73-3.5-13.07-7.56-12.94-7.1
				c-10.79-2.15-24.79,7.33-21.81,19.15C429.07,146.65,441.26,149.2,452.83,145.95z M429.18,136.56
				c-12.04-16.52,13.33-31.08,25.97-18.82c7.68,6.04,6.66,20.53-1.67,25.48C445.06,147.15,433.77,145.38,429.18,136.56z"/>
			<path class="st1" d="M441.58,130.19c-9.76-5.3-0.77-7.06,0.82-13.53c0.68,1.34,1.12,2.2,1.49,2.93c2.52,1.32,5.28,0.63,6.36,3.71
				c-2.45-0.65-4.28-1.13-6.5-1.71c0,2.15,0,3.88,0,5.77c4.93,0,8.53,5.8,2.83,8.1c-2.58,1.11-2.58,1.11-3.66,3.86
				c-0.58-1.11-1.01-1.94-1.44-2.77c-4.28-0.89-5.22-0.63-3.69-4.48c0.38,0.44,0.85,0.74,0.92,1.11
				C440.17,136.63,442.27,131.97,441.58,130.19z M443.74,133.97c5.66-0.01,5.16-4.83,0-4.13
				C443.74,131.12,443.74,132.43,443.74,133.97z M442.07,122.73c-2.94,1.74-2.96,3.68,0,5.52
				C442.07,125.98,442.07,124.58,442.07,122.73z"/>
		</g>
		<g>
			<path class="st1" d="M480.38,306.43c6.03-2.57,6.56-10.59,3.61-15.66c0.04,0,0.08,0,0.11,0c-2.19-2.05-7.66-4.43-7.58-4.16
				C455.43,285.77,463.04,312.32,480.38,306.43z M466.52,300.75c-7.11-9.48,7.98-18.33,15.22-11.03
				C492.16,300.88,474.58,313.26,466.52,300.75z"/>
			<path class="st1" d="M474.27,297.02c-5.59-2.8-0.51-4.29,0.48-7.93c0.4,0.79,0.65,1.29,0.87,1.72c1.47,0.78,3.09,0.37,3.73,2.17
				c-1.44-0.38-2.51-0.66-3.81-1c0,1.26,0,2.27,0,3.38c2.89,0,5,3.4,1.66,4.74c-1.51,0.65-1.51,0.65-2.15,2.26
				c-0.34-0.65-0.59-1.14-0.84-1.62c-2.51-0.52-3.06-0.37-2.16-2.62c0.22,0.26,0.5,0.43,0.54,0.65
				C473.42,300.76,474.73,298,474.27,297.02z M475.54,299.23c3.32-0.01,3.03-2.83,0-2.42C475.54,297.56,475.54,298.33,475.54,299.23
				z M473.87,292.64c-1.72,1.02-1.73,2.16,0,3.23C473.87,294.55,473.87,293.73,473.87,292.64z"/>
		</g>
		<g>
			<path class="st1" d="M351.2,395.97c6.03-2.57,6.56-10.59,3.61-15.66c0.04,0,0.08,0,0.11,0c-2.19-2.05-7.66-4.43-7.58-4.16
				C326.25,375.31,333.86,401.86,351.2,395.97z M337.34,390.76c-7.11-9.48,7.98-18.33,15.22-11.03
				C362.99,390.89,345.4,403.27,337.34,390.76z"/>
			<path class="st1" d="M344.57,387.03c-5.59-2.8-0.51-4.29,0.48-7.93c0.4,0.79,0.65,1.29,0.87,1.72c1.47,0.78,3.09,0.37,3.73,2.17
				c-1.44-0.38-2.51-0.66-3.81-1c0,1.26,0,2.27,0,3.38c2.89,0,5,3.4,1.66,4.74c-1.51,0.65-1.51,0.65-2.15,2.26
				c-0.34-0.65-0.59-1.14-0.84-1.62c-2.51-0.52-3.06-0.37-2.16-2.62c0.22,0.26,0.5,0.43,0.54,0.65
				C343.71,390.77,345.02,388.01,344.57,387.03z M345.83,389.24c3.32-0.01,3.03-2.83,0-2.42
				C345.83,387.57,345.83,388.34,345.83,389.24z M345,382.65c-1.72,1.02-1.73,2.16,0,3.23C345,384.56,345,383.74,345,382.65z"/>
		</g>
		<g>
			<path class="st1" d="M439.42,228.61c6.03-2.57,6.56-10.59,3.61-15.66c0.04,0,0.08,0,0.11,0c-2.19-2.05-7.66-4.43-7.58-4.16
				C414.47,207.94,422.08,234.49,439.42,228.61z M425.56,223.59c-7.11-9.48,7.98-18.33,15.22-11.03
				C451.21,223.72,433.62,236.1,425.56,223.59z"/>
			<path class="st1" d="M433.27,219.86c-5.59-2.8-0.51-4.29,0.48-7.93c0.4,0.79,0.65,1.29,0.87,1.72c1.47,0.78,3.09,0.37,3.73,2.17
				c-1.44-0.38-2.51-0.66-3.81-1c0,1.26,0,2.27,0,3.38c2.89,0,5,3.4,1.66,4.74c-1.51,0.65-1.51,0.65-2.15,2.26
				c-0.34-0.65-0.59-1.14-0.84-1.62c-2.51-0.52-3.06-0.37-2.16-2.62c0.22,0.26,0.5,0.43,0.54,0.65
				C432.41,223.6,433.72,220.84,433.27,219.86z M434.54,222.07c3.32-0.01,3.03-2.83,0-2.42
				C434.54,220.4,434.54,221.17,434.54,222.07z M432.86,215.48c-1.72,1.02-1.73,2.16,0,3.23
				C432.86,217.39,432.86,216.57,432.86,215.48z"/>
		</g>
		<g>
			<path class="st1" d="M479.68,184.96c4.69-2,5.11-8.24,2.81-12.19c0.03,0,0.06,0,0.09,0c-1.7-1.59-5.96-3.45-5.9-3.24
				C460.28,168.8,466.3,189.64,479.68,184.96z M468.9,180.68c-5.53-7.37,6.21-14.26,11.84-8.58
				C488.94,180.65,474.97,190.44,468.9,180.68z"/>
			<path class="st1" d="M474.56,177.77c-4.3-2.07-0.42-3.4,0.37-6.17c0.31,0.61,0.51,1.01,0.68,1.34c1.14,0.6,2.41,0.29,2.9,1.69
				c-1.12-0.29-1.95-0.51-2.96-0.78c0,0.98,0,1.77,0,2.63c2.25,0,3.89,2.64,1.29,3.69c-1.17,0.51-1.17,0.51-1.67,1.76
				c-0.26-0.5-0.46-0.88-0.66-1.26c-1.95-0.4-2.38-0.29-1.68-2.04C473.85,180.57,474.77,179.35,474.56,177.77z M475.54,179.5
				c2.58-0.01,2.35-2.2,0-1.88C475.54,178.2,475.54,178.79,475.54,179.5z M474.71,174.37c-1.34,0.79-1.35,1.68,0,2.52
				C474.71,175.86,474.71,175.22,474.71,174.37z"/>
		</g>
		<g>
			<path class="st1" d="M303.66,74.63c6.03-2.57,6.56-10.59,3.61-15.66c0.04,0,0.08,0,0.11,0c-2.19-2.05-7.66-4.43-7.58-4.16
				C278.72,53.96,286.33,80.52,303.66,74.63z M289.8,69.22c-7.11-9.48,7.98-18.33,15.22-11.03
				C315.45,69.35,297.87,81.73,289.8,69.22z"/>
			<path class="st1" d="M296.87,65.49c-5.59-2.8-0.51-4.29,0.48-7.93c0.4,0.79,0.65,1.29,0.87,1.72c1.47,0.78,3.09,0.37,3.73,2.17
				c-1.44-0.38-2.51-0.66-3.81-1c0,1.26,0,2.27,0,3.38c2.89,0,5,3.4,1.66,4.74c-1.51,0.65-1.51,0.65-2.15,2.26
				c-0.34-0.65-0.59-1.14-0.84-1.62c-2.51-0.52-3.06-0.37-2.16-2.62c0.22,0.26,0.5,0.43,0.54,0.65
				C296.01,69.23,297.32,66.47,296.87,65.49z M298.13,67.7c3.32-0.01,3.03-2.83,0-2.42C298.13,66.03,298.13,66.8,298.13,67.7z
				 M297.3,61.11c-1.72,1.02-1.73,2.16,0,3.23C297.3,63.02,297.3,62.2,297.3,61.11z"/>
		</g>
		<path class="st1" d="M465.34,415.52c-0.56-6.52,8.37-5.87,8.28-0.68C474.12,420.74,465.01,421.77,465.34,415.52z M471.91,415.33
			c0.54-3.58-4.85-3.09-5.06-0.32C466.39,418.94,471.61,419.26,471.91,415.33z"/>
		<g>
			<path class="st1" d="M320.74,296.99c-13.16-9.14-28.81-14.42-43.29-21.22c-6.76-2.74-4.34-3-1.91-8.47
				c4.74-11.27,10.73-21.92,16.74-32.53c6.87-12.77,12.36-26.45,19.86-38.78c12.47,3.61,12.17,10.56,16.62,1.16
				c7.79,3.53,14.51,9.13,22.41,12.54c-0.2,2.16-1.6,3.68-2.2,5.54c1.72,2.09,12.58,4.31,10.33,7.34
				c-7.36,13.12-11.86,27.63-19.32,40.75C334.2,274.89,326.88,285.6,320.74,296.99z M318.29,199.26
				c-12.62,24.84-25.39,49.56-38.98,73.86c-1.09,2.07-0.94,2.52,1.21,3.28c11.13,4.29,21.53,10.1,32.51,14.77
				c13.52-24.19,26.89-48.41,39.35-73.18c-1.28-0.92-2.51-1.57-4-1.7c-9.9,16.21-3.64,11.55-20,4.69
				c-14.52-6.46-8.22-4.18-2.96-17.75C323.02,201.9,320.74,200.63,318.29,199.26z M328.86,198.37c-13.97,25.81-9.9,13.84,11.6,28.19
				c2.33,0.2,5.03-7.9,6.83-9.94c0.55-1.9,4.66-6.06,1.85-7.17C341.83,206.82,336.2,200.39,328.86,198.37z M320.69,295.69
				c10.71-18.68,22.01-37.13,30.28-57.08c1.86-5.15,3.87-10.22,6.82-14.87c1.44-2.26,1.19-2.85-1.35-3.76
				c-1.2-0.49-1.62,1.2-2.19,1.93c-11.02,24.51-24.68,47.62-37.42,71.21C318.15,294,319.38,294.82,320.69,295.69z M312.29,196.81
				c-10.83,21.11-21.55,42.25-32.64,63.22c-21.87,49.31,33.51-55.39,35.6-61.96C314.24,197.65,313.34,197.26,312.29,196.81z
				 M315.9,292.69c12.3-21.83,25.16-43.29,35.21-66.28c0.71-1.46,6.16-10.07,1.5-7.2c-11.99,24.64-26.2,48.08-38.66,72.46
				C314.63,292.03,315.18,292.32,315.9,292.69z M277.57,274.86c12.75-23.4,25.52-46.76,37.34-70.65c0.5-1.16,4.14-7.29,0.95-5.29
				c-3.6,7.85-7.7,15.45-11.72,23.09c-9.18,16.99-17.75,34.32-27.51,50.97C276.03,274.15,276.09,274.27,277.57,274.86z"/>
			<path class="st1" d="M304.6,234.41c12.38-22.98,3.45-12.99,33.26-1.84c-1.37,3.95-3.72,7.28-4.76,11.32
				c-0.52,1.53-0.74,3.8-2.89,2.63C321.34,243.03,313.51,237.84,304.6,234.41z M336.87,233.01c-8.24-3.49-16.04-8.02-24.06-12.04
				c-2.32,4.55-4.87,8.57-7.14,13.17c8.48,3.15,16.02,8.02,24.36,11.5c1.28,0.57,1.51,0.46,2-0.83
				C333.06,240.66,335.21,236.93,336.87,233.01z"/>
			<path class="st1" d="M287.08,269.51c0.15-0.96,2.35-4.66,3.16-5.3c4.42,4.32,8.99,1.58,3.56,9
				C291.47,272.2,289.15,271.06,287.08,269.51z M290.07,265.53c-0.78,1.28-1.47,2.4-2.21,3.62c4.33,2.35,5.69,5.17,7.9-0.78
				C293.81,267.35,292.1,266.3,290.07,265.53z"/>
			<path class="st1" d="M296.27,252.8c0.9-1.48,1.82-3,2.73-4.49c1.13,0.11,5.1,2.14,6.08,3.14c-0.95,1.54-1.24,3.48-2.51,4.89
				C301.31,256.01,297.11,253.68,296.27,252.8z M299.35,249.13c-0.8,1.32-1.44,2.38-2.14,3.56c1.71,0.98,3.28,1.96,4.99,2.81
				C305.34,250.64,303.53,251.33,299.35,249.13z"/>
			<path class="st1" d="M311.58,275.53c0.97,0.73,3.72,1.13,2.79,2.75c-1,1.15-1.43,4.54-3.28,4.06c-1.42-1.27-5.62-1.64-5.24-3.84
				c1.87-3.18,1.63-5.76,5.69-2.88C311.55,275.59,311.56,275.56,311.58,275.53z M308.48,274.97c-2.74,4.5-2.09,4.16,2.18,6.29
				c1.66,0.81,2.09-2.05,2.94-2.99C313.73,276.27,310.05,276.18,308.48,274.97z"/>
			<path class="st1" d="M312.28,244.52c2.37,1.02,4.5,1.93,6.64,2.85c-1.36,3.09-1.64,7.76-5.61,4.16
				C307.51,249.5,310.55,248.72,312.28,244.52z M312.5,245.62c-0.74,1.29-1.37,2.45-1.86,3.55c4.87,2.8,5.03,4.85,7.48-1.33
				C316.21,247.09,314.43,246.39,312.5,245.62z"/>
			<path class="st1" d="M303.37,239.86c6.28,2.16,6.24,1.68,3.58,7.88C301.61,245.57,299.23,245.54,303.37,239.86z M306.47,246.88
				c0.43-1.63,1.35-2.79,1.45-4.44c-3.09-1.25-4.63-2.68-5.85,1.4C302.15,245.56,305.01,245.71,306.47,246.88z"/>
			<path class="st1" d="M308.55,267.09c-0.74,4.08-4.04,0.96-6.43,0.14c-1.68-1.34,1.57-3.7,2.07-5.22
				c1.27-1.19,3.17,1.33,4.55,1.71c1.84,0.74,0.34,2.18-0.16,3.38C308.57,267.1,308.56,267.1,308.55,267.09z M302.18,266.32
				c1.69,1.03,3.13,1.86,4.91,2.13c2.09-3.52,2.27-3.87-1.58-5.52C303.75,262.37,303.34,265.17,302.18,266.32z"/>
			<path class="st1" d="M314.76,262.06c0.84-1.55,1.47-3.28,2.7-4.73c1.48,1.12,6.56,2.42,5.02,4.67c-0.74,0.89-0.91,3.55-2.42,3.07
				C318.38,264,316.08,263.45,314.76,262.06z M320.48,264.43c2.35-4.05,1.11-3.86-2.39-5.79c-1.48-0.1-1.64,2.26-2.46,3.26
				C317.3,262.77,318.81,263.55,320.48,264.43z"/>
			<path class="st1" d="M294.66,263.06c-4.2-1.69-3.24-2.36-1.3-5.76c1.52-2.43,4.37,0.85,6.17,1.52c2.07,1.1-0.83,3.55-1.24,5.07
				c-0.74,1.65-2.56-0.43-3.68-0.74C294.63,263.11,294.65,263.09,294.66,263.06z M297.62,263.7c2.42-4.08,2.4-4.14-1.89-6.17
				c-1.83-1.02-2.41,1.48-3.12,2.66C292.5,262.16,296.06,262.41,297.62,263.7z"/>
			<path class="st1" d="M305.98,258.11c2.8-5.98,1.75-5.43,7.44-2.71c1.98,1.17-1.42,4.11-1.74,5.74
				C310.49,260.98,307.52,259.4,305.98,258.11z M306.99,258.2c4.2,2.32,4.39,3,6.32-1.81C309.52,254.29,308.36,253.08,306.99,258.2z
				"/>
			<path class="st1" d="M312.93,266.07c1.92,1.15,3.72,2.23,5.54,3.32c-2.11,6.18-2.6,5.02-7.54,2.09
				C309.01,270.33,312.26,267.48,312.93,266.07z M315.77,273.36c0.68-1.3,1.25-2.4,1.91-3.66c-3.5-1.72-4.79-4.07-6.55,0.82
				C312.48,271.9,314.11,272.55,315.77,273.36z"/>
			<path class="st1" d="M296.77,274.96c2.13-6.86,2.95-4.8,8.21-2.13C302.12,279.52,302.3,276.97,296.77,274.96z M302.11,276.61
				c0.65-1.25,1.24-2.38,1.86-3.57c-3.26-1.74-4.98-3.4-6.09,1.36C299.26,275.13,300.61,275.83,302.11,276.61z"/>
			<path class="st1" d="M327.42,251.65c-2.33,7.23-2.87,4.04-8.36,2.13C320.99,247.13,322.31,248.94,327.42,251.65z M326.45,251.91
				c-3.77-1.99-4.79-3.47-6.59,1.3C323.71,254.73,325.04,257.2,326.45,251.91z"/>
			<path class="st1" d="M327.57,210.59c1.16-1.02,3.43,1.56,5.15,1.59c2.39,0.16,2.96,3.11,5.21,3.2c2.73-0.31,3.21,2.5,5.84,2.86
				c-2.18,1.83-3.18-2.18-5.3-2.08c-1.11-0.19-2.59-0.32-3.2-1.4C333.53,212.18,329.77,212.62,327.57,210.59z"/>
			<path class="st1" d="M342.88,221.68c-0.29,0.68-0.76,0.5-1,0.21c-0.78-0.91-1.82-0.92-2.85-0.95c-4.45-1.54-8.6-4.29-12.91-6.37
				c2.14-0.92,5.81,2.8,8.22,3.42c1.65,0.58,2.91,2.15,4.71,2.17C340.52,220.12,341.77,220.62,342.88,221.68z"/>
			<path class="st1" d="M330.34,205.55c3.05-0.18,4.87,3.71,7.56,4.65c1.31,0.53,8.47,2.94,6.51,4.57
				c-1.54-2.26-4.58-2.96-7.03-3.97c-2.22-0.68-3.18-3.17-5.39-3.92C331.37,206.56,330.64,206.34,330.34,205.55z"/>
		</g>
		<path class="st2" d="M316.89,231.59c0.56,1.65,1.12,3.3,1.69,4.95c3.78-2.65,8.75-3.53,13.21-2.34"/>
		<path class="st1" d="M515.34,447.63c-7.56-10.73-16.14-20.47-23.55-31.33c-11.73,11.87-21.38,25.33-34.8,35.65
			c4.2,4.69,44.23,26.4,48.38,30.8 M502.01,481.6c-2.92-3.03-41.72-23.38-44.51-26.54c-2.07-2.35-2.23-2.4-4.95-1.05
			c-2.77,1.38-2.85,1.45-4.97-0.73c-4.17-4.27-8.74-8.2-11.84-13.42c-2.98-3.66,2.01-5.96,3.65-9.21
			c-2.55-3.78-7.06-4.48-11.05-5.71c-7.31-1.61-13.31-5.79-19.18-10.02c-6.96-5.65-11.33-14.12-18.32-19.85
			c-4.82-9.21-16.83-3.91-17.7-13.98c-0.33-6.98-10.15-5.81-4.21-20.42c-5.31-6.6-8.47-13.82,2-17.18
			c-5.77,0.97-10.56,0.18-14.52-3.99c-7.13-8.75,6.66-11.83,13.15-12.36c-0.86-12.16-6.79-23.51-7.38-35.97
			c13.71-3.41,27.42-4.07,40.89-8.11c2.48-0.83,3-0.55,3.37,2.01c1.95,9.88,1.49,19.91,4.84,29.52c1.32-3.79,1.98-9.21,6.85-9.41
			c2.32,0.15,3.17,1.77,3.67,3.64c1.29,5.89,5.84,9.26,9.61,13.42c3.75,6.78,7.57,13.54,11.13,20.42
			c6.24,16.49,1.44,39.72,19.63,49.26c3.01-4.32,4.68-2.93,8.67-0.76c9.17,5.99,18.63,11.39,27.54,17.75
			c-2.75,2.79-7.24,4.73-3.6,8.73c7.66,10.68,15.8,21.01,23.66,31.54 M389.18,391.43c10.46,10.17,17.59,23.11,31.29,29.37
			c6.27,3.43,13.99,3.32,19.53,8.2c5.33-4.81,20.06-31.36,21.07-36.03c-4.37-3.64-9.7-7.48-12.06-12.77
			c-4.08-13.46-3.48-28.33-9.42-41.1c-5.05-6.69-6.51-17.66-15.46-20.04c-8.15-3.01-1.53-13.64-6.56-12.56
			c-9.63,5.58-4.01,19.43,2.86,25.24c-0.61,5.92,0.31,11.37,5.16,16.19c-4.86-0.62-5.76,11.56-7.33,15.15
			c-3.24,11.56,1.69,21.21,12.02,27.2c-8.19-1.84-12.59-9.89-14.36-17.63c-7.89,1.81-15.51,4.36-24.06,4.47
			C397.55,382.45,401.21,393.77,389.18,391.43z M495.71,408.63c-9.58-4.56-17.88-11.51-27.2-16.66
			c-4.82-4.13-9.47,10.75-11.73,13.91c-18.32,38-29.01,23.93-7.89,46.25C460.22,453.94,486.4,417.79,495.71,408.63z M381.51,358.5
			c10.98-2.03,21.86-3.93,32.92-5.32c2.22-0.37,2.44-0.77,2.03-3.02c-3.17-16.74-6.63-33.46-9.1-50.31
			c-0.53-4.48-0.33-4.44-4.91-3.68c-9.09,1.51-18.04,3.85-27.27,4.5c-3.08,0.78-10.66-0.11-8.8,4.92c1.12,4.36,2.42,8.68,3.46,13.07
			c2.13,8.96,4.19,17.95,6.18,26.95c0.4,1.81,1.03,3.32,2.52,4.47C381.51,352.15,381.28,355.18,381.51,358.5z M376.94,363.56
			c2.93,3.09,6.55,5.24,6.66,10c0.04,0.53,0.65,1.34,1.14,1.47c10.33,2.49,21.15-0.87,31.11-3.86c0.03-3.58,5.03-16.46-0.58-16.41
			C403.43,357.41,386.43,355.71,376.94,363.56z M405.28,283.87c-13.27,2.67-26.46,5.04-39.69,7.88c-2.95,1.78-0.65,6.3,0.23,9.13
			c13.67-2.75,27.18-3.76,40.7-7.14C406.09,290.28,405.7,287.21,405.28,283.87z M372.88,341.22c-2.26-12-0.38-14.65-14.04-9.89
			C350.16,338.32,366.71,344.86,372.88,341.22z M374.05,345.18c-20.47,0.37,2.25,26.63,5.64,11.99
			C380.77,351.74,374.19,350.48,374.05,345.18z M385.36,388.42c-0.25-7.14,6.05-4.59,10.35-2.9c-1.03-5.79-7.3-8.83-11.22-9.22
			c-4.1,2.27-4.72,3.21-9.88,2.69C373.16,387.2,379.95,386.65,385.36,388.42z M370.6,362.24c-4.93,5.63-0.26,16.38,8.47,15.24
			C387.63,374.53,376.14,362.77,370.6,362.24z M418.93,355.46c1.39-3.43,2.52-6.22,3.72-9.19c-5.55-5.25-0.45-16.88-9.53-18.65
			C415.1,337.07,416.95,345.95,418.93,355.46z M395.71,388.98c-0.6-2.33-8.5-6.16-8.23-1.98
			C388.08,389.88,394.23,392.57,395.71,388.98z M424.31,316.93c-1.09-1.95-1.96-3.53-3.11-5.6
			C421.05,314.16,422.02,315.67,424.31,316.93z M412.87,323.28c-0.22,0.06-0.43,0.12-0.65,0.18c0.29,0.67,0.59,1.35,0.88,2.02
			c0.19-0.08,0.37-0.16,0.56-0.24C413.4,324.58,413.14,323.93,412.87,323.28z"/>
		<path class="st1" d="M401.67,365.41c0.24,5.69-8.58,4.92-8.51-0.03C392.86,360.23,402.14,359.56,401.67,365.41z M397.8,362.84
			c-3.35,0.46-4.27,4.33-0.21,4.9C400.84,367.9,400.81,363.14,397.8,362.84z"/>
		<path class="st1" d="M374.73,293.66c7.58-1.08,14.99-3.29,22.68-3.7c-6.72,3.47-15.03,3.98-22.59,4.75
			C374.79,294.36,374.76,294.01,374.73,293.66z"/>
		<g>
			<g>
				<g>
					<path class="st1" d="M422.53,274.17c0.27-0.04,0.98-0.04,1.22,0.01c0.23,0.04,0.45,0.1,0.67,0.18
						c0.03,0.01,0.28,0.11,0.13,0.04c0.12,0.05,0.24,0.11,0.35,0.17c0.77,0.41,1.42,1.03,1.88,1.7c0.58,0.85,0.88,1.56,1.09,2.57
						c0.17,0.81,0.17,1.79-0.04,2.6c-0.32,1.25,1.61,1.78,1.93,0.53c0.94-3.64-0.99-8.01-4.53-9.44c-1.04-0.42-2.14-0.47-3.23-0.29
						c-0.53,0.09-0.83,0.75-0.7,1.23C421.46,274.04,422,274.26,422.53,274.17L422.53,274.17z"/>
				</g>
			</g>
			<g>
				<g>
					<path class="st1" d="M423.08,266.74c6.23-1.22,11.99,4.33,11.91,10.5c-0.02,1.79-0.58,3.49-1.55,4.99
						c-0.7,1.09,1.03,2.09,1.73,1.01c4.16-6.46,0.61-15.28-6.36-17.95c-2-0.77-4.17-0.88-6.26-0.47
						C421.29,265.05,421.82,266.98,423.08,266.74L423.08,266.74z"/>
				</g>
			</g>
			<g>
				<g>
					<path class="st1" d="M422.05,256.7c5.4-1.12,11,0.95,15.13,4.42c4.09,3.44,7.28,8.49,7.4,13.96c0.07,3.1-0.93,6.01-2.76,8.5
						c-0.32,0.44-0.07,1.12,0.36,1.37c0.51,0.3,1.05,0.08,1.37-0.36c1.81-2.46,2.87-5.38,3.02-8.43c0.15-2.94-0.58-5.87-1.82-8.52
						c-2.57-5.51-7.51-9.97-13.2-12.06c-3.2-1.18-6.68-1.5-10.03-0.81C420.25,255.03,420.79,256.96,422.05,256.7L422.05,256.7z"/>
				</g>
			</g>
		</g>
		<g>
			<g>
				<path class="st3" d="M513.24,357.06c-38.67-4.04-71.21-41.11-57.99-78.99c6.32-18.53,22.66-35.1,21.2-54.39
					c-1.35-17.94-18.66-32.61-38.14-38.72c-39.63-12.32-83.12,3.51-123.36-4.66c-46.57-10-31.83-47.25,7.4-47.88"/>
				<g>
					<path class="st1" d="M311.47,140.35c-0.24-0.37-0.14-0.87,0.23-1.12l10.29-6.78L311.5,126c-0.38-0.23-0.5-0.73-0.26-1.11
						c0.23-0.38,0.73-0.49,1.11-0.26l11.57,7.12c0.23,0.14,0.38,0.4,0.38,0.67s-0.13,0.53-0.36,0.68l-11.34,7.47
						c-0.13,0.09-0.28,0.13-0.43,0.13C311.89,140.71,311.63,140.59,311.47,140.35z"/>
				</g>
			</g>
		</g>
		<g>
			<g>
				<path class="st4" d="M403.17,420.76c-30.98,10.68-66.55,7.12-94.8-9.48c-13.73-7.08-27.8-23.91-18.61-39.38
					c8.43-13.23,30.39-10.72,39.94-23.16c5.79-7.54,4.36-19.49-2.74-25.69"/>
				<g>
					<path class="st1" d="M338.62,323.76c-0.04,0.38-0.39,0.66-0.77,0.62l-10.65-1.12l3.49,10.13c0.13,0.37-0.07,0.76-0.43,0.89
						c-0.37,0.13-0.76-0.07-0.89-0.43l-3.85-11.16c-0.08-0.23-0.03-0.48,0.11-0.66s0.38-0.29,0.62-0.26l11.74,1.23
						c0.14,0.01,0.26,0.07,0.36,0.15C338.54,323.28,338.65,323.51,338.62,323.76z"/>
				</g>
			</g>
		</g>
		<g>
			<path class="st1" d="M563.19,15.33C528.12,32.5,492.58,49.74,455.3,61.68c-0.85-1.87-1.24-4.71-3.88-3.33
				c-5.03,2.12-11.04,1.96-15.71,4.68c0.93,1.59,1.81,3.1,2.71,4.62c-8.56-0.52-18.02-2.66-25.79-6.95
				c-6.82-3.89-14.69-4.37-21.24,0.2c-4.78,4.02-14.84,6.87-17.46,11.79c-2.72,5.81-1.85,9.17-9.54,8.75
				c-13.37-0.04-26.03,4.39-39.15,6.42c1.73,7.78,6.73,14.6,6.78,22.9c2.75,15.76-2.98,20.56,14.28,14.77
				c17.69-2.72,35.14-6.41,52.81-9.2c-1.02-3.81-2.01-7.52-3.01-11.23c0.14-0.08,0.27-0.17,0.41-0.26c1.48,4.83,8.49,6.35,9.35,0.37
				c4.66,1.95,8.49-0.77,7.48-5.94c7.1,0.06,13.32-3.08,18.83-7.27c0.9-0.66,1.63-1.02,2.75-0.83c4.05,0.65,8.03,1.11,12.13,1.64
				c3.13,14.01,3.57,3.39,18.14,2.73c0.51-2.26-0.53-4.01-1.19-6.06c36.77-12.97,75.1-20.78,113.73-26.01
				c0.21-15.61-8.41-29.4-12.14-44C565.27,17.97,565.7,14.14,563.19,15.33z M336.49,92.2c-2.44,0.77-5.03,1.09-7.74,1.66
				c-0.75-1.63-1.45-3.15-2.26-4.87c20.5-5.66,41.48-6.15,62.3-9.91c0.9,2.36,1.71,4.37-1.72,4.18
				C370.19,86.1,353.32,88.94,336.49,92.2z M385.07,78.33c-0.06,0-0.13-0.07-0.34-0.19c3.11-3.7,7.78-1.19,12.08-1.74
				c1.37,5.04,1.37,5.04,5.28,7.34c-3.52-0.05-6.93-0.1-10.73-0.16C390.35,78.94,390.81,76.68,385.07,78.33z M342.02,101.59
				c-10.25,1.94-8.95,4.29-12.83-6.34c19.35-4.72,39.21-7.51,58.82-10.81c-5.34,3.11-17.67,1.5-15.57,11.3
				C362.61,98.91,352.21,100.01,342.02,101.59z M396.75,112.19c0.25,0.97,0.39,1.97,0.59,3.04c-19.85,4.61-40.41,6.27-60.05,11.5
				c-4.54,1.06-4.02-18.37-4.67-22.01c13.17-2.47,26.52-4.42,39.62-7.29c6.13,0.62,12.26,0.56,18.45,0.06
				C395.15,97.31,395.09,108.76,396.75,112.19z M387.12,96.36c-3.03,0.04-5.69,0.87-8.47,0.35
				C380.46,93.32,384.5,93.04,387.12,96.36z M402.9,107.73c-4.99,1.18-6.41-6.68-8.27-10.28c2.29,0.3,4.39-0.2,6.26,0.6
				C403.09,100.5,406.89,105.09,402.9,107.73z M411.9,100.12c1.83,3.55-3.94,6.3-5.88,3.09c-0.75-2.04-1.29-3.12-3.21-4.65
				C406.18,99.21,409.73,97.86,411.9,100.12z M439.27,90.53c-7.17-2.62-12.38,4.61-18.94,6.54c-9.64,2.87-19.76-1.6-29.6-0.84
				c-0.95,0.02-1.76,0.02-2.52-0.83c-3.12-3.67-7.61-3.38-10.82-0.03c-0.54,0.69-0.99,1.46-2.09,1.02c-2.24-0.97-2.5-4.16-0.6-5.66
				c3.33-3.64,7.91-2.82,12.16-3.91c6.1-3.23,12.33-1.08,18.76-2.17c-2.86-3.01-7.89-3.16-7.39-8.47c0.08-0.86,0.14-1.93-0.57-2.53
				c-0.16-0.12-0.82,0.07-1,0.31c-3.96,3.54-8.75,0.82-8.15-4.44c-0.22,0.01-0.43,0.02-0.65,0.04c-0.94,1.57-0.2,3.17-0.03,4.45
				c-4.88,4.89-8.49,5.96-15.3,6.54c0.86-3.52,1.78-7.98,4.93-10.02c7.77-3.66,14.28-9.47,22.62-11.95
				c7.77-0.53,13.86,5.49,21.17,7.06c25.16,5.75,15.97,1.19,25.15,25.91C443.86,91.18,441.57,90.87,439.27,90.53z M463.99,94.33
				c-4.75,0.63-9.35,1.78-13.72,4.51c-4.82-11.72-6.67-24.24-12.85-35.34c4.86-2.27,10.36-1.78,15.27-4.25
				c2.42,5.35,3.94,11.01,4.88,16.81C458.23,82.79,462.76,87.83,463.99,94.33z M564.36,19.67c0.83,7.32,5.28,13.68,7.51,20.66
				c2.63,7.03,3.6,14.55,4.74,21.97c-38.57,5.28-76.71,13.32-113.54,26.08c-4.04-8.08-4.71-16.73-7.41-25.22
				c37.26-12.79,72.95-29.2,108.22-46.63C564.07,17.73,564.28,18.69,564.36,19.67z"/>
			<path class="st1" d="M386.53,104.68c-5.8,1.32-11.62,2.55-17.41,3.9c-3.24,0.76-3.21,0.86-1.58,3.78c1,1.77,1.36,1.9,3.43,1.41
				c7.16-2.2,15.63-2.03,22.06-5.64C391.36,102.89,391.82,102.72,386.53,104.68z M390.44,105.05c0.32,0.87,0.64,1.72,0.94,2.55
				c-6.56,2.74-13.27,3.02-19.93,4.78c-2.15,0.57-2.54,0.34-3.2-2.19C375.47,107.92,382.95,106.83,390.44,105.05z"/>
		</g>
		<g>
			<g>
				<g>
					<path class="st1" d="M372.86,134.16c-1.08,4.16-7,4.81-10.03,2.41c-0.42-0.33-1-0.41-1.41,0c-0.35,0.35-0.43,1.08,0,1.41
						c4.15,3.28,11.88,2.46,13.38-3.29C375.12,133.44,373.19,132.91,372.86,134.16L372.86,134.16z"/>
				</g>
			</g>
			<g>
				<g>
					<path class="st1" d="M380.26,138.09c-0.79,3.51-3.22,6.32-6.53,7.72c-3.07,1.31-6.77,1.4-9.82-0.01
						c-1.82-0.85-3.35-2.16-4.46-3.84c-0.7-1.07-2.44-0.07-1.73,1.01c2.32,3.53,6.13,5.61,10.33,5.83
						c3.96,0.21,8.05-1.27,10.84-4.11c1.64-1.67,2.78-3.78,3.29-6.06C382.47,137.37,380.54,136.84,380.26,138.09L380.26,138.09z"/>
				</g>
			</g>
			<g>
				<g>
					<path class="st1" d="M391.04,141.59c-1.33,6.22-6.02,11.04-11.6,13.79c-5.4,2.66-12.03,3.55-17.69,1.25
						c-3.19-1.29-5.79-3.69-7.5-6.67c-0.64-1.12-2.37-0.11-1.73,1.01c1.69,2.95,4.18,5.42,7.24,6.94c2.95,1.47,6.27,2.1,9.56,2.02
						c6.74-0.17,13.51-3.1,18.21-7.94c2.65-2.73,4.63-6.13,5.43-9.87C393.24,140.86,391.31,140.33,391.04,141.59L391.04,141.59z"/>
				</g>
			</g>
		</g>
	</g>
</g>
<g id="DESIGNED_BY_FREEPIK">
</g>
</svg>
