<?xml version="1.0" encoding="utf-8"?>
<!-- Generator: Adobe Illustrator 25.4.1, SVG Export Plug-In . SVG Version: 6.00 Build 0)  -->
<svg version="1.1" id="Layer_1" xmlns="http://www.w3.org/2000/svg" xmlns:xlink="http://www.w3.org/1999/xlink" x="0px" y="0px"
	 viewBox="0 0 200 40" style="enable-background:new 0 0 200 40;" xml:space="preserve">
<style type="text/css">
	.st0{fill:#1A81C5;}
	.st1{fill:#FFFFFF;}
	.st2{fill:#7DC241;}
</style>
<g>
	<g>
		<path class="st0" d="M37.8,9.4l0.5-0.2l0.2-1.1c0-0.1,0-0.1,0-0.2c0,0,0,0,0,0c0-0.2,0.3-1.8,0.3-1.8l0.3,0c0,0,0,0,0,0l0.2,0
			c0,0,0,0,0,0c0.4,0,0.7,0,1.1,0h0c0.1,0,0.2,0,0.2,0l1,0c0.8,0,1.5,0.1,2.3,0.3c1.5,0.4,2.8,1.2,3.1,2.9c0.3,1.4,0.1,2.9-0.6,4.1
			c-0.9,1.6-2.4,2.4-4.2,2.8c-0.9,0.2-1.8,0.2-2.7,0.1l-1.1,0l-1,0.9l0,0c-2.9,2.5-5.6,5.1-8,8c-0.1,0.1-0.1,0.2-0.1,0.3
			c-0.4,1.9-0.7,3.7-1.1,5.6L28,31.8h0.8l0,0c1.5,0,3,0,4.5,0l0.6,0l0.1-0.4c0.1-0.4,0.2-0.9,0.2-1.3c0.5-2.6,1-5.2,1.5-7.8l0,0
			l0.2-1.1h0.2h0.6l0,0c1.3,0,2.6,0,3.9,0c1.4,0,2.8-0.2,4.2-0.5c2.5-0.6,4.7-1.8,6.3-3.9c1.8-2.4,2.3-5.2,2-8.1
			c-0.3-3-2-5.1-4.7-6.4c-1.9-0.9-3.8-1.2-5.9-1.2c-2.5,0-4.9,0-7.4,0l0,0H34l-0.2,0.9c-0.4,2.3-0.9,4.7-1.4,7
			c-0.2,1.2-0.5,2.5-0.7,3.8l0,0l0.1-0.1C33.8,11.6,35.8,10.4,37.8,9.4z"/>
		<path class="st1" d="M20.6,15.3c1,1.3,2,2.5,3,3.8c0.1,0.2,0.2,0.2,0.4,0c0.6-0.6,1.2-1.1,1.8-1.7l0.5-0.4l0.1-0.6l0,0
			c0.5-2.8,1.1-5.6,1.7-8.4L28,7.6l-0.6,0l0,0c-1.7,0-3.4,0-5.1,0l0,0h-0.4l-0.1,0.3c-0.2,1.1-0.4,2.1-0.6,3.1
			c-0.3,1.3-0.5,2.6-0.8,3.9l0,0.2L20.6,15.3L20.6,15.3z"/>
		<path class="st2" d="M16,18c1.9,3.1,3.8,6.2,5.7,9.3c0.6,0.9,1.2,1.9,1.8,2.8c0.2-0.3,0.4-0.6,0.5-0.9c3.3-4.9,7.4-9.2,11.9-13.1
			c2-1.7,4-3.3,6.2-4.7l0.6-0.4L42,9.6L41,10c-0.1,0-0.2,0.1-0.2,0.1l-0.1,0l0,0c-3,1.3-5.8,2.9-8.5,4.7c-3,2.1-5.9,4.4-8.4,7.1
			c-0.2,0.2-0.3,0.2-0.5,0c-1.2-1.5-2.3-3-3.5-4.5c-0.2-0.3-0.4-0.3-0.7-0.3c-0.8,0-1.5,0-2.3,0l-1.4,0L16,18L16,18z"/>
		<path class="st1" d="M22.3,33.1l0.4-0.7L22,31.2c-0.8-1.3-1.6-2.6-2.4-3.9c-0.4-0.6-0.8-1.3-1.2-1.9c0,0.1,0,0.2-0.1,0.3
			c-0.3,1.5-0.6,3-1.2,4.4c-0.9,2.2-2.6,3.4-5,3.5c-2.1,0.1-4-0.4-5.8-1.4C6.3,32.1,6.1,32,6.1,32c0,0-0.1,0.3-0.1,0.5
			c-0.3,1.3-0.6,2.6-0.9,4L5,36.9c0,0,0.3,0.2,0.4,0.2l0,0c0.3,0.2,0.7,0.4,1.1,0.6c2.5,1,5.1,1.3,7.7,1c1.4-0.2,2.8-0.5,4-1.2
			C20.1,36.5,21.4,35,22.3,33.1L22.3,33.1z"/>
	</g>
	<g>
		<path class="st0" d="M158,8.9c-0.7-3.2-3.3-5.3-7.2-5.6c-1.4-0.1-4.3-0.2-4.3-0.2c-0.2,0-0.4,0-0.6,0l0,0h-3.6L142,5.3
			c-1.1,6-2.3,12.1-3.5,18.1l0,0l-0.1,0.4c-0.1,0.4-0.1,0.7-0.2,1.1c-0.1,0.5-0.2,0.9-0.2,1.3l-0.4,2.1h4.7l0.7-3.8l0,0
			c0.2-0.8,0.3-1.7,0.5-2.6c0-0.2,0.1-0.3,0.1-0.5l0,0l0.3-1.7l0.9,0l0.2,0c0.3,0,0.7,0,1.1,0c2.6,0,5.2-0.1,7.6-1.4
			C157,16.6,158.8,12.6,158,8.9z M150.3,15.4c-0.8,0.3-1.7,0.3-2.6,0.3h-3l0.2-1.1l0.2-1l0,0c0-0.1,0.1-0.3,0.1-0.4
			c0.3-1.5,0.6-2.9,0.9-4.4l0.3-1.2l0.1-0.4h0.5h0.7c0.6,0,1.2,0,1.8,0c2.5,0.3,3.7,1.2,3.9,2.9C153.6,12.7,152.5,14.6,150.3,15.4z"
			/>
		<path class="st1" d="M72.7,3.3h-4.8l-0.2,1c0,0,0,0.1,0,0.1c0,0.1,0,0.3-0.1,0.4l-0.9,4.5c-0.1,0.6-0.2,1.1-0.3,1.7
			c-0.8,3.5-1.1,7.1-2.3,10.4c-0.6,1.8-1.8,3-3.8,3.2c-1.3,0.1-2.6,0.1-3.7-0.4c0,0,0,0,0,0L55,23.6L53.8,27c0,0,1.3,1,3,1.3l0,0
			c1,0.2,2,0.4,3,0.4c5,0,8.2-2.5,9.4-7.7c1-4.5,1.8-9.1,2.7-13.6L72.7,3.3z"/>
		<path class="st1" d="M104.4,15.2l1-3.7l-12.9-0.1l-0.8,3.7l7.2,0c-2.4,2.9-4.9,5.6-7.6,8c-0.5,0.4-0.9,0.9-1.2,1.4h0l0,0l-1.1,3.3
			L89,28.3l12.8,0v0l1.3-3.6l0,0h-0.1c-0.3,0-0.8,0-1.4,0h-6c3.2-3.2,5.4-6,8.3-8.7C103.9,15.7,104.2,15.4,104.4,15.2z"/>
		<path class="st1" d="M119.2,15.2l1-3.7l-12.9-0.1l-0.8,3.7l7.2,0c-2.4,2.9-4.9,5.6-7.6,8c-0.5,0.4-0.9,0.9-1.2,1.4h0l0,0l-1.1,3.3
			l-0.1,0.4l12.8,0v0l1.3-3.6l0,0h-0.1c-0.3,0-0.8,0-1.4,0h-6c3.2-3.2,5.4-6,8.3-8.7C118.8,15.7,119.1,15.4,119.2,15.2z"/>
		<path class="st1" d="M134.6,11.5l-1.7,3c0,0,0,0.1-0.1,0.1c0,0,0,0,0,0.1l-0.7,1.3l0,0c-1.2,2.1-2.4,4.2-3.6,6.2l-1.5-6.2l0,0
			l-0.2-1l-0.1-0.4c0,0,0,0,0,0l-0.8-3.2l-4.4,0.1l0.9,3.7l2.9,11.8l-1,1.5l0,0c-0.1,0.1-0.1,0.2-0.2,0.3c-0.1,0.1-0.2,0.3-0.3,0.4
			l-0.4,0.7c-0.7,1.1-1.3,2-2,3l0,0l-2.5,3.9h4.6l2.2-3.6c3.1-5.1,6.3-10.1,9.5-15.1c0,0,0,0,0,0l0,0l4.1-6.4L134.6,11.5z"/>
		<path class="st0" d="M190.3,11.5l-1.7,3c0,0,0,0.1-0.1,0.1c0,0,0,0,0,0.1l-0.7,1.3l0,0c-1.2,2.1-2.4,4.2-3.6,6.2l-1.5-6.2l0,0
			l-0.2-1l-0.1-0.4c0,0,0,0,0,0l-0.8-3.2l-4.4,0.1l0.9,3.7l2.9,11.8l-1,1.5l0,0c-0.1,0.1-0.1,0.2-0.2,0.3c-0.1,0.1-0.2,0.3-0.3,0.4
			l-0.4,0.7c-0.7,1.1-1.3,2-2,3l0,0l-2.5,3.9h4.6l2.2-3.6c3.1-5.1,6.3-10.1,9.5-15.1c0,0,0,0,0,0l0,0l4.1-6.4L190.3,11.5z"/>
		<path class="st1" d="M89.8,14.2l0.5-2.6l-4.2,0L85.5,14c-1.8-2.5-4.1-3.3-6.8-2.7c-5,1.1-8.4,7-7.1,12.2c1.2,5.1,6.1,6.9,10.4,3.9
			l0.1-0.1l0.7-0.5l0.5-0.3l-0.1,0.7v0v0L83,27.8l-0.1,0.6H87l1.1-5.8l0.2-1.2C88.9,19,89.3,16.6,89.8,14.2L89.8,14.2z M79.3,24.9
			c-1.8-0.1-3.1-1.1-3.5-2.8c-0.6-2.5,0.6-5.3,2.7-6.5c3-1.7,6,0.1,6,3.6C84.6,22.4,82.2,25,79.3,24.9z M85.5,14
			C85.5,14,85.5,14,85.5,14L85.5,14C85.5,14,85.5,14,85.5,14z"/>
		<path class="st0" d="M175.1,14.2l0.5-2.6l-4.2,0l-0.6,2.3c-1.8-2.5-4.1-3.3-6.8-2.7c-5,1.1-8.4,7-7.1,12.2
			c1.2,5.1,6.1,6.9,10.4,3.9l0.1-0.1l0.7-0.5l0.5-0.3l-0.1,0.7v0v0l-0.1,0.6l-0.1,0.6h4.1l1.1-5.8l0.2-1.2
			C174.2,19,174.7,16.6,175.1,14.2L175.1,14.2z M164.7,24.9c-1.8-0.1-3.1-1.1-3.5-2.8c-0.6-2.5,0.6-5.3,2.7-6.5c3-1.7,6,0.1,6,3.6
			C169.9,22.4,167.6,25,164.7,24.9z M170.8,14C170.8,14,170.8,14,170.8,14L170.8,14C170.8,14,170.8,14,170.8,14z"/>
	</g>
</g>
</svg>
