<?xml version="1.0" encoding="utf-8"?>
<!-- Generator: Adobe Illustrator 25.3.1, SVG Export Plug-In . SVG Version: 6.00 Build 0)  -->
<svg version="1.1" id="Flat" xmlns="http://www.w3.org/2000/svg" xmlns:xlink="http://www.w3.org/1999/xlink" x="0px" y="0px"
	 viewBox="0 0 512 512" style="enable-background:new 0 0 512 512;" xml:space="preserve">
<style type="text/css">
	.st0{fill:#CFD2FC;}
	.st1{fill:#5153FF;}
	.st2{fill:#8690FA;}
	.st3{fill:#FFFFFF;}
</style>
<g>
	<path class="st0" d="M392,488H120c-26.5,0-48-21.5-48-48l0,0V72c0-26.5,21.5-48,48-48h224l96,96v320C440,466.5,418.5,488,392,488
		L392,488z"/>
	<path class="st1" d="M72,360h368l0,0v80c0,26.5-21.5,48-48,48l0,0H120c-26.5,0-48-21.5-48-48l0,0V360L72,360z"/>
	<g>
		<path class="st2" d="M440,120h-48c-26.5,0-48-21.5-48-48V24L440,120z"/>
		<path class="st2" d="M376,176H200c-4.4,0-8-3.6-8-8s3.6-8,8-8h176c4.4,0,8,3.6,8,8S380.4,176,376,176z"/>
		<path class="st2" d="M280,208H136c-4.4,0-8-3.6-8-8s3.6-8,8-8h144c4.4,0,8,3.6,8,8S284.4,208,280,208z"/>
		<path class="st2" d="M376,240H248c-4.4,0-8-3.6-8-8s3.6-8,8-8h128c4.4,0,8,3.6,8,8S380.4,240,376,240z"/>
		<path class="st2" d="M320,272H136c-4.4,0-8-3.6-8-8s3.6-8,8-8h184c4.4,0,8,3.6,8,8S324.4,272,320,272z"/>
		<path class="st2" d="M168,176h-32c-4.4,0-8-3.6-8-8s3.6-8,8-8h32c4.4,0,8,3.6,8,8S172.4,176,168,176z"/>
		<path class="st2" d="M376,208h-64c-4.4,0-8-3.6-8-8s3.6-8,8-8h64c4.4,0,8,3.6,8,8S380.4,208,376,208z"/>
		<path class="st2" d="M216,240h-80c-4.4,0-8-3.6-8-8s3.6-8,8-8h80c4.4,0,8,3.6,8,8S220.4,240,216,240z"/>
		<path class="st2" d="M376,272h-24c-4.4,0-8-3.6-8-8s3.6-8,8-8h24c4.4,0,8,3.6,8,8S380.4,272,376,272z"/>
		<path class="st2" d="M184,304h-48c-4.4,0-8-3.6-8-8s3.6-8,8-8h48c4.4,0,8,3.6,8,8S188.4,304,184,304z"/>
		<path class="st2" d="M216,144h-80c-4.4,0-8-3.6-8-8s3.6-8,8-8h80c4.4,0,8,3.6,8,8S220.4,144,216,144z"/>
		<path class="st2" d="M296,304h-80c-4.4,0-8-3.6-8-8s3.6-8,8-8h80c4.4,0,8,3.6,8,8S300.4,304,296,304z"/>
		<path class="st2" d="M376,304h-48c-4.4,0-8-3.6-8-8s3.6-8,8-8h48c4.4,0,8,3.6,8,8S380.4,304,376,304z"/>
	</g>
	<path class="st3" d="M136,384c-4.4,0-8,3.6-8,8v64c0,4.4,3.6,8,8,8c22.1,0,40-17.9,40-40S158.1,384,136,384z M144,446.6v-45.3
		c12.5,4.4,19,18.1,14.6,30.6C156.2,438.8,150.8,444.2,144,446.6z"/>
	<path class="st3" d="M224,384c-17.6,0-32,17.9-32,40s14.4,40,32,40s32-17.9,32-40S241.6,384,224,384z M224,448c-8.7,0-16-11-16-24
		s7.3-24,16-24s16,11,16,24S232.7,448,224,448z"/>
	<path class="st3" d="M304,400c1.6,0,3.2,0.4,4.6,1.1c4,1.9,8.8,0.2,10.6-3.8s0.2-8.8-3.8-10.6c-3.6-1.7-7.5-2.6-11.4-2.6
		c-17.6,0-32,17.9-32,40s14.4,40,32,40c3.9,0,7.8-0.9,11.4-2.6c4-1.9,5.7-6.7,3.8-10.6s-6.7-5.7-10.6-3.8c-1.4,0.7-3,1.1-4.6,1.1
		c-8.7,0-16-11-16-24S295.3,400,304,400L304,400z"/>
	<path class="st3" d="M379.6,384.8c-4-2-8.8-0.4-10.7,3.6l-8.8,17.7l-8.8-17.7c-2-3.9-6.8-5.5-10.8-3.5c-3.9,2-5.5,6.7-3.5,10.6
		l14.2,28.4l-14.2,28.4c-2,3.9-0.4,8.8,3.5,10.8c3.9,2,8.8,0.4,10.8-3.5c0,0,0-0.1,0.1-0.1l8.8-17.7l8.8,17.7
		c1.9,4,6.7,5.6,10.7,3.7c4-1.9,5.6-6.7,3.7-10.7c0,0,0-0.1-0.1-0.1L368.9,424l14.2-28.4C385.1,391.6,383.5,386.8,379.6,384.8z"/>
</g>
</svg>
