<?xml version="1.0" encoding="utf-8"?>
<!-- Generator: Adobe Illustrator 24.1.1, SVG Export Plug-In . SVG Version: 6.00 Build 0)  -->
<svg version="1.1" id="Layer_1" xmlns="http://www.w3.org/2000/svg" xmlns:xlink="http://www.w3.org/1999/xlink" x="0px" y="0px"
	 viewBox="0 0 400 300" style="enable-background:new 0 0 400 300;" xml:space="preserve">
<style type="text/css">
	.st0{fill:#FFD8BF;}
	.st1{fill:#FFE3D1;}
	.st2{fill:#362E8B;}
	.st3{fill:none;stroke:#514EC6;stroke-miterlimit:10;}
	.st4{fill:none;stroke:#F5B690;stroke-miterlimit:10;}
	.st5{fill:#695C45;}
	.st6{fill:#33302E;}
	.st7{fill:none;stroke:#FFC8A6;stroke-miterlimit:10;}
	.st8{fill:#36349B;}
	.st9{fill:#E0E0E0;}
	.st10{fill:#7DC242;}
	.st11{fill:#5E912D;}
	.st12{fill:#FFF6A3;}
	.st13{fill:#AD9E31;}
</style>
<polygon class="st0" points="220.11,183.39 221.71,204.63 204.55,204.63 202.7,184.1 "/>
<path class="st1" d="M214.68,104.24l-3.4-16.42c-0.91-3.65-4.61-5.87-8.25-4.96l-19.82,4.95c-3.65,0.91-5.87,4.61-4.96,8.25
	l6.31,19.11l-4.46,11.42c-0.67,1.71-2.22,2.93-4.04,3.17l-3.1,0.41c0,0-2.77,10.54,11.24,15.43c14.34,5.01,19.54-4.28,19.54-4.28
	l-2.01-2.5c-1.09-1.36-1.41-3.19-0.83-4.84l2.04-5.81c3.36,0.14,6.42-0.25,8.3-0.97C217.89,124.65,216.62,112,214.68,104.24z"/>
<path class="st2" d="M175.59,129.05c0,0,6.78,15.61,25.67,9.06c0,0,16.29,7.65,21.17,25.47c2.56,9.36,4.55,25,4.55,25l-27.92,1.63
	c0,0-12.94,22.77-29.08,48.94l-20.28-47.24l6.46-60.66L175.59,129.05z"/>
<path class="st3" d="M195.5,187.1c0,0,17.45-2.38,31.01-1.94"/>
<path class="st4" d="M188.26,97.37c0.34-1.6,1.5-2.98,3.16-3.52c1.42-0.47,2.75-0.23,3.87,0.53"/>
<path class="st4" d="M208.44,91.4c-1.22-1.09-2.97-1.52-4.63-0.97c-1.55,0.51-2.52,1.62-2.92,3.07c0,0,2.59,8.21,4.07,10.34
	c2.32,3.33,5.25,2.47,5.92,4.53c0.67,2.06-4.02,3.23-4.02,3.23l1.21,3.53c0,0-5.31,1.29-7.9,3.09"/>
<path class="st5" d="M208.36,95.13c0.27,0.83-0.18,1.72-1.01,1.99s-1.72-0.18-1.99-1.01c-0.27-0.83,0.18-1.72,1.01-1.99
	C207.2,93.85,208.09,94.31,208.36,95.13z"/>
<path class="st5" d="M196.79,97.18c0.27,0.83-0.18,1.72-1.01,1.99c-0.83,0.27-1.72-0.18-1.99-1.01c-0.27-0.83,0.18-1.72,1.01-1.99
	C195.63,95.9,196.52,96.35,196.79,97.18z"/>
<path class="st6" d="M182.42,91.34c0,0-0.23-4.18-4.31-1.74c-3.5,2.09-7.97,6.47-3.85,16c5.11,11.83,10.3,9.57,10.3,9.57
	s-1.48-4.89-1.06-9.04C183.92,102,183.72,98.12,182.42,91.34z"/>
<line class="st4" x1="208.44" y1="118.21" x2="206.24" y2="119.2"/>
<path class="st4" d="M198.96,116.59c0,0,1.71,1.22,2.35,3.25"/>
<path class="st7" d="M187,118.21c0,0,5.52,9.24,15.95,9.97"/>
<path class="st1" d="M185.58,102.37c0,0-4.47-5.4-7.55-1.33c-2.7,3.56,0.96,10.07,6.41,11.71L185.58,102.37z"/>
<path class="st4" d="M179.37,104.18c-0.03-0.67,0.49-2.4,1.75-2.45c1.54-0.07,3.86,2.27,3.5,3.63c-0.36,1.36-1.73,0.9-1.97,1.65
	c-0.49,1.53,2.05,2.48,2.05,2.48"/>
<path class="st3" d="M170.72,129.6c0,0,7.48,23.89,35.51,11.56"/>
<path class="st8" d="M193.71,165.82c0.39-2.43-2.38-4.14-4.32-2.64c-4.66,3.6-10.33,11.14-15.16,18.33l20.66,15.95
	c0.76-1.31,1.43-2.47,1.99-3.45v0C192.62,181.65,192.7,172.07,193.71,165.82z"/>
<g>
	<path class="st9" d="M108.09,123.46v90.84h17.01v26.55h-17.01v27.58H81.13v-27.58H3.56l-2.49-27.79l65.33-89.6H108.09z
		 M81.13,214.3v-67.2l-49.15,67.2H81.13z"/>
	<path class="st9" d="M136.51,114.55c0-86.69,127.34-86.48,127.34,0v91.66c0,86.48-127.34,86.69-127.34,0V114.55z M163.68,206.21
		c0,52.68,73,52.68,73,0v-91.66c0-51.85-73-52.47-73,0V206.21z"/>
	<path class="st9" d="M382.9,123.46v90.84h17.01v26.55H382.9v27.58h-26.96v-27.58h-77.57l-2.49-27.79l65.33-89.6H382.9z
		 M355.94,214.3v-67.2l-49.15,67.2H355.94z"/>
</g>
<g>
	<path class="st1" d="M215.8,195.02l-42.13-19.86c-1.31-0.62-2.2-1.88-2.31-3.33c-0.18-2.36-0.96-6.17-3.87-9.4
		c-3.77-4.19-12.47-7.03-12.47-7.03l-2.57,9.77c-0.44,1.66,0.16,3.42,1.53,4.46c1.41,1.08,3.09,2.69,3.83,4.64
		c1.4,3.69,1.33,9.52,8.5,10.54l40.65,27.57c5.18,3.1,11.97,0.82,14.15-4.95C222.93,202.61,220.45,197.22,215.8,195.02z"/>
	<path class="st7" d="M154.03,158.05c0,0,8.01,2.41,11.27,7.1"/>
	<path class="st7" d="M153.27,161.45c0,0,6.75,1.64,9.06,6.92"/>
	<path class="st7" d="M152.58,164.68c0,0,5.59,1.56,7.39,6.69"/>
	<line class="st7" x1="166.65" y1="163.58" x2="164.17" y2="166.11"/>
</g>
<path class="st10" d="M173.09,95.62c0,0,47.17-11.2,54.08-16.99c3.37-2.83-17.56,1.34-17.56,1.34l-7.73-16.92
	c0,0-24.2,0.01-30,12.61C168.71,82.52,173.09,95.62,173.09,95.62z"/>
<path class="st11" d="M185.58,72.74c-2.72,5.1,2.05,16.14,2.05,16.14l21.99-8.91l-7.73-16.92C201.88,63.05,189.7,65.02,185.58,72.74
	z"/>
<path class="st12" d="M292.15,6.16h-39.27c-7.08,0-12.81,5.74-12.81,12.81v22.29c0,7.08,5.74,12.81,12.81,12.81h10.57
	c2.67,0,4.35,2.96,2.91,5.21c-1.23,1.91-3.42,3.46-7.26,3.73c-0.96,0.07-1.36,1.29-0.63,1.92c4.67,4.02,16.06,4.13,18.81-8.2
	c0.35-1.57,1.8-2.65,3.41-2.65h11.47c7.08,0,12.81-5.74,12.81-12.81V18.97C304.96,11.9,299.22,6.16,292.15,6.16z"/>
<g>
	<path class="st13" d="M253.44,21.16h1.64l1.17,4.93h0.06l1.3-4.93h1.4l1.29,4.94h0.06l1.17-4.94h1.64l-2.03,7.09h-1.46l-1.35-4.64
		h-0.06l-1.35,4.64h-1.46L253.44,21.16z"/>
	<path class="st13" d="M265.42,28.25h-1.48v-7.09h1.43v2.71h0.06c0.24-0.63,0.78-1.01,1.59-1.01c1.11,0,1.84,0.76,1.84,2v3.39h-1.48
		v-3.12c0-0.65-0.35-1.04-0.95-1.04c-0.6,0-1.02,0.4-1.03,1.09V28.25z"/>
	<path class="st13" d="M269.82,30.09l0.33-1.1c0.52,0.16,0.88,0.13,1.08-0.35l0.09-0.23l-1.91-5.47h1.55l1.1,3.91h0.06l1.11-3.91
		l1.56,0.01l-2.07,5.89c-0.3,0.85-0.88,1.41-1.98,1.41C270.37,30.24,270.03,30.18,269.82,30.09z"/>
	<path class="st13" d="M277.56,26.77c0-1.19,0.95-1.54,2-1.64c0.92-0.09,1.29-0.13,1.29-0.48v-0.02c0-0.44-0.29-0.69-0.79-0.69
		c-0.53,0-0.85,0.26-0.95,0.61l-1.37-0.11c0.2-0.97,1.04-1.58,2.32-1.58c1.18,0,2.26,0.53,2.26,1.8v3.59h-1.4v-0.74h-0.04
		c-0.26,0.5-0.77,0.84-1.56,0.84C278.31,28.35,277.56,27.82,277.56,26.77z M280.86,26.35v-0.56c-0.18,0.12-0.7,0.19-1.03,0.24
		c-0.52,0.07-0.86,0.28-0.86,0.69c0,0.41,0.33,0.62,0.78,0.62C280.4,27.34,280.86,26.91,280.86,26.35z"/>
	<path class="st13" d="M283.47,22.93h1.41v0.94h0.06c0.22-0.63,0.77-1.01,1.48-1.01c0.73,0,1.27,0.39,1.44,1.01h0.06
		c0.22-0.61,0.82-1.01,1.6-1.01c0.99,0,1.68,0.66,1.68,1.81v3.58h-1.47v-3.29c0-0.59-0.35-0.89-0.82-0.89
		c-0.54,0-0.85,0.37-0.85,0.92v3.25h-1.43v-3.32c0-0.52-0.33-0.86-0.81-0.86c-0.49,0-0.87,0.39-0.87,0.98v3.19h-1.48V22.93z"/>
	<path class="st13" d="M258.65,39.95h-1.5v-7.09h1.5V39.95z"/>
	<path class="st13" d="M263.59,39.95h-1.48v-7.09h1.43v2.71h0.06c0.24-0.63,0.78-1.01,1.59-1.01c1.11,0,1.84,0.76,1.84,2v3.39h-1.48
		v-3.12c0-0.65-0.35-1.04-0.95-1.04c-0.6,0-1.02,0.4-1.03,1.09V39.95z"/>
	<path class="st13" d="M267.99,37.32c0-1.64,1.01-2.75,2.58-2.75c1.41,0,2.5,0.89,2.5,2.7v0.41h-3.62v0c0,0.79,0.47,1.28,1.21,1.28
		c0.49,0,0.87-0.21,1.02-0.62l1.36,0.09c-0.21,0.99-1.09,1.63-2.41,1.63C268.99,40.06,267.99,39,267.99,37.32z M271.68,36.76
		c0-0.63-0.45-1.09-1.09-1.09c-0.65,0-1.12,0.48-1.15,1.09H271.68z"/>
	<path class="st13" d="M274.03,34.63h1.43v0.93h0.06c0.19-0.66,0.68-1,1.28-1c0.15,0,0.33,0.02,0.46,0.05v1.31
		c-0.14-0.04-0.42-0.08-0.62-0.08c-0.65,0-1.13,0.45-1.13,1.1v3.01h-1.48V34.63z"/>
	<path class="st13" d="M277.55,37.32c0-1.64,1.01-2.75,2.58-2.75c1.41,0,2.5,0.89,2.5,2.7v0.41h-3.62v0c0,0.79,0.47,1.28,1.21,1.28
		c0.49,0,0.87-0.21,1.02-0.62l1.36,0.09c-0.21,0.99-1.09,1.63-2.41,1.63C278.56,40.06,277.55,39,277.55,37.32z M281.25,36.76
		c0-0.63-0.45-1.09-1.09-1.09c-0.65,0-1.12,0.48-1.15,1.09H281.25z"/>
	<path class="st13" d="M284.86,37.71c0-1.21,0.33-1.58,0.91-1.95c0.43-0.27,0.75-0.57,0.75-1.02c0-0.48-0.38-0.79-0.84-0.79
		c-0.45,0-0.87,0.3-0.89,0.87h-1.41c0.03-1.39,1.06-2.04,2.31-2.04c1.38,0,2.35,0.71,2.35,1.92c0,0.81-0.42,1.32-1.07,1.71
		c-0.55,0.33-0.79,0.64-0.8,1.32v0.12h-1.31V37.71z M284.72,39.21c0-0.45,0.37-0.82,0.83-0.82c0.44,0,0.83,0.37,0.83,0.82
		c0,0.46-0.39,0.83-0.83,0.83C285.09,40.04,284.71,39.67,284.72,39.21z"/>
</g>
</svg>
