<?xml version="1.0" encoding="utf-8"?>
<!-- Generator: Adobe Illustrator 24.2.3, SVG Export Plug-In . SVG Version: 6.00 Build 0)  -->
<svg version="1.1" id="Capa_1" xmlns="http://www.w3.org/2000/svg" xmlns:xlink="http://www.w3.org/1999/xlink" x="0px" y="0px"
	 viewBox="0 0 512 512" style="enable-background:new 0 0 512 512;" xml:space="preserve">
<style type="text/css">
	.st0{fill:#362E8B;}
</style>
<path class="st0" d="M452,40h-24V0h-40v40H124V0H84v40H60C26.9,40,0,66.9,0,100v352c0,33.1,26.9,60,60,60h392c33.1,0,60-26.9,60-60
	V100C512,66.9,485.1,40,452,40z M60,80h24v40h40V80h264v40h40V80h24c11,0,20,9,20,20v48H40v-48C40,89,49,80,60,80z M452,472H60
	c-11,0-20-9-20-20V188h432v264C472,463,463,472,452,472z M76,230h40v40H76V230z M156,230h40v40h-40V230z M236,230h40v40h-40V230z
	 M356,270h-40v-40h40V270z M436,270h-40v-40h40V270z M76,310h40v40H76V310z M156,310h40v40h-40V310z M236,310h40v40h-40V310z
	 M76,390h40v40H76V390z M156,390h40v40h-40V390z M236,390h40v40h-40V390z M442,354.9l-33,31.5l7.8,44.5L376,410l-40.8,21l7.8-44.5
	l-33-31.5l45.6-6.5l20.4-40.5l20.4,40.5L442,354.9z"/>
</svg>
