<?xml version="1.0" encoding="utf-8"?>
<!-- Generator: Adobe Illustrator 24.1.1, SVG Export Plug-In . SVG Version: 6.00 Build 0)  -->
<svg version="1.1" id="Layer_1" xmlns="http://www.w3.org/2000/svg" xmlns:xlink="http://www.w3.org/1999/xlink" x="0px" y="0px"
	 viewBox="0 0 200 200" style="enable-background:new 0 0 200 200;" xml:space="preserve">
<style type="text/css">
	.st0{fill:#CABCD8;}
</style>
<g>
	<path class="st0" d="M100,129.38c-26.5,0-48.06,21.56-48.06,48.06c0,1.53,0.08,3.05,0.22,4.55c14.36,8.41,30.76,12.91,47.84,12.91
		s33.48-4.49,47.84-12.91c0.14-1.5,0.22-3.01,0.22-4.55C148.06,150.94,126.5,129.38,100,129.38z"/>
	<path class="st0" d="M167.1,32.9C149.18,14.98,125.35,5.11,100,5.11S50.82,14.98,32.9,32.9S5.11,74.65,5.11,100
		c0,25.35,9.87,49.18,27.79,67.1c2.55,2.55,5.23,4.93,8.01,7.15c1.24-23.3,16.03-43.06,36.61-51.55
		c-11.31-7.37-18.8-20.13-18.8-34.62c0-22.77,18.52-41.29,41.29-41.29s41.29,18.52,41.29,41.29c0,14.48-7.49,27.24-18.8,34.62
		c20.58,8.48,35.36,28.25,36.61,51.55c2.78-2.22,5.45-4.6,8.01-7.15c17.92-17.92,27.79-41.75,27.79-67.1
		C194.89,74.65,185.02,50.82,167.1,32.9z"/>
	<path class="st0" d="M130.17,88.09c0-16.64-13.54-30.17-30.17-30.17S69.83,71.45,69.83,88.09s13.54,30.17,30.17,30.17
		S130.17,104.73,130.17,88.09z"/>
</g>
</svg>
