<?xml version="1.0" encoding="utf-8"?>
<!-- Generator: Adobe Illustrator 25.0.1, SVG Export Plug-In . SVG Version: 6.00 Build 0)  -->
<svg version="1.1" id="Layer_1" xmlns="http://www.w3.org/2000/svg" xmlns:xlink="http://www.w3.org/1999/xlink" x="0px" y="0px"
	 viewBox="0 0 300 300" style="enable-background:new 0 0 300 300;" xml:space="preserve">
<style type="text/css">
	.st0{fill:#CABCD8;}
</style>
<path class="st0" d="M65.59,221.38l17.3-8.12v37.55c-8.56,2.7-14.79,10.71-14.79,20.15c0,0.77,0.04,1.57,0.12,2.4
	c11.05,7.34,23.14,13.23,36.01,17.41c3.78-6.3,6.12-14.02,6.12-19.81c0-9.44-6.23-17.46-14.79-20.15v-43.5l8.01-3.76
	c1.6,2.01,46.43,63.54,46.43,63.54s44.83-61.53,46.43-63.54l8.01,3.76v34.71c-10.18,2.42-17.78,11.59-17.78,22.5v28.9
	c12.43-3.17,24.23-7.91,35.17-14h-22.5v-14.9c0-5.76,4.69-10.45,10.45-10.45h1.97c5.77,0,10.45,4.69,10.45,10.45v14.68
	c4.37-2.45,8.6-5.1,12.68-7.97v-6.72c0-10.91-7.6-20.08-17.78-22.5v-28.76l17.3,8.12c12.26,5.75,20.82,17.22,23.12,30.31
	C282.61,225.17,298,189.38,298,150C298,68.26,231.74,2,150,2S2,68.26,2,150c0,39.38,15.39,75.17,40.47,101.69
	C44.78,238.6,53.33,227.13,65.59,221.38z M150,245.26l-15.21-21.33c4.93,1.31,10.04,1.98,15.21,1.98s10.28-0.68,15.21-1.98
	L150,245.26z M103.26,122.5c0-25.81,20.93-46.74,46.74-46.74c25.81,0,46.74,20.93,46.74,46.74v6.36
	c-20.76-5.94-29.12-19.84-29.47-20.43l-4.68-8.22l-5.82,7.45c-0.15,0.2-15.43,19.25-53.5,26.34V122.5z M101.67,147.08l1.59-0.22
	c31.13-5.31,49.44-18.12,57.87-25.65c5.82,6.59,17.15,16.38,35.61,20.73v5.07h0.33c7.57,0,13.7,6.13,13.7,13.7
	c0,7.57-6.13,13.7-13.7,13.7h-1c-3.76,22.04-22.96,38.82-46.07,38.82s-42.3-16.78-46.07-38.82h-1c-7.57,0-13.7-6.13-13.7-13.7
	C89.23,153.58,94.69,147.72,101.67,147.08z M89.23,262.52c4.67,0,8.45,3.78,8.45,8.45s-3.78,8.45-8.45,8.45s-8.45-3.78-8.45-8.45
	S84.56,262.52,89.23,262.52z"/>
</svg>
