<?xml version="1.0" encoding="utf-8"?>
<!-- Generator: Adobe Illustrator 25.4.1, SVG Export Plug-In . SVG Version: 6.00 Build 0)  -->
<svg version="1.1" id="Layer_1" xmlns="http://www.w3.org/2000/svg" xmlns:xlink="http://www.w3.org/1999/xlink" x="0px" y="0px"
	 viewBox="0 0 200 200" style="enable-background:new 0 0 200 200;" xml:space="preserve">
<style type="text/css">
	.st0{fill:#E5D9E8;}
	.st1{fill:#C79ED8;}
</style>
<g>
	<rect x="3" y="3" class="st0" width="194" height="194"/>
</g>
<g>
	<path class="st1" d="M135.9,78.1V46.9H65.3v31.2H34.1v86.2h133V78.1H135.9z M41.9,156.5V85.9h23.4v70.6H41.9z M112.3,156.5h-7.8
		v-8.2h7.8V156.5z M96.7,156.5h-7.8v-8.2h7.8V156.5z M128.1,156.5h-8v-16h-39v16h-8V54.7h55V156.5z M159.3,156.5h-23.4V85.9h23.4
		V156.5z"/>
	<path class="st1" d="M96.7,85.9h7.8v-7.8h7.8v-7.8h-7.8v-7.8h-7.8v7.8h-7.8v7.8h7.8V85.9z"/>
	<path class="st1" d="M49.7,109.3h7.8v7.8h-7.8V109.3z"/>
	<path class="st1" d="M49.7,124.9h7.8v7.8h-7.8V124.9z"/>
	<path class="st1" d="M143.7,109.3h7.8v7.8h-7.8V109.3z"/>
	<path class="st1" d="M49.7,93.7h7.8v7.8h-7.8V93.7z"/>
	<path class="st1" d="M143.7,93.7h7.8v7.8h-7.8V93.7z"/>
	<path class="st1" d="M143.7,124.9h7.8v7.8h-7.8V124.9z"/>
	<path class="st1" d="M96.7,93.7h7.8v7.8h-7.8L96.7,93.7z"/>
	<path class="st1" d="M81.1,93.7h7.8v7.8h-7.8V93.7z"/>
	<path class="st1" d="M112.3,93.7h7.8v7.8h-7.8V93.7z"/>
	<path class="st1" d="M96.7,109.3h7.8v7.8h-7.8L96.7,109.3z"/>
	<path class="st1" d="M81.1,109.3h7.8v7.8h-7.8V109.3z"/>
	<path class="st1" d="M112.3,109.3h7.8v7.8h-7.8V109.3z"/>
	<path class="st1" d="M96.7,124.9h7.8v7.8h-7.8L96.7,124.9z"/>
	<path class="st1" d="M81.1,124.9h7.8v7.8h-7.8V124.9z"/>
	<path class="st1" d="M112.3,124.9h7.8v7.8h-7.8V124.9z"/>
</g>
</svg>
