<?xml version="1.0" encoding="utf-8"?>
<!-- Generator: Adobe Illustrator 24.1.1, SVG Export Plug-In . SVG Version: 6.00 Build 0)  -->
<svg version="1.1" id="Layer_1" xmlns="http://www.w3.org/2000/svg" xmlns:xlink="http://www.w3.org/1999/xlink" x="0px" y="0px"
	 viewBox="0 0 320 100" style="enable-background:new 0 0 320 100;" xml:space="preserve">
<style type="text/css">
	.st0{fill:#A6A6A6;}
	.st1{fill:#FFFFFF;stroke:#FFFFFF;stroke-width:0.2;stroke-miterlimit:10;}
	.st2{fill:#FFFFFF;}
	.st3{fill:url(#SVGID_1_);}
	.st4{fill:url(#SVGID_2_);}
	.st5{fill:url(#SVGID_3_);}
	.st6{fill:url(#SVGID_4_);}
	.st7{opacity:0.2;enable-background:new    ;}
	.st8{opacity:0.12;enable-background:new    ;}
	.st9{opacity:0.25;fill:#FFFFFF;enable-background:new    ;}
</style>
<g>
	<g>
		<path d="M304.47,96.75H16.19c-6.34,0-11.53-5.19-11.53-11.53V16.03C4.66,9.69,9.85,4.5,16.19,4.5h288.28
			c6.34,0,11.53,5.19,11.53,11.53v69.19C316,91.56,310.81,96.75,304.47,96.75z"/>
	</g>
	<g>
		<g>
			<path class="st0" d="M304.47,6.34c5.34,0,9.69,4.35,9.69,9.69v69.19c0,5.34-4.34,9.69-9.69,9.69H16.19
				c-5.34,0-9.69-4.35-9.69-9.69V16.03c0-5.34,4.34-9.69,9.69-9.69H304.47 M304.47,4.5H16.19C9.85,4.5,4.66,9.69,4.66,16.03v69.19
				c0,6.34,5.19,11.53,11.53,11.53h288.28c6.34,0,11.53-5.19,11.53-11.53V16.03C316,9.69,310.81,4.5,304.47,4.5L304.47,4.5z"/>
		</g>
	</g>
	<g>
		<path class="st1" d="M114.02,28.12c0,1.93-0.57,3.47-1.72,4.62c-1.3,1.36-3,2.05-5.08,2.05c-2,0-3.7-0.69-5.09-2.08
			c-1.4-1.39-2.1-3.1-2.1-5.15c0-2.05,0.7-3.77,2.1-5.15c1.4-1.39,3.09-2.08,5.09-2.08c0.99,0,1.94,0.19,2.84,0.58
			c0.9,0.39,1.62,0.9,2.16,1.55L111,23.67c-0.92-1.09-2.18-1.64-3.79-1.64c-1.46,0-2.72,0.51-3.78,1.54
			c-1.06,1.02-1.59,2.35-1.59,3.99c0,1.64,0.53,2.97,1.59,3.99c1.06,1.02,2.32,1.54,3.78,1.54c1.55,0,2.83-0.51,3.86-1.54
			c0.67-0.67,1.06-1.6,1.16-2.8h-5.02v-1.66h6.7C113.98,27.44,114.02,27.79,114.02,28.12z"/>
		<path class="st1" d="M124.65,22.34h-6.3v4.39h5.68v1.66h-5.68v4.39h6.3v1.7h-8.08V20.64h8.08V22.34z"/>
		<path class="st1" d="M132.14,34.48h-1.78V22.34h-3.86v-1.7h9.51v1.7h-3.86V34.48z"/>
		<path class="st1" d="M142.89,34.48V20.64h1.78v13.84H142.89z"/>
		<path class="st1" d="M152.55,34.48h-1.78V22.34h-3.86v-1.7h9.51v1.7h-3.86V34.48z"/>
		<path class="st1" d="M174.42,32.69c-1.36,1.4-3.05,2.1-5.07,2.1c-2.02,0-3.71-0.7-5.07-2.1c-1.36-1.4-2.04-3.11-2.04-5.13
			s0.68-3.73,2.04-5.13c1.36-1.4,3.05-2.1,5.07-2.1c2.01,0,3.7,0.7,5.07,2.11c1.36,1.4,2.05,3.11,2.05,5.12
			C176.46,29.58,175.78,31.29,174.42,32.69z M165.59,31.53c1.02,1.04,2.28,1.56,3.76,1.56c1.48,0,2.74-0.52,3.76-1.56
			c1.02-1.04,1.54-2.36,1.54-3.97c0-1.61-0.51-2.93-1.54-3.97c-1.02-1.04-2.28-1.56-3.76-1.56c-1.48,0-2.73,0.52-3.76,1.56
			c-1.02,1.04-1.54,2.36-1.54,3.97C164.05,29.17,164.56,30.49,165.59,31.53z"/>
		<path class="st1" d="M178.95,34.48V20.64h2.16l6.72,10.76h0.08l-0.08-2.67v-8.1h1.78v13.84h-1.86l-7.04-11.29h-0.08l0.08,2.67
			v8.62H178.95z"/>
	</g>
	<path class="st2" d="M161.8,54.66c-5.42,0-9.85,4.12-9.85,9.81c0,5.65,4.42,9.81,9.85,9.81c5.42,0,9.85-4.16,9.85-9.81
		C171.64,58.79,167.22,54.66,161.8,54.66z M161.8,70.42c-2.97,0-5.54-2.45-5.54-5.94c0-3.53,2.56-5.94,5.54-5.94
		s5.54,2.41,5.54,5.94C167.33,67.96,164.77,70.42,161.8,70.42z M140.32,54.66c-5.42,0-9.85,4.12-9.85,9.81
		c0,5.65,4.42,9.81,9.85,9.81c5.42,0,9.85-4.16,9.85-9.81C150.16,58.79,145.74,54.66,140.32,54.66z M140.32,70.42
		c-2.97,0-5.54-2.45-5.54-5.94c0-3.53,2.56-5.94,5.54-5.94c2.97,0,5.54,2.41,5.54,5.94C145.85,67.96,143.29,70.42,140.32,70.42z
		 M114.77,57.67v4.16h9.96c-0.3,2.34-1.08,4.05-2.27,5.24c-1.45,1.45-3.72,3.05-7.69,3.05c-6.13,0-10.92-4.94-10.92-11.07
		s4.79-11.07,10.92-11.07c3.31,0,5.72,1.3,7.51,2.97l2.94-2.94c-2.49-2.38-5.8-4.2-10.44-4.2c-8.4,0-15.46,6.84-15.46,15.23
		c0,8.4,7.06,15.23,15.46,15.23c4.53,0,7.95-1.49,10.63-4.27c2.75-2.75,3.6-6.61,3.6-9.73c0-0.97-0.07-1.86-0.22-2.6H114.77z
		 M219.26,60.9c-0.82-2.19-3.31-6.24-8.4-6.24c-5.05,0-9.25,3.98-9.25,9.81c0,5.5,4.16,9.81,9.73,9.81c4.5,0,7.1-2.75,8.17-4.35
		l-3.34-2.23c-1.11,1.63-2.64,2.71-4.83,2.71c-2.19,0-3.75-1-4.76-2.97l13.12-5.42L219.26,60.9z M205.88,64.17
		c-0.11-3.79,2.94-5.72,5.13-5.72c1.71,0,3.16,0.85,3.64,2.08L205.88,64.17z M195.22,73.68h4.31V44.85h-4.31V73.68z M188.16,56.85
		h-0.15c-0.97-1.15-2.82-2.19-5.16-2.19c-4.9,0-9.4,4.31-9.4,9.85c0,5.5,4.5,9.77,9.4,9.77c2.34,0,4.2-1.04,5.16-2.23h0.15v1.41
		c0,3.75-2.01,5.76-5.24,5.76c-2.64,0-4.27-1.89-4.94-3.49l-3.75,1.56c1.08,2.6,3.94,5.8,8.69,5.8c5.05,0,9.33-2.97,9.33-10.22
		V55.26h-4.09V56.85z M183.22,70.42c-2.97,0-5.46-2.49-5.46-5.91c0-3.46,2.49-5.98,5.46-5.98c2.94,0,5.24,2.53,5.24,5.98
		C188.46,67.93,186.15,70.42,183.22,70.42z M239.45,44.85h-10.31v28.83h4.3V62.76h6.01c4.77,0,9.46-3.45,9.46-8.95
		S244.22,44.85,239.45,44.85z M239.56,58.75h-6.12v-9.88h6.12c3.22,0,5.04,2.66,5.04,4.94C244.6,56.04,242.78,58.75,239.56,58.75z
		 M266.15,54.61c-3.12,0-6.34,1.37-7.68,4.41l3.82,1.59c0.82-1.59,2.34-2.11,3.93-2.11c2.23,0,4.49,1.34,4.53,3.71v0.3
		c-0.78-0.45-2.45-1.11-4.49-1.11c-4.12,0-8.31,2.26-8.31,6.49c0,3.86,3.38,6.34,7.16,6.34c2.89,0,4.49-1.3,5.49-2.82h0.15v2.23
		h4.15V62.58C274.91,57.46,271.09,54.61,266.15,54.61z M265.63,70.41c-1.41,0-3.38-0.7-3.38-2.45c0-2.23,2.45-3.08,4.56-3.08
		c1.89,0,2.78,0.41,3.93,0.96C270.42,68.52,268.12,70.41,265.63,70.41z M290.04,55.24l-4.93,12.5h-0.15l-5.12-12.5h-4.64l7.68,17.47
		l-4.38,9.72h4.49l11.83-27.19H290.04z M251.28,73.68h4.3V44.85h-4.3V73.68z"/>
	<g>
		
			<linearGradient id="SVGID_1_" gradientUnits="userSpaceOnUse" x1="54.9337" y1="77.4158" x2="16.2296" y2="38.7117" gradientTransform="matrix(1 0 0 -1 0 102)">
			<stop  offset="0" style="stop-color:#00A0FF"/>
			<stop  offset="6.574450e-03" style="stop-color:#00A1FF"/>
			<stop  offset="0.2601" style="stop-color:#00BEFF"/>
			<stop  offset="0.5122" style="stop-color:#00D2FF"/>
			<stop  offset="0.7604" style="stop-color:#00DFFF"/>
			<stop  offset="1" style="stop-color:#00E3FF"/>
		</linearGradient>
		<path class="st3" d="M28.72,21.88c-0.67,0.71-1.07,1.81-1.07,3.24v51c0,1.43,0.4,2.53,1.07,3.24l0.17,0.17l28.57-28.57v-0.34
			v-0.34L28.9,21.71L28.72,21.88z"/>
		
			<linearGradient id="SVGID_2_" gradientUnits="userSpaceOnUse" x1="82.6884" y1="51.3745" x2="26.8848" y2="51.3745" gradientTransform="matrix(1 0 0 -1 0 102)">
			<stop  offset="0" style="stop-color:#FFE000"/>
			<stop  offset="0.4087" style="stop-color:#FFBD00"/>
			<stop  offset="0.7754" style="stop-color:#FFA500"/>
			<stop  offset="1" style="stop-color:#FF9C00"/>
		</linearGradient>
		<path class="st4" d="M66.99,60.49l-9.52-9.53v-0.34v-0.34l9.53-9.53l0.21,0.12l11.28,6.41c3.22,1.83,3.22,4.83,0,6.66l-11.28,6.41
			L66.99,60.49z"/>
		
			<linearGradient id="SVGID_3_" gradientUnits="userSpaceOnUse" x1="61.9152" y1="46.0825" x2="9.4293" y2="-6.4034" gradientTransform="matrix(1 0 0 -1 0 102)">
			<stop  offset="0" style="stop-color:#FF3A44"/>
			<stop  offset="1" style="stop-color:#C31162"/>
		</linearGradient>
		<path class="st5" d="M67.21,60.37l-9.74-9.74L28.72,79.37c1.06,1.12,2.82,1.26,4.79,0.14L67.21,60.37"/>
		
			<linearGradient id="SVGID_4_" gradientUnits="userSpaceOnUse" x1="21.4878" y1="97.0961" x2="44.925" y2="73.659" gradientTransform="matrix(1 0 0 -1 0 102)">
			<stop  offset="0" style="stop-color:#32A071"/>
			<stop  offset="0.0685" style="stop-color:#2DA771"/>
			<stop  offset="0.4762" style="stop-color:#15CF74"/>
			<stop  offset="0.8009" style="stop-color:#06E775"/>
			<stop  offset="1" style="stop-color:#00F076"/>
		</linearGradient>
		<path class="st6" d="M67.21,40.88L33.52,21.74c-1.98-1.12-3.73-0.98-4.79,0.14l28.74,28.74L67.21,40.88z"/>
		<g>
			<path class="st7" d="M66.99,60.15L33.52,79.17c-1.87,1.06-3.55,0.99-4.62,0.02l0,0l-0.17,0.17l0,0l0.17,0.17l0,0
				c1.07,0.97,2.75,1.04,4.62-0.02l33.69-19.14L66.99,60.15z"/>
			<path class="st8" d="M28.72,79.03c-0.67-0.71-1.07-1.81-1.07-3.24v0.34c0,1.43,0.4,2.53,1.07,3.24l0.17-0.17L28.72,79.03z"/>
		</g>
		<path class="st8" d="M78.49,53.62l-11.5,6.53l0.21,0.21l11.28-6.41c1.61-0.92,2.42-2.12,2.42-3.33l0,0
			C80.77,51.72,79.95,52.79,78.49,53.62z"/>
		<path class="st9" d="M33.52,22.08l44.97,25.55c1.46,0.83,2.28,1.9,2.42,2.99l0,0c0-1.21-0.81-2.41-2.42-3.33L33.52,21.74
			c-3.22-1.83-5.86-0.31-5.86,3.38v0.34C27.66,21.77,30.29,20.25,33.52,22.08z"/>
	</g>
</g>
</svg>
