<?xml version="1.0" encoding="utf-8"?>
<!-- Generator: Adobe Illustrator 24.1.1, SVG Export Plug-In . SVG Version: 6.00 Build 0)  -->
<svg version="1.1" id="Layer_1" xmlns="http://www.w3.org/2000/svg" xmlns:xlink="http://www.w3.org/1999/xlink" x="0px" y="0px"
	 viewBox="0 0 290 100" style="enable-background:new 0 0 290 100;" xml:space="preserve">
<style type="text/css">
	.st0{fill:#B6B6B6;}
	.st1{fill:#FFFFFF;}
</style>
<g>
	<g>
		<g>
			<g>
				<path class="st0" d="M262.89,3.09H27.19c-0.86,0-1.71,0-2.56,0c-0.72,0-1.43,0.02-2.15,0.03c-1.56,0.04-3.14,0.13-4.7,0.41
					C16.21,3.81,14.75,4.28,13.32,5c-1.4,0.72-2.68,1.65-3.79,2.76c-1.12,1.11-2.05,2.4-2.76,3.8c-0.73,1.43-1.19,2.89-1.46,4.46
					c-0.28,1.55-0.38,3.12-0.42,4.69c-0.02,0.72-0.02,1.44-0.04,2.16c0,0.85,0,1.7,0,2.56v49.04c0,0.87,0,1.71,0,2.56
					c0.01,0.73,0.01,1.43,0.04,2.16c0.04,1.57,0.14,3.14,0.42,4.69c0.27,1.57,0.74,3.04,1.46,4.46c0.71,1.4,1.64,2.68,2.76,3.78
					c1.11,1.12,2.39,2.05,3.79,2.76c1.43,0.73,2.89,1.19,4.45,1.48c1.56,0.28,3.14,0.37,4.7,0.41c0.72,0.02,1.44,0.03,2.15,0.03
					c0.86,0,1.71,0,2.56,0h235.7c0.84,0,1.7,0,2.54,0c0.71,0,1.45-0.01,2.16-0.03c1.57-0.04,3.14-0.13,4.69-0.41
					c1.57-0.28,3.03-0.75,4.47-1.48c1.4-0.71,2.68-1.64,3.79-2.76c1.12-1.1,2.05-2.39,2.77-3.78c0.72-1.42,1.19-2.89,1.45-4.46
					c0.29-1.55,0.38-3.12,0.43-4.69c0.01-0.73,0.01-1.43,0.01-2.16c0.02-0.85,0.02-1.7,0.02-2.56V25.43c0-0.86,0-1.71-0.02-2.56
					c0-0.72,0-1.44-0.01-2.16c-0.06-1.57-0.15-3.14-0.43-4.69c-0.27-1.57-0.73-3.03-1.45-4.46c-0.72-1.4-1.65-2.69-2.77-3.8
					c-1.11-1.11-2.39-2.04-3.79-2.76c-1.44-0.73-2.9-1.19-4.47-1.47c-1.54-0.28-3.12-0.38-4.69-0.41c-0.71-0.01-1.45-0.03-2.16-0.03
					C264.59,3.09,263.74,3.09,262.89,3.09L262.89,3.09z"/>
				<path d="M24.64,94.76c-0.71,0-1.41-0.01-2.12-0.03c-1.31-0.04-2.86-0.11-4.38-0.38c-1.43-0.26-2.7-0.68-3.88-1.28
					c-1.22-0.62-2.32-1.42-3.27-2.38c-0.97-0.95-1.77-2.05-2.39-3.27c-0.61-1.18-1.02-2.45-1.27-3.88
					c-0.29-1.58-0.36-3.18-0.39-4.39C6.92,78.64,6.9,77,6.9,77V22.87c0,0,0.02-1.62,0.03-2.1c0.03-1.23,0.1-2.83,0.39-4.39
					c0.25-1.44,0.67-2.71,1.27-3.89c0.62-1.23,1.42-2.33,2.38-3.28c0.97-0.97,2.07-1.77,3.29-2.4c1.2-0.61,2.47-1.03,3.87-1.27
					c1.58-0.28,3.18-0.35,4.39-0.38l2.11-0.03h240.78l2.14,0.03c1.2,0.03,2.8,0.1,4.35,0.38c1.41,0.25,2.69,0.67,3.91,1.28
					c1.2,0.62,2.3,1.42,3.26,2.38c0.96,0.95,1.76,2.06,2.4,3.29c0.6,1.2,1.02,2.47,1.25,3.86c0.27,1.48,0.36,3,0.41,4.42
					c0.01,0.66,0.01,1.38,0.01,2.09c0.02,0.88,0.02,1.71,0.02,2.56v49.04c0,0.85,0,1.68-0.02,2.52c0,0.76,0,1.46-0.01,2.18
					c-0.05,1.38-0.13,2.9-0.4,4.34c-0.24,1.44-0.65,2.71-1.27,3.91c-0.63,1.22-1.43,2.32-2.38,3.25c-0.97,0.98-2.07,1.78-3.28,2.4
					c-1.22,0.62-2.46,1.03-3.91,1.29c-1.5,0.27-3.05,0.35-4.38,0.38c-0.69,0.02-1.4,0.03-2.1,0.03l-2.54,0L24.64,94.76z"/>
			</g>
		</g>
		<g id="XMLID_20_">
			<g id="XMLID_22_">
				<g id="XMLID_23_">
					<path id="XMLID_25_" class="st1" d="M62.88,50.65c-0.06-6.45,5.28-9.58,5.52-9.73c-3.02-4.41-7.71-5.01-9.35-5.06
						c-3.93-0.41-7.75,2.35-9.75,2.35c-2.04,0-5.13-2.31-8.45-2.24c-4.28,0.07-8.28,2.54-10.48,6.39
						c-4.53,7.85-1.15,19.38,3.19,25.72c2.17,3.11,4.71,6.57,8.03,6.45c3.25-0.13,4.46-2.07,8.39-2.07c3.89,0,5.03,2.07,8.41,1.99
						c3.49-0.06,5.68-3.12,7.78-6.25c2.51-3.56,3.52-7.07,3.56-7.25C69.64,60.93,62.95,58.38,62.88,50.65z"/>
					<path id="XMLID_24_" class="st1" d="M56.48,31.7c1.75-2.19,2.94-5.16,2.61-8.18c-2.53,0.11-5.69,1.75-7.52,3.89
						c-1.61,1.88-3.05,4.97-2.68,7.88C51.74,35.49,54.66,33.85,56.48,31.7z"/>
				</g>
			</g>
			<g>
				<path class="st1" d="M103.96,66.67H92.87l-2.66,7.86h-4.7l10.5-29.09h4.88l10.5,29.09h-4.78L103.96,66.67z M94.02,63.05h8.79
					l-4.33-12.76h-0.12L94.02,63.05z"/>
				<path class="st1" d="M134.09,63.93c0,6.59-3.53,10.83-8.85,10.83c-3.02,0-5.42-1.35-6.67-3.71h-0.1v10.51h-4.35V53.33h4.21v3.53
					h0.08c1.21-2.28,3.79-3.75,6.75-3.75C130.54,53.1,134.09,57.36,134.09,63.93z M129.61,63.93c0-4.29-2.22-7.12-5.61-7.12
					c-3.33,0-5.56,2.88-5.56,7.12c0,4.27,2.24,7.14,5.56,7.14C127.39,71.07,129.61,68.27,129.61,63.93z"/>
				<path class="st1" d="M157.44,63.93c0,6.59-3.53,10.83-8.85,10.83c-3.02,0-5.42-1.35-6.67-3.71h-0.1v10.51h-4.35V53.33h4.21v3.53
					h0.08c1.21-2.28,3.79-3.75,6.75-3.75C153.89,53.1,157.44,57.36,157.44,63.93z M152.96,63.93c0-4.29-2.22-7.12-5.61-7.12
					c-3.33,0-5.56,2.88-5.56,7.12c0,4.27,2.24,7.14,5.56,7.14C150.74,71.07,152.96,68.27,152.96,63.93z"/>
				<path class="st1" d="M172.87,66.43c0.32,2.89,3.13,4.78,6.96,4.78c3.67,0,6.31-1.89,6.31-4.5c0-2.26-1.59-3.61-5.36-4.54
					L177,61.27c-5.34-1.29-7.82-3.79-7.82-7.84c0-5.02,4.37-8.47,10.59-8.47c6.15,0,10.36,3.45,10.5,8.47h-4.4
					c-0.26-2.9-2.66-4.66-6.17-4.66c-3.51,0-5.91,1.77-5.91,4.35c0,2.06,1.53,3.27,5.28,4.19l3.21,0.79
					c5.97,1.41,8.45,3.81,8.45,8.07c0,5.44-4.34,8.85-11.23,8.85c-6.45,0-10.81-3.33-11.09-8.59H172.87z"/>
				<path class="st1" d="M200.13,48.31v5.02h4.03v3.45h-4.03v11.69c0,1.82,0.81,2.66,2.58,2.66c0.44,0,1.15-0.06,1.43-0.1v3.43
					c-0.48,0.12-1.45,0.2-2.42,0.2c-4.29,0-5.97-1.61-5.97-5.73V56.77h-3.08v-3.45h3.08v-5.02H200.13z"/>
				<path class="st1" d="M206.5,63.93c0-6.67,3.93-10.87,10.06-10.87c6.15,0,10.06,4.19,10.06,10.87c0,6.69-3.89,10.87-10.06,10.87
					C210.39,74.8,206.5,70.63,206.5,63.93z M222.19,63.93c0-4.58-2.1-7.28-5.63-7.28c-3.53,0-5.62,2.72-5.62,7.28
					c0,4.6,2.1,7.28,5.62,7.28C220.09,71.21,222.19,68.53,222.19,63.93z"/>
				<path class="st1" d="M230.21,53.33h4.15v3.61h0.1c0.67-2.4,2.6-3.83,5.1-3.83c0.62,0,1.15,0.08,1.49,0.16v4.07
					c-0.34-0.14-1.11-0.26-1.96-0.26c-2.8,0-4.54,1.9-4.54,4.88v12.58h-4.35V53.33z"/>
				<path class="st1" d="M261.14,68.31c-0.59,3.85-4.34,6.49-9.13,6.49c-6.17,0-10-4.13-10-10.77c0-6.65,3.85-10.97,9.82-10.97
					c5.87,0,9.56,4.03,9.56,10.46v1.49H246.4v0.26c0,3.63,2.28,6.01,5.71,6.01c2.42,0,4.32-1.15,4.9-2.98H261.14z M246.42,61.98
					h10.61c-0.1-3.25-2.18-5.38-5.2-5.38C248.81,56.59,246.64,58.77,246.42,61.98z"/>
			</g>
		</g>
	</g>
	<g id="XMLID_1_">
		<g>
			<path class="st1" d="M93.48,23.54c4.15,0,6.58,2.55,6.58,6.95c0,4.47-2.41,7.03-6.58,7.03h-5.05V23.54H93.48z M90.6,35.55h2.64
				c2.92,0,4.61-1.82,4.61-5.03c0-3.16-1.71-5-4.61-5H90.6V35.55z"/>
			<path class="st1" d="M102.51,32.24c0-3.4,1.9-5.47,4.98-5.47c3.07,0,4.97,2.07,4.97,5.47c0,3.42-1.89,5.48-4.97,5.48
				C104.4,37.73,102.51,35.66,102.51,32.24z M110.32,32.24c0-2.29-1.03-3.62-2.83-3.62c-1.81,0-2.83,1.34-2.83,3.62
				c0,2.31,1.02,3.63,2.83,3.63C109.29,35.88,110.32,34.54,110.32,32.24z"/>
			<path class="st1" d="M125.69,37.52h-2.16l-2.18-7.77h-0.16l-2.17,7.77h-2.14l-2.91-10.55h2.11l1.89,8.05h0.16l2.17-8.05h2
				l2.17,8.05h0.16l1.88-8.05h2.08L125.69,37.52z"/>
			<path class="st1" d="M131.03,26.97h2v1.68h0.16c0.51-1.17,1.56-1.88,3.15-1.88c2.35,0,3.65,1.41,3.65,3.92v6.83h-2.08v-6.31
				c0-1.7-0.74-2.54-2.28-2.54c-1.54,0-2.52,1.03-2.52,2.67v6.17h-2.08V26.97z"/>
			<path class="st1" d="M143.31,22.85h2.08v14.67h-2.08V22.85z"/>
			<path class="st1" d="M148.28,32.24c0-3.4,1.9-5.47,4.98-5.47c3.07,0,4.97,2.07,4.97,5.47c0,3.42-1.89,5.48-4.97,5.48
				C150.17,37.73,148.28,35.66,148.28,32.24z M156.09,32.24c0-2.29-1.03-3.62-2.83-3.62c-1.81,0-2.83,1.34-2.83,3.62
				c0,2.31,1.02,3.63,2.83,3.63C155.06,35.88,156.09,34.54,156.09,32.24z"/>
			<path class="st1" d="M160.43,34.54c0-1.9,1.41-2.99,3.92-3.15l2.86-0.16v-0.91c0-1.11-0.74-1.74-2.16-1.74
				c-1.16,0-1.97,0.43-2.2,1.17h-2.02c0.21-1.81,1.92-2.97,4.31-2.97c2.64,0,4.14,1.32,4.14,3.55v7.21h-2v-1.48h-0.16
				c-0.63,1.06-1.78,1.66-3.17,1.66C161.91,37.7,160.43,36.47,160.43,34.54z M167.21,33.64v-0.88l-2.58,0.16
				c-1.45,0.1-2.11,0.59-2.11,1.52c0,0.95,0.82,1.5,1.96,1.5C166.05,35.94,167.21,34.95,167.21,33.64z"/>
			<path class="st1" d="M172.02,32.24c0-3.33,1.71-5.45,4.38-5.45c1.44,0,2.66,0.69,3.24,1.85h0.16v-5.79h2.08v14.67h-2v-1.67h-0.16
				c-0.63,1.15-1.86,1.84-3.31,1.84C173.71,37.7,172.02,35.59,172.02,32.24z M174.17,32.24c0,2.24,1.05,3.58,2.82,3.58
				c1.75,0,2.84-1.37,2.84-3.58c0-2.2-1.1-3.58-2.84-3.58C175.23,28.67,174.17,30.02,174.17,32.24z"/>
			<path class="st1" d="M190.48,32.24c0-3.4,1.9-5.47,4.98-5.47c3.07,0,4.97,2.07,4.97,5.47c0,3.42-1.89,5.48-4.97,5.48
				C192.37,37.73,190.48,35.66,190.48,32.24z M198.29,32.24c0-2.29-1.03-3.62-2.83-3.62c-1.81,0-2.83,1.34-2.83,3.62
				c0,2.31,1.02,3.63,2.83,3.63C197.27,35.88,198.29,34.54,198.29,32.24z"/>
			<path class="st1" d="M203.23,26.97h2v1.68h0.16c0.51-1.17,1.56-1.88,3.15-1.88c2.35,0,3.65,1.41,3.65,3.92v6.83h-2.08v-6.31
				c0-1.7-0.74-2.54-2.28-2.54c-1.54,0-2.52,1.03-2.52,2.67v6.17h-2.08V26.97z"/>
			<path class="st1" d="M223.95,24.35v2.67h2.29v1.75h-2.29v5.42c0,1.11,0.46,1.59,1.49,1.59c0.32,0,0.5-0.02,0.79-0.05v1.73
				c-0.34,0.06-0.73,0.11-1.13,0.11c-2.32,0-3.24-0.81-3.24-2.85v-5.96h-1.67v-1.75h1.67v-2.67H223.95z"/>
			<path class="st1" d="M229.08,22.85h2.06v5.81h0.16c0.51-1.18,1.63-1.89,3.22-1.89c2.25,0,3.63,1.42,3.63,3.93v6.81h-2.08v-6.3
				c0-1.69-0.78-2.54-2.26-2.54c-1.71,0-2.66,1.08-2.66,2.67v6.16h-2.08V22.85z"/>
			<path class="st1" d="M250.3,34.67c-0.47,1.89-2.16,3.05-4.57,3.05c-3.02,0-4.87-2.07-4.87-5.45c0-3.37,1.89-5.51,4.86-5.51
				c2.94,0,4.71,2.01,4.71,5.32v0.73h-7.45v0.12c0.07,1.85,1.14,3.02,2.81,3.02c1.26,0,2.12-0.46,2.51-1.28H250.3z M242.98,31.27
				h5.33c-0.05-1.66-1.05-2.73-2.6-2.73C244.17,28.54,243.1,29.63,242.98,31.27z"/>
		</g>
	</g>
</g>
</svg>
