<?xml version="1.0" encoding="utf-8"?>
<!-- Generator: Adobe Illustrator 24.1.1, SVG Export Plug-In . SVG Version: 6.00 Build 0)  -->
<svg version="1.1" id="Layer_1" xmlns="http://www.w3.org/2000/svg" xmlns:xlink="http://www.w3.org/1999/xlink" x="0px" y="0px"
	 viewBox="0 0 100 100" style="enable-background:new 0 0 100 100;" xml:space="preserve">
<style type="text/css">
	.st0{fill:url(#SVGID_1_);}
	.st1{fill:url(#SVGID_2_);}
	.st2{fill:url(#SVGID_3_);}
	.st3{fill:url(#SVGID_4_);}
	.st4{fill:url(#SVGID_5_);}
	.st5{fill:url(#SVGID_6_);}
	.st6{fill:url(#SVGID_7_);}
	.st7{fill:#2D2F30;}
</style>
<g>
	<linearGradient id="SVGID_1_" gradientUnits="userSpaceOnUse" x1="54.6204" y1="36.0073" x2="33.4416" y2="26.88">
		<stop  offset="0.0242" style="stop-color:#870000"/>
		<stop  offset="0.497" style="stop-color:#A60000"/>
		<stop  offset="1" style="stop-color:#CD1B1B"/>
	</linearGradient>
	<path class="st0" d="M13.86,31.54c9.61,2.79,12.77,8.47,12.99,17.9c0,0,11.55-5.21,15.1-0.53c3.25,4.27-7.65,11.61-8.36,11.94
		c4.79,1.12,8.44,5.19,8.92,10.19c0.04,0.01,0.08,0.02,0.12,0.03c2.05-1.8,4.73-2.9,7.66-2.9c2.94,0,5.62,1.1,7.67,2.9
		c0.04-0.01,0.08-0.02,0.12-0.03c0.85-7.7,8.72-10.42,8.72-10.42s-11.42-7.21-8.16-11.71c3.14-4.34,15.1,0.53,15.1,0.53
		c0.21-9.41,3.36-15.11,12.99-17.9c-6.75-8.26-3.49-19.6-0.89-22.33c-8.04,0-15.41,4.62-20.58,10.71
		c2.23,8.46-4.83,16.41-14.97,16.41c-7.25,0-10.94-3.5-12.84-5.89c-2.19-2.76-3.14-6.67-2.12-10.51
		C30.19,13.88,22.82,9.21,14.74,9.21C17.1,11.68,20.79,23.06,13.86,31.54z"/>
	<linearGradient id="SVGID_2_" gradientUnits="userSpaceOnUse" x1="80.0244" y1="28.666" x2="46.2828" y2="54.0672">
		<stop  offset="0.1939" style="stop-color:#A60000"/>
		<stop  offset="0.3163" style="stop-color:#AA0303"/>
		<stop  offset="0.4443" style="stop-color:#B70C0C"/>
		<stop  offset="0.5745" style="stop-color:#CC1A1A"/>
		<stop  offset="0.5818" style="stop-color:#CD1B1B"/>
		<stop  offset="0.9333" style="stop-color:#FF391F"/>
	</linearGradient>
	<path class="st1" d="M85.85,9.21c-8.08,0-15.45,4.67-20.58,10.71c1.01,3.84,0.07,7.76-2.12,10.51c-5.73,7.21-11.27-0.23-16.37-0.18
		c-5.13,0.06-7.62,2.75-8.49,8.06c7.98-3.42,18.83,6.91,19.8,32.72c0.58-7.68,8.72-10.42,8.72-10.42s-11.42-7.21-8.16-11.71
		c3.14-4.34,15.1,0.53,15.1,0.53c0.21-9.41,3.36-15.11,12.99-17.9C80.03,23.34,83.19,12.01,85.85,9.21z"/>
	<linearGradient id="SVGID_3_" gradientUnits="userSpaceOnUse" x1="54.745" y1="46.7883" x2="47.2359" y2="55.7767">
		<stop  offset="0.0242" style="stop-color:#870000"/>
		<stop  offset="0.497" style="stop-color:#A60000"/>
		<stop  offset="1" style="stop-color:#CD1B1B"/>
	</linearGradient>
	<path class="st2" d="M38.28,38.29c0,0,8.47,4.44,4.08,13.52l-0.01,0.01c-1.22,4.06-8.19,8.74-8.76,9
		c4.79,1.12,8.44,5.19,8.92,10.19c0.04,0.01,0.08,0.02,0.12,0.03c2.05-1.8,4.73-2.9,7.66-2.9c2.94,0,5.62,1.1,7.67,2.9
		c0.04-0.01,0.08-0.02,0.12-0.03C57.11,45.2,46.26,34.87,38.28,38.29z"/>
	<linearGradient id="SVGID_4_" gradientUnits="userSpaceOnUse" x1="84.9264" y1="18.4695" x2="71.9208" y2="28.2603">
		<stop  offset="0" style="stop-color:#A60000"/>
		<stop  offset="0.4121" style="stop-color:#CD1B1B"/>
		<stop  offset="0.9333" style="stop-color:#FF391F"/>
	</linearGradient>
	<path class="st3" d="M85.85,9.21c-8.08,0-15.45,4.67-20.58,10.71c0,0,17.37,7.64,21.47,11.63C79.98,23.28,83.21,11.98,85.85,9.21z"
		/>
	<linearGradient id="SVGID_5_" gradientUnits="userSpaceOnUse" x1="77.3556" y1="28.77" x2="65.3408" y2="37.8149">
		<stop  offset="0" style="stop-color:#A60000"/>
		<stop  offset="0.4121" style="stop-color:#CD1B1B"/>
		<stop  offset="0.9333" style="stop-color:#FF391F"/>
	</linearGradient>
	<path class="st4" d="M65.26,19.92c0,0,8.66,12.12,8.48,29.53c0.21-9.41,3.36-15.11,12.99-17.9C82.63,27.56,65.26,19.92,65.26,19.92
		z"/>
	<linearGradient id="SVGID_6_" gradientUnits="userSpaceOnUse" x1="20.839" y1="23.9525" x2="30.4008" y2="32.7924">
		<stop  offset="0" style="stop-color:#A60000"/>
		<stop  offset="0.4121" style="stop-color:#CD1B1B"/>
		<stop  offset="0.9333" style="stop-color:#FF391F"/>
	</linearGradient>
	<path class="st5" d="M35.32,19.92c-11.96-0.38-21.46,11.61-21.47,11.63c8.67,2.52,12.09,7.39,12.83,15.24
		C26.05,28.47,35.32,19.92,35.32,19.92z"/>
	<linearGradient id="SVGID_7_" gradientUnits="userSpaceOnUse" x1="45.5957" y1="52.7571" x2="35.0503" y2="56.6569">
		<stop  offset="0.0242" style="stop-color:#870000"/>
		<stop  offset="0.497" style="stop-color:#A60000"/>
		<stop  offset="1" style="stop-color:#CD1B1B"/>
	</linearGradient>
	<path class="st6" d="M45.06,43.8c-2.13-5.05-6.78-5.48-6.78-5.48s8.47,4.44,4.08,13.52l-0.01,0.01c-1.22,4.06-8.19,8.74-8.76,9
		c4.79,1.12,8.44,5.19,8.92,10.19C46.43,60.89,47.18,48.85,45.06,43.8z"/>
</g>
<g>
	<g>
		<path class="st7" d="M11.04,82.99c0,1.87-0.74,3.07-2.22,3.62l2.95,4.17h-3.2l-2.58-3.72h-1.8v3.72h-2.6V79.13H6
			c1.81,0,3.1,0.31,3.88,0.92C10.65,80.65,11.04,81.64,11.04,82.99z M7.91,84.38c0.32-0.29,0.48-0.75,0.48-1.38
			c0-0.63-0.17-1.06-0.5-1.29c-0.33-0.23-0.92-0.35-1.75-0.35H4.19v3.45h1.9C6.98,84.81,7.58,84.67,7.91,84.38z"/>
		<path class="st7" d="M22.11,79.13v2.32h-5.8v2.4h5.22v2.22h-5.22v2.42h5.99v2.3h-8.59V79.13H22.11z"/>
		<path class="st7" d="M33.51,80.65c1.11,1.02,1.67,2.43,1.67,4.24c0,1.81-0.54,3.25-1.63,4.3c-1.08,1.06-2.74,1.58-4.96,1.58h-3.98
			V79.13h4.12C30.81,79.13,32.4,79.63,33.51,80.65z M31.6,87.58c0.64-0.6,0.96-1.47,0.96-2.62c0-1.14-0.32-2.03-0.96-2.64
			c-0.64-0.62-1.62-0.93-2.94-0.93h-1.45v7.09h1.65C30.05,88.48,30.96,88.18,31.6,87.58z"/>
		<path class="st7" d="M46.88,82.99c0,1.87-0.74,3.07-2.22,3.62l2.95,4.17h-3.2l-2.58-3.72h-1.8v3.72h-2.6V79.13h4.42
			c1.81,0,3.1,0.31,3.88,0.92C46.5,80.65,46.88,81.64,46.88,82.99z M43.75,84.38c0.32-0.29,0.48-0.75,0.48-1.38
			c0-0.63-0.17-1.06-0.5-1.29c-0.33-0.23-0.92-0.35-1.75-0.35h-1.95v3.45h1.9C42.82,84.81,43.43,84.67,43.75,84.38z"/>
		<path class="st7" d="M57.85,90.78l-1.08-2.52h-4.88l-1.08,2.52h-2.77l5.04-11.65h2.52l5.03,11.65H57.85z M54.34,82.59l-1.47,3.38
			h2.92L54.34,82.59z"/>
		<path class="st7" d="M69.54,84.84h2.62v4.13c-1.16,1.29-2.76,1.93-4.8,1.93c-1.71,0-3.15-0.57-4.31-1.7
			c-1.16-1.13-1.74-2.56-1.74-4.29c0-1.73,0.59-3.17,1.78-4.33c1.18-1.16,2.61-1.73,4.28-1.73c1.67,0,3.13,0.55,4.36,1.65
			l-1.35,1.95c-0.52-0.45-1-0.77-1.44-0.94c-0.44-0.17-0.91-0.26-1.43-0.26c-0.99,0-1.82,0.34-2.5,1.01
			c-0.68,0.67-1.02,1.56-1.02,2.66c0,1.1,0.33,1.98,0.98,2.64c0.65,0.66,1.43,0.99,2.33,0.99c0.9,0,1.65-0.17,2.25-0.52V84.84z"/>
		<path class="st7" d="M84.28,89.17c-1.18,1.15-2.63,1.73-4.35,1.73c-1.72,0-3.17-0.58-4.35-1.73c-1.18-1.15-1.77-2.58-1.77-4.29
			c0-1.71,0.59-3.14,1.77-4.29c1.18-1.15,2.63-1.73,4.35-1.73c1.72,0,3.17,0.58,4.35,1.73c1.18,1.15,1.77,2.58,1.77,4.29
			C86.05,86.59,85.46,88.02,84.28,89.17z M83.4,84.89c0-1.04-0.33-1.93-1-2.66c-0.67-0.73-1.49-1.1-2.46-1.1
			c-0.97,0-1.79,0.37-2.46,1.1c-0.67,0.73-1,1.62-1,2.66c0,1.04,0.33,1.92,1,2.65c0.67,0.73,1.49,1.09,2.46,1.09
			c0.97,0,1.79-0.36,2.46-1.09C83.06,86.81,83.4,85.93,83.4,84.89z"/>
		<path class="st7" d="M96.4,79.13H99v11.65h-2.6l-5.55-7.3v7.3h-2.6V79.13h2.43l5.72,7.5V79.13z"/>
	</g>
</g>
</svg>
