<?xml version="1.0" encoding="utf-8"?>
<!-- Generator: Adobe Illustrator 24.1.1, SVG Export Plug-In . SVG Version: 6.00 Build 0)  -->
<svg version="1.1" id="Layer_1" xmlns="http://www.w3.org/2000/svg" xmlns:xlink="http://www.w3.org/1999/xlink" x="0px" y="0px"
	 viewBox="0 0 40 25" style="enable-background:new 0 0 40 25;" xml:space="preserve">
<style type="text/css">
	.st0{clip-path:url(#SVGID_2_);fill:#DA1841;}
	.st1{clip-path:url(#SVGID_2_);fill:#FFFFFF;}
	.st2{clip-path:url(#SVGID_2_);}
	.st3{clip-path:url(#SVGID_4_);fill:#FFFFFF;}
	.st4{clip-path:url(#SVGID_4_);fill:#DA1841;}
</style>
<g id="SINGAPORE_3_">
	<g>
		<g>
			<defs>
				<rect id="SVGID_1_" width="40" height="25"/>
			</defs>
			<clipPath id="SVGID_2_">
				<use xlink:href="#SVGID_1_"  style="overflow:visible;"/>
			</clipPath>
			<rect class="st0" width="40" height="12.5"/>
			<rect y="12.5" class="st1" width="40" height="12.5"/>
			<g class="st2">
				<defs>
					<rect id="SVGID_3_" width="40" height="25"/>
				</defs>
				<clipPath id="SVGID_4_">
					<use xlink:href="#SVGID_3_"  style="overflow:visible;"/>
				</clipPath>
				<path class="st3" d="M12,6.2c0,2.6-2,4.7-4.4,4.7c-2.4,0-4.4-2.1-4.4-4.7c0-2.6,2-4.7,4.4-4.7C10,1.6,12,3.7,12,6.2"/>
				<path class="st4" d="M13.4,6.2c0,2.5-1.9,4.4-4.1,4.4c-2.3,0-4.1-2-4.1-4.4c0-2.4,1.9-4.4,4.1-4.4C11.5,1.8,13.4,3.8,13.4,6.2"
					/>
				<polygon class="st3" points="8.2,6.4 7.6,5.9 7,6.4 7.2,5.6 6.6,5.1 7.3,5.1 7.6,4.3 7.8,5.1 8.5,5.1 7.9,5.6 				"/>
				<polygon class="st3" points="12.8,6.4 12.2,5.9 11.6,6.4 11.9,5.6 11.3,5.1 12,5.1 12.2,4.3 12.5,5.1 13.2,5.1 12.6,5.6 				"/>
				<polygon class="st3" points="10.5,4.5 9.9,4 9.3,4.5 9.5,3.7 8.9,3.2 9.7,3.2 9.9,2.4 10.1,3.2 10.9,3.2 10.3,3.7 				"/>
				<polygon class="st3" points="9,9.3 8.4,8.9 7.8,9.3 8.1,8.5 7.5,8.1 8.2,8.1 8.4,7.3 8.7,8.1 9.4,8.1 8.8,8.5 				"/>
				<polygon class="st3" points="12,9.3 11.4,8.9 10.8,9.3 11,8.5 10.4,8.1 11.1,8.1 11.4,7.3 11.6,8.1 12.3,8.1 11.7,8.5 				"/>
			</g>
		</g>
	</g>
</g>
</svg>
