<?xml version="1.0" encoding="utf-8"?>
<!-- Generator: Adobe Illustrator 24.1.1, SVG Export Plug-In . SVG Version: 6.00 Build 0)  -->
<svg version="1.1" id="Layer_1" xmlns="http://www.w3.org/2000/svg" xmlns:xlink="http://www.w3.org/1999/xlink" x="0px" y="0px"
	 viewBox="0 0 40 25" style="enable-background:new 0 0 40 25;" xml:space="preserve">
<style type="text/css">
	.st0{clip-path:url(#SVGID_2_);fill:#2534A4;}
	.st1{clip-path:url(#SVGID_2_);fill:#BC0030;}
	.st2{clip-path:url(#SVGID_2_);fill:#FFFFFF;}
	.st3{clip-path:url(#SVGID_2_);fill:#F3D02F;}
	.st4{clip-path:url(#SVGID_2_);}
	.st5{clip-path:url(#SVGID_4_);fill:#F3D02F;}
</style>
<g id="PHILIPPINES_3_">
	<g>
		<g>
			<defs>
				<rect id="SVGID_1_" width="40" height="25"/>
			</defs>
			<clipPath id="SVGID_2_">
				<use xlink:href="#SVGID_1_"  style="overflow:visible;"/>
			</clipPath>
			<rect class="st0" width="40" height="12.5"/>
			<rect y="12.5" class="st1" width="40" height="12.5"/>
			<polygon class="st2" points="0,0 0,25 20.3,12.5 			"/>
			<polygon class="st3" points="2.7,22.6 1.8,22 1.1,22.8 1.3,21.7 0.4,21.1 1.4,21 1.6,19.9 2.1,21 3.1,20.8 2.3,21.6 			"/>
			<path class="st3" d="M5.5,10.2L4.7,8.8L4.3,8.8l1,1.6L5.5,10.2z M4.9,10.9L3.3,9.6L3.2,8.8l0.6,0l1.3,1.7L4.9,10.9z M4.6,11.2
				l-1.3-0.8L3.3,9.9L4.8,11L4.6,11.2z"/>
			<path class="st3" d="M7.4,10l0.4-1.6L7.5,8L7.2,9.9L7.4,10z M6.5,10L6.3,7.8l0.5-0.6l0.5,0.5L7,9.9L6.5,10z M6.1,10L5.8,8.4L6,8
				L6.3,10L6.1,10z"/>
			<path class="st3" d="M8.9,11.2l1.3-0.8l0.1-0.5L8.8,11L8.9,11.2z M8.3,10.6l1.3-1.7l0.7,0l0,0.7l-1.6,1.4L8.3,10.6z M8,10.3
				l0.8-1.4l0.4,0l-1.1,1.6L8,10.3z"/>
			<path class="st3" d="M9.1,13.2l1.5,0.4l0.3-0.3L9.1,13L9.1,13.2z M9.1,12.3l2-0.3l0.5,0.5L11.2,13l-2.1-0.2L9.1,12.3z M9.1,11.9
				l1.5-0.4l0.3,0.3l-1.8,0.3L9.1,11.9z"/>
			<path class="st3" d="M8,14.8l0.8,1.4l0.4,0.1l-1-1.6L8,14.8z M8.6,14.1l1.6,1.3l0.1,0.8l-0.6,0l-1.3-1.7L8.6,14.1z M8.8,13.8
				l1.3,0.8l0.1,0.5L8.7,14L8.8,13.8z"/>
			<path class="st3" d="M6.1,15.1l-0.4,1.6L6,17l0.3-1.9L6.1,15.1z M7,15l0.3,2.1l-0.5,0.6l-0.5-0.5l0.2-2.2L7,15z M7.3,15l0.4,1.6
				L7.5,17L7.2,15L7.3,15z"/>
			<path class="st3" d="M4.6,13.8l-1.3,0.8l-0.1,0.5L4.7,14L4.6,13.8z M5.2,14.5L4,16.2l-0.7,0.1l0-0.7l1.6-1.4L5.2,14.5z M5.5,14.7
				l-0.8,1.4l-0.4,0l1-1.6L5.5,14.7z"/>
			<path class="st3" d="M4.4,11.9l-1.5-0.4l-0.3,0.3l1.8,0.3L4.4,11.9z M4.4,12.8l-2,0.3l-0.5-0.5L2.3,12l2.1,0.2L4.4,12.8z
				 M4.4,13.2l-1.5,0.4l-0.3-0.3l1.8-0.4L4.4,13.2z"/>
			<g class="st4">
				<defs>
					<rect id="SVGID_3_" width="40" height="25"/>
				</defs>
				<clipPath id="SVGID_4_">
					<use xlink:href="#SVGID_3_"  style="overflow:visible;"/>
				</clipPath>
				<path class="st5" d="M6.7,9.9c1.4,0,2.5,1.2,2.5,2.6c0,1.5-1.1,2.6-2.5,2.6c-1.4,0-2.5-1.2-2.5-2.6C4.3,11,5.4,9.9,6.7,9.9"/>
				<polygon class="st5" points="15.2,13.4 15.8,12.5 15.2,11.6 16.2,12 16.8,11 16.8,12.2 17.8,12.5 16.8,12.8 16.8,14 16.2,13.1 
									"/>
				<polygon class="st5" points="2.7,2.1 1.8,2.7 1.1,1.9 1.3,3 0.4,3.6 1.4,3.7 1.6,4.8 2.1,3.8 3.1,3.9 2.3,3.2 				"/>
			</g>
		</g>
	</g>
</g>
</svg>
