<?xml version="1.0" encoding="utf-8"?>
<!-- Generator: Adobe Illustrator 25.2.3, SVG Export Plug-In . SVG Version: 6.00 Build 0)  -->
<svg version="1.1" id="Layer_1" xmlns="http://www.w3.org/2000/svg" xmlns:xlink="http://www.w3.org/1999/xlink" x="0px" y="0px"
	 viewBox="0 0 120 50" style="enable-background:new 0 0 120 50;" xml:space="preserve">
<style type="text/css">
	.st0{fill:#7DC242;}
	.st1{fill:#FFFFFF;}
</style>
<path class="st0" d="M120,48.8L9.01,48.83c-3.5,0-6.36-2.86-6.36-6.36V8.07c0-3.5,2.86-6.36,6.36-6.36L120,1.68V48.8z"/>
<path class="st1" d="M15.79,13.37c-0.63,0-1.14,0.51-1.14,1.14s0.51,1.14,1.14,1.14h2.54l3,12c0.25,1.02,1.17,1.71,2.22,1.71h13.11
	c1.03,0,1.91-0.68,2.18-1.68l2.97-10.9H22.65l0.57,2.29h15.61l-2.18,8H23.54l-3-12c-0.25-1.02-1.17-1.71-2.22-1.71H15.79z
	 M35.22,30.31c-1.88,0-3.43,1.55-3.43,3.43s1.55,3.43,3.43,3.43s3.43-1.55,3.43-3.43S37.1,30.31,35.22,30.31z M24.93,30.31
	c-1.88,0-3.43,1.55-3.43,3.43s1.55,3.43,3.43,3.43c1.88,0,3.43-1.55,3.43-3.43S26.81,30.31,24.93,30.31z M24.93,32.6
	c0.64,0,1.14,0.5,1.14,1.14s-0.5,1.14-1.14,1.14c-0.64,0-1.14-0.5-1.14-1.14S24.29,32.6,24.93,32.6z M35.22,32.6
	c0.64,0,1.14,0.5,1.14,1.14s-0.5,1.14-1.14,1.14s-1.14-0.5-1.14-1.14S34.58,32.6,35.22,32.6z"/>
<g>
	<path class="st1" d="M72.2,22.38h-1.85c-0.11-0.53-0.3-1-0.57-1.4c-0.27-0.4-0.6-0.74-0.98-1.02s-0.81-0.48-1.28-0.62
		c-0.47-0.14-0.95-0.21-1.46-0.21c-0.92,0-1.76,0.23-2.51,0.7c-0.75,0.47-1.34,1.15-1.78,2.06c-0.44,0.91-0.66,2.02-0.66,3.34
		c0,1.32,0.22,2.44,0.66,3.34c0.44,0.91,1.03,1.6,1.78,2.06c0.75,0.47,1.58,0.7,2.51,0.7c0.51,0,0.99-0.07,1.46-0.21
		c0.47-0.14,0.89-0.35,1.28-0.62c0.38-0.28,0.71-0.62,0.98-1.02c0.27-0.4,0.46-0.87,0.57-1.4h1.85c-0.14,0.78-0.39,1.48-0.76,2.09
		c-0.37,0.62-0.82,1.14-1.37,1.57c-0.55,0.43-1.16,0.76-1.84,0.98c-0.68,0.22-1.4,0.33-2.17,0.33c-1.3,0-2.46-0.32-3.47-0.95
		c-1.01-0.64-1.81-1.54-2.39-2.71c-0.58-1.17-0.87-2.56-0.87-4.17s0.29-3,0.87-4.17c0.58-1.17,1.38-2.08,2.39-2.71
		c1.01-0.64,2.17-0.95,3.47-0.95c0.77,0,1.49,0.11,2.17,0.34c0.68,0.22,1.29,0.55,1.84,0.98c0.55,0.43,1,0.95,1.37,1.56
		C71.8,20.9,72.06,21.6,72.2,22.38z"/>
	<path class="st1" d="M78.3,33.13c-0.72,0-1.38-0.14-1.97-0.41c-0.59-0.28-1.06-0.68-1.41-1.2c-0.35-0.52-0.52-1.16-0.52-1.9
		c0-0.66,0.13-1.19,0.39-1.6c0.26-0.41,0.6-0.73,1.04-0.96c0.43-0.23,0.91-0.41,1.43-0.52c0.52-0.12,1.05-0.21,1.58-0.28
		c0.7-0.09,1.26-0.16,1.69-0.2c0.43-0.05,0.75-0.13,0.95-0.24c0.2-0.11,0.3-0.31,0.3-0.6v-0.06c0-0.74-0.2-1.31-0.6-1.71
		c-0.4-0.41-1-0.61-1.81-0.61c-0.84,0-1.5,0.18-1.97,0.55c-0.48,0.37-0.81,0.76-1.01,1.18l-1.67-0.6c0.3-0.7,0.7-1.24,1.2-1.63
		c0.5-0.39,1.04-0.66,1.64-0.82c0.59-0.16,1.18-0.23,1.75-0.23c0.37,0,0.79,0.04,1.27,0.13c0.48,0.09,0.94,0.26,1.39,0.53
		c0.45,0.27,0.82,0.67,1.12,1.21c0.3,0.54,0.45,1.27,0.45,2.17v7.54h-1.76v-1.55H81.7c-0.12,0.25-0.32,0.51-0.6,0.8
		c-0.28,0.28-0.65,0.52-1.11,0.72C79.53,33.03,78.97,33.13,78.3,33.13z M78.57,31.56c0.7,0,1.28-0.14,1.76-0.41
		c0.48-0.27,0.84-0.63,1.09-1.06s0.37-0.89,0.37-1.36v-1.61c-0.07,0.09-0.24,0.17-0.49,0.24c-0.25,0.07-0.54,0.13-0.86,0.19
		c-0.33,0.05-0.64,0.1-0.95,0.13c-0.31,0.04-0.55,0.07-0.74,0.09c-0.46,0.06-0.88,0.16-1.28,0.29c-0.39,0.13-0.71,0.33-0.95,0.59
		c-0.24,0.26-0.36,0.61-0.36,1.06c0,0.61,0.23,1.07,0.68,1.38C77.29,31.4,77.87,31.56,78.57,31.56z"/>
	<path class="st1" d="M86.76,32.87V21.43h1.7v1.73h0.12c0.21-0.57,0.59-1.03,1.13-1.38c0.55-0.35,1.16-0.53,1.85-0.53
		c0.13,0,0.29,0,0.48,0.01c0.19,0,0.34,0.01,0.44,0.02v1.79c-0.06-0.02-0.2-0.04-0.41-0.07c-0.21-0.03-0.43-0.05-0.67-0.05
		c-0.56,0-1.05,0.12-1.49,0.35c-0.43,0.23-0.78,0.55-1.03,0.95c-0.25,0.4-0.38,0.87-0.38,1.38v7.24H86.76z"/>
	<path class="st1" d="M100.26,21.43v1.49h-5.93v-1.49H100.26z M96.06,18.69h1.76v10.9c0,0.5,0.07,0.87,0.22,1.11
		c0.15,0.25,0.33,0.41,0.57,0.49c0.23,0.08,0.47,0.12,0.73,0.12c0.19,0,0.35-0.01,0.48-0.03c0.12-0.02,0.22-0.04,0.3-0.06l0.36,1.58
		c-0.12,0.04-0.29,0.09-0.5,0.14c-0.21,0.05-0.48,0.07-0.81,0.07c-0.5,0-0.98-0.11-1.46-0.32c-0.47-0.21-0.87-0.54-1.18-0.98
		c-0.31-0.44-0.47-0.99-0.47-1.65V18.69z"/>
</g>
</svg>
