<?xml version="1.0" encoding="utf-8"?>
<!-- Generator: Adobe Illustrator 24.1.1, SVG Export Plug-In . SVG Version: 6.00 Build 0)  -->
<svg version="1.1" id="Layer_1" xmlns="http://www.w3.org/2000/svg" xmlns:xlink="http://www.w3.org/1999/xlink" x="0px" y="0px"
	 viewBox="0 0 28.4 28.4" style="enable-background:new 0 0 28.4 28.4;" xml:space="preserve">
<style type="text/css">
	.st0{fill:#009B1D;}
</style>
<g transform="translate(11505.356 755)">
	<path class="st0" d="M-11491.1-755c-7.8,0-14.2,6.4-14.2,14.2s6.4,14.2,14.2,14.2s14.2-6.4,14.2-14.2l0,0
		C-11476.9-748.6-11483.3-755-11491.1-755z M-11491.1-728.1c-7,0-12.7-5.7-12.7-12.7s5.7-12.7,12.7-12.7s12.7,5.7,12.7,12.7l0,0
		C-11478.4-733.8-11484.1-728.1-11491.1-728.1L-11491.1-728.1z"/>
	<path class="st0" d="M-11494.3-744c0,0.8-0.7,1.5-1.5,1.5s-1.5-0.7-1.5-1.5s0.7-1.5,1.5-1.5l0,0
		C-11494.9-745.5-11494.3-744.8-11494.3-744L-11494.3-744z"/>
	<path class="st0" d="M-11484.7-744c0,0.8-0.7,1.5-1.5,1.5s-1.5-0.7-1.5-1.5s0.7-1.5,1.5-1.5l0,0
		C-11485.4-745.5-11484.8-744.8-11484.7-744L-11484.7-744z"/>
	<path class="st0" d="M-11491.2-732.9c3,0,5.8-1.5,7.5-4l-1.3-0.8c-2.2,3.4-6.7,4.4-10.1,2.2c-0.9-0.6-1.6-1.3-2.2-2.2l-1.3,0.8
		c1.4,2.2,3.8,3.7,6.4,4C-11491.8-732.9-11491.5-732.9-11491.2-732.9L-11491.2-732.9z"/>
</g>
</svg>
