<?xml version="1.0" encoding="utf-8"?>
<!-- Generator: Adobe Illustrator 24.1.1, SVG Export Plug-In . SVG Version: 6.00 Build 0)  -->
<svg version="1.1" id="Layer_1" xmlns="http://www.w3.org/2000/svg" xmlns:xlink="http://www.w3.org/1999/xlink" x="0px" y="0px"
	 viewBox="0 0 512 512" style="enable-background:new 0 0 512 512;" xml:space="preserve">
<style type="text/css">
	.st0{fill:#7DC242;}
</style>
<path class="st0" d="M-0.3,302.7l0,47.5l58,0v31.7h108.1v-79.1l180.3,0v79.1h108.1v-31.7l58,0l0-47.5l-0.3,0l0-93.3h0.3v-47.5l-58,0
	v-31.7H346.2v79.1l-180.3,0v-79.1l-108.1,0l0,31.7h-58l0,152 M482.3,191.9l0,128.3h-28V191.9L482.3,191.9z M29.7,320.1l0-128.3h28
	l0,128.3L29.7,320.1z M87.7,351.8V160.2h48.1v191.6H87.7z M165.8,272.7l0-33.3l180.3,0v33.3L165.8,272.7z M376.2,351.8V160.2l48.1,0
	v191.6H376.2z"/>
<path d="M-0.3,211.3"/>
</svg>
