<?xml version="1.0" encoding="utf-8"?>
<!-- Generator: Adobe Illustrator 24.1.1, SVG Export Plug-In . SVG Version: 6.00 Build 0)  -->
<svg version="1.1" id="Capa_1" xmlns="http://www.w3.org/2000/svg" xmlns:xlink="http://www.w3.org/1999/xlink" x="0px" y="0px"
	 viewBox="0 0 512 512" style="enable-background:new 0 0 512 512;" xml:space="preserve">
<style type="text/css">
	.st0{fill:#7DC242;}
</style>
<g>
	<path class="st0" d="M391.9,150.1V30H120.1v120.1H0V482h512V150.1H391.9z M30,452V180.1h90.1V452H30z M301,452h-30v-31.7h30V452z
		 M241,452h-30v-31.7h30V452z M361.9,452H331v-61.7H181V452h-30.9V60h211.8V452z M482,452h-90.1V180.1H482V452z"/>
	<path class="st0" d="M241,180.1h30v-30h30v-30h-30v-30h-30v30h-30v30h30V180.1z"/>
	<path class="st0" d="M60,270.2h30v30H60L60,270.2z"/>
	<path class="st0" d="M60,330.2h30v30H60L60,330.2z"/>
	<path class="st0" d="M421.9,270.2h30v30h-30V270.2z"/>
	<path class="st0" d="M60,210.1h30v30H60L60,210.1z"/>
	<path class="st0" d="M421.9,210.1h30v30h-30V210.1z"/>
	<path class="st0" d="M421.9,330.2h30v30h-30V330.2z"/>
	<path class="st0" d="M241,210.1h30v30h-30L241,210.1z"/>
	<path class="st0" d="M180.9,210.1h30v30h-30V210.1z"/>
	<path class="st0" d="M301,210.1h30v30h-30V210.1z"/>
	<path class="st0" d="M241,270.2h30v30h-30L241,270.2z"/>
	<path class="st0" d="M180.9,270.2h30v30h-30V270.2z"/>
	<path class="st0" d="M301,270.2h30v30h-30V270.2z"/>
	<path class="st0" d="M241,330.2h30v30h-30L241,330.2z"/>
	<path class="st0" d="M180.9,330.2h30v30h-30V330.2z"/>
	<path class="st0" d="M301,330.2h30v30h-30V330.2z"/>
</g>
</svg>
