<?xml version="1.0" encoding="utf-8"?>
<!-- Generator: Adobe Illustrator 24.1.1, SVG Export Plug-In . SVG Version: 6.00 Build 0)  -->
<svg version="1.1" id="Capa_1" xmlns="http://www.w3.org/2000/svg" xmlns:xlink="http://www.w3.org/1999/xlink" x="0px" y="0px"
	 viewBox="0 0 512 512" style="enable-background:new 0 0 512 512;" xml:space="preserve">
<style type="text/css">
	.st0{fill:#7DC242;}
</style>
<g>
	<path class="st0" d="M442.5,267.6V152.6h-68.7c-9.6,0-19,1-28,3c-3.9-31.1-20.3-59.9-45.5-79L256,42.9l-44.4,33.6
		c-25.2,19.1-41.6,47.9-45.5,79c-9-1.9-18.4-3-28-3H69.5v115.1H0v68.7c0,73.2,59.6,132.8,132.8,132.8h246.4
		c73.2,0,132.8-59.6,132.8-132.8v-68.7H442.5z M412.5,182.6v85.1h-38.7c-41.4,0-78.4,19-102.8,48.8v-31.1
		c0-56.7,46.1-102.8,102.8-102.8L412.5,182.6z M229.8,100.4L256,80.5l26.2,19.9c20.5,15.5,33.1,39.6,34.4,65.1
		c-26,12.5-47.3,33.1-60.6,58.6c-13.3-25.5-34.6-46.1-60.6-58.6C196.7,140,209.3,115.9,229.8,100.4L229.8,100.4z M99.5,182.6h38.7
		c56.7,0,102.8,46.1,102.8,102.8v31.1c-24.4-29.8-61.4-48.8-102.8-48.8H99.5V182.6z M241,439.1H132.8C76.1,439.1,30,393,30,336.3
		v-38.7h108.2c56.7,0,102.8,46.1,102.8,102.8L241,439.1z M482,336.3c0,56.7-46.1,102.8-102.8,102.8H271v-38.7
		c0-56.7,46.1-102.8,102.8-102.8H482V336.3z"/>
</g>
</svg>
