<?xml version="1.0" encoding="utf-8"?>
<!-- Generator: Adobe Illustrator 24.1.1, SVG Export Plug-In . SVG Version: 6.00 Build 0)  -->
<svg version="1.1" id="Capa_1" xmlns="http://www.w3.org/2000/svg" xmlns:xlink="http://www.w3.org/1999/xlink" x="0px" y="0px"
	 viewBox="0 0 512 512" style="enable-background:new 0 0 512 512;" xml:space="preserve">
<style type="text/css">
	.st0{fill:#7DC242;}
</style>
<g>
	<path class="st0" d="M479.7,170.6L410.8,138c-3-1.4-6.4-1.8-9.6-1.1l-61.9,13.6L207.7,11.9c-3.6-3.8-9-5.5-14.1-4.3L115,24.9
		c-10.7,2.4-15.4,15.1-8.7,23.8l100.9,131l-100.9,22.2l-24.7-66.4c-2.6-6.9-9.8-11-17.1-9.5L12,136.8c-7,1.4-12,7.6-12,14.7V301
		c0,3.9,1.6,7.7,4.3,10.5c33.5,34,81.2,48,127.5,38l107.4-23.3l-36.5,160.2c-2.4,10.8,7.2,20.3,17.9,18l78.5-17.3
		c5.1-1.1,9.3-4.9,11-9.8l60.8-179.5l96.6-20.9C520.2,265.4,528.3,193.7,479.7,170.6L479.7,170.6z M402.6,167.4l44.7,21.1
		l-45.1,10.3l-14.3-28.2L402.6,167.4z M144.6,49.1l47.1-10.4l113.3,119.4l-65.4,14.4L144.6,49.1z M284.4,459.6L237.3,470l34.3-150.8
		l65.1-14.1L284.4,459.6z M461.2,247.5l-335.7,72.7c-34.4,7.5-69.7-2.1-95.5-25.6V163.8l28.1-5.7l24.7,66.5c2.6,7,10,11,17.3,9.4
		l257.4-56.7l23.2,45.5c3.1,6.2,10,9.3,16.7,7.8l82.8-18.9C485.6,225.7,478.8,243.7,461.2,247.5L461.2,247.5z"/>
	<path class="st0" d="M311.5,218.1c-8.1,1.8-13.2,9.8-11.4,17.9s9.8,13.2,17.9,11.4s13.2-9.8,11.4-17.9S319.6,216.4,311.5,218.1z"/>
	<path class="st0" d="M253,231c-8.1,1.8-13.2,9.8-11.4,17.9c1.8,8.1,9.8,13.2,17.9,11.4c8.1-1.8,13.2-9.8,11.4-17.9
		S261.1,229.3,253,231L253,231z"/>
	<path class="st0" d="M194.4,243.9c-8.1,1.8-13.2,9.8-11.4,17.9c1.8,8.1,9.8,13.2,17.9,11.4s13.2-9.8,11.4-17.9
		C210.5,247.3,202.5,242.2,194.4,243.9L194.4,243.9z"/>
	
		<ellipse transform="matrix(2.999987e-03 -1 1 2.999987e-03 -132.8442 409.7056)" class="st0" cx="139" cy="271.5" rx="15" ry="15"/>
</g>
</svg>
