<?xml version="1.0" encoding="utf-8"?>
<!-- Generator: Adobe Illustrator 24.1.1, SVG Export Plug-In . SVG Version: 6.00 Build 0)  -->
<svg version="1.1" id="Capa_1" xmlns="http://www.w3.org/2000/svg" xmlns:xlink="http://www.w3.org/1999/xlink" x="0px" y="0px"
	 viewBox="0 0 512 512" style="enable-background:new 0 0 512 512;" xml:space="preserve">
<style type="text/css">
	.st0{fill:#7DC242;}
</style>
<g>
	<g>
		<g>
			<path class="st0" d="M448,192c-35.3,0-64,28.7-64,64s28.7,64,64,64s64-28.7,64-64S483.3,192,448,192z M448,288
				c-17.7,0-32-14.3-32-32s14.3-32,32-32s32,14.3,32,32S465.7,288,448,288z"/>
			<path class="st0" d="M256,192c-35.3,0-64,28.7-64,64s28.7,64,64,64s64-28.7,64-64S291.3,192,256,192z M256,288
				c-17.7,0-32-14.3-32-32s14.3-32,32-32s32,14.3,32,32S273.7,288,256,288z"/>
			<path class="st0" d="M64,192c-35.3,0-64,28.7-64,64s28.7,64,64,64s64-28.7,64-64S99.3,192,64,192z M64,288c-17.7,0-32-14.3-32-32
				s14.3-32,32-32s32,14.3,32,32S81.7,288,64,288z"/>
		</g>
	</g>
</g>
</svg>
