<?xml version="1.0" encoding="utf-8"?>
<!-- Generator: Adobe Illustrator 24.1.1, SVG Export Plug-In . SVG Version: 6.00 Build 0)  -->
<svg version="1.1" id="Capa_1" xmlns="http://www.w3.org/2000/svg" xmlns:xlink="http://www.w3.org/1999/xlink" x="0px" y="0px"
	 viewBox="0 0 512 512" style="enable-background:new 0 0 512 512;" xml:space="preserve">
<style type="text/css">
	.st0{fill:#7DC242;}
</style>
<g>
	<path class="st0" d="M256,60C147.9,60,60,147.9,60,256s87.9,196,196,196s196-87.9,196-196S364.1,60,256,60z M256,90
		c75.9,0,140.1,51.3,159.8,121h-19.2c-24.5,0-47.7-10-65.4-28.2c-20-20.5-46.7-31.8-75.2-31.8s-55.3,11.3-75.2,31.8
		C163.1,201,139.9,211,115.4,211H96.2C115.9,141.3,180.1,90,256,90L256,90z M96.2,301h19.9c24.1,0,47.1,9.9,64.5,28
		c1.4,1.4,2.8,2.8,4.3,4.2c17.9,16.6,28.2,40.6,28.2,66v17.3C156.7,401.2,112,357.1,96.2,301z M243.1,421.5v-22.4
		c0-33.7-13.8-65.8-37.9-88c-1-1-2.1-2-3.1-3c-22.8-23.6-54.2-37.1-86.1-37.1H90.7c-0.4-4.9-0.7-9.9-0.7-15s0.2-10.1,0.7-15h24.7
		c32.7,0,63.5-13.2,86.9-37.3c14.3-14.7,33.3-22.7,53.7-22.7s39.5,8.1,53.7,22.7c23.4,24,54.2,37.3,86.9,37.3h24.7
		c0.4,4.9,0.7,9.9,0.7,15s-0.2,10.1-0.7,15h-24.5c-32.7,0-63.7,13.3-87.2,37.3c-0.3,0.4-0.7,0.7-1.1,1.1
		c-22.5,22.2-35.5,53.3-35.5,85.4v26.3c-5.6,0.6-11.3,0.9-17.1,0.9C251.6,422,247.3,421.8,243.1,421.5L243.1,421.5z M303.1,415.2
		v-20.4c0-24.1,9.7-47.4,26.5-64c0.5-0.5,1-1,1.5-1.5c17.8-18.2,41.2-28.3,65.7-28.3h19C400.4,355.7,357.5,399,303.1,415.2z"/>
	<path class="st0" d="M437,75C388.7,26.6,324.4,0,256,0S123.3,26.6,75,75C26.6,123.3,0,187.6,0,256s26.6,132.7,75,181
		c48.4,48.4,112.6,75,181,75s132.7-26.6,181-75c48.4-48.4,75-112.6,75-181S485.4,123.3,437,75L437,75z M415.8,415.8
		C373.1,458.5,316.4,482,256,482s-117.1-23.5-159.8-66.2S30,316.4,30,256S53.5,138.9,96.2,96.2S195.6,30,256,30
		s117.1,23.5,159.8,66.2S482,195.6,482,256S458.5,373.1,415.8,415.8z"/>
	<path class="st0" d="M301,256c0-24.8-20.2-45-45-45s-45,20.2-45,45s20.2,45,45,45S301,280.8,301,256z M241,256c0-8.3,6.7-15,15-15
		s15,6.7,15,15s-6.7,15-15,15S241,264.3,241,256z"/>
</g>
</svg>
