<?xml version="1.0" encoding="utf-8"?>
<!-- Generator: Adobe Illustrator 24.1.2, SVG Export Plug-In . SVG Version: 6.00 Build 0)  -->
<svg version="1.1" id="Layer_1" xmlns="http://www.w3.org/2000/svg" xmlns:xlink="http://www.w3.org/1999/xlink" x="0px" y="0px"
	 viewBox="0 0 50 50" style="enable-background:new 0 0 50 50;" xml:space="preserve">
<style type="text/css">
	.st0{fill:url(#Oval-6_1_);}
	.st1{fill:#FFFFFF;}
</style>
<g id="Instagram" transform="translate(503.699 8)">
	<g transform="matrix(1, 0, 0, 1, -503.7, -8)">
		
			<linearGradient id="Oval-6_1_" gradientUnits="userSpaceOnUse" x1="-510.1048" y1="280.8691" x2="-510.106" y2="281.2592" gradientTransform="matrix(109.002 0 0 109.002 55627.5078 -30611.5488)">
			<stop  offset="0" style="stop-color:#7024C4"/>
			<stop  offset="0.415" style="stop-color:#C21975"/>
			<stop  offset="0.702" style="stop-color:#C74C4D"/>
			<stop  offset="1" style="stop-color:#E09B3D"/>
		</linearGradient>
		<circle id="Oval-6" class="st0" cx="25" cy="25" r="21.3"/>
	</g>
	<path id="Instagram-2" class="st1" d="M-475,26.3h-7.5c-3,0-5.5-2.5-5.5-5.5v-7.5c0-3.1,2.5-5.5,5.5-5.5h7.5c3,0,5.5,2.5,5.5,5.5
		v7.5C-469.4,23.8-471.9,26.3-475,26.3z M-482.4,9.6c-2,0-3.6,1.6-3.7,3.7v7.5c0,2,1.6,3.6,3.7,3.7h7.5c2,0,3.6-1.6,3.7-3.7v-7.5
		c0-2-1.6-3.6-3.7-3.7H-482.4z M-478.7,21.8c-2.6,0-4.8-2.1-4.8-4.8s2.1-4.8,4.8-4.8c2.6,0,4.8,2.2,4.8,4.8
		C-473.9,19.6-476,21.8-478.7,21.8L-478.7,21.8z M-478.7,14.1c-1.6,0-2.9,1.3-2.9,2.9s1.3,2.9,2.9,2.9s2.9-1.3,2.9-2.9l0,0
		C-475.8,15.4-477.1,14.1-478.7,14.1L-478.7,14.1z M-473.9,13.4c-0.6,0-1.1-0.5-1.1-1.1s0.5-1.1,1.1-1.1c0.6,0,1.1,0.5,1.1,1.1
		S-473.3,13.4-473.9,13.4L-473.9,13.4z"/>
</g>
</svg>
