<?xml version="1.0" encoding="utf-8"?>
<!-- Generator: Adobe Illustrator 24.1.2, SVG Export Plug-In . SVG Version: 6.00 Build 0)  -->
<svg version="1.1" id="Layer_1" xmlns="http://www.w3.org/2000/svg" xmlns:xlink="http://www.w3.org/1999/xlink" x="0px" y="0px"
	 viewBox="0 0 50 50" style="enable-background:new 0 0 50 50;" xml:space="preserve">
<style type="text/css">
	.st0{fill:#007AB7;}
	.st1{fill:#FFFFFF;}
</style>
<g id="Linkedin" transform="translate(173.9 212.028)">
	<g transform="matrix(1, 0, 0, 1, -173.9, -212.03)">
		<ellipse id="Oval-5" class="st0" cx="25" cy="25" rx="21.3" ry="21.3"/>
	</g>
	<path id="Linkedin-2" class="st1" d="M-144.4-179.9v-5c0-1.2,0-2.7-1.6-2.7c-1.6,0-1.9,1.3-1.9,2.6v5h-3.2v-10.2h3v1.4h0
		c0.6-1.1,1.8-1.7,3-1.6c3.2,0,3.8,2.1,3.8,4.9v5.6L-144.4-179.9L-144.4-179.9z M-153.1-179.9h-3.2v-10.2h3.2L-153.1-179.9
		L-153.1-179.9L-153.1-179.9z M-151.1-190.1L-151.1-190.1L-151.1-190.1z M-156.5-193.4c0-1,0.8-1.8,1.8-1.8c1,0,1.8,0.8,1.8,1.8
		c0,1-0.8,1.8-1.8,1.8C-155.7-191.5-156.5-192.4-156.5-193.4z"/>
</g>
</svg>
