<?xml version="1.0" encoding="utf-8"?>
<!-- Generator: Adobe Illustrator 24.1.2, SVG Export Plug-In . SVG Version: 6.00 Build 0)  -->
<svg version="1.1" id="Layer_1" xmlns="http://www.w3.org/2000/svg" xmlns:xlink="http://www.w3.org/1999/xlink" x="0px" y="0px"
	 viewBox="0 0 28.4 28.4" style="enable-background:new 0 0 28.4 28.4;" xml:space="preserve">
<style type="text/css">
	.st0{fill:#FFDA00;}
</style>
<g transform="translate(11469.184 755)">
	<path class="st0" d="M-11455-755c-7.8,0-14.2,6.4-14.2,14.2s6.4,14.2,14.2,14.2s14.2-6.4,14.2-14.2l0,0
		C-11440.8-748.6-11447.1-755-11455-755z M-11455-728.1c-7,0-12.7-5.7-12.7-12.7s5.7-12.7,12.7-12.7s12.7,5.7,12.7,12.7l0,0
		C-11442.3-733.8-11447.9-728.1-11455-728.1C-11454.9-728.1-11454.9-728.1-11455-728.1z"/>
	<path class="st0" d="M-11458.1-744c0,0.8-0.7,1.5-1.5,1.5s-1.5-0.7-1.5-1.5s0.7-1.5,1.5-1.5l0,0
		C-11458.8-745.5-11458.1-744.8-11458.1-744L-11458.1-744z"/>
	<path class="st0" d="M-11448.6-744c0,0.8-0.7,1.5-1.5,1.5s-1.5-0.7-1.5-1.5s0.7-1.5,1.5-1.5l0,0
		C-11449.3-745.5-11448.6-744.8-11448.6-744L-11448.6-744z"/>
	<path class="st0" d="M-11450.2-734.2h-9.5v-1.5h9.5V-734.2z"/>
</g>
</svg>
