<?xml version="1.0" encoding="utf-8"?>
<!-- Generator: Adobe Illustrator 24.1.1, SVG Export Plug-In . SVG Version: 6.00 Build 0)  -->
<svg version="1.1" id="Layer_1" xmlns="http://www.w3.org/2000/svg" xmlns:xlink="http://www.w3.org/1999/xlink" x="0px" y="0px"
	 viewBox="0 0 500 300" style="enable-background:new 0 0 500 300;" xml:space="preserve">
<style type="text/css">
	.st0{fill:#91A8F6;}
	.st1{fill:#93C7EA;}
	.st2{fill:#FF8383;}
	.st3{fill:#D15E79;}
	.st4{fill:#1B2A67;}
	.st5{fill:#86294E;}
	.st6{fill:#FFD2D4;}
	.st7{fill:#201028;}
	.st8{fill:#445EEA;}
	.st9{fill:#E0EEF7;}
	.st10{fill:#6EACCE;}
	.st11{fill:#FFFFFF;}
	.st12{fill:none;stroke:#1B2A67;stroke-width:0.8269;stroke-linecap:round;stroke-miterlimit:10;}
	.st13{fill:none;stroke:#445EEA;stroke-width:0.6576;stroke-linecap:round;stroke-linejoin:round;stroke-miterlimit:10;}
</style>
<path class="st0" d="M365.1,147.82c0,1.57-1.28,2.85-2.85,2.85c-1.57,0-2.85-1.28-2.85-2.85c0-1.57,1.28-2.85,2.85-2.85
	C363.82,144.98,365.1,146.25,365.1,147.82z M363.69,147.82c0-0.79-0.64-1.44-1.44-1.44c-0.79,0-1.44,0.64-1.44,1.44
	c0,0.79,0.64,1.44,1.44,1.44C363.04,149.26,363.69,148.62,363.69,147.82z"/>
<g>
	<path class="st0" d="M320.16,128.49h-16.12c-0.39,0-0.71,0.32-0.71,0.71c0,0.39,0.32,0.71,0.71,0.71h16.12
		c0.39,0,0.71-0.32,0.71-0.71C320.87,128.81,320.55,128.49,320.16,128.49z"/>
	<path class="st0" d="M298.91,128.49h-3.15c-0.39,0-0.71,0.32-0.71,0.71c0,0.39,0.32,0.71,0.71,0.71h3.15
		c0.39,0,0.71-0.32,0.71-0.71C299.61,128.81,299.3,128.49,298.91,128.49z"/>
	<path class="st0" d="M312.59,134.11c0,0.39-0.32,0.71-0.71,0.71h-2.02c-0.39,0-0.71-0.32-0.71-0.71c0-0.39,0.32-0.71,0.71-0.71
		h2.02C312.27,133.4,312.59,133.72,312.59,134.11z M307.04,134.11c0,0.39-0.32,0.71-0.71,0.71h-3.53c-0.39,0-0.71-0.32-0.71-0.71
		c0-0.39,0.32-0.71,0.71-0.71h3.53C306.73,133.4,307.04,133.72,307.04,134.11z M299.99,134.11c0,0.39-0.32,0.71-0.71,0.71h-3.53
		c-0.39,0-0.71-0.32-0.71-0.71c0-0.39,0.32-0.71,0.71-0.71h3.53C299.68,133.4,299.99,133.72,299.99,134.11z"/>
</g>
<g>
	<path class="st0" d="M151.4,90.75c-0.39,0-0.71,0.32-0.71,0.71v1.64c0,0.39,0.32,0.71,0.71,0.71c0.39,0,0.71-0.32,0.71-0.71v-1.64
		C152.1,91.07,151.79,90.75,151.4,90.75z"/>
	<path class="st0" d="M149.55,89.11h-1.64c-0.39,0-0.71,0.32-0.71,0.71c0,0.39,0.32,0.71,0.71,0.71h1.64c0.39,0,0.71-0.32,0.71-0.71
		C150.26,89.43,149.94,89.11,149.55,89.11z"/>
	<path class="st0" d="M151.4,85.72c-0.39,0-0.71,0.32-0.71,0.71v1.63c0,0.39,0.32,0.71,0.71,0.71c0.39,0,0.71-0.32,0.71-0.71v-1.63
		C152.1,86.04,151.79,85.72,151.4,85.72z"/>
	<path class="st0" d="M154.88,89h-1.64c-0.39,0-0.71,0.32-0.71,0.71c0,0.39,0.32,0.71,0.71,0.71h1.64c0.39,0,0.71-0.32,0.71-0.71
		C155.59,89.32,155.27,89,154.88,89z"/>
</g>
<g>
	<path class="st0" d="M328.79,45.03c-0.39,0-0.71,0.32-0.71,0.71v1.64c0,0.39,0.32,0.71,0.71,0.71c0.39,0,0.71-0.32,0.71-0.71v-1.64
		C329.49,45.35,329.18,45.03,328.79,45.03z"/>
	<path class="st0" d="M326.94,43.39h-1.64c-0.39,0-0.71,0.32-0.71,0.71c0,0.39,0.32,0.71,0.71,0.71h1.64c0.39,0,0.71-0.32,0.71-0.71
		C327.65,43.71,327.33,43.39,326.94,43.39z"/>
	<path class="st0" d="M328.79,40c-0.39,0-0.71,0.32-0.71,0.71v1.64c0,0.39,0.32,0.71,0.71,0.71c0.39,0,0.71-0.32,0.71-0.71v-1.64
		C329.49,40.32,329.18,40,328.79,40z"/>
	<path class="st0" d="M332.27,43.28h-1.64c-0.39,0-0.71,0.32-0.71,0.71c0,0.39,0.32,0.71,0.71,0.71h1.64c0.39,0,0.71-0.32,0.71-0.71
		C332.97,43.59,332.66,43.28,332.27,43.28z"/>
</g>
<g>
	<path class="st0" d="M263.04,10h-16.12c-0.39,0-0.71,0.32-0.71,0.71c0,0.39,0.32,0.71,0.71,0.71h16.12c0.39,0,0.71-0.32,0.71-0.71
		C263.74,10.32,263.43,10,263.04,10z"/>
	<path class="st0" d="M241.79,10h-3.15c-0.39,0-0.71,0.32-0.71,0.71c0,0.39,0.32,0.71,0.71,0.71h3.15c0.39,0,0.71-0.32,0.71-0.71
		C242.49,10.32,242.18,10,241.79,10z"/>
	<path class="st0" d="M255.46,15.62c0,0.39-0.32,0.71-0.71,0.71h-2.02c-0.39,0-0.71-0.32-0.71-0.71c0-0.39,0.32-0.71,0.71-0.71h2.02
		C255.15,14.91,255.46,15.23,255.46,15.62z M249.92,15.62c0,0.39-0.32,0.71-0.71,0.71h-3.53c-0.39,0-0.71-0.32-0.71-0.71
		c0-0.39,0.32-0.71,0.71-0.71h3.53C249.61,14.91,249.92,15.23,249.92,15.62z M242.87,15.62c0,0.39-0.32,0.71-0.71,0.71h-3.53
		c-0.39,0-0.71-0.32-0.71-0.71c0-0.39,0.32-0.71,0.71-0.71h3.53C242.55,14.91,242.87,15.23,242.87,15.62z"/>
</g>
<path class="st0" d="M436.32,83.89c0,1.38,1.11,2.49,2.49,2.49c1.38,0,2.49-1.11,2.49-2.49c0-1.38-1.12-2.49-2.49-2.49
	C437.43,81.4,436.32,82.51,436.32,83.89z"/>
<g>
	<path class="st0" d="M109.86,205.9h16.12c0.39,0,0.71-0.32,0.71-0.71c0-0.39-0.32-0.71-0.71-0.71h-16.12
		c-0.39,0-0.71,0.32-0.71,0.71C109.15,205.59,109.47,205.9,109.86,205.9z"/>
	<path class="st0" d="M101.58,205.91h3.15c0.39,0,0.71-0.32,0.71-0.71c0-0.39-0.32-0.71-0.71-0.71h-3.15
		c-0.39,0-0.71,0.32-0.71,0.71C100.87,205.59,101.19,205.91,101.58,205.91z"/>
</g>
<path class="st0" d="M414.46,217.37c0,0,0.96,6.87-7.06,6.71c0,0,6.89,0.07,6.71,6.52c0,0,0.62-5.07,6.95-6.2
	C421.06,224.4,415.71,225.62,414.46,217.37z"/>
<path class="st0" d="M452.77,120.48c0,0,0.96,6.87-7.06,6.71c0,0,6.89,0.07,6.71,6.52c0,0,0.62-5.07,6.95-6.2
	C459.37,127.5,454.02,128.73,452.77,120.48z"/>
<path class="st0" d="M198.27,27.47c0,0,0.96,6.87-7.06,6.71c0,0,6.89,0.07,6.71,6.52c0,0,0.62-5.07,6.95-6.2
	C204.86,34.5,199.52,35.72,198.27,27.47z"/>
<path class="st0" d="M129.19,46.44c0,0,0.96,6.87-7.06,6.71c0,0,6.89,0.07,6.71,6.52c0,0,0.62-5.07,6.95-6.2
	C135.79,53.47,130.44,54.69,129.19,46.44z"/>
<path class="st0" d="M171.06,17.08c0,0,0.34,2.39-2.46,2.34c0,0,2.4,0.02,2.34,2.27c0,0,0.22-1.77,2.42-2.16
	C173.36,19.53,171.5,19.96,171.06,17.08z"/>
<path class="st0" d="M296.72,99.63c0,0,0.34,2.39-2.46,2.34c0,0,2.4,0.02,2.34,2.27c0,0,0.22-1.77,2.42-2.16
	C299.02,102.08,297.15,102.51,296.72,99.63z"/>
<path class="st0" d="M63.9,140.56c0,0,0.34,2.39-2.46,2.34c0,0,2.4,0.02,2.34,2.27c0,0,0.22-1.77,2.42-2.16
	C66.19,143,64.33,143.43,63.9,140.56z"/>
<path class="st0" d="M272.83,205.11c0,0,0.34,2.39-2.46,2.34c0,0,2.4,0.02,2.34,2.27c0,0,0.22-1.77,2.42-2.16
	C275.12,207.56,273.26,207.98,272.83,205.11z"/>
<g>
	<path class="st0" d="M177.75,166.52H162.1c-2,0-3.63-1.63-3.63-3.63c0-1.96,1.57-3.57,3.52-3.63c0.05-3.06,2.55-5.52,5.62-5.52
		c1.9,0,3.67,0.97,4.71,2.55c2.11-0.3,3.99,1.03,4.53,2.97h0.92c2,0,3.63,1.63,3.63,3.63C181.39,164.89,179.76,166.52,177.75,166.52
		z M162.1,160.33c-1.41,0-2.56,1.15-2.56,2.56c0,1.41,1.15,2.56,2.56,2.56h15.65c1.41,0,2.56-1.15,2.56-2.56
		c0-1.41-1.15-2.56-2.56-2.56h-1.81l-0.07-0.45c-0.27-1.71-1.89-2.91-3.7-2.47l-0.4,0.09l-0.2-0.36c-0.8-1.44-2.33-2.34-3.97-2.34
		c-2.51,0-4.55,2.04-4.55,4.55c0,0.13,0.01,0.26,0.02,0.39l0.05,0.58H162.1z"/>
</g>
<g>
	<path class="st0" d="M364.22,118.93h-15.65c-2,0-3.63-1.63-3.63-3.63c0-1.96,1.57-3.57,3.52-3.63c0.05-3.06,2.55-5.53,5.62-5.53
		c1.9,0,3.67,0.97,4.71,2.55c2.11-0.3,3.99,1.03,4.53,2.97h0.92c2,0,3.63,1.63,3.63,3.63C367.85,117.3,366.22,118.93,364.22,118.93z
		 M348.56,112.74c-1.41,0-2.56,1.15-2.56,2.56c0,1.41,1.15,2.56,2.56,2.56h15.65c1.41,0,2.56-1.15,2.56-2.56
		c0-1.41-1.15-2.56-2.56-2.56h-1.81l-0.07-0.45c-0.27-1.71-1.9-2.9-3.7-2.47l-0.4,0.09l-0.2-0.35c-0.8-1.44-2.33-2.34-3.97-2.34
		c-2.51,0-4.55,2.04-4.55,4.55c0,0.13,0.01,0.26,0.02,0.39l0.05,0.58H348.56z"/>
</g>
<g>
	<path class="st0" d="M214.63,74.01h-15.65c-2,0-3.63-1.63-3.63-3.63c0-1.96,1.57-3.57,3.52-3.63c0.05-3.05,2.55-5.53,5.62-5.53
		c1.9,0,3.67,0.97,4.71,2.55c2.11-0.3,3.99,1.03,4.53,2.97h0.92c2,0,3.63,1.63,3.63,3.63C218.26,72.38,216.63,74.01,214.63,74.01z
		 M198.98,67.82c-1.41,0-2.56,1.15-2.56,2.56c0,1.41,1.15,2.56,2.56,2.56h15.65c1.41,0,2.56-1.15,2.56-2.56
		c0-1.41-1.15-2.56-2.56-2.56h-1.81l-0.07-0.45c-0.27-1.71-1.9-2.9-3.7-2.47l-0.4,0.09l-0.2-0.35c-0.8-1.44-2.33-2.34-3.97-2.34
		c-2.51,0-4.55,2.04-4.55,4.55c0,0.13,0.01,0.26,0.02,0.39l0.05,0.58H198.98z"/>
</g>
<g>
	<g>
		<path class="st1" d="M263.65,274.67L263.65,274.67c-6.72,1.9-13.71-2.01-15.62-8.73L238,230.47c-1.9-6.72,2.01-13.71,8.73-15.62v0
			c6.72-1.9,13.71,2.01,15.62,8.73l10.04,35.47C274.28,265.78,270.38,272.77,263.65,274.67z"/>
		<path class="st1" d="M249.33,274.38L249.33,274.38c-4.99-4.89-5.07-12.9-0.17-17.89l25.82-26.32c4.89-4.99,12.9-5.07,17.89-0.17
			l0,0c4.99,4.89,5.07,12.9,0.17,17.89l-25.82,26.32C262.33,279.19,254.32,279.27,249.33,274.38z"/>
		<g>
			<path class="st2" d="M300.7,223.83c3.39,5.1,2.01,11.98-3.08,15.37c-5.1,3.39-11.98,2.01-15.37-3.08
				c-3.39-5.1-2.01-11.98,3.08-15.37C290.42,217.35,297.31,218.73,300.7,223.83z"/>
			<path class="st2" d="M284.05,228.37L284.05,228.37c-1.54,0.4-3.12-0.53-3.52-2.08l-0.98-3.81c-0.4-1.54,0.53-3.12,2.08-3.52l0,0
				c1.54-0.4,3.12,0.53,3.52,2.08l0.98,3.81C286.52,226.4,285.59,227.97,284.05,228.37z"/>
			<path class="st2" d="M295.17,215.24l-3.93,9.94c-0.61,1.54-2.35,2.3-3.89,1.69l0,0c-1.54-0.61-2.3-2.35-1.69-3.89l3.93-9.94
				c0.61-1.54,2.35-2.3,3.89-1.69l0,0C295.02,211.96,295.78,213.7,295.17,215.24z"/>
			<path class="st2" d="M302.09,217.32l-4.74,9.58c-0.73,1.48-2.53,2.09-4.02,1.36l0,0c-1.48-0.73-2.09-2.53-1.36-4.02l4.74-9.58
				c0.73-1.48,2.53-2.09,4.02-1.36l0,0C302.22,214.04,302.82,215.84,302.09,217.32z"/>
			<path class="st2" d="M307.24,222.66l-6.62,8.39c-1.03,1.3-2.91,1.52-4.21,0.5l0,0c-1.3-1.03-1.52-2.91-0.5-4.21l6.62-8.39
				c1.03-1.3,2.91-1.52,4.21-0.5l0,0C308.04,219.47,308.26,221.36,307.24,222.66z"/>
		</g>
	</g>
	<g>
		<g>
			<path class="st2" d="M234.41,202.34l-0.58-0.02c-3.92-0.15-6.97-3.45-6.81-7.37l0.83-21l14.77,0.58l-0.83,21
				C241.63,199.45,238.33,202.5,234.41,202.34z"/>
			<path class="st3" d="M242.61,173.73l-14.77-0.58l-0.23,5.8c-0.22,5.68,4.4,10.67,10.08,10.26c0.35-0.03,0.71-0.07,1.06-0.13
				c1.18-0.21,2.29-0.63,3.3-1.21L242.61,173.73z"/>
		</g>
		<g>
			
				<ellipse transform="matrix(0.9622 -0.2723 0.2723 0.9622 -34.3233 69.4887)" class="st4" cx="233.25" cy="158.43" rx="18.42" ry="14.18"/>
			
				<ellipse transform="matrix(0.9859 -0.1675 0.1675 0.9859 -22.9612 43.2078)" class="st4" cx="244.69" cy="157.74" rx="16.36" ry="10.65"/>
			
				<ellipse transform="matrix(0.7343 -0.6788 0.6788 0.7343 -40.5281 200.2703)" class="st4" cx="235.59" cy="151.91" rx="16.36" ry="10.65"/>
			<path class="st2" d="M251.16,170.07c1.45,8.15-2.81,15.72-9.52,16.92l0,0c-6.71,1.2-13.33-4.44-14.78-12.58l-1.14-6.41
				c-1.45-8.15,2.81-15.72,9.52-16.92l0,0c6.71-1.2,13.33,4.44,14.79,12.58L251.16,170.07z"/>
			<path class="st4" d="M236.82,150.11c-3.71-3.36-10.17-1.73-14.43,3.63c-4.26,5.36-4.7,12.44-0.99,15.8
				c3.71,3.36,10.17,1.74,14.43-3.63C240.09,160.54,240.54,153.47,236.82,150.11z"/>
			<g>
				<g>
					<g>
						<g>
							<path class="st5" d="M239.27,168.26c-0.21,0-0.43-0.1-0.56-0.29c-0.21-0.31-0.14-0.72,0.17-0.94
								c0.09-0.06,2.23-1.51,4.5-0.19c0.32,0.19,0.43,0.6,0.24,0.92c-0.19,0.32-0.6,0.43-0.92,0.24c-1.52-0.89-2.99,0.09-3.05,0.13
								C239.54,168.22,239.4,168.26,239.27,168.26z"/>
						</g>
						<g>
							<path class="st5" d="M250.92,168.26c-0.13,0-0.26-0.04-0.38-0.12l0,0c-0.06-0.04-1.53-1.02-3.05-0.13
								c-0.32,0.19-0.73,0.08-0.92-0.24c-0.19-0.32-0.08-0.74,0.24-0.92c2.27-1.33,4.41,0.13,4.5,0.19
								c0.31,0.21,0.38,0.63,0.17,0.94C251.34,168.16,251.13,168.26,250.92,168.26z"/>
						</g>
						<g>
							<path class="st5" d="M242.32,170.07c-0.02,0.39-0.34,0.69-0.73,0.68s-0.69-0.34-0.68-0.73c0.02-0.39,0.34-0.69,0.73-0.68
								C242.03,169.36,242.33,169.68,242.32,170.07z"/>
						</g>
						<path class="st5" d="M249.07,170.34c-0.02,0.39-0.34,0.69-0.73,0.68c-0.39-0.02-0.69-0.34-0.68-0.73
							c0.02-0.39,0.34-0.69,0.73-0.68S249.09,169.95,249.07,170.34z"/>
					</g>
					<g>
						<g>
							<path class="st6" d="M250.71,175.24c-0.07,0-0.15,0-0.22-0.01c-1.48-0.06-2.84-0.69-3.85-1.77c-1-1.09-1.52-2.5-1.47-3.98
								c0.06-1.48,0.69-2.84,1.77-3.85c1.09-1,2.49-1.53,3.98-1.47c1.48,0.06,2.84,0.69,3.85,1.77c1,1.09,1.53,2.5,1.47,3.98
								c-0.06,1.48-0.69,2.84-1.78,3.85C253.43,174.72,252.11,175.24,250.71,175.24z M250.7,165.1c-1.16,0-2.26,0.43-3.12,1.22
								c-0.9,0.83-1.43,1.97-1.47,3.2c-0.05,1.23,0.38,2.4,1.22,3.3c0.83,0.9,1.97,1.43,3.2,1.48c1.24,0.02,2.4-0.38,3.31-1.22
								c0.9-0.83,1.43-1.97,1.47-3.2c0.05-1.23-0.39-2.4-1.22-3.31c-0.83-0.9-1.97-1.43-3.2-1.47
								C250.82,165.1,250.76,165.1,250.7,165.1z"/>
						</g>
						<g>
							<path class="st6" d="M238.81,175.45c-0.08,0-0.17,0-0.25-0.01c-3.43-0.14-6.1-3.03-5.97-6.46c0.06-1.66,0.77-3.19,1.99-4.32
								c1.22-1.13,2.81-1.73,4.47-1.65c1.66,0.06,3.19,0.77,4.32,1.99c1.13,1.22,1.71,2.81,1.65,4.47
								c-0.07,1.66-0.77,3.19-1.99,4.32C241.87,174.87,240.38,175.45,238.81,175.45z M238.8,164.06c-1.3,0-2.54,0.48-3.5,1.37
								c-1.01,0.94-1.6,2.21-1.66,3.59l0,0c-0.11,2.85,2.11,5.25,4.96,5.37c1.36,0.07,2.7-0.43,3.71-1.37
								c1.01-0.94,1.6-2.21,1.66-3.59c0.05-1.38-0.43-2.7-1.37-3.71c-0.94-1.01-2.21-1.6-3.59-1.65
								C238.94,164.06,238.87,164.06,238.8,164.06z"/>
						</g>
						<g>
							<path class="st6" d="M243.95,170.2l2.29,0.09c0.27,0.01,0.49-0.2,0.5-0.46l0,0c0.01-0.27-0.2-0.49-0.46-0.5l-2.29-0.09
								c-0.27-0.01-0.49,0.2-0.5,0.46l0,0C243.48,169.97,243.69,170.19,243.95,170.2z"/>
						</g>
					</g>
					<g>
						<path class="st5" d="M248.53,173.44c-0.07,0.8-1,1.54-2.08,1.64c-1.09,0.1-1.91-0.47-1.85-1.27s1-1.54,2.08-1.64
							C247.77,172.07,248.6,172.64,248.53,173.44z"/>
					</g>
					<g>
						<path class="st5" d="M248.07,177.77c-0.07,1.86-1.77,3.31-3.79,3.23s-3.19-2.08-3.11-3.95
							C243.54,176.84,245.84,177.06,248.07,177.77z"/>
						<path class="st6" d="M244.58,178.93c-1.6-0.18-2.58-0.73-2.68-1.93c1.99-0.11,3.94,0.1,5.83,0.65
							C247.45,178.73,246.14,179.11,244.58,178.93z"/>
					</g>
				</g>
				<g>
					<g>
						<g>
							<path class="st7" d="M239.85,181.74L239.85,181.74l-3.97,0c-1.6,0-3.14-0.59-4.33-1.67l-2.48-2.24
								c-0.2-0.18-0.21-0.48-0.03-0.68c0.18-0.2,0.48-0.21,0.68-0.04l2.49,2.24c1.01,0.91,2.32,1.42,3.68,1.42l3.97,0
								c0.27,0,0.48,0.22,0.48,0.48C240.34,181.53,240.12,181.74,239.85,181.74z"/>
						</g>
						<g>
							<path class="st6" d="M239.85,182.23L239.85,182.23l-1.61,0c-0.53,0-0.96-0.43-0.96-0.97c0-0.53,0.43-0.96,0.96-0.96h0l1.61,0
								c0.53,0,0.96,0.43,0.96,0.97C240.82,181.8,240.39,182.23,239.85,182.23z"/>
						</g>
					</g>
					<g>
						
							<ellipse transform="matrix(0.3405 -0.9402 0.9402 0.3405 -12.8552 327.3441)" class="st8" cx="226.92" cy="172.84" rx="8.07" ry="8.07"/>
						
							<ellipse transform="matrix(0.0393 -0.9992 0.9992 0.0393 44.2159 391.568)" class="st0" cx="225.74" cy="172.79" rx="6.89" ry="6.3"/>
						<path class="st9" d="M226.73,172.83c-0.06,1.54-1.08,2.75-2.27,2.7c-1.2-0.05-2.11-1.33-2.05-2.87
							c0.06-1.54,1.08-2.75,2.27-2.7C225.87,170,226.79,171.29,226.73,172.83z"/>
					</g>
				</g>
			</g>
		</g>
	</g>
	<g>
		<path class="st1" d="M246.43,285.53l-38.61,1.09c-6.44-0.25-11.45-5.68-11.2-12.11l2.44-64.62c0.13-3.38,2.37-6.31,5.59-7.34
			l28.79-9.17l23.01,11.03c2.89,1.39,4.68,4.36,4.55,7.56l-2.45,62.37C258.29,280.77,252.86,285.79,246.43,285.53z"/>
		<path class="st10" d="M260.99,211.97c0.13,6.74,0.05,13.47-0.06,20.2c-0.09,6.73-0.33,13.45-0.57,20.18
			c-0.29,6.72-0.58,13.44-1.01,20.16c-0.1,1.63-0.18,3.47-0.8,5.14c-0.58,1.67-1.52,3.21-2.75,4.46c-2.48,2.47-6.01,3.8-9.38,3.43
			c3.37-0.07,6.6-1.58,8.68-4.07c1.07-1.21,1.85-2.66,2.29-4.19c0.47-1.54,0.46-3.11,0.47-4.83c0.09-6.73,0.33-13.45,0.57-20.18
			c0.29-6.72,0.58-13.44,1.02-20.16C259.88,225.39,260.33,218.68,260.99,211.97z"/>
		<path class="st1" d="M244,205.61l-20.84-1.34l0.74-11.4c0.13-2.09,1.94-3.67,4.02-3.53l13.28,0.86c2.09,0.13,3.67,1.94,3.53,4.02
			L244,205.61z"/>
	</g>
	<g>
		<g>
			<path class="st1" d="M181.91,266.59L181.91,266.59c-6.45-2.68-9.51-10.08-6.83-16.54l14.14-34.05
				c2.68-6.45,10.08-9.51,16.54-6.83h0c6.45,2.68,9.51,10.08,6.83,16.54l-14.14,34.05C195.77,266.21,188.36,269.27,181.91,266.59z"
				/>
			<path class="st10" d="M205.75,209.18c2.26,0.73,4.32,2.18,5.84,4.1c1.5,1.94,2.45,4.34,2.66,6.83c0.33,2.48-0.46,5.12-1.37,7.25
				l-2.67,6.57c-1.83,4.36-3.67,8.71-5.64,13.01l-2.97,6.45c-1.05,2.12-2.05,4.27-3.16,6.37c0.7-2.27,1.52-4.49,2.28-6.73l2.47-6.65
				c1.65-4.43,3.44-8.81,5.24-13.18l2.77-6.53c0.47-1.12,0.96-2.1,1.2-3.18c0.26-1.07,0.42-2.18,0.38-3.29
				C212.72,215.73,209.99,211.34,205.75,209.18z"/>
		</g>
		<g>
			<g>
				<g>
					<path class="st5" d="M240.79,248.75l-6.44-0.42c-2.41-0.16-4.25-2.25-4.1-4.66l0.19-2.9c0.16-2.41,2.25-4.25,4.66-4.1
						l6.44,0.42L240.79,248.75z M234.91,239.55c-0.82-0.05-1.54,0.57-1.59,1.4l-0.19,2.9c-0.05,0.82,0.57,1.54,1.4,1.59l3.56,0.23
						l0.38-5.89L234.91,239.55z"/>
				</g>
				<g>
					<path class="st3" d="M247.05,258.01l-5.57-0.36c-3.38-0.22-5.95-3.14-5.73-6.52l1.16-17.91c0.13-2,17.95-0.85,17.82,1.15
						l-1.16,17.91C253.36,255.66,250.44,258.23,247.05,258.01z"/>
					<path class="st5" d="M252.95,234.85c-0.05,0.72-3.36,1.09-7.39,0.83c-4.04-0.26-7.27-1.05-7.22-1.77s3.36-1.09,7.39-0.83
						C249.77,233.34,253,234.13,252.95,234.85z"/>
				</g>
			</g>
			<path class="st1" d="M174.9,255.22L174.9,255.22c0.11-6.99,5.86-12.56,12.85-12.45l36.86,0.58c6.99,0.11,12.56,5.86,12.45,12.85
				l0,0c-0.11,6.99-5.86,12.56-12.85,12.45l-36.86-0.58C180.36,267.95,174.79,262.2,174.9,255.22z"/>
			<path class="st10" d="M187.75,242.77c4.73-0.32,9.46-0.43,14.19-0.51c4.73-0.1,9.46-0.05,14.19,0l7.09,0.16
				c2.32,0.02,5.06,0.33,7.2,1.63c2.2,1.19,4.03,3.02,5.21,5.16c1.16,2.17,1.67,4.63,1.44,7c-0.3-4.75-3.24-9-7.31-10.83
				c-1.01-0.47-2.08-0.77-3.17-0.96c-1.08-0.21-2.18-0.16-3.39-0.17l-7.09-0.06c-4.73-0.1-9.45-0.2-14.18-0.45
				C197.19,243.5,192.47,243.24,187.75,242.77z"/>
			<g>
				
					<ellipse transform="matrix(0.6386 -0.7696 0.7696 0.6386 -108.7418 275.3342)" class="st2" cx="238.75" cy="253.43" rx="11.08" ry="11.08"/>
				<path class="st2" d="M233.01,248.12L233.01,248.12c-1.38-0.48-2.12-1.99-1.64-3.37l1.18-3.42c0.48-1.38,1.99-2.12,3.37-1.64l0,0
					c1.38,0.48,2.12,1.99,1.64,3.37l-1.18,3.42C235.91,247.87,234.4,248.6,233.01,248.12z"/>
				<path class="st2" d="M254.24,249.57l-9.84,0.92c-1.52,0.14-2.87-0.98-3.02-2.5l0,0c-0.14-1.52,0.98-2.87,2.5-3.02l9.84-0.92
					c1.52-0.14,2.87,0.98,3.02,2.5l0,0C256.88,248.08,255.76,249.43,254.24,249.57z"/>
				<path class="st2" d="M252.15,258.62l-9.86-0.64c-1.53-0.1-2.69-1.42-2.59-2.94l0,0c0.1-1.53,1.42-2.69,2.94-2.59l9.86,0.64
					c1.53,0.1,2.69,1.42,2.59,2.94l0,0C255,257.56,253.68,258.71,252.15,258.62z"/>
			</g>
		</g>
	</g>
</g>
<g>
	<g>
		<g>
			<path class="st8" d="M352.41,225c-0.3,0-0.59-0.11-0.82-0.34c-0.45-0.45-0.45-1.18,0-1.63l11.04-11.04
				c0.45-0.45,1.18-0.45,1.63,0c0.45,0.45,0.45,1.18,0,1.63l-11.04,11.04C353,224.89,352.71,225,352.41,225z"/>
		</g>
		<g>
			<g>
				<path class="st8" d="M344.55,218.23c-0.64,0-1.16-0.52-1.16-1.16v-15.61c0-0.64,0.52-1.16,1.16-1.16c0.64,0,1.16,0.52,1.16,1.16
					v15.61C345.71,217.71,345.19,218.23,344.55,218.23z"/>
			</g>
			<g>
				<path class="st8" d="M374.79,232.86h-15.61c-0.64,0-1.16-0.52-1.16-1.16c0-0.64,0.52-1.16,1.16-1.16h15.61
					c0.64,0,1.16,0.52,1.16,1.16C375.95,232.35,375.43,232.86,374.79,232.86z"/>
			</g>
		</g>
	</g>
	<g>
		<g>
			<path class="st10" d="M236.14,281.42h95.51c2.66,0,3.48-2.16,3.48-4.82l0,0H231.32l0,0
				C231.32,279.26,233.48,281.42,236.14,281.42z"/>
			<path class="st10" d="M230.6,276.6h33.86c0,2.67-2.45,4.82-5.48,4.82h-22.19c-0.03,0-6.3,0-6.33,0
				C227.34,281.37,227.48,276.6,230.6,276.6z"/>
			<g>
				<path class="st9" d="M266.57,278h68.57c2.04,0,3.79-1.45,4.16-3.45l9.24-39.66c0.5-2.61-1.51-5.03-4.17-5.03h-68.57
					c-2.04,0-3.79,1.45-4.17,3.45l-9.24,39.66C261.91,275.58,263.91,278,266.57,278z"/>
				<path class="st10" d="M271.65,233.31c0.21-1.1,0.83-2.03,1.69-2.65c1.28,0.93,2.02,2.53,1.69,4.23l-9.24,39.66
					c-0.21,1.1-0.83,2.03-1.69,2.65c-1.28-0.92-2.02-2.53-1.69-4.23L271.65,233.31z"/>
				<g>
					<path class="st11" d="M314.77,258.99h-11.25c-2.31,0-4.18-1.87-4.18-4.18l0,0c0-2.31,1.87-4.18,4.18-4.18h11.25
						c2.31,0,4.18,1.87,4.18,4.18l0,0C318.95,257.12,317.08,258.99,314.77,258.99z"/>
				</g>
			</g>
		</g>
		<g>
			<path class="st10" d="M240.83,277.93h-3.37c-0.67,0-1.2-0.54-1.2-1.2l0,0c0-0.67,0.54-1.2,1.2-1.2h3.37c0.67,0,1.2,0.54,1.2,1.2
				l0,0C242.03,277.39,241.49,277.93,240.83,277.93z"/>
			<path class="st10" d="M247.41,277.93h-3.37c-0.67,0-1.2-0.54-1.2-1.2l0,0c0-0.67,0.54-1.2,1.2-1.2h3.37c0.67,0,1.2,0.54,1.2,1.2
				l0,0C248.62,277.39,248.08,277.93,247.41,277.93z"/>
			<path class="st10" d="M254,277.93h-3.37c-0.67,0-1.2-0.54-1.2-1.2l0,0c0-0.67,0.54-1.2,1.2-1.2H254c0.67,0,1.2,0.54,1.2,1.2l0,0
				C255.2,277.39,254.66,277.93,254,277.93z"/>
			<path class="st10" d="M260.59,277.93h-3.37c-0.67,0-1.2-0.54-1.2-1.2l0,0c0-0.67,0.54-1.2,1.2-1.2h3.37c0.67,0,1.2,0.54,1.2,1.2
				l0,0C261.79,277.39,261.25,277.93,260.59,277.93z"/>
		</g>
	</g>
</g>
<path class="st4" d="M386.26,286.94H97.74c-1.6,0-2.89-1.29-2.89-2.89l0,0c0-1.6,1.29-2.89,2.89-2.89h288.52
	c1.6,0,2.89,1.29,2.89,2.89l0,0C389.15,285.65,387.86,286.94,386.26,286.94z"/>
<g>
	<g>
		<path class="st12" d="M140.93,263.38c0,0-2.12-15.95-5.97-19.88"/>
		<g>
			<path class="st6" d="M135.58,234.01c1.03,3.4,0.82,6.47-0.47,6.86c-1.29,0.39-3.16-2.05-4.19-5.45c-0.01-0.03-0.02-0.07-0.03-0.1
				c-0.87-3.03,3.7-4.41,4.66-1.41C135.56,233.94,135.57,233.98,135.58,234.01z"/>
			<g>
				<path class="st6" d="M141.69,241.61c-3.4,1.03-6.47,0.82-6.86-0.47c-0.39-1.29,2.05-3.16,5.45-4.19
					c0.03-0.01,0.07-0.02,0.1-0.03c3.03-0.87,4.41,3.7,1.41,4.66C141.75,241.59,141.72,241.6,141.69,241.61z"/>
				<path class="st6" d="M130.05,245.12c3.4-1.03,5.84-2.9,5.45-4.19c-0.39-1.29-3.46-1.5-6.86-0.47c-0.03,0.01-0.07,0.02-0.1,0.03
					c-3,0.95-1.62,5.53,1.41,4.66C129.99,245.14,130.02,245.13,130.05,245.12z"/>
			</g>
			<g>
				<path class="st6" d="M135.78,248.99c0.96-3.42,0.68-6.49-0.61-6.85c-1.29-0.36-3.12,2.12-4.07,5.54
					c-0.01,0.03-0.02,0.07-0.03,0.1c-0.81,3.05,3.8,4.33,4.68,1.31C135.76,249.06,135.77,249.02,135.78,248.99z"/>
				<path class="st6" d="M139.06,248c-2.69-2.32-4.16-5.02-3.28-6.04c0.88-1.02,3.77,0.04,6.46,2.36c0.03,0.02,0.05,0.05,0.08,0.07
					c2.36,2.09-0.76,5.71-3.18,3.68C139.11,248.04,139.09,248.02,139.06,248z"/>
			</g>
			<path class="st3" d="M136.72,241.32c0.27,0.88-0.23,1.81-1.11,2.07c-0.88,0.27-1.81-0.23-2.07-1.11
				c-0.27-0.88,0.23-1.81,1.11-2.07C135.52,239.94,136.45,240.44,136.72,241.32z"/>
		</g>
		<g>
			<path class="st8" d="M134.66,253.12c4.42,3.48,6.93,7.66,5.61,9.33c-1.32,1.67-5.96,0.2-10.38-3.28
				c-4.42-3.48-5.61-9.33-5.61-9.33S130.24,249.64,134.66,253.12z"/>
			<path class="st8" d="M150.18,258.39c-4.66,4.38-9.79,6.5-11.44,4.74c-1.66-1.76,0.78-6.74,5.44-11.12
				c4.66-4.38,11.44-4.73,11.44-4.73S154.84,254.01,150.18,258.39z"/>
		</g>
	</g>
	<g>
		<polygon class="st4" points="146.75,282.12 131.49,282.12 128.82,262.93 149.42,262.93 		"/>
		<path class="st4" d="M149.83,267.85h-21.42c-0.81,0-1.47-0.66-1.47-1.47v-4.2c0-0.81,0.66-1.47,1.47-1.47h21.42
			c0.81,0,1.47,0.66,1.47,1.47v4.2C151.3,267.19,150.64,267.85,149.83,267.85z"/>
	</g>
</g>
<g>
	<g>
		<polygon class="st8" points="185.67,119.46 193.23,127.57 250.9,103.52 		"/>
		<polygon class="st0" points="188.36,92.68 182.66,101.28 186.51,109.7 177.87,111.17 170.24,127.93 252.75,102.96 		"/>
		<polygon class="st8" points="186.51,109.7 182.66,101.28 227.35,103.37 		"/>
	</g>
	<g>
		<path class="st8" d="M182.17,192.97c-0.63,0-1.27,0-1.91-0.01c-0.64-0.01-1.15-0.53-1.14-1.17s0.56-1.22,1.17-1.14
			c3,0.03,5.97-0.01,9.23-0.15c0.02,0,0.03,0,0.05,0c0.62,0,1.13,0.49,1.16,1.11c0.03,0.64-0.47,1.18-1.11,1.2
			C187,192.92,184.57,192.97,182.17,192.97z M170.99,192.52c-0.03,0-0.07,0-0.1,0c-3.19-0.27-6.32-0.68-9.31-1.21
			c-0.63-0.11-1.05-0.71-0.94-1.34c0.11-0.63,0.72-1.03,1.34-0.94c2.93,0.52,5.99,0.92,9.11,1.19c0.64,0.05,1.11,0.61,1.05,1.25
			C172.09,192.06,171.59,192.52,170.99,192.52z M152.74,189.18c-0.11,0-0.23-0.02-0.34-0.05c-3.04-0.93-6.01-2.07-8.82-3.39
			c-0.58-0.27-0.83-0.96-0.56-1.54c0.27-0.58,0.97-0.83,1.54-0.56c2.71,1.27,5.57,2.37,8.51,3.27c0.61,0.19,0.95,0.83,0.77,1.44
			C153.7,188.86,153.24,189.18,152.74,189.18z M135.99,181.29c-0.22,0-0.44-0.06-0.64-0.19c-2.62-1.75-5.12-3.71-7.44-5.85
			c-0.47-0.43-0.5-1.16-0.07-1.63s1.17-0.5,1.63-0.07c2.23,2.05,4.64,3.94,7.16,5.62c0.53,0.35,0.67,1.07,0.32,1.6
			C136.73,181.11,136.37,181.29,135.99,181.29z M122.36,168.77c-0.34,0-0.68-0.15-0.91-0.43c-1.97-2.47-3.75-5.11-5.31-7.84
			c-0.32-0.55-0.12-1.26,0.43-1.58c0.56-0.31,1.26-0.12,1.58,0.43c1.5,2.63,3.22,5.16,5.11,7.54c0.4,0.5,0.31,1.23-0.18,1.63
			C122.87,168.69,122.62,168.77,122.36,168.77z M113.2,152.68c-0.47,0-0.91-0.29-1.08-0.75c-1.13-3-2-6.07-2.6-9.12
			c-0.12-0.63,0.29-1.23,0.91-1.36c0.63-0.13,1.23,0.29,1.36,0.91c0.57,2.92,1.41,5.87,2.49,8.74c0.23,0.6-0.08,1.27-0.67,1.49
			C113.48,152.65,113.34,152.68,113.2,152.68z M109.51,134.53c-0.6,0-1.11-0.47-1.15-1.08c-0.12-1.89-0.18-3.88-0.18-5.91v-0.47
			c0-1.01,0.02-2.01,0.05-3.02c0.02-0.62,0.53-1.12,1.16-1.12c0.01,0,0.02,0,0.04,0c0.64,0.02,1.14,0.56,1.12,1.19
			c-0.03,0.99-0.05,1.97-0.05,2.95v0.46c0,1.98,0.06,3.92,0.18,5.76c0.04,0.64-0.44,1.19-1.08,1.23
			C109.56,134.53,109.54,134.53,109.51,134.53z"/>
	</g>
	<g>
		<path class="st8" d="M119.24,116.19c-1.77,0-3.51-0.02-5.21-0.06c-0.64-0.02-1.14-0.55-1.13-1.19c0.02-0.63,0.53-1.13,1.16-1.13
			c0.01,0,0.02,0,0.03,0c2.99,0.08,6.06,0.08,9.24,0.02c0.72-0.04,1.17,0.5,1.18,1.13c0.01,0.64-0.5,1.17-1.13,1.18
			C121.98,116.18,120.6,116.19,119.24,116.19z M132.63,115.8c-0.61,0-1.12-0.48-1.15-1.09c-0.04-0.64,0.45-1.18,1.09-1.22
			c2.99-0.17,6.1-0.39,9.23-0.67c0.62-0.07,1.2,0.41,1.25,1.05c0.06,0.64-0.41,1.2-1.05,1.25c-3.16,0.28-6.29,0.51-9.31,0.67
			C132.68,115.8,132.65,115.8,132.63,115.8z M104.78,115.66c-0.03,0-0.06,0-0.09,0c-3.22-0.25-6.35-0.59-9.31-1.02
			c-0.63-0.09-1.07-0.68-0.98-1.31c0.09-0.63,0.69-1.06,1.31-0.98c2.91,0.42,5.99,0.75,9.16,1c0.64,0.05,1.11,0.61,1.06,1.24
			C105.88,115.2,105.37,115.66,104.78,115.66z M151.15,114.18c-0.58,0-1.08-0.43-1.15-1.02c-0.08-0.63,0.38-1.21,1.01-1.28
			c3-0.35,6.07-0.75,9.19-1.19c0.63-0.1,1.22,0.35,1.31,0.98c0.09,0.63-0.35,1.22-0.98,1.31c-3.14,0.45-6.22,0.85-9.25,1.2
			C151.24,114.18,151.19,114.18,151.15,114.18z M86.39,112.99c-0.08,0-0.17-0.01-0.25-0.03c-2.24-0.5-4.42-1.07-6.48-1.68
			c-0.88-0.26-1.74-0.53-2.59-0.82c-0.61-0.2-0.94-0.85-0.73-1.46c0.2-0.61,0.85-0.94,1.46-0.73c0.83,0.27,1.67,0.54,2.52,0.79
			c2.01,0.6,4.14,1.15,6.32,1.64c0.62,0.14,1.02,0.76,0.88,1.38C87.4,112.63,86.92,112.99,86.39,112.99z M68.83,107.05
			c-0.17,0-0.34-0.04-0.5-0.12c-2.96-1.44-5.71-3.06-8.16-4.81c-0.52-0.37-0.64-1.09-0.27-1.61c0.37-0.52,1.09-0.64,1.61-0.27
			c2.35,1.68,4.99,3.23,7.83,4.61c0.57,0.28,0.82,0.97,0.54,1.55C69.67,106.81,69.25,107.05,68.83,107.05z M108.64,106.02
			c-0.64,0-1.16-0.52-1.16-1.16v-0.41c0-2.92-0.12-5.88-0.35-8.81c-0.05-0.64,0.43-1.19,1.06-1.24c0.61-0.06,1.19,0.43,1.24,1.06
			c0.23,2.99,0.35,6.01,0.35,8.99v0.41C109.8,105.5,109.28,106.02,108.64,106.02z M53.87,96.21c-0.31,0-0.63-0.13-0.85-0.38
			c-2.17-2.37-4.04-4.98-5.56-7.75c-0.31-0.56-0.1-1.26,0.46-1.57c0.56-0.3,1.27-0.1,1.57,0.46c1.43,2.61,3.19,5.07,5.24,7.31
			c0.43,0.47,0.4,1.2-0.08,1.63C54.43,96.11,54.15,96.21,53.87,96.21z M107.15,87.47c-0.55,0-1.04-0.4-1.14-0.96
			c-0.54-3.15-1.22-6.15-2.04-8.94c-0.18-0.61,0.17-1.26,0.78-1.43c0.62-0.19,1.26,0.17,1.43,0.78c0.85,2.87,1.55,5.97,2.11,9.2
			c0.11,0.63-0.32,1.23-0.95,1.34C107.28,87.47,107.22,87.47,107.15,87.47z M45,80.08c-0.51,0-0.97-0.34-1.11-0.85
			c-0.14-0.52-0.28-1.04-0.4-1.57c-0.41-1.74-0.62-3.46-0.62-5.13c0-1,0.07-2,0.22-2.97c0.1-0.63,0.69-1.07,1.32-0.97
			c0.63,0.09,1.07,0.69,0.97,1.32c-0.13,0.86-0.2,1.74-0.2,2.62c0,1.48,0.19,3.03,0.56,4.59c0.12,0.5,0.24,1,0.38,1.49
			c0.17,0.62-0.19,1.25-0.81,1.42C45.21,80.07,45.11,80.08,45,80.08z M101.79,69.71c-0.43,0-0.84-0.24-1.04-0.66
			c-1.38-2.88-2.98-5.46-4.75-7.65c-0.4-0.5-0.32-1.23,0.18-1.63c0.49-0.4,1.22-0.33,1.63,0.18c1.88,2.33,3.57,5.06,5.03,8.1
			c0.28,0.58,0.03,1.27-0.54,1.54C102.13,69.67,101.96,69.71,101.79,69.71z M47.87,62.46c-0.24,0-0.49-0.08-0.7-0.24
			c-0.51-0.39-0.61-1.11-0.22-1.62c1.86-2.44,4.29-4.59,7.24-6.4c0.55-0.33,1.26-0.16,1.59,0.38c0.33,0.54,0.16,1.26-0.38,1.59
			C52.7,57.83,50.48,59.8,48.8,62C48.57,62.3,48.22,62.46,47.87,62.46z M90.09,55.58c-0.22,0-0.44-0.06-0.63-0.19
			c-2.45-1.61-5.18-2.79-8.11-3.51c-0.62-0.15-1-0.78-0.85-1.4c0.15-0.62,0.78-1,1.4-0.85c3.18,0.79,6.15,2.07,8.82,3.82
			c0.53,0.35,0.68,1.07,0.33,1.6C90.84,55.4,90.47,55.58,90.09,55.58z M63.3,52.63c-0.5,0-0.96-0.33-1.11-0.83
			c-0.18-0.61,0.17-1.26,0.78-1.44c2.92-0.86,5.98-1.41,9.09-1.64l0.35-0.01c0.57,0.03,1.17,0.5,1.18,1.13
			c0.01,0.64-0.5,1.17-1.13,1.18l-0.25,0.01c-2.92,0.22-5.82,0.74-8.58,1.55C63.51,52.62,63.4,52.63,63.3,52.63z"/>
	</g>
</g>
<g>
	<g>
		<g>
			<path class="st8" d="M276.65,79.81c-1.57,0-3.14-0.16-4.66-0.47c-0.63-0.13-1.03-0.74-0.9-1.37c0.13-0.63,0.75-1.01,1.37-0.9
				c2.38,0.49,4.88,0.56,7.26,0.2c0.63-0.09,1.22,0.34,1.32,0.97c0.09,0.63-0.34,1.22-0.97,1.32
				C278.94,79.72,277.79,79.81,276.65,79.81z M287.15,77.11c-0.41,0-0.8-0.22-1.01-0.6c-0.31-0.56-0.11-1.26,0.45-1.57
				c2.14-1.18,4.03-2.72,5.63-4.58c0.42-0.48,1.15-0.54,1.63-0.12c0.48,0.42,0.54,1.15,0.12,1.63c-1.78,2.07-3.89,3.78-6.26,5.1
				C287.53,77.06,287.33,77.11,287.15,77.11z M265.1,76.48c-0.21,0-0.42-0.06-0.61-0.18c-2.3-1.45-4.31-3.28-5.97-5.44
				c-0.39-0.51-0.3-1.23,0.21-1.62c0.51-0.39,1.23-0.29,1.62,0.21c1.49,1.94,3.3,3.59,5.37,4.89c0.54,0.34,0.7,1.05,0.36,1.59
				C265.86,76.29,265.48,76.48,265.1,76.48z M296.99,65.66c-0.13,0-0.27-0.02-0.4-0.07c-0.6-0.22-0.9-0.89-0.68-1.49
				c0.85-2.28,1.28-4.69,1.28-7.15c0-0.64,0.52-1.16,1.16-1.16c0.64,0,1.16,0.52,1.16,1.16c0,2.74-0.48,5.41-1.42,7.95
				C297.9,65.37,297.46,65.66,296.99,65.66z M255.91,64.51c-0.5,0-0.95-0.32-1.11-0.82c-0.67-2.17-1.01-4.44-1.01-6.74
				c0-0.43,0.01-0.86,0.04-1.28c0.04-0.64,0.62-1.11,1.22-1.09c0.64,0.04,1.13,0.58,1.09,1.22c-0.02,0.38-0.03,0.76-0.03,1.15
				c0,2.07,0.31,4.11,0.91,6.06c0.19,0.61-0.15,1.26-0.76,1.45C256.14,64.5,256.02,64.51,255.91,64.51z M297.71,52.88
				c-0.52,0-0.99-0.35-1.12-0.88c-0.59-2.37-1.59-4.6-2.97-6.62c-0.36-0.53-0.23-1.25,0.3-1.61c0.53-0.37,1.25-0.23,1.61,0.3
				c1.54,2.25,2.65,4.73,3.31,7.37c0.15,0.62-0.22,1.25-0.84,1.4C297.89,52.87,297.8,52.88,297.71,52.88z M256.75,49.44
				c-0.15,0-0.31-0.03-0.46-0.1c-0.59-0.26-0.85-0.94-0.6-1.52c1.09-2.49,2.6-4.75,4.49-6.71c0.44-0.47,1.17-0.47,1.63-0.03
				c0.46,0.44,0.47,1.17,0.03,1.63c-1.7,1.77-3.06,3.8-4.04,6.04C257.62,49.18,257.2,49.44,256.75,49.44z M289.19,40.41
				c-0.23,0-0.47-0.07-0.67-0.21c-1.99-1.42-4.2-2.46-6.57-3.09c-0.62-0.17-0.98-0.8-0.82-1.42c0.17-0.62,0.79-0.98,1.42-0.82
				c2.63,0.7,5.09,1.86,7.31,3.44c0.52,0.37,0.64,1.09,0.27,1.61C289.91,40.24,289.55,40.41,289.19,40.41z M267.22,38.56
				c-0.43,0-0.84-0.24-1.04-0.66c-0.28-0.58-0.04-1.27,0.54-1.54c2.45-1.18,5.07-1.91,7.78-2.16c0.62-0.06,1.2,0.41,1.26,1.04
				c0.06,0.64-0.41,1.2-1.04,1.26c-2.44,0.23-4.79,0.88-6.99,1.94C267.56,38.53,267.39,38.56,267.22,38.56z"/>
		</g>
		<g>
			<path class="st8" d="M276.65,45.97c-8.37,0-15.16,4.49-15.16,10.02c0,0.01,0,0.02,0,0.03c0.01,1.45,1.15,2.44,2.21,1.98l3.98-1.7
				c0.96-0.41,1.42-1.8,0.99-2.98l-0.49-1.33c0,0,7.31,1.3,16.88,0l-0.49,1.71c-0.31,1.08,0.09,2.29,0.92,2.75l3.94,2.15
				c0.96,0.52,2.07-0.18,2.29-1.49c0.06-0.37,0.09-0.74,0.09-1.12C291.81,50.46,285.02,45.97,276.65,45.97z"/>
			<path class="st0" d="M287.15,67.94h-21.01l3.11-9.76c0.58-1.83,2.28-3.07,4.2-3.07h6.38c1.92,0,3.62,1.24,4.2,3.07L287.15,67.94z
				"/>
		</g>
	</g>
	<g>
		<g>
			<path class="st8" d="M412.08,198.64c-1.57,0-3.14-0.16-4.67-0.48c-0.63-0.13-1.03-0.74-0.9-1.37c0.13-0.63,0.75-1.02,1.37-0.9
				c2.37,0.5,4.89,0.56,7.26,0.2c0.63-0.09,1.22,0.34,1.32,0.97c0.09,0.63-0.34,1.22-0.97,1.32
				C414.37,198.55,413.23,198.64,412.08,198.64z M422.58,195.94c-0.41,0-0.8-0.22-1.01-0.6c-0.31-0.56-0.11-1.26,0.45-1.57
				c2.14-1.19,4.03-2.73,5.63-4.58c0.42-0.48,1.15-0.54,1.63-0.12c0.48,0.42,0.54,1.15,0.12,1.63c-1.78,2.06-3.89,3.78-6.26,5.1
				C422.96,195.89,422.77,195.94,422.58,195.94z M400.54,195.32c-0.21,0-0.42-0.06-0.61-0.18c-2.3-1.45-4.31-3.28-5.97-5.44
				c-0.39-0.51-0.3-1.23,0.21-1.62c0.51-0.39,1.23-0.29,1.62,0.21c1.49,1.94,3.3,3.59,5.37,4.89c0.54,0.34,0.7,1.05,0.36,1.59
				C401.3,195.13,400.92,195.32,400.54,195.32z M432.43,184.5c-0.13,0-0.27-0.02-0.4-0.07c-0.6-0.22-0.9-0.89-0.68-1.49
				c0.85-2.28,1.28-4.69,1.28-7.15c0-0.64,0.52-1.16,1.16-1.16c0.64,0,1.16,0.52,1.16,1.16c0,2.74-0.48,5.41-1.42,7.95
				C433.34,184.21,432.9,184.5,432.43,184.5z M391.34,183.34c-0.5,0-0.95-0.32-1.11-0.82c-0.67-2.17-1.01-4.44-1.01-6.74
				c0-0.43,0.01-0.85,0.04-1.28c0.04-0.64,0.67-1.12,1.22-1.09c0.64,0.04,1.13,0.58,1.09,1.22c-0.02,0.38-0.03,0.77-0.03,1.15
				c0,2.07,0.3,4.1,0.91,6.06c0.19,0.61-0.15,1.26-0.76,1.45C391.57,183.33,391.45,183.34,391.34,183.34z M433.14,171.71
				c-0.52,0-0.99-0.35-1.12-0.88c-0.59-2.37-1.59-4.6-2.97-6.62c-0.36-0.53-0.23-1.25,0.3-1.61c0.53-0.37,1.25-0.23,1.61,0.3
				c1.54,2.25,2.65,4.73,3.31,7.37c0.15,0.62-0.22,1.25-0.84,1.4C433.33,171.7,433.23,171.71,433.14,171.71z M392.19,168.27
				c-0.15,0-0.31-0.03-0.46-0.1c-0.59-0.26-0.85-0.94-0.6-1.52c1.09-2.49,2.6-4.75,4.49-6.71c0.44-0.47,1.17-0.47,1.63-0.03
				c0.46,0.44,0.47,1.17,0.03,1.63c-1.7,1.76-3.06,3.8-4.04,6.04C393.06,168.01,392.63,168.27,392.19,168.27z M424.63,159.25
				c-0.23,0-0.46-0.07-0.67-0.21c-2-1.42-4.21-2.46-6.57-3.09c-0.62-0.17-0.98-0.8-0.82-1.42c0.17-0.62,0.79-0.98,1.42-0.82
				c2.63,0.7,5.09,1.86,7.31,3.44c0.52,0.37,0.64,1.09,0.27,1.61C425.35,159.08,424.99,159.25,424.63,159.25z M402.66,157.4
				c-0.43,0-0.84-0.24-1.04-0.66c-0.28-0.58-0.04-1.27,0.54-1.54c2.45-1.18,5.07-1.91,7.78-2.16c0.65-0.06,1.2,0.41,1.26,1.04
				c0.06,0.64-0.41,1.2-1.04,1.26c-2.44,0.23-4.79,0.88-6.99,1.94C403,157.36,402.83,157.4,402.66,157.4z"/>
		</g>
		<g>
			<rect x="398.45" y="171.67" class="st0" width="26.9" height="15.25"/>
			<g>
				<g>
					<path class="st8" d="M421.66,170.47v-1.87c0-1.37,1.11-2.49,2.49-2.49l0,0c1.37,0,2.49,1.11,2.49,2.49v3.09h-4.98"/>
					<path class="st9" d="M421.71,168.56v15.85h-18.34v-15.85c0-1.37,1.11-2.49,2.49-2.49h18.13l-0.5,0.1
						C422.46,166.49,421.71,167.44,421.71,168.56z"/>
				</g>
				<g>
					<rect x="404.51" y="168.66" class="st8" width="4.07" height="4.17"/>
					<g>
						<g>
							<line class="st13" x1="409.82" y1="168.63" x2="420.16" y2="168.63"/>
							<line class="st13" x1="409.82" y1="170.04" x2="420.16" y2="170.04"/>
							<line class="st13" x1="409.82" y1="171.44" x2="420.16" y2="171.44"/>
							<line class="st13" x1="409.92" y1="172.85" x2="420.26" y2="172.85"/>
						</g>
						<line class="st13" x1="404.51" y1="174.24" x2="420.16" y2="174.24"/>
						<line class="st13" x1="404.51" y1="175.64" x2="420.16" y2="175.64"/>
						<line class="st13" x1="404.51" y1="177.02" x2="420.16" y2="177.02"/>
						<line class="st13" x1="404.51" y1="178.42" x2="412.12" y2="178.42"/>
					</g>
				</g>
			</g>
			<polygon class="st8" points="418.74,186.93 398.45,186.93 398.45,171.67 			"/>
			<polygon class="st8" points="405.06,186.93 425.35,186.93 425.35,171.67 			"/>
			<path class="st8" d="M425.35,186.93H411.9h-13.45l12.08-6.45c0.82-0.57,1.91-0.57,2.74,0L425.35,186.93z"/>
		</g>
	</g>
</g>
</svg>
