<?xml version="1.0" encoding="utf-8"?>
<!-- Generator: Adobe Illustrator 24.1.1, SVG Export Plug-In . SVG Version: 6.00 Build 0)  -->
<svg version="1.1" id="Layer_1" xmlns="http://www.w3.org/2000/svg" xmlns:xlink="http://www.w3.org/1999/xlink" x="0px" y="0px"
	 viewBox="0 0 28.4 28.4" style="enable-background:new 0 0 28.4 28.4;" xml:space="preserve">
<style type="text/css">
	.st0{fill:#FF5555;}
</style>
<g transform="translate(11433 755)">
	<path class="st0" d="M-11418.8-755c-7.8,0-14.2,6.4-14.2,14.2s6.4,14.2,14.2,14.2s14.2-6.4,14.2-14.2S-11410.9-755-11418.8-755z
		 M-11418.8-728.1c-7,0-12.7-5.7-12.7-12.7s5.7-12.7,12.7-12.7s12.7,5.7,12.7,12.7l0,0C-11406.1-733.8-11411.7-728.1-11418.8-728.1
		C-11418.7-728.1-11418.8-728.1-11418.8-728.1z"/>
	<path class="st0" d="M-11421.9-744c0,0.8-0.7,1.5-1.5,1.5s-1.5-0.7-1.5-1.5s0.7-1.5,1.5-1.5l0,0
		C-11422.6-745.5-11421.9-744.8-11421.9-744L-11421.9-744L-11421.9-744z"/>
	<path class="st0" d="M-11412.4-744c0,0.8-0.7,1.5-1.5,1.5s-1.5-0.7-1.5-1.5s0.7-1.5,1.5-1.5S-11412.4-744.8-11412.4-744
		L-11412.4-744z"/>
	<path class="st0" d="M-11418.8-737.8c-3,0-5.8,1.5-7.5,4l1.3,0.8c2.2-3.4,6.7-4.4,10.1-2.2c0.9,0.6,1.6,1.3,2.2,2.2l1.3-0.8
		c-1.4-2.2-3.8-3.7-6.4-4C-11418.1-737.8-11418.4-737.8-11418.8-737.8L-11418.8-737.8z"/>
</g>
</svg>
