<?xml version="1.0" encoding="utf-8"?>
<!-- Generator: Adobe Illustrator 25.2.1, SVG Export Plug-In . SVG Version: 6.00 Build 0)  -->
<svg version="1.1" id="Layer_1" xmlns="http://www.w3.org/2000/svg" xmlns:xlink="http://www.w3.org/1999/xlink" x="0px" y="0px"
	 viewBox="0 0 512 512" style="enable-background:new 0 0 512 512;" xml:space="preserve">
<style type="text/css">
	.st0{fill:#7DC242;}
</style>
<g>
	<g>
		<path class="st0" d="M448,139.7c-0.2-2.1-1.9-3.7-4-3.7h-72v-20C372,52,320,0,256,0S140,52,140,116v20H68c-2.1,0-3.8,1.6-4,3.7
			l-28,368c-0.1,1.1,0.3,2.2,1.1,3c0.8,0.8,1.8,1.3,2.9,1.3h432c1.1,0,2.2-0.5,2.9-1.3s1.1-1.9,1.1-3L448,139.7z M172,116
			c0-46.3,37.7-84,84-84s84,37.7,84,84v20H172V116z M156,248c-22.1,0-40-17.9-40-40c0-16,8-30.3,24-36.7V208c0,8.8,7.2,16,16,16
			s16-7.2,16-16v-36.6c16,6.3,24,20.8,24,36.6C196,230.1,178.1,248,156,248z M356,248c-22.1,0-40-17.9-40-40c0-16,8-30.3,24-36.7
			V208c0,8.8,7.2,16,16,16s16-7.2,16-16v-36.6c16,6.3,24,20.8,24,36.6C396,230.1,378.1,248,356,248z"/>
	</g>
</g>
</svg>
