<?xml version="1.0" encoding="utf-8"?>
<!-- Generator: Adobe Illustrator 24.1.2, SVG Export Plug-In . SVG Version: 6.00 Build 0)  -->
<svg version="1.1" id="Layer_1" xmlns="http://www.w3.org/2000/svg" xmlns:xlink="http://www.w3.org/1999/xlink" x="0px" y="0px"
	 viewBox="0 0 50 50" style="enable-background:new 0 0 50 50;" xml:space="preserve">
<style type="text/css">
	.st0{fill:#2AA3EF;}
	.st1{fill:#FFFFFF;}
</style>
<g id="Twitter" transform="translate(173.9 8)">
	<g transform="matrix(1, 0, 0, 1, -173.9, -8)">
		<circle id="Oval-7" class="st0" cx="25" cy="25" r="21.3"/>
	</g>
	<path id="Twitter-2" class="st1" d="M-140.2,11.6c-0.6,0.3-1.4,0.5-2.1,0.6c0.8-0.4,1.3-1.1,1.6-2c-0.7,0.4-1.5,0.7-2.3,0.9
		c-1.4-1.4-3.6-1.5-5.1-0.2c-0.7,0.7-1.1,1.6-1.1,2.6c0,0.3,0,0.6,0.1,0.8c-2.9-0.1-5.6-1.5-7.4-3.7c-0.9,1.6-0.5,3.7,1.1,4.8
		c-0.6,0-1.1-0.2-1.6-0.4V15c0,1.7,1.2,3.2,2.9,3.5c-0.3,0.1-0.6,0.1-0.9,0.1c-0.2,0-0.4,0-0.7-0.1c0.5,1.5,1.8,2.5,3.3,2.5
		c-1.3,1-2.8,1.5-4.4,1.5c-0.3,0-0.6,0-0.9,0c1.6,1,3.5,1.6,5.5,1.6c6.6,0,10.2-5.4,10.2-10.2c0-0.2,0-0.3,0-0.5
		C-141.3,12.9-140.7,12.3-140.2,11.6L-140.2,11.6z"/>
</g>
</svg>
