<?xml version="1.0" encoding="utf-8"?>
<!-- Generator: Adobe Illustrator 24.1.2, SVG Export Plug-In . SVG Version: 6.00 Build 0)  -->
<svg version="1.1" id="Layer_1" xmlns="http://www.w3.org/2000/svg" xmlns:xlink="http://www.w3.org/1999/xlink" x="0px" y="0px"
	 viewBox="0 0 50 50" style="enable-background:new 0 0 50 50;" xml:space="preserve">
<style type="text/css">
	.st0{fill:#F52929;}
	.st1{fill:#FFFFFF;}
</style>
<g id="Youtube" transform="translate(9 6)">
	<g transform="matrix(1, 0, 0, 1, -9, -6)">
		<circle id="Oval-2" class="st0" cx="25" cy="25" r="21.3"/>
	</g>
	<path id="Youtube-2" class="st1" d="M16,26.6L16,26.6c-0.1,0-5.1,0-6.7-0.2c-0.1,0-0.2,0-0.3-0.1c-0.7,0-1.4-0.4-1.9-0.9
		c-0.6-0.7-0.8-2.1-0.8-2.2c-0.1-1.2-0.2-2.3-0.2-3.5v-1.6c0-1.7,0.2-3.5,0.2-3.5s0.2-1.5,0.8-2.2c0.5-0.5,1.2-0.9,1.9-0.9l0,0h0.1
		c2.7-0.2,6.8-0.2,6.9-0.2c0,0,4.2,0,6.9,0.2H23c0.7,0,1.4,0.3,1.9,0.9c0.6,0.7,0.8,2.1,0.8,2.2c0,0,0.2,1.8,0.2,3.5v1.6
		c0,1.7-0.2,3.5-0.2,3.5s-0.2,1.5-0.8,2.2c-0.5,0.5-1.2,0.9-1.9,0.9l0,0h-0.1C20.2,26.6,16,26.6,16,26.6z M13.6,15.5V23l6.4-3.7
		L13.6,15.5z"/>
</g>
</svg>
