<?xml version="1.0" encoding="utf-8"?>
<!-- Generator: Adobe Illustrator 24.1.1, SVG Export Plug-In . SVG Version: 6.00 Build 0)  -->
<svg version="1.1" id="Layer_1" xmlns="http://www.w3.org/2000/svg" xmlns:xlink="http://www.w3.org/1999/xlink" x="0px" y="0px"
	 viewBox="0 0 100 100" style="enable-background:new 0 0 100 100;" xml:space="preserve">
<style type="text/css">
	.st0{fill:#453B37;}
	.st1{fill:#D93640;}
	.st2{fill:#169B65;}
	.st3{fill:#FFB023;}
</style>
<g>
	<g>
		<path class="st0" d="M5.7,69.28c0.02-0.43,0.14-0.82,0.37-1.17c0.23-0.35,0.55-0.63,0.95-0.83c0.4-0.2,0.81-0.28,1.23-0.25
			c0.42,0.03,0.81,0.17,1.16,0.42c0.35,0.25,0.63,0.58,0.84,1.01c0.21,0.42,0.3,0.85,0.29,1.28c-0.02,0.43-0.14,0.82-0.37,1.17
			c-0.23,0.35-0.54,0.63-0.95,0.83c-0.41,0.2-0.82,0.28-1.24,0.25c-0.42-0.03-0.8-0.17-1.15-0.42c-0.35-0.25-0.63-0.58-0.84-1.01
			C5.78,70.14,5.68,69.71,5.7,69.28z M7.22,70.88c0.23,0.16,0.49,0.25,0.78,0.26c0.29,0.02,0.57-0.04,0.84-0.18
			c0.28-0.14,0.49-0.32,0.65-0.56c0.16-0.24,0.25-0.5,0.26-0.78c0.01-0.28-0.05-0.56-0.18-0.84c-0.14-0.28-0.32-0.49-0.55-0.65
			c-0.23-0.16-0.49-0.25-0.78-0.26c-0.28-0.02-0.57,0.04-0.84,0.18c-0.28,0.14-0.49,0.32-0.65,0.56c-0.16,0.24-0.25,0.5-0.26,0.78
			c-0.01,0.28,0.05,0.56,0.18,0.84C6.8,70.5,6.98,70.72,7.22,70.88z"/>
		<path class="st0" d="M10.2,77.49l0.59-1.54c-0.03-0.03-0.06-0.08-0.11-0.14l-0.58-0.86L8.99,75.7L8.5,74.99l3.82-2.59l1.06,1.57
			c0.22,0.33,0.37,0.66,0.42,0.98c0.06,0.32,0.03,0.61-0.09,0.88c-0.11,0.27-0.31,0.5-0.59,0.69c-0.29,0.19-0.58,0.29-0.89,0.29
			c-0.3,0-0.59-0.1-0.87-0.29l-0.66,1.73L10.2,77.49z M13.05,75.19c0.02-0.25-0.07-0.53-0.28-0.84l-0.56-0.83l-1.52,1.03l0.56,0.83
			c0.21,0.31,0.43,0.5,0.68,0.57c0.24,0.07,0.48,0.02,0.73-0.14C12.89,75.65,13.03,75.44,13.05,75.19z"/>
		<path class="st0" d="M16.15,81.05l0.54,0.61l-1.38,1.22c-0.3-0.05-0.59-0.16-0.88-0.33c-0.29-0.17-0.54-0.38-0.76-0.63
			c-0.31-0.35-0.52-0.74-0.62-1.16c-0.1-0.42-0.08-0.83,0.04-1.23s0.36-0.75,0.7-1.05c0.34-0.3,0.71-0.49,1.13-0.57
			c0.41-0.08,0.82-0.04,1.23,0.11c0.41,0.15,0.77,0.4,1.08,0.76c0.26,0.29,0.44,0.59,0.56,0.92c0.11,0.32,0.15,0.64,0.11,0.97
			l-0.75-0.05c0.03-0.5-0.12-0.93-0.45-1.3c-0.22-0.24-0.46-0.41-0.73-0.51c-0.27-0.1-0.54-0.12-0.82-0.06
			c-0.28,0.06-0.54,0.19-0.77,0.4c-0.23,0.2-0.39,0.44-0.48,0.71c-0.09,0.27-0.1,0.55-0.04,0.83c0.06,0.28,0.2,0.54,0.41,0.78
			c0.24,0.27,0.51,0.45,0.81,0.55L16.15,81.05z"/>
		<path class="st0" d="M19.9,86.35l-1.75-1.51l-1.04,0.51l-0.67-0.58l4.59-2.13l0.64,0.55l-1.44,4.85l-0.68-0.59L19.9,86.35z
			 M20.13,85.66l0.66-2.1l-1.97,0.96L20.13,85.66z"/>
		<path class="st0" d="M28.03,87.78l-2.52,3.86l-0.59-0.39l-0.42-4.01l-1.71,2.62l-0.71-0.47l2.52-3.86l0.59,0.39l0.42,4.01
			l1.71-2.62L28.03,87.78z"/>
		<path class="st0" d="M30.12,88.89l0.76,0.39l-2.1,4.11L28.02,93L30.12,88.89z"/>
		<path class="st0" d="M32.24,94.71c-0.28-0.33-0.45-0.7-0.51-1.11c-0.07-0.41-0.02-0.83,0.15-1.25c0.16-0.42,0.41-0.76,0.74-1.02
			s0.71-0.41,1.13-0.47c0.42-0.05,0.85,0,1.29,0.17c0.35,0.14,0.65,0.32,0.89,0.56c0.24,0.24,0.42,0.51,0.53,0.82l-0.71,0.28
			c-0.18-0.46-0.5-0.77-0.95-0.95c-0.29-0.12-0.58-0.15-0.87-0.12c-0.28,0.04-0.54,0.15-0.76,0.32s-0.39,0.41-0.5,0.7
			c-0.11,0.29-0.15,0.58-0.11,0.86c0.04,0.28,0.15,0.53,0.34,0.75c0.18,0.22,0.42,0.39,0.72,0.5c0.45,0.18,0.9,0.16,1.35-0.06
			l0.32,0.69c-0.29,0.15-0.61,0.24-0.95,0.24c-0.34,0.01-0.69-0.06-1.04-0.19C32.87,95.28,32.52,95.03,32.24,94.71z"/>
		<path class="st0" d="M41.06,97.58c-0.31-0.16-0.54-0.34-0.7-0.54l0.41-0.6c0.16,0.18,0.36,0.34,0.62,0.49
			c0.25,0.14,0.52,0.24,0.79,0.29c0.34,0.06,0.6,0.06,0.79-0.02c0.19-0.08,0.3-0.2,0.33-0.38c0.02-0.13,0-0.24-0.08-0.35
			c-0.08-0.1-0.18-0.19-0.32-0.26c-0.13-0.07-0.32-0.16-0.55-0.27c-0.33-0.15-0.6-0.28-0.79-0.4c-0.2-0.12-0.36-0.28-0.48-0.49
			c-0.12-0.2-0.15-0.45-0.1-0.75c0.05-0.25,0.16-0.47,0.33-0.65c0.17-0.18,0.41-0.31,0.71-0.37c0.3-0.07,0.64-0.07,1.04,0.01
			c0.28,0.05,0.54,0.14,0.8,0.26c0.25,0.12,0.47,0.26,0.64,0.43l-0.39,0.61c-0.18-0.15-0.37-0.28-0.57-0.38s-0.41-0.17-0.61-0.21
			c-0.33-0.06-0.59-0.05-0.77,0.03c-0.18,0.08-0.29,0.22-0.33,0.4c-0.02,0.13,0,0.24,0.08,0.34c0.08,0.1,0.18,0.19,0.32,0.26
			c0.13,0.07,0.32,0.16,0.55,0.27c0.32,0.14,0.58,0.27,0.78,0.4s0.36,0.29,0.48,0.49c0.12,0.2,0.15,0.45,0.1,0.74
			c-0.05,0.25-0.16,0.46-0.33,0.64c-0.17,0.18-0.41,0.3-0.71,0.37c-0.3,0.07-0.65,0.07-1.05-0.01
			C41.7,97.85,41.37,97.74,41.06,97.58z"/>
		<path class="st0" d="M46.92,98.06c-0.33-0.38-0.48-0.9-0.44-1.57l0.15-2.6l0.86,0.05l-0.15,2.57c-0.05,0.9,0.31,1.38,1.09,1.42
			c0.78,0.05,1.19-0.38,1.24-1.29l0.15-2.57l0.84,0.05l-0.15,2.6c-0.04,0.67-0.25,1.17-0.62,1.51c-0.37,0.34-0.88,0.49-1.52,0.45
			C47.74,98.65,47.25,98.44,46.92,98.06z"/>
		<path class="st0" d="M55.9,94.09c0.31,0.11,0.55,0.28,0.72,0.52c0.18,0.23,0.28,0.52,0.3,0.86c0.02,0.33-0.03,0.63-0.17,0.89
			c-0.14,0.26-0.35,0.46-0.64,0.62c-0.29,0.15-0.63,0.24-1.03,0.27l-1.04,0.08l0.1,1.33l-0.86,0.06l-0.33-4.6l1.89-0.14
			C55.24,93.94,55.59,93.98,55.9,94.09z M55.82,96.22c0.18-0.17,0.26-0.4,0.24-0.7c-0.02-0.29-0.13-0.51-0.34-0.66
			c-0.2-0.14-0.49-0.2-0.87-0.18l-1,0.07l0.13,1.83l1-0.07C55.36,96.49,55.63,96.39,55.82,96.22z"/>
		<path class="st0" d="M62.88,96.69l0.14,0.71l-3.4,0.67l-0.89-4.53l3.31-0.65l0.14,0.71l-2.47,0.48l0.23,1.18l2.19-0.43l0.14,0.69
			l-2.19,0.43l0.25,1.25L62.88,96.69z"/>
		<path class="st0" d="M68.42,95.78l-1.32-0.99c-0.04,0.02-0.09,0.04-0.17,0.06l-0.99,0.33l0.42,1.28l-0.81,0.27l-1.45-4.38l1.8-0.6
			c0.38-0.13,0.73-0.17,1.05-0.14c0.32,0.03,0.6,0.14,0.83,0.32c0.23,0.18,0.39,0.44,0.5,0.76c0.11,0.33,0.12,0.64,0.04,0.93
			c-0.08,0.29-0.25,0.55-0.52,0.76l1.48,1.11L68.42,95.78z M66.98,92.41c-0.23-0.09-0.53-0.08-0.88,0.04l-0.95,0.31l0.58,1.75
			l0.95-0.31c0.35-0.12,0.6-0.28,0.73-0.5c0.13-0.21,0.15-0.46,0.06-0.74C67.38,92.68,67.22,92.5,66.98,92.41z"/>
		<path class="st0" d="M75.5,92.62l-1.38-2.73l-0.22,2.94L73.56,93l-2.47-1.55l1.35,2.7l-0.73,0.37l-2.07-4.13l0.63-0.32l3.01,1.91
			l0.24-3.54l0.63-0.32l2.07,4.12L75.5,92.62z"/>
		<path class="st0" d="M80.6,88.11l-1.89,1.32l0.24,1.14l-0.72,0.51l-0.94-4.97l0.69-0.48l4.35,2.59l-0.74,0.51L80.6,88.11z
			 M79.98,87.72l-1.87-1.16l0.45,2.15L79.98,87.72z"/>
		<path class="st0" d="M86.31,84.71l-1.61-0.36c-0.03,0.03-0.07,0.07-0.13,0.12l-0.77,0.7l0.91,0.99l-0.63,0.58l-3.11-3.41l1.4-1.28
			c0.3-0.27,0.6-0.46,0.91-0.56c0.31-0.1,0.6-0.12,0.89-0.04c0.28,0.08,0.54,0.24,0.77,0.49c0.23,0.26,0.37,0.54,0.42,0.83
			c0.04,0.3-0.01,0.6-0.16,0.9l1.81,0.41L86.31,84.71z M83.62,82.22c-0.25,0.01-0.51,0.15-0.79,0.4l-0.74,0.68l1.24,1.36l0.74-0.68
			c0.28-0.25,0.43-0.5,0.47-0.75c0.04-0.25-0.05-0.48-0.24-0.7C84.09,82.31,83.87,82.21,83.62,82.22z"/>
		<path class="st0" d="M88.3,79.78l0.1,1.04l0.9,0.76l-0.55,0.65l-3.52-2.99l0.56-0.65l1.8,1.53l-0.33-3.27l0.62-0.73l0.32,2.81
			l3.28,0.09l-0.65,0.76L88.3,79.78z"/>
		<path class="st0" d="M94.09,73.9l0.6,0.39l-1.9,2.89l-3.86-2.53l1.85-2.82l0.6,0.39L90,74.33l1,0.66l1.22-1.86l0.59,0.39
			l-1.22,1.86l1.06,0.7L94.09,73.9z"/>
		<path class="st0" d="M92.9,69.44l-0.69,1.37l-0.65-0.33l1.76-3.5l0.65,0.33l-0.69,1.37l3.48,1.74l-0.38,0.77L92.9,69.44z"/>
	</g>
	<g>
		<path class="st0" d="M7.13,25.58l7.96,4.42l-0.95,1.72l-6.05,0.9l4.24,2.35l-1.13,2.04l-7.96-4.42l0.95-1.72l6.05-0.9l-4.24-2.35
			L7.13,25.58z"/>
		<path class="st0" d="M18.92,22.61l-2.36,2.67l0.88,1.67l-1.61,1.82l-4.35-8.82l1.56-1.76l9.29,3.24l-1.65,1.86L18.92,22.61z
			 M17.03,21.87l-2.9-1.12l1.46,2.74L17.03,21.87z"/>
		<path class="st0" d="M20.39,14.13l-2.06,1.57l-1.23-1.63l6.02-4.57l1.23,1.63l-2.05,1.56l4.27,5.63l-1.9,1.44L20.39,14.13z"/>
		<path class="st0" d="M30.4,14.71c-0.94-0.38-1.7-1.18-2.27-2.4L26,7.73l2.16-1.01l2.1,4.5c0.61,1.32,1.41,1.76,2.37,1.3
			c0.96-0.45,1.14-1.33,0.52-2.65l-2.09-4.5l2.13-0.99l2.13,4.57c0.57,1.23,0.7,2.32,0.38,3.28c-0.32,0.96-1.05,1.71-2.18,2.23
			C32.37,15.01,31.34,15.09,30.4,14.71z"/>
		<path class="st0" d="M42.39,8.87l-1.28,0.25l0.47,2.37l-2.34,0.46l-1.77-8.93l3.78-0.75c0.75-0.15,1.43-0.14,2.03,0.01
			c0.61,0.16,1.11,0.46,1.5,0.89c0.4,0.44,0.66,0.99,0.8,1.66c0.13,0.65,0.1,1.24-0.08,1.77C45.32,7.16,45,7.62,44.53,7.99
			l2.34,2.45l-2.51,0.5L42.39,8.87z M42.67,4.42c-0.29-0.18-0.68-0.22-1.16-0.13l-1.3,0.26l0.52,2.61l1.3-0.26
			c0.48-0.1,0.82-0.28,1.02-0.55c0.2-0.27,0.26-0.62,0.18-1.04C43.14,4.9,42.96,4.61,42.67,4.42z"/>
		<path class="st0" d="M55.6,8.6l-0.06,1.99l-6.77-0.2l0.26-9.1l6.61,0.19l-0.06,1.99l-4.25-0.12l-0.04,1.53L55.04,5l-0.06,1.92
			l-3.75-0.11l-0.05,1.66L55.6,8.6z"/>
		<path class="st0" d="M66.63,6.04l-0.69,1.88l3.5,1.27l-0.68,1.87l-3.5-1.27l-1.07,2.93l-2.24-0.82l3.12-8.55l6.22,2.26l-0.68,1.87
			L66.63,6.04z"/>
		<path class="st0" d="M71.59,15.56c-0.37-0.73-0.54-1.51-0.48-2.33c0.05-0.82,0.32-1.61,0.82-2.37c0.49-0.76,1.1-1.32,1.84-1.71
			c0.73-0.38,1.51-0.55,2.33-0.5c0.82,0.05,1.6,0.31,2.35,0.8c0.75,0.49,1.31,1.09,1.68,1.82c0.37,0.73,0.53,1.51,0.48,2.33
			s-0.32,1.61-0.82,2.37c-0.49,0.76-1.1,1.32-1.84,1.71c-0.73,0.38-1.51,0.55-2.33,0.5c-0.82-0.05-1.6-0.31-2.35-0.8
			C72.53,16.9,71.96,16.29,71.59,15.56z M75.58,15.96c0.41,0.01,0.8-0.1,1.19-0.32c0.38-0.22,0.71-0.55,0.99-0.97
			c0.28-0.43,0.44-0.86,0.49-1.3c0.05-0.44-0.02-0.84-0.19-1.22c-0.17-0.37-0.44-0.67-0.79-0.9s-0.74-0.35-1.15-0.36
			c-0.41-0.01-0.8,0.1-1.19,0.32c-0.38,0.22-0.71,0.55-0.99,0.97c-0.28,0.43-0.44,0.86-0.49,1.3c-0.05,0.44,0.02,0.85,0.19,1.22
			c0.17,0.37,0.44,0.67,0.79,0.9S75.18,15.95,75.58,15.96z"/>
		<path class="st0" d="M80.33,22.16c-0.19-0.8-0.16-1.59,0.09-2.38c0.25-0.79,0.7-1.49,1.36-2.1c0.66-0.61,1.39-1.02,2.19-1.21
			c0.8-0.19,1.6-0.17,2.38,0.07s1.48,0.69,2.09,1.34c0.61,0.65,1.01,1.38,1.19,2.17c0.19,0.8,0.16,1.59-0.09,2.38
			c-0.25,0.79-0.7,1.49-1.36,2.1c-0.66,0.62-1.39,1.02-2.19,1.21c-0.8,0.19-1.6,0.17-2.38-0.07c-0.78-0.24-1.48-0.69-2.09-1.34
			C80.92,23.68,80.52,22.96,80.33,22.16z M84.11,23.5c0.39,0.1,0.8,0.1,1.23-0.03c0.43-0.12,0.83-0.36,1.2-0.71
			c0.37-0.35,0.64-0.73,0.79-1.15c0.15-0.42,0.19-0.82,0.11-1.22c-0.08-0.4-0.26-0.76-0.55-1.07c-0.29-0.31-0.63-0.52-1.03-0.62
			c-0.39-0.1-0.8-0.1-1.23,0.03c-0.43,0.12-0.82,0.36-1.2,0.71c-0.37,0.35-0.64,0.73-0.79,1.15c-0.15,0.42-0.19,0.82-0.11,1.22
			c0.08,0.4,0.26,0.76,0.55,1.07C83.38,23.19,83.72,23.4,84.11,23.5z"/>
		<path class="st0" d="M93.88,24.76l1.99,3.46c0.46,0.8,0.71,1.6,0.74,2.41c0.03,0.81-0.15,1.55-0.55,2.23
			c-0.4,0.68-0.99,1.25-1.79,1.71c-0.8,0.46-1.59,0.69-2.38,0.69s-1.52-0.22-2.2-0.65c-0.68-0.43-1.25-1.05-1.71-1.85l-1.99-3.46
			L93.88,24.76z M89.71,31.65c0.36,0.63,0.84,1.02,1.44,1.18c0.6,0.16,1.24,0.04,1.92-0.34c0.68-0.39,1.1-0.88,1.26-1.48
			c0.17-0.6,0.07-1.21-0.29-1.84l-0.75-1.31l-4.33,2.49L89.71,31.65z"/>
	</g>
	<g>
		<path class="st0" d="M84.25,48.15c3.24,6.71,1.4,17.9-4.11,24.95c-3.96,5.06-9.4,7.71-15.66,7.71c-1.61,0-3.27-0.17-4.98-0.53
			c-0.03-0.01-0.07-0.02-0.11-0.03c-3.49-1.05-6.45-2.7-8.8-4.87c-0.22,1.07-0.75,2.04-1.57,2.84c-0.08,0.07-0.16,0.13-0.25,0.18
			c-1.82,1.07-3.92,1.03-5.96-0.1c-2.22,0.8-4.44,1.2-6.63,1.2c-5.84,0-11.37-2.82-15.37-8.1c-6.05-7.98-7.15-19.08-2.65-25.62
			c-0.53-2.27-0.01-4.3,1.51-5.77c0.07-0.07,0.16-0.13,0.25-0.18c1.82-1.07,3.92-1.03,5.97,0.1c3.16-1.09,6.85-1.04,10.66,0.13
			c-0.06-0.23-0.13-0.45-0.18-0.69c-0.67-2.76-0.73-5.57-0.2-8.32c0.7-3.63,2.4-6.98,4.91-9.69c0.36-0.39,0.92-0.53,1.42-0.34
			c3.28,1.2,6.18,3.26,8.4,5.94c1.94,2.33,3.28,5.02,3.98,7.98c0.07,0.32,0.15,0.63,0.2,0.94c0.19,1,0.3,2.02,0.33,3.04
			c1.38-0.46,2.84-0.57,4.37-0.33c-0.11-0.24-0.22-0.49-0.31-0.75c-1.28-3.46-0.44-7.42,2.14-10.08c0.28-0.29,0.67-0.44,1.07-0.4
			c3.69,0.36,6.89,2.82,8.16,6.28c0.29,0.77,0.46,1.57,0.54,2.37c0.05-0.07,0.11-0.13,0.17-0.2c3.05-3.38,7.12-5.08,10.86-4.55
			c0.72,0.1,1.23,0.77,1.12,1.49c-0.1,0.72-0.77,1.22-1.49,1.12c-2.83-0.4-6.11,1.02-8.54,3.71c-0.84,0.92-1.6,1.97-2.33,3.22
			c-0.1,0.16-0.18,0.31-0.27,0.45c-0.3,0.54-0.6,1.11-0.91,1.73c0.44,0.03,0.88,0.01,1.33-0.06C77.59,42,82.17,43.84,84.25,48.15z
			 M78.06,71.48c5.37-6.87,6.3-17.02,3.81-22.19c-1.96-4.06-6.59-4.27-10.14-3.72c-2.35,0.36-4.7-0.23-6.6-1.67
			c-2.86-2.16-7.04-4.18-10.69-1.54c-4.65,3.36-8.65,12.73-7.19,21.33c0.83,4.89,3.73,11.28,12.84,14.02
			C69.42,79.63,75.01,75.38,78.06,71.48z M67.7,40.77c1.17-1.83,1.44-4.09,0.67-6.19c-0.77-2.1-2.45-3.65-4.52-4.28L67.7,40.77z
			 M66.47,41.22l-3.86-10.47c-1.17,1.83-1.44,4.09-0.67,6.19C62.72,39.04,64.39,40.59,66.47,41.22z M52.77,40.32
			c0.06-1.33-0.03-2.65-0.28-3.94c-0.05-0.29-0.11-0.56-0.17-0.84c-0.53-2.19-1.46-4.21-2.77-6.01l-3.71,5.72l2.45,10.2
			C49.56,43.36,51.07,41.58,52.77,40.32z M45.42,33.48l3.27-5.04c-1.52-1.79-3.4-3.23-5.51-4.26L45.42,33.48z M47.3,76.23
			c0.84-0.9,1.02-2.12,0.54-3.63c-0.05-0.15-0.06-0.3-0.05-0.45c-1.56-2.31-2.63-5-3.14-8c-0.81-4.8-0.08-10.16,1.73-14.76
			c-2.27-2.49-5.05-4.5-8.09-5.85c-0.03-0.01-0.05-0.02-0.08-0.03c-4.35-1.91-8.6-2.22-11.96-0.87c-0.4,0.16-0.86,0.11-1.21-0.13
			c-1.91-1.24-3.12-0.75-3.64-0.46c-0.42,0.42-1.23,1.46-0.53,3.62c0.13,0.42,0.05,0.86-0.21,1.21c-4.2,5.47-3.18,15.78,2.27,22.97
			c4.96,6.55,12.26,8.71,19.54,5.8c0.4-0.16,0.86-0.11,1.22,0.13C45.56,77,46.78,76.51,47.3,76.23z M47.18,46.42l-2.6-10.84
			l-5.98-2.97c-0.26,2.04-0.15,4.11,0.34,6.16c0.13,0.53,0.28,1.06,0.45,1.57c0.12,0.34,0.25,0.66,0.38,0.98
			C42.49,42.58,45.01,44.31,47.18,46.42z M44.17,33.91l-2.26-9.42c-1.5,2-2.56,4.3-3.08,6.76L44.17,33.91z"/>
		<path class="st0" d="M55.65,44.9c0.29,0.22,0.34,0.63,0.12,0.92c-0.08,0.11-7.85,10.44-4.33,20.59c0.12,0.34-0.06,0.72-0.4,0.84
			c-0.07,0.03-0.15,0.04-0.22,0.04c-0.28,0-0.53-0.17-0.63-0.45c-3.75-10.81,4.19-21.37,4.53-21.81
			C54.94,44.73,55.36,44.68,55.65,44.9z"/>
		<g>
			<path class="st1" d="M81.87,49.29c2.49,5.17,1.56,15.32-3.81,22.19c-3.05,3.9-8.64,8.16-17.97,6.24
				c-9.11-2.74-12.01-9.14-12.84-14.02c-1.46-8.6,2.55-17.97,7.19-21.33c3.65-2.64,7.83-0.63,10.69,1.54
				c1.9,1.44,4.25,2.04,6.6,1.67C75.28,45.02,79.91,45.23,81.87,49.29z M55.77,45.82c0.22-0.29,0.17-0.7-0.12-0.92
				c-0.29-0.22-0.71-0.16-0.92,0.13c-0.34,0.44-8.28,11-4.53,21.81c0.1,0.28,0.35,0.45,0.63,0.45c0.07,0,0.15-0.01,0.22-0.04
				c0.34-0.12,0.52-0.49,0.4-0.84C47.92,56.27,55.69,45.93,55.77,45.82z"/>
			<path class="st2" d="M68.37,34.57c0.77,2.1,0.5,4.36-0.67,6.19l-3.85-10.47C65.93,30.93,67.6,32.48,68.37,34.57z"/>
			<path class="st2" d="M62.61,30.75l3.86,10.47c-2.08-0.63-3.75-2.18-4.52-4.28C61.17,34.84,61.44,32.58,62.61,30.75z"/>
			<path class="st2" d="M52.5,36.38c0.25,1.29,0.34,2.61,0.28,3.94c-1.71,1.26-3.22,3.03-4.48,5.12l-2.45-10.2l3.71-5.72
				c1.31,1.81,2.24,3.82,2.77,6.01C52.39,35.82,52.44,36.09,52.5,36.38z"/>
			<path class="st2" d="M48.69,28.44l-3.27,5.04l-2.24-9.3C45.3,25.21,47.17,26.65,48.69,28.44z"/>
			<path class="st3" d="M47.84,72.59c0.48,1.52,0.3,2.74-0.54,3.63c-0.52,0.28-1.74,0.77-3.63-0.47c-0.36-0.24-0.82-0.28-1.22-0.13
				c-7.27,2.91-14.58,0.75-19.54-5.8c-5.45-7.19-6.47-17.49-2.27-22.97c0.26-0.34,0.34-0.79,0.21-1.21
				c-0.69-2.16,0.12-3.2,0.53-3.62c0.52-0.28,1.73-0.78,3.64,0.46c0.36,0.24,0.81,0.28,1.21,0.13c3.36-1.35,7.62-1.04,11.96,0.87
				c0.03,0.01,0.05,0.02,0.08,0.03c3.04,1.35,5.82,3.36,8.09,5.85c-1.81,4.6-2.54,9.96-1.73,14.76c0.51,3.01,1.58,5.69,3.14,8
				C47.78,72.29,47.8,72.44,47.84,72.59z"/>
			<path class="st2" d="M44.57,35.58l2.6,10.84c-2.17-2.1-4.69-3.84-7.4-5.1c-0.13-0.32-0.26-0.64-0.38-0.98
				c-0.18-0.51-0.33-1.04-0.45-1.57c-0.49-2.04-0.61-4.11-0.34-6.16L44.57,35.58z"/>
			<path class="st2" d="M41.91,24.49l2.26,9.42l-5.34-2.66C39.35,28.79,40.4,26.49,41.91,24.49z"/>
		</g>
	</g>
</g>
</svg>
