<?xml version="1.0" encoding="utf-8"?>
<!-- Generator: Adobe Illustrator 24.2.3, SVG Export Plug-In . SVG Version: 6.00 Build 0)  -->
<svg version="1.1" id="Layer_1" xmlns="http://www.w3.org/2000/svg" xmlns:xlink="http://www.w3.org/1999/xlink" x="0px" y="0px"
	 viewBox="0 0 1920 1080" style="enable-background:new 0 0 1920 1080;" xml:space="preserve">
<style type="text/css">
	.st0{fill:#F3F3FF;}
	.st1{fill:none;stroke:#1A80BF;stroke-width:1.8111;stroke-miterlimit:10;}
	.st2{fill:none;stroke:#1A80BF;stroke-width:1.8111;stroke-miterlimit:10;stroke-dasharray:10.905,10.905;}
	.st3{fill:#1A80BF;}
	.st4{fill:none;stroke:#1A80BF;stroke-width:1.8111;stroke-miterlimit:10;stroke-dasharray:10.4954,10.4954;}
	.st5{fill:none;stroke:#1A80BF;stroke-width:1.8111;stroke-miterlimit:10;stroke-dasharray:10.7267,10.7267;}
	.st6{fill:#013F5C;}
	.st7{fill:#28617A;}
	.st8{fill:#EEB286;}
	.st9{fill:#644780;}
	.st10{fill:#2E1F3D;}
	.st11{fill:#7DBC41;}
	.st12{fill:#D99EB4;}
	.st13{fill:#352F80;}
	.st14{fill:#E9CEB3;}
	.st15{fill:#2A1625;}
	.st16{fill:#D15D3E;}
	.st17{fill:#EE8D86;}
	.st18{fill:#CA916B;}
	.st19{fill:#BA879A;}
	.st20{fill:#462B62;}
	.st21{fill:#FFFFFF;}
	.st22{fill:#DB789C;}
	.st23{fill:#B85D7F;}
	.st24{fill:#F3CEDC;}
	.st25{fill:#104A66;}
	.st26{fill:#0D3F57;}
	.st27{fill:#135D80;}
	.st28{fill:#FCD2E2;}
	.st29{fill:#FDAECB;}
	.st30{fill:#5F46F1;}
	.st31{fill:#F8AE81;}
	.st32{fill:#242266;}
	.st33{fill:#2A3554;}
	.st34{fill:#CCCCFF;}
	.st35{fill:#445279;}
	.st36{fill:#8380F9;}
	.st37{fill:#161642;}
	.st38{fill:#FA8465;}
	.st39{fill:#FA664D;}
</style>
<rect x="-8.5" y="125.4" class="st0" width="1936.9" height="954.6"/>
<g>
	<g>
		<g>
			<path class="st1" d="M1640.9,765.2c-0.5-1.8-0.8-3.6-0.9-5.3"/>
			<path class="st2" d="M1640.6,749c1.7-8.3,6.1-16.2,12.2-22.2c9.9-9.9,23.7-15.3,37.6-17.4c35-5.3,69.7,8.7,102.4,22.2
				c25.3,10.4,51.9,21,78.7,22.5"/>
			<path class="st1" d="M1877,754.3c1.8,0,3.6,0,5.4-0.1"/>
			<g>
				<polygon class="st3" points="1880.6,763.3 1895.4,752.9 1879,745.3 				"/>
			</g>
		</g>
	</g>
	<g>
		<g>
			<path class="st1" d="M1625.3,768.3c-0.9-1.6-1.6-3.2-2.3-4.9"/>
			<path class="st4" d="M1619.7,753.4c-5-21.7,1.4-46.1,17.5-61.6c12.9-12.4,27.2-15.2,42.3-24.8c15.1-9.6,41.1-18.5,40.6-45
				c-0.4-22-9.3-35.1-16.6-45c-8-10.9-16.1-19.8-26.3-27.8"/>
			<path class="st1" d="M1673.2,546c-1.4-1.1-2.9-2.1-4.4-3.1"/>
			<g>
				<polygon class="st3" points="1675.7,536.8 1657.7,536 1666.1,552 				"/>
			</g>
		</g>
	</g>
	<g>
		<g>
			<path class="st1" d="M1616.8,769.8c-1.8-0.2-3.6-0.7-5.3-1.3"/>
			<path class="st5" d="M1602.7,762.5c-5.8-5.9-9.3-14.5-9.8-22.9c-0.8-13.9,4.6-27.3,9.3-40.4c4.7-13.1,8.9-27.2,5.6-40.7
				c-4.2-17.4-20.6-30.2-38.2-33.6s-36,1.2-52.1,9.2s-30.3,19.1-44.9,29.5c-21.2,15.1-43.7,29.2-69,35.2c-17.5,4.2-36.6,4-53.4-1.9"
				/>
			<path class="st1" d="M1345.2,695c-1.7-0.7-3.3-1.5-4.9-2.3"/>
			<g>
				<polygon class="st3" points="1347.5,686.3 1329.5,685.5 1337.8,701.5 				"/>
			</g>
		</g>
	</g>
	<path class="st1" d="M1638.6,604.7l34.9,7.9c2.3,0.5,4.6-0.9,5.1-3.2l3-13.2c0.5-2.3-0.9-4.6-3.2-5.1l-34.9-7.9
		c-2.3-0.5-4.6,0.9-5.1,3.2l-3,13.2C1634.9,601.9,1636.3,604.2,1638.6,604.7z"/>
	<polyline class="st1" points="1680.9,592.7 1658,600.1 1640.9,583.7 	"/>
	<line class="st1" x1="1665.3" y1="597.7" x2="1677" y2="611.9"/>
	<line class="st1" x1="1652.5" y1="594.8" x2="1635.7" y2="602.5"/>
	<path class="st1" d="M1372.1,745.4l35.6-3.2c2.4-0.2,4.1-2.3,3.9-4.7l-1.2-13.5c-0.2-2.4-2.3-4.1-4.7-3.9l-35.6,3.2
		c-2.4,0.2-4.1,2.3-3.9,4.7l1.2,13.5C1367.6,743.8,1369.7,745.6,1372.1,745.4z"/>
	<polyline class="st1" points="1408.6,720.9 1389.1,735 1367.7,724.6 	"/>
	<line class="st1" x1="1395.3" y1="730.5" x2="1410.8" y2="740.3"/>
	<line class="st1" x1="1382.2" y1="731.7" x2="1368.6" y2="744.1"/>
	<path class="st1" d="M1510.5,674.3l32.3,3c2.1,0.2,4-1.4,4.2-3.5l1.2-12.2c0.2-2.1-1.4-4-3.5-4.2l-32.3-3c-2.1-0.2-4,1.4-4.2,3.5
		l-1.2,12.2C1506.8,672.2,1508.3,674.1,1510.5,674.3z"/>
	<polyline class="st1" points="1547.1,658.6 1527.4,667.9 1510.1,655.1 	"/>
	<line class="st1" x1="1533.7" y1="664.9" x2="1545.9" y2="676.2"/>
	<line class="st1" x1="1521.8" y1="663.8" x2="1507.6" y2="672.6"/>
	<g>
		<path class="st1" d="M1805.1,721.5l40.1-1.6c2.7-0.1,4.7-2.4,4.6-5l-0.6-15.2c-0.1-2.7-2.4-4.7-5-4.6l-40.1,1.6
			c-2.7,0.1-4.7,2.4-4.6,5l0.6,15.2C1800.2,719.6,1802.5,721.6,1805.1,721.5z"/>
		<polyline class="st1" points="1847.5,696.1 1824.8,710.8 1801.4,698 		"/>
		<line class="st1" x1="1832.1" y1="706.1" x2="1848.9" y2="718"/>
		<line class="st1" x1="1817.3" y1="706.7" x2="1801.4" y2="719.9"/>
	</g>
</g>
<g>
	<g>
		<rect x="397.6" y="1019.1" class="st6" width="70.6" height="5.5"/>
		<polygon class="st7" points="396.4,1080 385.3,1080 397.2,923.2 408.3,923.2 		"/>
		<polygon class="st7" points="469.3,1080 480.4,1080 468.6,923.2 457.5,923.2 		"/>
		<path class="st6" d="M479,909.6h-92.2c-1.9,0-3.4,1.5-3.4,3.4v6.7c0,1.9,1.5,3.4,3.4,3.4H479c1.9,0,3.4-1.5,3.4-3.4V913
			C482.4,911.2,480.9,909.6,479,909.6z"/>
	</g>
	<g>
		<rect x="216.6" y="1019.1" class="st6" width="70.6" height="5.5"/>
		<polygon class="st7" points="215.4,1080 204.4,1080 216.2,923.2 227.3,923.2 		"/>
		<polygon class="st7" points="288.3,1080 299.4,1080 287.6,923.2 276.5,923.2 		"/>
		<path class="st6" d="M298,909.6h-92.2c-1.9,0-3.4,1.5-3.4,3.4v6.7c0,1.9,1.5,3.4,3.4,3.4H298c1.9,0,3.4-1.5,3.4-3.4V913
			C301.4,911.2,299.9,909.6,298,909.6z"/>
	</g>
	<g>
		<path class="st8" d="M399.8,974.8c0,0,8,14.1,12.1,17.1c4.2,3,10.1,7.3,10,9c-0.4,5-22.3,43-33.5,43.5c-11.7,0.6,4.1-32.1,3.3-38
			c-0.8-5.9-10.9-19.9-10.9-19.9L399.8,974.8z"/>
		<path class="st9" d="M380.8,987.4c0,0,3,6.9,4.5,7.3c1.5,0.4,19.8-6.8,20.4-12.4c0,0-1.7-5.4-4.6-7.8
			C398.1,971.9,380.8,987.4,380.8,987.4z"/>
		<path class="st3" d="M425.4,909.8c-7.1,0-13.1-0.1-18.3-0.2c-0.4,0-0.7,0-1.1,0c-17.7-0.4-24.5-1.3-27.1-1.9
			c-1.2-0.3-1.5-0.5-1.6-0.6c0,0.1,0.1,0.1,0.1,0.2c5.2,10.2,28.8,45,24.2,68c-1,5-19.1,14.8-22.7,14.2
			C355,985,320.1,900.4,325,881.7c5.5-21,60.6-33.3,60.6-33.3C490.4,838.5,465.3,909.8,425.4,909.8z"/>
		<path class="st8" d="M448.1,975.9c0,0,3,16,6,20.1s7.2,10.2,6.5,11.8c-2,4.7-32.3,30.1-44,30s12.5-28.6,13.6-34.5
			c1.1-5.8-3.9-22.4-3.9-22.4L448.1,975.9z"/>
		<path class="st9" d="M424.3,980c0,0,1.9,7.4,3.1,8.3c2.5,1.9,20.9,1.3,23.6-3.6c0,0,0.5-5.6-1.3-9
			C447.9,972.3,424.3,980,424.3,980z"/>
		<path class="st3" d="M474.6,847.6c0,0,13.7,20.9,5.3,46.6c-5.5,16.7-30.4,15.8-30.4,15.8s6.8,52.4,3.3,64.9
			c-2,7.2-25.3,9.6-32.1,5.1c-13.7-9-19.7-82-11.6-109.5C416.4,846,474.6,847.6,474.6,847.6z"/>
		<path class="st10" d="M417.6,641.5c1,0.5,1.9,1.1,2.8,1.7c4.7,3.3,8,8.2,10.7,13.2c1.9,3.7,3.5,7.6,5.1,11.5
			c4.1,10.3,9.2,21.4,19.4,25.8c4.4,1.9,9.5,2.4,13.5,5c6.1,4,8.2,12.3,6.6,19.3s-6.3,13.1-11.6,18.1c-21.1,20-52.1,26.8-81,23.8
			c-10.4-1.1-21.7-4-27.4-12.7c-4.6-7-4.3-16.3-1.9-24.3c4.1-13.7,13.8-25.6,15.3-39.8c0.6-6.1-0.3-12.2-0.3-18.4
			c0-6.1,1.2-12.6,5.3-17.2c1.5-1.6,3.4-2.9,5.5-3.6c2.5-0.9,4.8-0.4,7.3-0.4c3.4,0.1,6.7-1.2,9.9-2.4c2-0.8,4.1-1.6,6.2-1.9
			C408,638.5,413.1,639.2,417.6,641.5z"/>
		<g>
			<path class="st8" d="M332.9,717.3c0,0-1.5-14,1.8-26.5c2.3-8.7,27.2,4.7,27.1,6.9c-0.4,7.8-9.5,17.6-10.2,21.4
				C350.9,722.8,332.9,717.3,332.9,717.3z"/>
			<path class="st11" d="M382.7,730.9c0,0-28.8,33.7-33.1,33.4c-6.3-0.6,7.1-47,6.4-47.8c-5.7-6.6-24.4-4.3-24.4-4.3
				s-24.7,85.2,6.3,85.2c28.1,0,56.9-20.3,56.9-20.3L382.7,730.9z"/>
			<path class="st12" d="M382.7,730.9c0,0,4.2,37.7-3.7,55.2l19.9-11.5L382.7,730.9z"/>
			<path class="st13" d="M334.1,685.8c0,0-2,24,16.2,24c18.1,0,15.4-24,15.4-24S353.8,683.5,334.1,685.8z"/>
			<path class="st8" d="M331.3,692.7c0,0-0.2,12.4,7.5,14.4c7.7,2.1,17.4-4.8,16.3-6.7c-1.1-2-13.4,1.5-13.4,1.5s13.9-3.4,14-6.5
				s-16.1-0.5-16.1-0.5s14.3-2.9,13.7-5.3C352.7,687.1,331.8,687.8,331.3,692.7z"/>
		</g>
		<path class="st11" d="M474.6,847.6c-85.6,20-89,0.9-89,0.9s4-61.8,3.4-83.2c-0.2-8.3-6.3-34.3-6.3-34.3s17.1-15.2,41.4-16.4
			c23.1-1.1,44.1,14.1,44.1,14.1s-2.6,24.1-3.3,32.6C462.8,782.4,477.8,846.8,474.6,847.6z"/>
		<g>
			<path class="st8" d="M420.3,670.2c1.4,18.6,5.3,51.4,5.3,51.4c-4.4,7.3-20.2,5.9-19.7,3.4c0.2-1.4,0-3.8-0.8-6.1
				c-0.6-1.7-1.5-3.3-2.6-4.2c-0.5-0.4-1.4-0.5-2.5-0.5c-0.2,0-0.3,0-0.3,0c-5.2-0.1-15.4,1.6-19.6-4.8c-5.3-8-5.3-29.9-4.4-40.4
				c0.5-6,5.9-14.3,16.4-15.9C404.9,651.2,418.9,651.5,420.3,670.2z"/>
			<path class="st14" d="M417.4,709.6c0,0-4.1,5.6-12.3,9.4c-0.6-1.7-1.5-3.3-2.6-4.2c-0.5-0.4-1.4-0.5-2.5-0.5
				C401.5,714.3,409.3,714,417.4,709.6z"/>
			<g>
				<path class="st15" d="M393.1,683c0,1.1-0.7,2-1.6,2s-1.6-0.9-1.7-2c0-1.1,0.7-2,1.6-2S393.1,681.9,393.1,683z"/>
				<path class="st15" d="M383.3,683.8c0,1.1-0.7,2-1.6,2s-1.6-0.9-1.7-2c0-1.1,0.7-2,1.6-2C382.6,681.8,383.3,682.7,383.3,683.8z"
					/>
				<path class="st16" d="M393,697c-2.3,2-5.4,3.2-8.5,3.2c-0.8,0-0.9,1.2-0.1,1.2c3.4,0,6.7-1.3,9.3-3.5
					C394.4,697.4,393.6,696.5,393,697z"/>
				<path class="st17" d="M398.6,687.6c0,0.9-1.2,1.6-2.8,1.7c-1.6,0.1-3-0.5-3-1.4s1.2-1.6,2.8-1.7S398.5,686.8,398.6,687.6z"/>
				<path class="st17" d="M381.7,688.5c0,0.9-1.2,1.6-2.8,1.7c-1.6,0.1-3-0.5-3-1.4s1.2-1.6,2.8-1.7
					C380.3,687.1,381.7,687.7,381.7,688.5z"/>
				<path class="st10" d="M395.1,673.3c-1.7-0.9-3.8-1.2-5.7-0.7c-0.6,0.2-0.4,1.2,0.3,1c1.6-0.4,3.4-0.2,4.9,0.6
					C395.1,674.5,395.7,673.6,395.1,673.3z"/>
				<path class="st10" d="M383.4,672.8c-1.8-0.1-3.6,0.3-5,1.4c-0.5,0.4,0.1,1.3,0.6,0.9c1.2-0.9,2.7-1.3,4.2-1.2
					c0.3,0,0.6-0.1,0.6-0.4C383.8,673.1,383.6,672.8,383.4,672.8z"/>
				<path class="st18" d="M385,691.5L385,691.5v-0.2v-0.1l0.1-0.1l0,0l0,0l0.1-0.1c0,0,0,0,0.1,0s0.1,0,0.2-0.1c0.1,0,0.2,0,0.3-0.1
					c0.3,0,0.5,0,0.8,0s0.5-0.2,0.5-0.5s-0.2-0.5-0.5-0.5c-0.6,0-1.3,0-1.8,0.3s-0.9,0.9-0.9,1.5s0.3,1.1,0.7,1.5
					c0.4,0.4,0.9,0.7,1.4,0.9c0.2,0.1,0.6,0.1,0.7-0.2c0.1-0.2,0.1-0.6-0.2-0.7c-0.2-0.1-0.4-0.2-0.6-0.3c-0.1-0.1-0.2-0.1-0.3-0.2
					l-0.1-0.1l-0.1-0.1c-0.1-0.1-0.2-0.2-0.2-0.2l0,0c0,0,0-0.1-0.1-0.1L385,692c0,0,0-0.1-0.1-0.1v-0.1v-0.1c0,0,0,0,0-0.1l0,0
					C385,691.7,385,691.7,385,691.5C385,691.6,385,691.6,385,691.5C385,691.6,385,691.6,385,691.5z"/>
			</g>
			<path class="st10" d="M395.8,667.6c2.5,0,5.1-0.1,7.6,0c5.5,0.3,10.7,1.8,13.9,6.4c3.3,4.8,4.6,10.6,4.6,16.4
				c0.1,5.2-0.7,10.4,0.2,15.5c0.9,5.1,4,10.3,8.9,11.6c4.5,1.2,9.5-1.2,12.1-5s3.2-8.8,2.5-13.4c-0.7-4.6-2.6-8.9-4.6-13.1
				c-3.7-7.8-7.7-15.4-11.8-23.1c-2.6-4.8-5.4-10-10.3-12.4c-3.4-1.7-7.2-1.8-11-1.9c-5.8-0.2-11.5-0.4-17.3-0.5
				c-3.2-0.1-6.5-0.2-9.6,0.9c-1.3,0.4-2.6,1.1-3.6,2c-1.1,1-1,1.7-1,3.1c0,2.7,0.3,5.6,1.8,7.9c2.3,3.5,6.7,5,10.9,5.5
				C391.5,667.6,393.7,667.6,395.8,667.6z"/>
			<g>
				<path class="st8" d="M418.1,679c1.6-1.8,3.8-3.1,6.3-2.8c2.4,0.3,4.2,2,4.8,4.3c0.4,1.6,0.2,3.2-0.2,4.8
					c-0.4,1.7-0.9,3.3-1.7,4.8c-1.6,2.8-4.8,5.3-8.2,4c-4.5-1.6-4.6-7.2-3.4-11C416.2,681.6,417.1,680.2,418.1,679z"/>
				<path class="st18" d="M424.8,679.5c-2.1,0-4,1.3-5.1,2.9c-1.3,1.8-1.8,4.1-2,6.3c-0.1,0.7,1,0.9,1,0.2c0.1-1.4,0.4-2.8,0.9-4.1
					l0,0c1.2-0.4,2.5-0.6,3.7-0.5c0.3,0,0.5-0.3,0.5-0.6s-0.3-0.5-0.6-0.5c-1,0-2.1,0.1-3.1,0.3c0.1-0.1,0.1-0.3,0.2-0.4
					c1-1.5,2.6-2.7,4.5-2.7C425.5,680.5,425.4,679.4,424.8,679.5z"/>
			</g>
		</g>
		<g>
			<path class="st8" d="M433.7,781.3c0,0-12-3.5-17.2-2.4s-24.3,10-22.5,14.6s43.5,2.5,43.5,2.5L433.7,781.3z"/>
			<path class="st11" d="M468.1,728.7c0,0,48.6,44.6,40.4,59.6c-6.7,12.2-78.4,9-78.4,9c-2.3-8.3,0.5-20.5,0.5-20.5
				s24.9-3.6,37.7-1.9c1.2,0.2-3.4-3.5-3.4-3.5S454.2,770.5,468.1,728.7z"/>
			<path class="st19" d="M464.3,773.9c-11.4,0-22.8,0.8-34,2.6c-0.7,0.1-0.4,1.2,0.3,1.1c11.1-1.7,22.4-2.6,33.7-2.5
				C465,775,465,773.9,464.3,773.9z"/>
		</g>
		<path class="st20" d="M418.1,860.5c-3.4,0.8-5.8,3.6-7.1,6.7c-1.4,3.1-2,6.6-2.7,10c-0.7,3.6-1.1,7.2-1.4,10.8
			c-0.6,7.2-0.5,14.4,0.1,21.6c0,0.1,0,0.1,0,0.2c-0.4,0-0.7,0-1.1,0c0,0,0-0.1,0-0.2c-0.4-4.2-0.6-8.4-0.6-12.7
			c0.1-7.5,0.8-15,2.4-22.4c1.2-5.9,3.3-13.4,10.1-15C418.5,859.2,418.9,860.3,418.1,860.5z"/>
		<path class="st20" d="M377.3,907.2c0,0.1,0.1,0.1,0.1,0.2c-1.8-3-3.9-5.8-6.2-8.5c-0.5-0.5,0.3-1.4,0.8-0.8c2.7,3,5,6.2,7,9.7
			C377.7,907.5,377.4,907.3,377.3,907.2z"/>
		<path class="st21" d="M422.6,685.1c0-1-0.8-1.8-1.8-1.8s-1.8,0.8-1.8,1.8c0,0.8,0.5,1.5,1.3,1.7l0,0c0,0.4,0.3,0.7,0.7,0.8
			c1.1,8.5-0.4,17.3-4.4,24.9c-0.9,1.7-1.9,3.4-2.9,5c-1.1,1.8-2.2,3.6-3.1,5.5c-1.9,3.9-2.8,7.5-2.6,10.7c-2-2-5-3-7.9-4
			c-2.8-0.9-5.4-1.8-6.8-3.5c-3-3.6-4.6-7.5-4.7-12.1l-0.4-0.1c0.1,4.7,1.7,8.8,4.7,12.4c1.5,1.8,4.1,2.7,7,3.6c3,1,6.1,2.1,8.1,4.2
			c0,0.1,0,0.3,0,0.4c0.4,2.9,1.8,5.6,3.2,8.2c1.4,2.8,2.9,5.6,3.2,8.7c0.4,4.6-1.7,9.5-6.4,15.1c-0.7,0.9-1.5,1.7-2.3,2.6
			c-3,3.4-6.1,6.9-7.8,11.1c-0.5,1.4-0.9,2.9-1.3,4.3c-0.5,1.9-1,3.9-1.9,5.7c-1.5,3-5,5.7-8.3,4.6l-0.1,0.4
			c0.6,0.2,1.1,0.3,1.7,0.3c2.9,0,5.7-2.4,7-5c0.9-1.8,1.4-3.8,1.9-5.8c0.4-1.4,0.7-2.9,1.3-4.3c1.6-4.2,4.7-7.7,7.7-11
			c0.8-0.8,1.5-1.7,2.3-2.6c4.9-5.7,7-10.7,6.5-15.4c-0.3-3.2-1.8-6-3.2-8.8c-1.3-2.6-2.7-5.2-3.1-8.1c-0.5-3.4,0.3-7.3,2.4-11.5
			c0.9-1.9,2.1-3.7,3.1-5.5c1-1.6,2-3.3,2.9-5c4-7.7,5.5-16.5,4.4-25.1c0.3-0.1,0.6-0.4,0.6-0.8c0-0.1,0-0.2-0.1-0.3
			C422.3,686.2,422.6,685.7,422.6,685.1z"/>
		<path class="st12" d="M471.3,818.9c-0.5-3-1-6.1-1.5-9.2l-82,0.8c-0.2,5.1-0.5,10.1-0.8,14.7L471.3,818.9z"/>
	</g>
	<rect x="142.8" y="797.3" class="st13" width="411.8" height="16.9"/>
	<g>
		<polygon class="st22" points="365.7,794.5 248.5,794.5 235.5,716.4 352.6,716.4 		"/>
		<rect x="248.5" y="794.5" class="st23" width="173.1" height="2.8"/>
		<path class="st24" d="M303.6,757.8c0.4,3-1.7,5.4-4.7,5.4s-5.7-2.4-6-5.4c-0.4-3,1.7-5.4,4.7-5.4
			C300.6,752.4,303.3,754.9,303.6,757.8z"/>
	</g>
	<g>
		<path class="st25" d="M171.6,764.5c0,0-10-36.4-7-47.2c0,0,14.9,9.3,21.2,43.9L171.6,764.5z"/>
		<path class="st26" d="M204.5,768.3c0,0,12.2-43.3,8.8-56.1c0,0-17.9,10.9-25.7,52.1L204.5,768.3z"/>
		<path class="st26" d="M178.2,764c0,0-5-49.9,0.4-63.7c0,0,15.9,15,16.9,61.9L178.2,764z"/>
		<path class="st27" d="M199.3,764c0,0,4.5-37.4,0-47.6c0,0-13.4,11.3-14.6,46.4L199.3,764z"/>
		<path class="st28" d="M193.2,757.8h-9h-15.6c-0.4,0-0.7,0.4-0.6,0.7l8.1,38.2c0.1,0.3,0.3,0.5,0.6,0.5h7.6h9h7.6
			c0.3,0,0.5-0.2,0.6-0.5l8.1-38.2c0.1-0.4-0.2-0.7-0.6-0.7H193.2z"/>
		<path class="st29" d="M206.1,777.1h-34.8c-0.9,0-1.7-0.7-1.7-1.7v-2.3c0-0.9,0.7-1.7,1.7-1.7h34.8c0.9,0,1.7,0.7,1.7,1.7v2.3
			C207.7,776.3,207,777.1,206.1,777.1z"/>
		<path class="st29" d="M204.8,783.8h-32.2c-0.7,0-1.3-0.6-1.3-1.3v-1.3c0-0.7,0.6-1.3,1.3-1.3h32.2c0.7,0,1.3,0.6,1.3,1.3v1.3
			C206.1,783.2,205.5,783.8,204.8,783.8z"/>
	</g>
	<g>
		<g>
			<path class="st1" d="M280.6,704.8c0.5-1.8,0.8-3.6,0.9-5.3"/>
			<path class="st2" d="M280.8,688.6c-1.7-8.3-6.1-16.2-12.2-22.2c-9.9-9.9-23.7-15.3-37.6-17.4c-35-5.3-69.7,8.7-102.4,22.2
				c-25.3,10.4-51.9,21-78.7,22.5"/>
			<path class="st1" d="M44.4,693.9c-1.8,0-3.6,0-5.4-0.1"/>
			<g>
				<polygon class="st3" points="42.5,684.9 26.1,692.5 40.8,702.9 				"/>
			</g>
		</g>
	</g>
	<g>
		<g>
			<path class="st1" d="M296.2,707.9c0.9-1.6,1.6-3.2,2.3-4.9"/>
			<path class="st4" d="M301.7,693.1c5-21.7-1.4-46.1-17.5-61.6c-12.9-12.4-27.2-15.2-42.3-24.8c-15.1-9.6-41.1-18.5-40.6-45
				c0.4-22,9.3-35.1,16.6-45c8-10.9,16.1-19.8,26.3-27.8"/>
			<path class="st1" d="M248.3,485.6c1.4-1.1,2.9-2.1,4.4-3.1"/>
			<g>
				<polygon class="st3" points="255.4,491.6 263.7,475.6 245.7,476.4 				"/>
			</g>
		</g>
	</g>
	<g>
		<g>
			<path class="st1" d="M304.6,709.4c1.8-0.2,3.6-0.7,5.3-1.3"/>
			<path class="st5" d="M318.7,702.1c5.8-5.9,9.3-14.5,9.8-22.9c0.8-13.9-4.6-27.3-9.3-40.4c-4.7-13.1-8.9-27.2-5.6-40.7
				c4.2-17.4,20.6-30.2,38.2-33.6s36,1.2,52.1,9.2s30.3,19.1,44.9,29.5c21.2,15.1,43.7,29.2,69,35.2c17.5,4.2,36.6,4,53.4-1.9"/>
			<path class="st1" d="M576.2,634.6c1.7-0.7,3.3-1.5,4.9-2.3"/>
			<g>
				<polygon class="st3" points="583.6,641.1 592,625.1 573.9,625.9 				"/>
			</g>
		</g>
	</g>
	<path class="st1" d="M282.8,544.4l-34.9,7.9c-2.3,0.5-4.6-0.9-5.1-3.2l-3-13.2c-0.5-2.3,0.9-4.6,3.2-5.1l34.9-7.9
		c2.3-0.5,4.6,0.9,5.1,3.2l3,13.2C286.6,541.5,285.2,543.8,282.8,544.4z"/>
	<polyline class="st1" points="240.6,532.4 263.5,539.7 280.6,523.3 	"/>
	<line class="st1" x1="256.1" y1="537.3" x2="244.4" y2="551.5"/>
	<line class="st1" x1="269" y1="534.4" x2="285.7" y2="542.1"/>
	<path class="st1" d="M549.4,685l-35.6-3.2c-2.4-0.2-4.1-2.3-3.9-4.7l1.2-13.5c0.2-2.4,2.3-4.1,4.7-3.9l35.6,3.2
		c2.4,0.2,4.1,2.3,3.9,4.7l-1.2,13.5C553.8,683.4,551.8,685.2,549.4,685z"/>
	<polyline class="st1" points="512.9,660.5 532.4,674.6 553.7,664.2 	"/>
	<line class="st1" x1="526.1" y1="670.1" x2="510.6" y2="679.9"/>
	<line class="st1" x1="539.2" y1="671.3" x2="552.8" y2="683.7"/>
	<path class="st1" d="M411,613.9l-32.3,3c-2.1,0.2-4-1.4-4.2-3.5l-1.2-12.2c-0.2-2.1,1.4-4,3.5-4.2l32.3-3c2.1-0.2,4,1.4,4.2,3.5
		l1.2,12.2C414.7,611.8,413.1,613.7,411,613.9z"/>
	<polyline class="st1" points="374.4,598.2 394.1,607.5 411.4,594.7 	"/>
	<line class="st1" x1="387.7" y1="604.5" x2="375.6" y2="615.9"/>
	<line class="st1" x1="399.6" y1="603.4" x2="413.8" y2="612.3"/>
	<g>
		<path class="st1" d="M116.3,661.1l-40.1-1.6c-2.7-0.1-4.7-2.4-4.6-5l0.6-15.2c0.1-2.7,2.4-4.7,5-4.6l40.1,1.6
			c2.7,0.1,4.7,2.4,4.6,5l-0.6,15.2C121.2,659.2,119,661.2,116.3,661.1z"/>
		<polyline class="st1" points="74,635.7 96.6,650.4 120,637.6 		"/>
		<line class="st1" x1="89.4" y1="645.7" x2="72.5" y2="657.6"/>
		<line class="st1" x1="104.2" y1="646.3" x2="120.1" y2="659.5"/>
	</g>
</g>
<g>
	<rect x="1565.3" y="1019" class="st6" width="70.6" height="5.5"/>
	<polygon class="st7" points="1564.1,1079.8 1553,1079.8 1564.9,923 1576,923 	"/>
	<polygon class="st7" points="1637,1079.8 1648.1,1079.8 1636.3,923 1625.2,923 	"/>
	<path class="st6" d="M1646.7,909.5h-92.2c-1.9,0-3.4,1.5-3.4,3.4v6.7c0,1.9,1.5,3.4,3.4,3.4h92.2c1.9,0,3.4-1.5,3.4-3.4v-6.7
		C1650.1,911,1648.6,909.5,1646.7,909.5z"/>
</g>
<g>
	<g>
		<g>
			<g>
				<path class="st11" d="M1564.3,744.8c0,0-25.2,33.6-28.5,62.9c-2.4,20.7,28.5,51.6,28.5,51.6l10.6-5.3l-10.6-23.9
					c-3.8-11.7-8.4-16.3-5-28l7.7-16.6C1568,773.1,1566.7,759.3,1564.3,744.8z"/>
				<path class="st11" d="M1643.7,744.3c0,0,24.9,35.8,26.9,65.2c1.8,25.4-28.7,49.8-28.7,49.8l-8.8-4.4l12.2-24.2
					c3.8-11.7,5.6-18.7,0.4-31.4l-6.5-13.9L1643.7,744.3z"/>
				<g>
					<path class="st11" d="M1647.2,877.7c-22.1,6-94.4-3.2-94.4-3.2l16.7-53.1l-2.1-31.6l-0.3-4.3l-2.7-40.6
						c17.5-7.2,28.3-10.1,45.4-8.8c11.7,0.8,23.2,3.8,34,8.3l-7.8,75.5L1647.2,877.7z"/>
					<g>
						<path class="st30" d="M1587.5,760.9c15.9-1.9,30.8-12.8,31.5-13.3c0.4-0.3,0.5-0.9,0.2-1.2c-0.3-0.4-0.9-0.5-1.2-0.2
							c-0.2,0.1-17.6,13-34.4,13.2c-0.5,0-0.9,0.4-0.9,0.9s0.4,0.9,0.9,0.9C1584.9,761.1,1586.2,761,1587.5,760.9z"/>
					</g>
					<g>
						<path class="st30" d="M1596.1,815.3c15.1-5.4,27.1-19.4,27.7-20c0.3-0.4,0.3-0.9-0.1-1.3c-0.4-0.3-0.9-0.3-1.3,0.1
							c-0.1,0.2-14.3,16.6-30.6,20.6c-0.5,0.1-0.8,0.6-0.7,1.1c0.1,0.5,0.6,0.8,1.1,0.7C1593.5,816.2,1594.8,815.8,1596.1,815.3z"/>
					</g>
				</g>
				<g>
					<polygon class="st31" points="1600.4,1045.4 1601.7,1057.1 1614.2,1057.4 1615.2,1047.7 					"/>
					<g>
						<path class="st32" d="M1598.4,859.5c0,0-32.3-1.8-43.2,7.2c-10.9,8.9-8.7,34.6,2.4,41.6s30.1,20.8,30.1,20.8l12.1,120.1
							l16,0.5c0,0,14.7-120.7,7.3-144C1615.6,882.3,1598.4,859.5,1598.4,859.5z"/>
						<path class="st33" d="M1617.3,1043.8c0.9,2.8,0.5,5.5-0.4,8.2l-18.4-0.4c-0.6-2.7-0.7-5.4-0.4-8.1L1617.3,1043.8z"/>
					</g>
				</g>
				<g>
					<path class="st21" d="M1644.1,858.6h-84.7l-7.8-45.8c-0.7-4,2.4-7.6,6.4-7.6h87.6c4,0,7.1,3.6,6.4,7.6L1644.1,858.6z"/>
					<path class="st34" d="M1636.5,868.5H1567c-4.2,0-7.7-3.4-7.7-7.7v-2.3h84.8v2.3C1644.2,865.1,1640.8,868.5,1636.5,868.5z"/>
					<path class="st34" d="M1609.3,833.8c0,4.1-3.3,7.4-7.4,7.4s-7.4-3.3-7.4-7.4c0-4.1,3.3-7.4,7.4-7.4
						C1606,826.4,1609.3,829.7,1609.3,833.8z"/>
				</g>
				<g>
					<polygon class="st31" points="1547.4,1012.4 1544.7,1024 1555.8,1026.2 1560.4,1015.9 					"/>
					<g>
						<path class="st13" d="M1614.8,857.5c0,0-21.6-7.5-34.3,8.2c-12.7,15.7-33.9,147.9-33.9,147.9l14.6,6l46.8-117.4
							c0,0,38.1,21.7,42.7-9.2C1654.3,868.5,1614.8,857.5,1614.8,857.5z"/>
						<path class="st35" d="M1564.5,1013.5c-0.1,3-1.3,5.6-3.1,7.9l-17.9-6.3c0.2-2.8,1-5.5,2.2-8L1564.5,1013.5z"/>
					</g>
				</g>
				<g>
					<path class="st36" d="M1553.2,1022.1c0,0-6.8-3.4-8.8-3.8c-2-0.4-18.5,11.3-23.2,11.2c-8.5-0.2-11.2,12.2-6.4,13.9
						c13.9,4.9,39.7,4.3,39.7,4.3s5.7-15.5,5.8-20.7C1560.5,1021.7,1556.9,1024.4,1553.2,1022.1z"/>
					<g>
						<g>
							<path class="st21" d="M1538.4,1033.1c0.2,0.1,0.5,0.1,0.8,0c0.5-0.2,0.8-0.8,0.6-1.3c-0.1-0.2-1.7-4.2-4.5-6.1
								c-3.6-2.5-7-0.8-7.2-0.7c-0.5,0.3-0.7,0.9-0.4,1.3c0.3,0.5,0.9,0.7,1.4,0.4c0.1,0,2.4-1.2,5,0.6c2.2,1.5,3.7,5.1,3.8,5.2
								C1538,1032.9,1538.1,1033,1538.4,1033.1z"/>
						</g>
						<g>
							<path class="st21" d="M1541.8,1030.8c0.2,0.1,0.5,0.1,0.8,0c0.5-0.2,0.8-0.8,0.6-1.3c-0.1-0.2-1.7-4.2-4.5-6.1
								c-3.7-2.5-7-0.8-7.2-0.7c-0.5,0.3-0.7,0.9-0.4,1.3c0.3,0.5,0.9,0.7,1.4,0.4c0.1,0,2.4-1.2,5,0.6c2.2,1.5,3.7,5.1,3.8,5.2
								C1541.3,1030.5,1541.5,1030.7,1541.8,1030.8z"/>
						</g>
						<g>
							<path class="st21" d="M1534,1034.8c0.2,0.1,0.5,0.1,0.8,0c0.5-0.2,0.8-0.8,0.6-1.3c-0.1-0.2-1.7-4.2-4.5-6.1
								c-3.7-2.5-7-0.8-7.2-0.7c-0.5,0.3-0.7,0.9-0.4,1.3c0.3,0.5,0.9,0.7,1.4,0.4c0.1,0,2.4-1.2,5,0.6c2.2,1.5,3.7,5.1,3.8,5.2
								C1533.6,1034.5,1533.8,1034.7,1534,1034.8z"/>
						</g>
					</g>
				</g>
				<g>
					<path class="st36" d="M1606.5,1056.6c0,0,6.9-2.1,8.9-2.1c1.9,0,15.5,13.7,19.9,14.4c8,1.2,8.5,13.3,3.7,14.1
						c-13.9,2.3-38-2.6-38-2.6s-2.8-15.5-2-20.4C1599.7,1055.1,1602.7,1058.2,1606.5,1056.6z"/>
					<g>
						<g>
							<path class="st21" d="M1618.6,1069.5c-0.2,0.1-0.5,0-0.8-0.1c-0.5-0.3-0.6-0.9-0.3-1.3c0.1-0.1,2.3-3.7,5.2-5
								c3.8-1.7,6.7,0.4,6.8,0.5c0.4,0.3,0.5,0.9,0.2,1.3s-0.9,0.5-1.4,0.2c-0.1-0.1-2.1-1.5-4.8-0.3c-2.4,1.1-4.4,4.2-4.4,4.2
								C1619,1069.3,1618.8,1069.4,1618.6,1069.5z"/>
						</g>
						<g>
							<path class="st21" d="M1615.8,1066.7c-0.2,0.1-0.5,0-0.8-0.1c-0.5-0.3-0.6-0.9-0.3-1.3c0.1-0.1,2.3-3.7,5.2-5
								c3.8-1.7,6.7,0.4,6.8,0.5c0.4,0.3,0.5,0.9,0.2,1.3s-0.9,0.5-1.4,0.2c-0.1-0.1-2.1-1.5-4.8-0.3c-2.4,1.1-4.4,4.2-4.4,4.2
								C1616.2,1066.5,1616,1066.6,1615.8,1066.7z"/>
						</g>
						<g>
							<path class="st21" d="M1622.4,1071.7c-0.2,0.1-0.5,0-0.8-0.1c-0.5-0.3-0.6-0.9-0.3-1.3c0.1-0.1,2.3-3.7,5.2-5
								c3.8-1.7,6.7,0.4,6.8,0.5c0.4,0.3,0.5,0.9,0.2,1.3s-0.9,0.5-1.4,0.2c-0.1-0.1-2.1-1.5-4.8-0.3c-2.4,1.1-4.4,4.2-4.4,4.2
								C1622.9,1071.5,1622.6,1071.7,1622.4,1071.7z"/>
						</g>
					</g>
				</g>
				<g>
					<path class="st33" d="M1625.4,669.1c0,0,10.3,15.9,9.2,32.5c-1.1,16.6,1.5,35.7-13.3,34.9s-41.3,5.9-49.7-7
						C1563.1,716.6,1625.4,669.1,1625.4,669.1z"/>
					<path class="st37" d="M1629.2,698.4c0,0,2.7,24-8.7,30.7c-11.4,6.6-19.7-0.8-19.7-0.8S1624.8,694.7,1629.2,698.4z"/>
					<g>
						<g>
							<path class="st38" d="M1581.8,698.3c0,0-4.1-5.5-7.1-0.9c-3,4.5,1.3,17.9,8.7,14.6L1581.8,698.3z"/>
							<g>
								<path class="st39" d="M1581.7,707.8c-0.3,0-0.5-0.2-0.6-0.5c-1.2-4.1-5.4-5.8-5.5-5.8c-0.3-0.1-0.5-0.5-0.4-0.8
									s0.5-0.5,0.8-0.4c0.2,0.1,4.9,1.9,6.2,6.6c0.1,0.3-0.1,0.7-0.4,0.8C1581.8,707.8,1581.8,707.8,1581.7,707.8z"/>
							</g>
							<g>
								<path class="st39" d="M1577.4,705.7c-0.1,0-0.2,0-0.3-0.1c-0.3-0.2-0.4-0.6-0.2-0.9c0,0,0.8-1.2,2.4-1.9
									c0.3-0.1,0.7,0,0.8,0.3c0.1,0.3,0,0.7-0.3,0.8c-1.2,0.5-1.8,1.4-1.8,1.4C1577.8,705.6,1577.6,705.7,1577.4,705.7z"/>
							</g>
						</g>
						<g>
							<path class="st38" d="M1624,698.3c0,0,4.1-5.5,7.1-0.9c3,4.5-1.3,17.9-8.7,14.6L1624,698.3z"/>
							<g>
								<path class="st39" d="M1624,707.8c0.3,0,0.5-0.2,0.6-0.5c1.2-4.1,5.4-5.8,5.5-5.8c0.3-0.1,0.5-0.5,0.4-0.8s-0.5-0.5-0.8-0.4
									c-0.2,0.1-4.9,1.9-6.2,6.6c-0.1,0.3,0.1,0.7,0.4,0.8C1623.9,707.8,1624,707.8,1624,707.8z"/>
							</g>
							<g>
								<path class="st39" d="M1628.4,705.7c0.1,0,0.2,0,0.3-0.1c0.3-0.2,0.4-0.6,0.2-0.9c0,0-0.8-1.2-2.4-1.9
									c-0.3-0.1-0.7,0-0.8,0.3c-0.1,0.3,0,0.7,0.3,0.8c1.2,0.5,1.8,1.4,1.8,1.4C1627.9,705.6,1628.1,705.7,1628.4,705.7z"/>
							</g>
						</g>
						<path class="st31" d="M1613,723.2v13.3c0,0-4,6.8-9.3,7.2c-5.3,0.5-10.1-5.8-10.1-5.8v-13.7L1613,723.2z"/>
						<path class="st38" d="M1613,723.2v5.9c-3.6,4-10,5.4-19.4,4v-9L1613,723.2z"/>
						<path class="st31" d="M1627,689.2c-0.2,5.2-0.7,11.6-1.7,16.8c-0.2,1.3-0.5,2.5-0.8,3.6c-2.8,9.8-9.8,26.5-29.3,19.6
							c-8.6-3.1-12.6-12.7-14.4-22.5c-1.2-6.6-1.4-13.4-1.3-18.1c0.1-4.9,2.8-9.4,7-11.8c11.5-6.5,23.7-4.1,31.7-1
							C1623.7,677.7,1627.2,683.2,1627,689.2z"/>
						<path class="st33" d="M1594.3,700.3c0,1.4-0.7,2.6-1.6,2.6s-1.6-1.1-1.6-2.6c0-1.4,0.7-2.6,1.6-2.6
							C1593.6,697.7,1594.3,698.9,1594.3,700.3z"/>
						<path class="st33" d="M1614.4,700.3c0,1.4-0.7,2.6-1.6,2.6s-1.6-1.1-1.6-2.6c0-1.4,0.7-2.6,1.6-2.6S1614.4,698.9,1614.4,700.3
							z"/>
						<path class="st33" d="M1589.4,691.8c1.4-0.4,4.1-1,7-1c0.8,0,1.3,0.7,1.2,1.4l0,0c-0.1,0.6-0.6,1-1.2,1
							c-2-0.1-7.1,0.2-9.5,1.2c0-0.4,0.2-0.9,0.6-1.3C1587.9,692.4,1588.6,692,1589.4,691.8z"/>
						<path class="st33" d="M1615.8,691.8c-1.4-0.4-4.1-1-7-1c-0.8,0-1.3,0.7-1.2,1.4l0,0c0.1,0.6,0.6,1,1.2,1
							c2-0.1,7.1,0.2,9.5,1.2c0-0.4-0.2-0.9-0.6-1.3C1617.3,692.5,1616.5,692,1615.8,691.8z"/>
						<g>
							<path class="st38" d="M1603.1,710.7c-0.5,0-1-0.1-1.4-0.3s-0.8-0.7-0.9-1.5c-0.2-2.3,0.4-9.6,0.4-9.9c0-0.3,0.3-0.6,0.7-0.6
								c0.3,0,0.6,0.3,0.6,0.7c0,0.1-0.6,7.4-0.4,9.6c0,0.4,0.2,0.5,0.3,0.6c0.6,0.4,2,0,2.5-0.2c0.3-0.1,0.7,0,0.8,0.3
								c0.1,0.3,0,0.7-0.3,0.8C1605.2,710.3,1604.2,710.7,1603.1,710.7z"/>
						</g>
						<path class="st21" d="M1595.1,714.7c0.5,2.4,2.1,6.8,7.4,6.8s6.8-4,7.4-6.8H1595.1z"/>
						<g>
							<path class="st38" d="M1602.4,725.2c-1.5,0-2.9-0.8-3-0.9c-0.3-0.2-0.4-0.6-0.2-0.9c0.2-0.3,0.6-0.4,0.9-0.2l0,0
								c0,0,1.1,0.7,2.3,0.7c1.3,0,2.4-0.7,2.4-0.7c0.3-0.2,0.7-0.1,0.9,0.2c0.2,0.3,0.1,0.7-0.2,0.9
								C1605.4,724.4,1604.1,725.2,1602.4,725.2z"/>
						</g>
					</g>
					<path class="st33" d="M1629.5,688.1c-0.2,0.6-0.8,0.9-1.5,1.2c0.1,1.4-0.1,3.1-0.2,4.7c-0.8,9.1-3.1,10.7-3.6,8.5
						c-0.3-1.5-0.3-10.1-0.2-12.9c-1.8-0.1-3.3-0.4-3.3-0.4l-2.1-8.8l-0.7,8.7c-3.2,1.1-10.6-0.7-10.6-0.7l-2.5-8.7l-1.5,8.4
						c-4.8,2.3-10.7,0.8-10.7,0.8l-1.4-9l-3.2,9c0,0-10.1,3.6-10.2,0c-0.1-2.1,1.5-8.1,2.8-12.7c1.4-5,4.7-9.3,9.2-11.7
						c12.6-6.8,25.9-3.2,30.4-0.4C1629.9,669.7,1629.5,688.1,1629.5,688.1z"/>
					<path class="st33" d="M1583.4,669.8c0,0-8.3,9.9-11.1,27.7c-2.7,17.7-6.5,30.8,4.1,36.7c11.6,6.3,10.6-6.7,10.4-10.2
						s-10-13.2-3.4-40.4C1585.5,674.8,1583.4,669.8,1583.4,669.8z"/>
					<path class="st37" d="M1581.4,706.4L1581.4,706.4c0,0.2,0,0.9,0.1,2c0,0.7,0.1,1.5,0.1,2.5c0.4,6,1.6,16.3,5,19.9
						c1.3,1.4,3.9,2.1,7,2.4v-4.7c-3.2-1.5-5.7-4-7.7-7.1c-1.2-2.6-3.3-6.7-4.2-13.1L1581.4,706.4z"/>
					<path class="st21" d="M1627.1,712.2c0,0.8-0.7,1.5-1.5,1.5s-1.5-0.7-1.5-1.5s0.7-1.5,1.5-1.5S1627.1,711.4,1627.1,712.2z"/>
				</g>
			</g>
		</g>
	</g>
	<g>
		<path class="st30" d="M1571.2,780.8c0,0.1-1.9,3.6-3.9,9l-0.3-4.3c1.3-3.2,2.4-5.3,2.5-5.6c0.2-0.4,0.8-0.6,1.2-0.4
			C1571.3,779.8,1571.4,780.3,1571.2,780.8z"/>
	</g>
	<g>
		<path class="st30" d="M1635.1,780.8c0,0.1,2,3.7,3.9,9.1l0.4-4c-1.3-3.2-2.6-5.7-2.7-6c-0.2-0.4-0.8-0.6-1.2-0.4
			C1635,779.8,1634.9,780.3,1635.1,780.8z"/>
	</g>
</g>
</svg>
