<?xml version="1.0" encoding="utf-8"?>
<!-- Generator: Adobe Illustrator 24.2.3, SVG Export Plug-In . SVG Version: 6.00 Build 0)  -->
<svg version="1.1" id="Layer_1" xmlns="http://www.w3.org/2000/svg" xmlns:xlink="http://www.w3.org/1999/xlink" x="0px" y="0px"
	 viewBox="0 0 768 1025" style="enable-background:new 0 0 768 1025;" xml:space="preserve">
<style type="text/css">
	.st0{fill:#F5FFEC;}
	.st1{fill:#2E1F3D;}
	.st2{fill:#EEB286;}
	.st3{fill:#7DBC41;}
	.st4{fill:#D99EB4;}
	.st5{fill:#352F80;}
	.st6{fill:#E9CEB3;}
	.st7{fill:#2A1625;}
	.st8{fill:#D15D3E;}
	.st9{fill:#EE8D86;}
	.st10{fill:#CA916B;}
	.st11{fill:#BA879A;}
	.st12{fill:#FFFFFF;}
	.st13{fill:#DB789C;}
	.st14{fill:#B85D7F;}
	.st15{fill:#F3CEDC;}
	.st16{fill:#104A66;}
	.st17{fill:#0D3F57;}
	.st18{fill:#135D80;}
	.st19{fill:#FCD2E2;}
	.st20{fill:#FDAECB;}
	.st21{fill:none;stroke:#1A80BF;stroke-width:1.8111;stroke-miterlimit:10;}
	.st22{fill:none;stroke:#1A80BF;stroke-width:1.8111;stroke-miterlimit:10;stroke-dasharray:10.5929,10.5929;}
	.st23{fill:#1A80BF;}
	.st24{fill:none;stroke:#1A80BF;stroke-width:1.8111;stroke-miterlimit:10;stroke-dasharray:11.0184,11.0184;}
	.st25{fill:none;stroke:#1A80BF;stroke-width:1.8111;stroke-miterlimit:10;stroke-dasharray:11.0808,11.0808;}
</style>
<rect y="0" class="st0" width="768" height="1025"/>
<g>
	<g>
		<path class="st1" d="M474.18,854.04c0.82,0.41,1.61,0.89,2.37,1.42c3.91,2.77,6.68,6.8,8.86,11c1.61,3.1,2.92,6.34,4.21,9.58
			c3.4,8.52,7.67,17.76,16.09,21.4c3.68,1.59,7.89,1.95,11.24,4.15c5.04,3.3,6.85,10.19,5.51,16.07c-1.33,5.88-5.24,10.85-9.61,15
			c-17.51,16.59-43.3,22.24-67.29,19.75c-8.61-0.89-18.01-3.32-22.74-10.57c-3.81-5.84-3.57-13.52-1.57-20.2
			c3.42-11.36,11.47-21.29,12.7-33.09c0.53-5.06-0.25-10.17-0.23-15.26c0.02-5.09,1.01-10.49,4.43-14.25
			c1.24-1.37,2.85-2.4,4.59-3.01c2.06-0.73,3.97-0.35,6.09-0.3c2.83,0.06,5.55-1.01,8.2-2.01c1.66-0.63,3.37-1.29,5.14-1.56
			C466.23,851.54,470.5,852.19,474.18,854.04z"/>
		<g>
			<path class="st2" d="M403.81,917.01c0,0-1.28-11.67,1.53-22.04c1.95-7.21,22.61,3.87,22.52,5.72c-0.34,6.47-7.9,14.61-8.5,17.75
				C418.76,921.58,403.81,917.01,403.81,917.01z"/>
			<path class="st3" d="M445.19,928.31c0,0-23.94,28.03-27.47,27.71c-5.24-0.48,5.89-39.07,5.32-39.73
				c-4.77-5.52-20.25-3.55-20.25-3.55s-20.49,70.79,5.24,70.75c23.37-0.03,47.25-16.9,47.25-16.9L445.19,928.31z"/>
			<path class="st4" d="M445.19,928.31c0,0,3.51,31.28-3.08,45.9l16.49-9.53L445.19,928.31z"/>
			<path class="st5" d="M404.79,890.9c0,0-1.64,19.98,13.43,19.98c15.06,0,12.83-19.98,12.83-19.98S421.23,888.93,404.79,890.9z"/>
			<path class="st2" d="M402.53,896.6c0,0-0.14,10.29,6.25,12c6.39,1.71,14.44-3.97,13.56-5.59c-0.87-1.62-11.16,1.24-11.16,1.24
				s11.56-2.82,11.64-5.36c0.08-2.54-13.38-0.42-13.38-0.42s11.87-2.39,11.36-4.44C420.28,891.98,402.89,892.51,402.53,896.6z"/>
		</g>
		<path class="st3" d="M521.53,1025.27c-70.89-1.06-74.21,0-74.21,0s3.56-50.66,3.08-68.39c-0.19-6.93-5.27-28.51-5.27-28.51
			s14.23-12.66,34.4-13.61c19.22-0.91,36.61,11.75,36.61,11.75s-2.13,20.05-2.77,27.1C511.76,971.13,524.26,1025.31,521.53,1025.27z
			"/>
		<g>
			<path class="st2" d="M476.43,877.91c1.17,15.42,4.38,42.72,4.38,42.72c-3.65,6.06-16.75,4.91-16.39,2.85
				c0.2-1.16-0.02-3.19-0.64-5.04c-0.49-1.43-1.22-2.75-2.18-3.46c-0.4-0.3-1.13-0.41-2.07-0.45c-0.15,0-0.24,0-0.24,0
				c-4.34-0.09-12.8,1.33-16.32-4.03c-4.38-6.66-4.36-24.85-3.63-33.6c0.43-5,4.94-11.91,13.65-13.19
				C463.65,862.15,475.26,862.4,476.43,877.91z"/>
			<path class="st6" d="M474,910.67c0,0-3.42,4.64-10.21,7.77c-0.49-1.43-1.22-2.75-2.18-3.46c-0.4-0.3-1.13-0.41-2.07-0.45
				C460.83,914.54,467.28,914.33,474,910.67z"/>
			<g>
				<path class="st7" d="M453.83,888.57c0.01,0.92-0.6,1.67-1.35,1.67c-0.75,0.01-1.37-0.73-1.38-1.65
					c-0.01-0.92,0.6-1.67,1.35-1.67C453.2,886.91,453.82,887.65,453.83,888.57z"/>
				<path class="st7" d="M445.7,889.18c0.01,0.92-0.6,1.67-1.35,1.67c-0.75,0.01-1.37-0.73-1.38-1.65c-0.01-0.92,0.6-1.67,1.35-1.67
					C445.08,887.52,445.7,888.26,445.7,889.18z"/>
				<path class="st8" d="M453.74,900.2c-1.95,1.67-4.46,2.63-7.03,2.66c-0.64,0.01-0.71,1.01-0.07,1c2.85-0.03,5.6-1.06,7.77-2.91
					C454.89,900.52,454.23,899.77,453.74,900.2z"/>
				<path class="st9" d="M458.4,892.38c0.04,0.71-1.01,1.34-2.35,1.42c-1.34,0.08-2.46-0.43-2.5-1.14
					c-0.04-0.71,1.01-1.34,2.35-1.42C457.24,891.16,458.36,891.67,458.4,892.38z"/>
				<path class="st9" d="M444.41,893.12c0.04,0.71-1.01,1.34-2.35,1.42c-1.34,0.08-2.46-0.43-2.5-1.14
					c-0.04-0.71,1.01-1.34,2.35-1.42C443.25,891.91,444.37,892.42,444.41,893.12z"/>
				<path class="st1" d="M455.49,880.48c-1.44-0.78-3.14-0.98-4.73-0.55c-0.54,0.15-0.31,0.98,0.23,0.84
					c1.36-0.37,2.82-0.2,4.06,0.46C455.55,881.49,455.98,880.74,455.49,880.48z"/>
				<path class="st1" d="M445.75,880.04c-1.49-0.12-2.97,0.27-4.18,1.15c-0.45,0.33,0.04,1.04,0.49,0.71
					c1.01-0.74,2.27-1.12,3.52-1.01c0.23,0.02,0.46-0.1,0.51-0.34C446.14,880.34,445.99,880.06,445.75,880.04z"/>
				<path class="st10" d="M447.12,895.64c0.01-0.03,0.02-0.06,0.02-0.09c0-0.01,0.02-0.05,0.03-0.06c0,0,0.04-0.05,0.04-0.06
					c0.02-0.02,0.04-0.05,0.07-0.07c0.01-0.01,0.01-0.02,0.02-0.02c0,0,0.01,0,0.02-0.01c0.04-0.03,0.08-0.05,0.12-0.07
					c0.02-0.01,0.03-0.02,0.05-0.03c0.04-0.02,0.09-0.03,0.13-0.04c0.09-0.02,0.16-0.04,0.22-0.04c0.22-0.02,0.45-0.01,0.67,0
					c0.23,0.01,0.44-0.21,0.43-0.43c-0.01-0.24-0.19-0.42-0.43-0.43c-0.52-0.02-1.05-0.02-1.52,0.24c-0.45,0.25-0.73,0.71-0.73,1.22
					c0,0.48,0.23,0.95,0.56,1.29c0.34,0.34,0.77,0.56,1.2,0.77c0.2,0.1,0.48,0.06,0.59-0.16c0.1-0.19,0.06-0.49-0.16-0.59
					c-0.17-0.09-0.35-0.17-0.52-0.27c-0.08-0.04-0.15-0.09-0.23-0.14c-0.03-0.02-0.06-0.04-0.1-0.07c-0.01-0.01-0.06-0.05-0.06-0.05
					c-0.07-0.06-0.14-0.13-0.2-0.2c-0.02-0.03-0.02-0.02,0,0.01c-0.02-0.02-0.03-0.04-0.05-0.07c-0.02-0.03-0.04-0.07-0.06-0.1
					c-0.02-0.03-0.03-0.06-0.04-0.09c0-0.01-0.02-0.07-0.02-0.07c-0.01-0.04-0.02-0.08-0.03-0.12c0-0.02-0.01-0.03-0.01-0.05
					c0,0,0,0,0-0.01c0-0.04,0-0.08,0-0.12c0-0.01,0-0.03,0-0.04C447.12,895.65,447.12,895.65,447.12,895.64z"/>
			</g>
			<path class="st1" d="M456.11,875.73c2.1-0.02,4.2-0.09,6.29,0.02c4.55,0.26,8.88,1.46,11.56,5.28c2.78,3.96,3.81,8.84,3.86,13.62
				c0.05,4.29-0.61,8.61,0.13,12.84c0.73,4.22,3.29,8.53,7.43,9.64c3.74,1.01,7.87-0.97,10.07-4.16c2.2-3.18,2.69-7.31,2.09-11.14
				c-0.59-3.82-2.17-7.42-3.81-10.92c-3.05-6.49-6.41-12.83-9.77-19.17c-2.13-4.02-4.5-8.28-8.58-10.29c-2.79-1.37-6-1.5-9.11-1.59
				c-4.78-0.15-9.56-0.29-14.35-0.44c-2.67-0.08-5.42-0.15-7.94,0.73c-1.06,0.37-2.12,0.93-2.97,1.68c-0.9,0.79-0.81,1.38-0.81,2.58
				c0.01,2.27,0.25,4.64,1.51,6.59c1.89,2.93,5.56,4.17,9.02,4.54C452.52,875.73,454.31,875.75,456.11,875.73z"/>
			<g>
				<path class="st2" d="M474.65,885.22c1.31-1.46,3.19-2.54,5.21-2.31c1.99,0.22,3.52,1.62,3.97,3.56c0.3,1.3,0.15,2.67-0.13,3.99
					c-0.29,1.38-0.72,2.74-1.42,3.96c-1.32,2.31-4,4.36-6.79,3.35c-3.71-1.35-3.84-5.97-2.81-9.17
					C473.07,887.41,473.76,886.21,474.65,885.22z"/>
				<path class="st10" d="M480.16,885.59c-1.72,0.03-3.3,1.05-4.27,2.44c-1.07,1.53-1.48,3.38-1.65,5.21
					c-0.05,0.55,0.8,0.73,0.85,0.18c0.11-1.14,0.3-2.3,0.71-3.37c0.01,0,0.02,0,0.04,0c1-0.34,2.04-0.49,3.09-0.45
					c0.23,0.01,0.42-0.24,0.4-0.46c-0.02-0.25-0.23-0.4-0.46-0.4c-0.87-0.03-1.74,0.07-2.58,0.28c0.06-0.1,0.12-0.21,0.19-0.31
					c0.83-1.26,2.19-2.21,3.73-2.23C480.77,886.45,480.72,885.58,480.16,885.59z"/>
			</g>
		</g>
		<g>
			<path class="st2" d="M487.58,970.19c0,0-10-2.93-14.31-2c-4.31,0.92-20.19,8.27-18.67,12.1c1.52,3.83,36.18,2.05,36.18,2.05
				L487.58,970.19z"/>
			<path class="st3" d="M516.13,926.51c0,0,40.36,37.06,33.53,49.54c-5.56,10.15-65.17,7.45-65.17,7.45
				c-1.91-6.89,0.44-17.03,0.44-17.03s20.69-2.98,31.29-1.6c1,0.13-2.84-2.89-2.84-2.89S504.6,961.24,516.13,926.51z"/>
			<path class="st11" d="M512.96,964.02c-9.46-0.04-18.91,0.68-28.26,2.13c-0.59,0.09-0.34,0.99,0.25,0.9
				c9.26-1.44,18.63-2.14,28.01-2.1C513.56,964.96,513.56,964.02,512.96,964.02z"/>
		</g>
		<path class="st12" d="M478.39,890.32c0-0.82-0.67-1.49-1.49-1.49s-1.49,0.67-1.49,1.49c0,0.66,0.44,1.21,1.04,1.4
			c0,0.01,0,0.01,0,0.02c0,0.35,0.26,0.62,0.59,0.67c0.91,7.07-0.34,14.35-3.62,20.68c-0.73,1.41-1.57,2.8-2.38,4.13
			c-0.9,1.48-1.82,3.01-2.61,4.58c-1.62,3.24-2.33,6.23-2.15,8.9c-1.67-1.67-4.14-2.51-6.55-3.32c-2.3-0.77-4.48-1.5-5.63-2.9
			c-2.45-2.97-3.82-6.21-3.87-10.06l-0.32-0.05c0.06,3.92,1.45,7.29,3.94,10.31c1.21,1.47,3.43,2.21,5.77,3
			c2.5,0.84,5.08,1.71,6.69,3.51c0.01,0.12,0.02,0.25,0.04,0.37c0.36,2.43,1.51,4.67,2.62,6.83c1.17,2.29,2.39,4.65,2.64,7.21
			c0.37,3.82-1.38,7.93-5.36,12.57c-0.62,0.72-1.27,1.45-1.91,2.16c-2.51,2.8-5.11,5.7-6.49,9.24c-0.45,1.17-0.77,2.4-1.08,3.59
			c-0.41,1.6-0.84,3.25-1.59,4.74c-1.29,2.53-4.13,4.71-6.86,3.78l-0.1,0.3c0.47,0.16,0.95,0.23,1.42,0.23
			c2.42,0,4.7-1.96,5.83-4.17c0.77-1.52,1.2-3.19,1.62-4.8c0.31-1.18,0.62-2.41,1.07-3.56c1.36-3.49,3.93-6.36,6.43-9.14
			c0.63-0.71,1.29-1.43,1.91-2.16c4.03-4.71,5.81-8.9,5.43-12.8c-0.25-2.62-1.48-5.01-2.67-7.33c-1.1-2.14-2.24-4.36-2.59-6.74
			c-0.42-2.83,0.26-6.05,2.03-9.58c0.78-1.56,1.71-3.08,2.6-4.56c0.82-1.34,1.66-2.73,2.39-4.15c3.31-6.39,4.57-13.73,3.66-20.85
			c0.28-0.09,0.49-0.34,0.49-0.65c0-0.09-0.02-0.17-0.05-0.25C478.15,891.21,478.39,890.8,478.39,890.32z"/>
		<path class="st4" d="M518.78,1001.44c-0.41-2.47-0.84-5.05-1.27-7.66l-68.16,0.7c-0.21,4.26-0.42,8.42-0.63,12.24L518.78,1001.44z
			"/>
	</g>
	<rect x="245.9" y="983.49" class="st5" width="342.17" height="14.07"/>
	<g>
		<polygon class="st13" points="431.04,981.18 333.75,981.18 322.89,916.29 420.19,916.29 		"/>
		<rect x="333.75" y="981.18" class="st14" width="143.83" height="2.31"/>
		<path class="st15" d="M379.52,950.71c0.3,2.47-1.45,4.47-3.92,4.47s-4.72-2-5.02-4.47c-0.3-2.47,1.45-4.47,3.92-4.47
			C376.97,946.23,379.22,948.24,379.52,950.71z"/>
	</g>
	<g>
		<path class="st16" d="M269.83,956.27c0,0-8.28-30.26-5.82-39.23c0,0,12.41,7.72,17.65,36.48L269.83,956.27z"/>
		<path class="st17" d="M297.16,959.39c0,0,10.15-35.93,7.32-46.63c0,0-14.84,9.07-21.36,43.25L297.16,959.39z"/>
		<path class="st17" d="M275.33,955.8c0,0-4.19-41.49,0.35-52.89c0,0,13.18,12.49,14.07,51.44L275.33,955.8z"/>
		<path class="st18" d="M292.8,955.85c0,0,3.77-31.06,0.04-39.55c0,0-11.12,9.42-12.1,38.56L292.8,955.85z"/>
		<path class="st19" d="M287.73,950.71h-7.46h-12.99c-0.33,0-0.57,0.3-0.5,0.62l6.7,31.76c0.05,0.24,0.26,0.41,0.5,0.41h6.29h7.46
			h6.29c0.24,0,0.45-0.17,0.5-0.41l6.7-31.76c0.07-0.32-0.18-0.62-0.5-0.62H287.73z"/>
		<path class="st20" d="M298.19,966.71h-28.38c-0.92,0-1.66-0.74-1.66-1.66v-1.38c0-0.92,0.74-1.66,1.66-1.66h28.38
			c0.92,0,1.66,0.74,1.66,1.66v1.38C299.85,965.97,299.11,966.71,298.19,966.71z"/>
		<path class="st20" d="M297.17,972.26h-26.33c-0.74,0-1.33-0.6-1.33-1.33v-0.66c0-0.74,0.6-1.33,1.33-1.33h26.33
			c0.74,0,1.33,0.6,1.33,1.33v0.66C298.5,971.67,297.9,972.26,297.17,972.26z"/>
	</g>
	<g>
		<g>
			<path class="st21" d="M360.35,906.62c0.46-1.77,0.74-3.56,0.84-5.36"/>
			<path class="st22" d="M359.99,890.78c-1.71-6.02-5.09-11.66-9.53-16.1c-8.26-8.24-19.7-12.7-31.23-14.43
				c-29.09-4.37-57.93,7.22-85.11,18.46c-19.78,8.18-40.53,16.41-61.54,18.4"/>
			<path class="st21" d="M167.29,897.48c-1.81,0.08-3.62,0.11-5.43,0.08"/>
			<g>
				<polygon class="st23" points="165.19,888.58 148.92,896.4 163.83,906.59 				"/>
			</g>
		</g>
	</g>
	<g>
		<g>
			<path class="st21" d="M373.32,909.26c0.86-1.6,1.62-3.25,2.29-4.92"/>
			<path class="st24" d="M378.57,893.74c2.88-17.18-2.59-35.87-15.17-48.05c-10.68-10.34-22.62-12.62-35.18-20.57
				c-12.56-7.95-34.17-15.37-33.73-37.39c0.36-18.24,7.72-29.12,13.75-37.39c5.74-7.87,11.6-14.44,18.52-20.39"/>
			<path class="st21" d="M331.03,726.45c1.41-1.09,2.87-2.17,4.37-3.23"/>
			<g>
				<polygon class="st23" points="338.16,732.34 346.38,716.25 328.34,717.18 				"/>
			</g>
		</g>
	</g>
	<g>
		<g>
			<path class="st21" d="M380.36,910.46c1.84-0.22,3.58-0.72,5.22-1.44"/>
			<path class="st25" d="M394.08,902.1c3.59-4.69,5.77-10.74,6.12-16.65c0.68-11.54-3.79-22.67-7.72-33.55s-7.4-22.61-4.69-33.85
				c3.49-14.49,17.14-25.11,31.77-27.95s29.89,1.03,43.25,7.64c13.36,6.61,25.21,15.85,37.33,24.52
				c17.57,12.57,36.35,24.25,57.36,29.28c13.15,3.15,27.38,3.34,40.31-0.28"/>
			<path class="st21" d="M603.09,849.52c1.7-0.64,3.37-1.35,5-2.13"/>
			<g>
				<polygon class="st23" points="610.36,856.28 619.08,840.47 601.03,840.81 				"/>
			</g>
		</g>
	</g>
	<path class="st21" d="M361.53,773.51l-27.55,6.26c-2.31,0.52-4.61-0.92-5.13-3.23l-2.17-9.54c-0.52-2.31,0.92-4.61,3.23-5.13
		l27.55-6.26c2.31-0.53,4.61,0.92,5.13,3.23l2.17,9.54C365.29,770.69,363.84,772.99,361.53,773.51z"/>
	<polyline class="st21" points="327.13,763.38 346.14,769.5 360.35,755.83 	"/>
	<line class="st21" x1="340.02" y1="767.53" x2="330.31" y2="779.27"/>
	<line class="st21" x1="350.71" y1="765.1" x2="364.63" y2="771.47"/>
	<path class="st21" d="M582.97,890.12l-28.14-2.53c-2.36-0.21-4.1-2.3-3.89-4.65l0.88-9.75c0.21-2.36,2.3-4.1,4.65-3.89l28.14,2.53
		c2.36,0.21,4.1,2.3,3.89,4.65l-0.88,9.75C587.41,888.59,585.33,890.33,582.97,890.12z"/>
	<polyline class="st21" points="553.36,869.88 569.56,881.56 587.29,872.93 	"/>
	<line class="st21" x1="564.35" y1="877.8" x2="551.5" y2="885.99"/>
	<line class="st21" x1="575.26" y1="878.78" x2="586.54" y2="889.13"/>
	<path class="st21" d="M468.03,831.23l-25.5,2.4c-2.14,0.2-4.03-1.37-4.23-3.51l-0.83-8.83c-0.2-2.14,1.37-4.03,3.51-4.23l25.5-2.4
		c2.14-0.2,4.03,1.37,4.23,3.51l0.83,8.83C471.74,829.13,470.17,831.03,468.03,831.23z"/>
	<polyline class="st21" points="438.29,818.1 454.66,825.82 469.04,815.2 	"/>
	<line class="st21" x1="449.4" y1="823.34" x2="439.29" y2="832.75"/>
	<line class="st21" x1="459.29" y1="822.4" x2="471.05" y2="829.76"/>
	<g>
		<path class="st21" d="M223.07,870.34l-31.73-1.3c-2.66-0.11-4.73-2.35-4.62-5.01l0.45-10.99c0.11-2.66,2.35-4.73,5.01-4.62
			l31.73,1.3c2.66,0.11,4.73,2.35,4.62,5.01l-0.45,10.99C227.97,868.38,225.73,870.45,223.07,870.34z"/>
		<polyline class="st21" points="188.72,849.24 207.54,861.46 226.98,850.81 		"/>
		<line class="st21" x1="201.49" y1="857.53" x2="187.51" y2="867.42"/>
		<line class="st21" x1="213.8" y1="858.04" x2="227.03" y2="869.04"/>
	</g>
</g>
</svg>
