<?xml version="1.0" encoding="utf-8"?>
<!-- Generator: Adobe Illustrator 24.2.3, SVG Export Plug-In . SVG Version: 6.00 Build 0)  -->
<svg version="1.1" id="Layer_1" xmlns="http://www.w3.org/2000/svg" xmlns:xlink="http://www.w3.org/1999/xlink" x="0px" y="0px"
	 viewBox="0 0 1920 1080" style="enable-background:new 0 0 1920 1080;" xml:space="preserve">
<style type="text/css">
	.st0{fill:url(#SVGID_1_);}
	.st1{opacity:0.25;}
	.st2{opacity:0.82;}
	.st3{fill:none;stroke:#635A9E;stroke-width:5;stroke-miterlimit:10;}
	.st4{fill:none;stroke:#635A9E;stroke-width:3;stroke-miterlimit:10;}
	.st5{fill:#635A9E;}
	.st6{fill:none;stroke:#635A9E;stroke-width:5.0001;stroke-miterlimit:10.0002;}
	.st7{fill:none;stroke:#635A9E;stroke-width:4;stroke-miterlimit:10;}
</style>
<linearGradient id="SVGID_1_" gradientUnits="userSpaceOnUse" x1="-8.5" y1="23.7" x2="1928.4" y2="23.7" gradientTransform="matrix(1 0 0 1 0 579)">
	<stop  offset="0" style="stop-color:#241E5C"/>
	<stop  offset="1" style="stop-color:#513295"/>
</linearGradient>
<rect x="-8.5" y="125.4" class="st0" width="1936.9" height="954.6"/>
<g class="st1">
	<g id="truckv_2_" class="st2">
		<polyline class="st3" points="425.5,1041.7 412.2,1041.7 412.2,1028.8 414.8,1028.8 461.8,1028.8 461.8,1037.1 488.1,1037.1 
			488.1,1046.8 462.1,1046.8 		"/>
		<polyline class="st3" points="414.8,1028.8 414.8,1010.2 443.2,998.3 453.6,971.6 482.5,971.3 487.8,978 487.8,1036.7 		"/>
		<polyline class="st3" points="423,1007.4 423,1020.7 415.1,1020.7 		"/>
		<line class="st3" x1="449" y1="1007" x2="462.5" y2="1007"/>
		<polygon class="st3" points="451.3,997.4 480.6,997.4 480.6,978.5 458.5,978.5 		"/>
		<polyline class="st3" points="469.8,971.3 469.8,964.3 480.6,964.3 480.6,970.8 		"/>
		<polyline class="st3" points="487.8,978 496.1,978 496.1,935.9 600,935.9 600,1028.1 608,1028.1 608,1033.6 557.2,1033.6 
			555.7,1033.6 		"/>
		<line class="st3" x1="593.3" y1="1020.7" x2="503.2" y2="1020.7"/>
		<polyline class="st3" points="496.1,978 496.1,1028.1 487.8,1028.1 600,1028.1 		"/>
		<polyline class="st3" points="487.8,1033.6 527.7,1033.6 528.6,1033.6 		"/>
		<circle class="st3" cx="541.9" cy="1046.6" r="14"/>
		<circle class="st3" cx="443.1" cy="1045.3" r="14"/>
		<circle class="st3" cx="541.9" cy="1046.6" r="8.4"/>
		<circle class="st3" cx="443.1" cy="1045.3" r="8.4"/>
	</g>
	<g id="envelope_2_" class="st2">
		<line class="st4" x1="512.4" y1="928.5" x2="512.4" y2="914.8"/>
		<line class="st4" x1="512.4" y1="906.1" x2="512.4" y2="892.5"/>
		<path class="st4" d="M512,885.6c0,0-0.2-11.4-13.4-10.6"/>
		<line class="st4" x1="493.5" y1="875" x2="481.5" y2="875"/>
		<rect x="415.4" y="859.8" class="st3" width="54.8" height="32.7"/>
		<polyline class="st3" points="470.2,859.8 442.8,880.2 415.4,859.8 		"/>
	</g>
	<path class="st3" d="M623.1,1079.2c0,0,54.9-71.9,68-80.1c10.2,0,47.6,7.4,60.6,48.8c-6.2,14.5-11.9,26.8-15,31.3"/>
	<path class="st3" d="M692.8,999.1c0,0,4-20.2,5.9-24.2c0-5.5-0.8-20,2-23.1c2.8-3,7.9-7.6,10.4-11.2c2.5-3.7,13.5-20.7,16.6-22.1
		c0.8-4.8,2.2-17.1,9.7-14.2"/>
	<path class="st3" d="M737.3,897.1h57.3v102c0,0,0.3,4.5-3,4.5s-48.7,0-48.7,0s-0.3-21.4-5.7-34c0,0-5.4-3.4-8-3.2
		c-0.8-5.8-0.8-7.8,0-10c0.8-2.3,4-14.2,4.2-16.1c1.5-2.5,2.8-4.8,3.8-4.9S737.3,897.1,737.3,897.1z"/>
	<line class="st3" x1="737.3" y1="969.6" x2="737.7" y2="926.5"/>
	<path class="st3" d="M737.3,897.1v-10.2c0,0,2.5-4.8,6.9-4.8s44.3,0,44.3,0s6.3,0.9,6.3,5.7s0,11.5,0,11.5"/>
	<path class="st3" d="M794.6,924.6c0,0,9.4-4.7,12.3,0c2.9,4.7,5.5,10.5-12.3,19.3"/>
	<path class="st3" d="M794.6,949.1c0,0,11.6-7.6,13.9-1.1c2.3,6.5-2.9,14.4-13.9,18.8"/>
	<path class="st3" d="M794.6,973.1c0,0,10.4-5.8,12.4,0s-5.1,14-12.4,18.1"/>
	<path class="st3" d="M775.1,1003.6c0,0-15.5,29-27.4,34.1"/>
	<line class="st3" x1="741.7" y1="988.1" x2="794.1" y2="988.1"/>
	<circle class="st3" cx="766.9" cy="940.6" r="16.3"/>
	<circle class="st3" cx="766.5" cy="995.8" r="3.7"/>
	<g>
		<path class="st5" d="M765.7,950.1c-3.6-0.3-5.7-2.2-5.9-5h2.3c0.2,1.9,1.7,2.8,3.6,3.1v-6.8l-0.7-0.2c-2.9-0.8-4.7-2.3-4.7-4.8
			c0-2.8,2.3-4.8,5.4-5.1v-2.1h1.4v2c3.2,0.3,5.5,2.2,5.6,4.8h-2.1c-0.2-1.6-1.6-2.6-3.5-2.9v6.4l0.7,0.2c1.9,0.5,5.2,1.6,5.2,5.1
			c0,2.8-2.1,5-5.9,5.3v2h-1.4L765.7,950.1L765.7,950.1z M765.7,933.2c-2,0.3-3.2,1.4-3.2,3c0,1.8,1.9,2.5,3.2,3V933.2z M771,944.9
			c0-1.9-1.7-2.5-3.7-3.1h-0.1v6.4C769.4,947.9,771,946.7,771,944.9z"/>
	</g>
	<line class="st3" x1="761.7" y1="891.1" x2="772.3" y2="891.1"/>
	<g id="circles_2_" class="st2">
		<circle class="st3" cx="638.1" cy="970.3" r="2.5"/>
		<circle class="st3" cx="648.5" cy="964.3" r="2.5"/>
		<circle class="st3" cx="658" cy="970.3" r="2.5"/>
		<circle class="st3" cx="658" cy="981.2" r="2.5"/>
		<circle class="st3" cx="648.5" cy="987.3" r="2.5"/>
		<circle class="st3" cx="638.1" cy="981.2" r="2.5"/>
	</g>
	<g id="POS_Terminal_2_" class="st2">
		<line class="st4" x1="705.5" y1="923.1" x2="693.6" y2="923.1"/>
		<line class="st4" x1="685" y1="923.1" x2="673.1" y2="923.1"/>
		<line class="st4" x1="665.2" y1="923.1" x2="653.4" y2="923.1"/>
		<line class="st4" x1="642.8" y1="923.1" x2="631" y2="923.1"/>
		<path class="st4" d="M685.7,923.1"/>
		<path class="st4" d="M622.6,923.8c0,0-11,0.1-11-12.7"/>
		<line class="st4" x1="611.7" y1="903.3" x2="611.7" y2="889.9"/>
		<path class="st3" d="M580.9,882c0,0-8.7-0.7-8.7-11c-0.8-10.7-7.6-56.8,1.2-108.9c1.6-3.1,2.7-5.6,10.1-5.7s52.5,0,52.5,0
			s6.9,0.8,8,9.3c1.2,8.5,6,80.1,0,105.3c-0.7,3.7-1.2,9.5-6.2,10.9C632.7,883.4,580.9,882,580.9,882z"/>
		<path class="st3" d="M583.5,756.5l-1.4,45.6c0,0,0.3,8.3,7.6,8.5c7.2,0.2,40.6,0,40.6,0s6,0.3,7.4-9.3s-1.7-44.8-1.7-44.8"/>
		<rect x="588.8" y="763.8" class="st3" width="40.1" height="31.8"/>
		<line class="st3" x1="593.8" y1="771.9" x2="606.2" y2="771.9"/>
		<line class="st3" x1="593.8" y1="782.2" x2="606.2" y2="782.2"/>
		<line class="st3" x1="609.4" y1="782.2" x2="616.1" y2="782.2"/>
		<line class="st3" x1="588.8" y1="801.2" x2="597.5" y2="802.6"/>
		<line class="st3" x1="603.9" y1="804.1" x2="616.1" y2="804.1"/>
		<line class="st3" x1="620.6" y1="802.6" x2="630.3" y2="801.2"/>
		<polyline class="st3" points="588.8,756.4 588.8,728.2 594.8,729.8 600,728.2 606.2,730.1 610,728.2 614.8,730.8 620.6,727.2 
			624.6,730.2 628.9,727.2 628.9,755.4 		"/>
		<line class="st3" x1="593.2" y1="736.9" x2="601.7" y2="736.9"/>
		<line class="st3" x1="607.2" y1="736.9" x2="612.2" y2="736.9"/>
		<line class="st3" x1="616.9" y1="736.9" x2="622.7" y2="736.9"/>
		<line class="st3" x1="593.2" y1="746.1" x2="604.3" y2="746.1"/>
		<line class="st3" x1="609.4" y1="746.1" x2="616.9" y2="746.1"/>
		<ellipse class="st3" cx="591.2" cy="821.4" rx="6.3" ry="4.5"/>
		<ellipse class="st3" cx="609.4" cy="821.9" rx="6.3" ry="4.5"/>
		<ellipse class="st3" cx="626.9" cy="821.4" rx="6.3" ry="4.5"/>
		<ellipse class="st3" cx="626.9" cy="835.3" rx="6.3" ry="4.5"/>
		<ellipse class="st3" cx="608.9" cy="835.3" rx="6.3" ry="4.5"/>
		<ellipse class="st3" cx="591.2" cy="835.3" rx="6.3" ry="4.5"/>
		<ellipse class="st3" cx="591.2" cy="848.3" rx="6.3" ry="4.5"/>
		<ellipse class="st3" cx="591.2" cy="861.3" rx="6.3" ry="4.5"/>
		<ellipse class="st3" cx="609.4" cy="861.3" rx="6.3" ry="4.5"/>
		<ellipse class="st3" cx="608.9" cy="874.4" rx="6.3" ry="4.5"/>
		<ellipse class="st3" cx="626.9" cy="874.4" rx="6.3" ry="4.5"/>
		<ellipse class="st3" cx="591.2" cy="874.4" rx="6.3" ry="4.5"/>
		<ellipse class="st3" cx="626.9" cy="861.6" rx="6.3" ry="4.5"/>
		<ellipse class="st3" cx="609.4" cy="848.3" rx="6.3" ry="4.5"/>
		<ellipse class="st3" cx="626.9" cy="848.3" rx="6.3" ry="4.5"/>
		<path class="st3" d="M644.2,870c0,0,12.5-4.7,12.5-17.2c0-12.6,0-62.8,0-62.8s-4.1-11.2-11.7-12.8"/>
	</g>
	<g id="globe_2_" class="st2">
		<line class="st4" x1="580.8" y1="738.8" x2="569" y2="738.8"/>
		<path class="st4" d="M561,740.2c0,0-11.3,1.8-11.3-13.1"/>
		<line class="st4" x1="549.8" y1="718" x2="549.8" y2="704.5"/>
		<line class="st4" x1="549.8" y1="695.8" x2="549.8" y2="682.5"/>
		<path class="st3" d="M549.8,671.5"/>
		<circle class="st3" cx="549.8" cy="640.5" r="32"/>
		<line class="st3" x1="549.8" y1="608.5" x2="549.8" y2="672.5"/>
		<path class="st3" d="M541.7,671.5c0,0-25.2-24.6,0-61.9"/>
		<path class="st3" d="M556,609.5c0,0,24.5,31.2,0,61.9"/>
		<path class="st3" d="M528.5,664.4c0,0,20-15,42.4,0"/>
		<path class="st3" d="M571.6,617.2c0,0-20.6,19.6-43.8,0"/>
		<line class="st3" x1="517.7" y1="640.5" x2="581.7" y2="640.5"/>
		<circle class="st3" cx="612.9" cy="688.7" r="3.7"/>
	</g>
	<g id="gift_2_" class="st2">
		<line class="st4" x1="767" y1="872" x2="767" y2="859.3"/>
		<path class="st4" d="M767,850.3c0,0-0.9-9.5-14.4-9.5"/>
		<path class="st4" d="M743.3,840.7c0,0-10.4,0-10.4-11.2"/>
		<line class="st4" x1="733" y1="821.4" x2="733" y2="808.5"/>
		<polygon class="st3" points="705.1,802.7 760.6,802.7 760.6,753.8 732,753.8 705.1,753.8 		"/>
		<line class="st3" x1="732" y1="802.7" x2="732" y2="753.8"/>
		<line class="st3" x1="705.1" y1="775.2" x2="760.6" y2="775.2"/>
		<polyline class="st3" points="705.1,753.8 702,753.8 702,742.3 764.6,742.3 764.6,753.8 760.6,753.8 		"/>
		<path class="st3" d="M728.5,740.7c0,0-13.9-8.2-19.7-16.1c-5.8-7.9,0.6-13.8,6.5-9.7C720.2,720.2,727.5,734.3,728.5,740.7z"/>
		<path class="st3" d="M730,740.7c0,0-6.4-14.8-6.4-24.6s8.7-10.8,11-3.9C735.4,719.3,733,734.9,730,740.7z"/>
		<path class="st3" d="M730.8,741.4c0,0,3-15.9,8.4-24s13.2-4.1,11.3,2.9C747.3,726.7,736.5,738.3,730.8,741.4z"/>
	</g>
	<ellipse class="st6" cx="720" cy="654.5" rx="26.3" ry="26.3"/>
	<circle class="st3" cx="719.2" cy="654.6" r="17.1"/>
	<g>
		<path class="st5" d="M726,663.7c-1,0.7-2.7,1.4-4.9,1.4c-2.6,0-5-1-6.6-2.9c-1.3-1.4-2-3.3-2.4-5.6h-2V655h1.9c0-0.2,0-0.3,0-0.5
			c0-0.5,0-1,0.1-1.4h-2v-1.6h2.1c0.4-2.3,1.4-4.2,2.7-5.5c1.7-1.7,3.8-2.7,6.5-2.7c2,0,3.5,0.6,4.3,1l-0.7,2.1
			c-0.8-0.5-2.2-0.9-3.7-0.9c-1.8,0-3.2,0.6-4.3,1.8c-1,0.9-1.6,2.5-2,4.2h9.2v1.6h-9.4c0,0.4-0.1,0.9-0.1,1.4c0,0.2,0,0.3,0,0.6
			h9.5v1.6H715c0.3,1.9,0.9,3.3,1.8,4.3c1.2,1.3,2.9,1.9,4.6,1.9s3.2-0.7,4-1.1L726,663.7z"/>
	</g>
	<g id="shopping_bags_2_" class="st2">
		<line class="st4" x1="816.2" y1="922.4" x2="829.1" y2="922.4"/>
		<line class="st4" x1="835.2" y1="922.4" x2="847.5" y2="922.4"/>
		<line class="st4" x1="852.8" y1="922.4" x2="865.2" y2="922.4"/>
		<path class="st4" d="M870.1,922.4c0,0,14.7-2.2,14.7,9.9"/>
		<line class="st4" x1="884.3" y1="938.8" x2="884.3" y2="952.3"/>
		<path class="st4" d="M884.8,958.9c0,0-1.9,12.8,10.7,12.8"/>
		<path class="st4" d="M901.6,971.7c0,0,13.5-2.2,13.5,9.1"/>
		<line class="st4" x1="915.1" y1="989.4" x2="915.1" y2="1002.3"/>
		<polygon class="st3" points="892,1050.1 895.4,1008 941.9,1008 940.3,1050.1 		"/>
		<path class="st3" d="M910.1,1014.4c0,0,1.4,11.2,10.4,10.9c9-0.3,10.4-7.9,10.4-10.9"/>
		<polyline class="st3" points="941.9,1008 944.4,963 999.7,963 997.6,982.3 		"/>
		<line class="st3" x1="999.7" y1="963" x2="1004.3" y2="982"/>
		<polyline class="st3" points="940.3,1050.1 1028.7,1050.1 1031.6,982 977.1,982 973.7,1049.3 		"/>
		<polyline class="st3" points="1028.7,1050.1 1038,1044.9 1031.6,982 		"/>
		<path class="st3" d="M990.1,987.5c0,0-0.4,14.8,13.2,13.9c13.7-0.8,11.9-13.9,11.9-13.9"/>
		<path class="st3" d="M953.9,969.1c0,0-1.4-18.1,12.7-19.7s16.9,9.5,17.3,19"/>
		<path class="st3" d="M961.4,969.1c0,0-1.4-18.1,12.7-19.7s16.9,9.5,17.3,19"/>
	</g>
	<g id="check_and_chat_2_" class="st2">
		<line class="st4" x1="801.8" y1="910" x2="812.5" y2="910"/>
		<path class="st4" d="M818.6,910c0,0,10.5,0.6,10.5-12.4"/>
		<path class="st4" d="M829.1,891.1c0,0-0.3-9.8,12.3-9.8"/>
		<line class="st4" x1="846.9" y1="881.3" x2="859" y2="881.3"/>
		<circle class="st3" cx="881.4" cy="886.2" r="16.1"/>
		<polyline class="st3" points="877.4,885.8 881.4,892 887.7,878.1 		"/>
		<line class="st4" x1="943.1" y1="951.5" x2="943.1" y2="937.7"/>
		<line class="st4" x1="943.1" y1="930.2" x2="943.1" y2="917.2"/>
		<path class="st4" d="M943.1,910c0,0,0.3-9.3-12.3-9.3"/>
		<path class="st4" d="M925.4,900.7c0,0-11.6-0.8-12.1-11.6"/>
		<path class="st4" d="M913.4,882.5c-0.3-0.3,0-14.2,0-14.2"/>
		<line class="st4" x1="913.4" y1="860.7" x2="913.3" y2="846"/>
		<line class="st4" x1="913.2" y1="838.5" x2="913.2" y2="827.2"/>
		<line class="st4" x1="913.2" y1="820.6" x2="913.4" y2="807.4"/>
		<line class="st4" x1="872.3" y1="807.4" x2="872.3" y2="820.6"/>
		<line class="st4" x1="872.3" y1="827.2" x2="872.3" y2="838.5"/>
		<line class="st4" x1="872.3" y1="846" x2="872.3" y2="861.8"/>
		<path class="st3" d="M955.1,892c0,0-10.4,0.8-10.4-11.6s0-22.3,0-22.3s-1-10.4,11.4-10.4s40.8,0,40.8,0s9.9-0.7,9.9,11.6
			c0,12.2,0,23.3,0,23.3s0.1,9.8-9.8,9.8c-9.9,0-26.3,0-26.3,0l-5.5,7.4l-3-7.8H955.1L955.1,892z"/>
		<line class="st3" x1="953" y1="856.2" x2="967.3" y2="856.2"/>
		<line class="st3" x1="953" y1="868.3" x2="978.8" y2="868.3"/>
		<line class="st3" x1="984.9" y1="868.3" x2="995.4" y2="868.3"/>
	</g>
	<g id="computer_2_" class="st2">
		<line class="st4" x1="975.8" y1="807.4" x2="975.8" y2="821.6"/>
		<line class="st4" x1="975.8" y1="829.5" x2="975.8" y2="840.7"/>
		<polygon class="st3" points="844.3,782.6 933.9,782.6 1060.8,782.6 1060.8,791.6 1053.6,796.9 853,796.9 844.3,792.4 		"/>
		<polyline class="st3" points="933.3,782.6 941.7,789.8 971.5,789.8 980.5,783.1 		"/>
		<line class="st3" x1="862.6" y1="679.9" x2="862.6" y2="782.6"/>
		<line class="st3" x1="1049.2" y1="679.9" x2="1049.2" y2="782.6"/>
		<polyline class="st3" points="876.4,676.1 876.4,763.9 1034.9,763.9 1034.9,661.6 886.4,661.6 		"/>
		<line class="st3" x1="890.9" y1="740.3" x2="919.6" y2="740.3"/>
		<line class="st3" x1="925.6" y1="740.3" x2="936.1" y2="740.3"/>
		<line class="st3" x1="942.7" y1="740.3" x2="955.7" y2="740.3"/>
		<line class="st3" x1="960.7" y1="740.3" x2="969.2" y2="740.3"/>
		<rect x="890.9" y="705.6" class="st3" width="42.7" height="18.2"/>
		<polygon class="st3" points="990.4,714.7 983.3,701.2 996.8,704.5 993.5,709.6 		"/>
		<line class="st3" x1="1002.6" y1="716.2" x2="993.5" y2="709.6"/>
		<line class="st3" x1="976.2" y1="703.2" x2="976.2" y2="711.7"/>
		<line class="st3" x1="970.9" y1="701.2" x2="965.5" y2="706.6"/>
		<line class="st3" x1="970.9" y1="696.9" x2="962.9" y2="696.9"/>
		<line class="st3" x1="970.9" y1="693" x2="965.5" y2="688.5"/>
		<line class="st3" x1="976.2" y1="693" x2="976.2" y2="683.6"/>
		<line class="st3" x1="979.4" y1="694.8" x2="985.6" y2="688.5"/>
		<path class="st3" d="M808.1,756.7"/>
		<path class="st3" d="M787.3,768.9"/>
		<polyline class="st3" points="809.2,779.2 818.1,768.6 810,758.8 		"/>
		<line class="st3" x1="818.1" y1="768.6" x2="787" y2="768.6"/>
		<line class="st4" x1="817.4" y1="688.5" x2="817.4" y2="702.1"/>
		<path class="st4" d="M818.1,709.6c0,0-1.2,13.8,10.3,13.1"/>
		<line class="st4" x1="837.3" y1="722.7" x2="852.3" y2="722.7"/>
		<rect x="890.9" y="676.5" class="st3" width="13.8" height="15.7"/>
		<line class="st3" x1="911.4" y1="691.7" x2="923.9" y2="691.7"/>
		<path class="st3" d="M868.8,679.9c0,0,7.6,0.8,7.6-8.2c0-9.1,0-50,0-50s-0.3-8.7-10.4-8.7s-80.3,0-80.3,0s-9.2-0.3-9.2,9.2
			s0,48.7,0,48.7s0,9,9,9C794.6,679.6,868.8,679.9,868.8,679.9z"/>
		<rect x="792" y="633.3" class="st3" width="16.8" height="13"/>
		<rect x="837.5" y="632.5" class="st3" width="27.9" height="13.8"/>
		<line class="st3" x1="788.5" y1="665.9" x2="795" y2="665.9"/>
		<line class="st3" x1="801.8" y1="665.9" x2="808.1" y2="665.9"/>
		<line class="st3" x1="812.8" y1="665.9" x2="820.1" y2="665.9"/>
		<line class="st3" x1="826.5" y1="665.9" x2="832.8" y2="665.9"/>
		<rect x="855.1" y="657" class="st3" width="10.3" height="9.8"/>
		<path class="st3" d="M787.6,612.8c0,0-2.1-13.4,9-13.4s81.6,0,81.6,0s8.5-1,8.5,7.9s0,50.8,0,50.8s-1.3,8.7-10.4,8.7"/>
		<line class="st3" x1="886.8" y1="647.3" x2="1041.8" y2="647.3"/>
		<path class="st3" d="M1041.8,608v14.4v45c0,0-1.2,12.6,14,12.6s95.3,0,95.3,0s9.7-2.2,9.7-13.8c0-11.7,0-55,0-55s0.2-11.9-14-11.9
			s-93.3,0-93.3,0S1041.8,598.3,1041.8,608z"/>
		<line class="st3" x1="1160.8" y1="622.5" x2="1041.8" y2="622.5"/>
		<rect x="1056.3" y="640.6" class="st3" width="21.2" height="10.5"/>
		<line class="st3" x1="1105.7" y1="639.5" x2="1120" y2="639.5"/>
		<line class="st3" x1="1128.7" y1="639.5" x2="1149.7" y2="639.5"/>
		<line class="st3" x1="1149.7" y1="651.2" x2="1128.7" y2="651.2"/>
		<line class="st3" x1="1121.4" y1="651.2" x2="1112.8" y2="651.2"/>
		<line class="st3" x1="1104.3" y1="650.1" x2="1097.8" y2="650.1"/>
		<line class="st3" x1="1083.6" y1="664.8" x2="1147.3" y2="664.8"/>
		<line class="st4" x1="1088.2" y1="685.9" x2="1088.2" y2="698.5"/>
		<path class="st4" d="M1088.9,704.9c0,0,1.5,12.9-10.5,12.9"/>
		<line class="st4" x1="1071.5" y1="717" x2="1058.9" y2="717"/>
	</g>
	<path class="st3" d="M1123.8,1017.3c0,0-11-2.2-11-13.8s8.6-12.8,12.8-12.8s32,0,32,0s8.2,3.7,8,13.2c-0.2,9.3-3,13.2-9,13.2
		C1150.6,1017.3,1123.8,1017.3,1123.8,1017.3z"/>
	<line class="st3" x1="1107.8" y1="994.5" x2="1091.7" y2="985.6"/>
	<line class="st3" x1="1104" y1="1004" x2="1086.9" y2="1004"/>
	<line class="st3" x1="1107.8" y1="1014.4" x2="1091.7" y2="1022.7"/>
	<line class="st4" x1="1078.9" y1="1004" x2="1066.7" y2="1004"/>
	<line class="st4" x1="1058.6" y1="1004" x2="1046.5" y2="1004"/>
	<line class="st3" x1="1171.5" y1="993.5" x2="1187" y2="985.6"/>
	<line class="st3" x1="1171.5" y1="1003" x2="1188.9" y2="1003"/>
	<line class="st3" x1="1171.5" y1="1014.4" x2="1187" y2="1022.7"/>
	<line class="st4" x1="1139.2" y1="928.1" x2="1139.2" y2="941.2"/>
	<line class="st4" x1="1139.2" y1="946.7" x2="1139.2" y2="959.8"/>
	<line class="st4" x1="1139.2" y1="968" x2="1139.2" y2="982"/>
	<g class="st2">
		<path class="st5" d="M1126.9,998.2h3.8c2.6,0,3.8,1.6,3.8,3.6s-1.2,3.6-3.8,3.6h-2.5v4.2h-1.4L1126.9,998.2L1126.9,998.2z
			 M1130.6,1004.2c1.8,0,2.5-1,2.5-2.4s-0.7-2.4-2.5-2.4h-2.4v4.8L1130.6,1004.2L1130.6,1004.2z"/>
		<path class="st5" d="M1134.6,1009.5l4.2-11.3h1.4l4.2,11.3h-1.4l-1.1-3.2h-4.6l-1.1,3.2H1134.6z M1141.3,1005.1l-1.8-5.1h-0.1
			l-1.8,5.1H1141.3z"/>
		<path class="st5" d="M1145.6,998.2l3.1,5.3h0.2l3.1-5.3h1.6l-4.1,6.6v4.7h-1.4v-4.7l-4.1-6.6H1145.6z"/>
	</g>
	<g id="second_hand_2_" class="st2">
		<path class="st3" d="M1283.5,1079.2c-0.5-0.7-30.1-58.9-32.3-64.7c-2.2-5.9-7-15.5,2.4-24.9c9.3-9.3,31.4-26.9,36.3-28.3
			c8.5-2.3,9.5,0,18.4,9.5l49.5,65.1c0,0,34.7,43.5,37.1,44.2"/>
		<path class="st3" d="M1216.7,896.3c-0.1-2-0.3-14.3,5-16.3c5.7-2.2,9,4.8,11.6,14.2c-0.8-10.5,0.5-12.7,3.5-13.8
			c3-1.2,9.9,0.8,12.9,13.5"/>
		<path class="st3" d="M1216.7,896.5c0-0.1,0-0.2,0-0.3c-0.5-5.6-10.9-30.7-12.1-32.5c-1.2-1.9-4.7-13.2-7.4-19.7
			c-1.1-2.8-2.5-5.6-4.2-7.7c-2.2-2.9-4.8-4.6-7.6-3.3c-2.5,1.1-3.1,4.2-3.1,7.2s0.8,5.9,1.4,6.8c1,1.7,3.7,15.2,3.7,15.2
			s7.7,26.1,11.9,35.4c3.8,8.5,4.2,26.8,4.4,29.2c0,0.1,0,0.2,0,0.3s0,0,0-0.3c-0.4-1.6-5.4-8.5-9.9-13.1
			c-0.6-17.5-12.9-21.4-15.5-20.2c-2.5,1.2-3.3,9-3.3,9s5.7,8.8,4.2,12.1c-1.4,3.1,1.6,10,1.6,10s3.8,7.7,5.2,9.9
			c1.4,2.3,4,11.3,4,11.3s4.3,11.2,12.2,16.7c7.9,9.3,45.8,33.3,45.8,33.3"/>
		<path class="st3" d="M1248,888.2c0,0,15.4-5.2,22.1,11s10.7,43.7,9.9,51.1c3.8,6.5,6.1,12.8,6.1,12.8"/>
		<path class="st3" d="M1179,918.1h-46.5c0,0-7.8,0.8-7.8-13s0-115.3,0-115.3s-0.3-12.5,10-12.5s70.1,0,70.1,0s9.9,1.2,9.9,12.3
			s0,98.5,0,98.5"/>
		<line class="st3" x1="1124.7" y1="900.2" x2="1175" y2="900.2"/>
		<line class="st3" x1="1190.3" y1="901" x2="1199.8" y2="901"/>
		<line class="st3" x1="1135.1" y1="875.1" x2="1166" y2="875.1"/>
		<line class="st3" x1="1135.1" y1="867" x2="1143.6" y2="867"/>
		<line class="st3" x1="1146.8" y1="867" x2="1157" y2="867"/>
		<line class="st3" x1="1134.4" y1="852" x2="1139.4" y2="852"/>
		<line class="st3" x1="1144.1" y1="852" x2="1156.3" y2="852"/>
		<line class="st3" x1="1160.5" y1="852" x2="1175" y2="852"/>
		<path class="st3" d="M1142.3,840.4"/>
		<path class="st3" d="M1135.1,840.4"/>
		<path class="st3" d="M1164.9,840.4"/>
		<path class="st3" d="M1146.8,840.4"/>
		<line class="st3" x1="1135.1" y1="805.8" x2="1170.5" y2="805.8"/>
		<line class="st3" x1="1136" y1="814.6" x2="1154.5" y2="814.6"/>
		<line class="st3" x1="1160.5" y1="814.6" x2="1165.4" y2="814.6"/>
		<path class="st3" d="M1146.1,821.6"/>
		<path class="st3" d="M1136,821.6"/>
		<path class="st3" d="M1159.5,821.6"/>
		<path class="st3" d="M1149.7,821.6"/>
		<line class="st3" x1="1135.1" y1="830.1" x2="1141.6" y2="830.1"/>
		<line class="st3" x1="1145.2" y1="830.1" x2="1157" y2="830.1"/>
		<circle class="st3" cx="1169.5" cy="907.8" r="2.8"/>
		<path class="st3" d="M1196.3,828.1c0,3.2-1.2,6.1-3.2,8.3c-2.2-2.9-4.8-4.6-7.6-3.3c-2.5,1.1-3.1,4.2-3.1,7.2
			c-6.1-0.8-10.8-5.9-10.8-12.2c0-6.8,5.5-12.3,12.3-12.3S1196.3,821.3,1196.3,828.1z"/>
		<path class="st3" d="M1166.6,826.4c0,0-0.3,3.4,1.1,5.5"/>
		<path class="st3" d="M1167.6,835.2c0,0,0.9,3.3,3.1,4.7"/>
		<path class="st3" d="M1172.2,841.7c0,0,2.5,2.2,5.2,2.2"/>
		<path class="st3" d="M1169.1,817.9c0,0-2.1,2.7-2,5.3"/>
		<path class="st3" d="M1174.8,812.9c0,0-3.2,1.1-4.5,3.4"/>
		<path class="st3" d="M1182.6,810.9c0,0-3.4-0.3-5.4,1.3"/>
		<path class="st3" d="M1191.6,812.5c0,0-3-1.7-5.5-1.1"/>
		<path class="st3" d="M1198.9,817.7c0,0-1.6-3-4.1-3.8"/>
		<path class="st3" d="M1201.1,826c0,0,0.3-3.4-1.3-5.5"/>
		<path class="st3" d="M1199.6,834.2c0,0,2-2.8,1.7-5.4"/>
		<path class="st3" d="M1194.2,840.3c0,0,3.1-1.5,4-4"/>
		<line class="st3" x1="1124.7" y1="789.8" x2="1214.7" y2="789.8"/>
		<line class="st3" x1="1165.4" y1="784" x2="1173.9" y2="784"/>
		<line class="st4" x1="1018.3" y1="868.3" x2="1030.4" y2="868.3"/>
		<line class="st4" x1="1038.4" y1="868.3" x2="1051.2" y2="868.3"/>
		<line class="st3" x1="1063.7" y1="859.4" x2="1063.7" y2="872.5"/>
		<line class="st3" x1="1058.5" y1="867.1" x2="1070.6" y2="867.1"/>
		<line class="st4" x1="1078.7" y1="867" x2="1091.6" y2="867"/>
		<line class="st4" x1="1097.7" y1="867.1" x2="1111.5" y2="867.1"/>
		<line class="st3" x1="1100.4" y1="923.3" x2="1079.2" y2="939.8"/>
		<polyline class="st3" points="1079.4,925.8 1078.6,940.2 1091.2,943.5 		"/>
	</g>
	<g id="taxi_2_" class="st2">
		<line class="st3" x1="1410.3" y1="1011" x2="1464.8" y2="1011"/>
		<path class="st3" d="M1493.7,1012.1h11.6c0,0,5.8-3.9,0-10.7c-3.4,0-5.3,0-5.3,0"/>
		<polyline class="st3" points="1485.3,1006.8 1501.4,1006.8 1501.4,984.2 1507.8,984.2 1507.8,990.7 1378.5,990.7 		"/>
		<polyline class="st3" points="1378.5,980.6 1378.5,992.5 1368.2,992.5 		"/>
		<path class="st3" d="M1366.3,1001.4c0,0-5.5-0.8-6.3,3.7s1.8,6,4.9,6s13.5,0,13.5,0"/>
		<line class="st3" x1="1403.1" y1="1004.2" x2="1469.7" y2="1004.2"/>
		<line class="st3" x1="1440.6" y1="955.1" x2="1440.6" y2="1004.2"/>
		<polyline class="st3" points="1502,984.2 1478.3,977.2 1474,977.2 		"/>
		<path class="st3" d="M1478.3,977.2c0,0-12.1-21.1-14.9-22.1c-2.9-0.8-53.9,0-53.9,0l-18.4,20l-22.1,8.2l-2.6,21.9l21.1,0.6"/>
		<polyline class="st3" points="1391,975.1 1410.3,975.7 1410.3,1003.6 		"/>
		<line class="st3" x1="1416.1" y1="955.1" x2="1410.3" y2="975.7"/>
		<polyline class="st3" points="1423,955.1 1416.1,975.7 1469.7,975.7 1457.6,954.8 		"/>
		<polyline class="st3" points="1412.8,954.7 1412.8,946.1 1428.5,946.1 1428.5,954.4 		"/>
		<line class="st3" x1="1416.1" y1="949.3" x2="1418.5" y2="949.3"/>
		<line class="st3" x1="1423.3" y1="949.3" x2="1425.1" y2="949.3"/>
		<line class="st3" x1="1420.6" y1="950.4" x2="1420.6" y2="954.7"/>
		<line class="st3" x1="1462.3" y1="983.3" x2="1469.3" y2="983.3"/>
		<line class="st3" x1="1395.2" y1="982.8" x2="1404.4" y2="982.8"/>
		<circle class="st3" cx="1395.2" cy="1008.1" r="9.5"/>
		<circle class="st3" cx="1477.2" cy="1008.1" r="9.5"/>
		<circle class="st3" cx="1395.2" cy="1008.1" r="4.3"/>
		<circle class="st3" cx="1477.2" cy="1008.1" r="4.3"/>
		<line class="st4" x1="1371.5" y1="973" x2="1371.5" y2="958.6"/>
		<line class="st4" x1="1371.5" y1="951.5" x2="1371.5" y2="937.2"/>
		<path class="st4" d="M1371.5,928.2c0,0-0.5-9.2-13.7-9.7"/>
		<line class="st4" x1="1349.4" y1="918.5" x2="1336.2" y2="918.5"/>
		<path class="st4" d="M1328.5,918.5c0,0-11.6-1.5-11.7-12.2"/>
		<line class="st4" x1="1316.8" y1="900.1" x2="1316.8" y2="886.5"/>
		<circle class="st3" cx="1318.3" cy="859.8" r="16"/>
		<polyline class="st3" points="1313.1,859.3 1317.4,866.2 1324.4,852.1 		"/>
	</g>
	<g id="paper_2_" class="st2">
		<line class="st4" x1="1340.8" y1="859.2" x2="1352.9" y2="859.2"/>
		<line class="st4" x1="1361" y1="859.8" x2="1372.7" y2="859.8"/>
		<line class="st4" x1="1378.5" y1="859.2" x2="1390.8" y2="859.2"/>
		<line class="st4" x1="1398.8" y1="859.8" x2="1410.3" y2="859.8"/>
		<path class="st4" d="M1418.5,859.8c0,0,10.4-0.9,10.4-12.1"/>
		<line class="st4" x1="1428.8" y1="841.9" x2="1428.8" y2="827.6"/>
		<rect x="1399.7" y="767.4" class="st3" width="86.4" height="47.3"/>
		<rect x="1406.5" y="773.6" class="st3" width="72.4" height="35.8"/>
		<polyline class="st3" points="1406.5,767.4 1406.5,761.5 1493,761.5 1493,808.3 1486.1,808.3 		"/>
		<polyline class="st3" points="1493,800.7 1500.2,800.7 1500.2,753.1 1414.3,753.1 1414.3,761.5 		"/>
		<line class="st3" x1="1414.3" y1="795.4" x2="1426.1" y2="795.4"/>
		<line class="st3" x1="1432.3" y1="795.4" x2="1440.4" y2="795.4"/>
		<line class="st3" x1="1414.3" y1="800.3" x2="1422.6" y2="800.3"/>
		<line class="st3" x1="1426.1" y1="800.3" x2="1433.5" y2="800.3"/>
		<line class="st3" x1="1440.4" y1="800.3" x2="1454.1" y2="800.3"/>
		<circle class="st3" cx="1418.6" cy="783.6" r="4.3"/>
	</g>
	<g id="push_cart_2_" class="st2">
		<line class="st4" x1="1224.2" y1="859.8" x2="1237.3" y2="859.8"/>
		<line class="st4" x1="1243.9" y1="859.8" x2="1257.2" y2="859.8"/>
		<line class="st4" x1="1261.8" y1="859.8" x2="1275.4" y2="859.8"/>
		<line class="st4" x1="1281.9" y1="859.8" x2="1295.4" y2="859.8"/>
		<line class="st4" x1="1224.2" y1="837.3" x2="1236.8" y2="837.3"/>
		<line class="st4" x1="1244.3" y1="837.3" x2="1257.2" y2="837.3"/>
		<path class="st4" d="M1261.8,837.3c4.2,0,12.2-0.8,12.2-13.3"/>
		<line class="st4" x1="1274.1" y1="804.3" x2="1274.1" y2="818.5"/>
		<path class="st3" d="M1235,712h20.7l7,50.8c0,0,1.7,7.9,12.4,7.9c10.7,0,37.8,0,37.8,0s7.9-0.8,9.7-13.1
			c1.9-12.2,3.5-29.4,3.5-29.4l-68.2-0.3"/>
		<polyline class="st3" points="1265.3,767.1 1259.3,787.9 1316.5,787.9 		"/>
		<line class="st3" x1="1319.4" y1="787.9" x2="1314.4" y2="787.9"/>
		<path class="st3" d="M1272,728c0,0,0.8,37.4,3.1,42.7"/>
		<line class="st3" x1="1282.5" y1="728" x2="1285.5" y2="770.7"/>
		<path class="st3" d="M1299,728.1c0,0,1,38.9-1.4,41.9"/>
		<path class="st3" d="M1312.6,728.1c0,0-1.7,38.6-3.7,42.6"/>
		<line class="st3" x1="1260.1" y1="737.9" x2="1325.2" y2="737.9"/>
		<line class="st3" x1="1261" y1="750.1" x2="1323.7" y2="750.1"/>
		<line class="st3" x1="1262.5" y1="760.8" x2="1322" y2="760.8"/>
		<ellipse class="st3" cx="1274.3" cy="793.8" rx="4.3" ry="5.2"/>
		<ellipse class="st3" cx="1306.8" cy="793.8" rx="4.3" ry="5.2"/>
		<line class="st3" x1="1213.8" y1="728" x2="1251.7" y2="728"/>
		<line class="st3" x1="1205.3" y1="737.9" x2="1223.6" y2="737.9"/>
		<line class="st3" x1="1233.6" y1="737.9" x2="1251.1" y2="737.9"/>
	</g>
	<g id="airplane_2_" class="st2">
		<line class="st3" x1="1332.2" y1="776.3" x2="1344.7" y2="776.3"/>
		<line class="st3" x1="1353.4" y1="776.3" x2="1365.8" y2="776.3"/>
		<path class="st3" d="M1373.6,776.3c0,0,9-2.5,9-12.1"/>
		<line class="st3" x1="1382.7" y1="755.8" x2="1382.7" y2="741.4"/>
		<line class="st3" x1="1382.7" y1="733.7" x2="1382.7" y2="719.7"/>
		<path class="st3" d="M1382.7,708.7l7.4-8.7h35.1c0,0,10.5-0.5,10.5-13.7s0-28.5,0-28.5s0-9.9-9.3-9.9s-53.5,0-53.5,0
			s-12.4,0.7-12.4,12.4s0,30.2,0,30.2s1.2,9.3,6.5,9.3s13.2,0,13.2,0L1382.7,708.7z"/>
		<line class="st3" x1="1370.3" y1="672.2" x2="1402.6" y2="672.2"/>
		<line class="st3" x1="1409.4" y1="672.2" x2="1421.3" y2="672.2"/>
		<line class="st3" x1="1370.3" y1="659.1" x2="1386.4" y2="659.1"/>
		<line class="st3" x1="1318" y1="692.4" x2="1318" y2="707"/>
		<line class="st3" x1="1312.6" y1="699.7" x2="1326.1" y2="699.7"/>
		<line class="st3" x1="1453.7" y1="721.7" x2="1453.7" y2="735.9"/>
		<line class="st3" x1="1449.7" y1="728" x2="1461.8" y2="728"/>
		<line class="st3" x1="1377.4" y1="823.2" x2="1377.4" y2="838.4"/>
		<line class="st3" x1="1372.7" y1="830.5" x2="1384.7" y2="830.5"/>
		<line class="st4" x1="1282.5" y1="628.7" x2="1282.5" y2="642.2"/>
		<path class="st4" d="M1283.1,648.5c0,0-1.6,12.9,10.9,13.3"/>
		<line class="st4" x1="1300.2" y1="661.9" x2="1313.1" y2="661.9"/>
		<line class="st4" x1="1320.7" y1="661.9" x2="1333.6" y2="661.9"/>
		<line class="st4" x1="1340.2" y1="661.9" x2="1352.9" y2="661.9"/>
		<path class="st3" d="M1343.6,616.5c0,0-18.8-2.1-29.5,3.5c-2.3,1.2-2.2,4.5,0.2,5.5c10.7,4.8,29.3,6,29.3,6V616.5z"/>
		<path class="st3" d="M1383.8,617.4c0,0-18.3-2.1-29,3.3c-2.5,1.2-2.4,4.8,0.2,5.9c10.8,4.7,29,5.9,29,5.9L1383.8,617.4
			L1383.8,617.4z"/>
		<rect x="1302.9" y="618.5" class="st3" width="5.5" height="10.3"/>
		<rect x="1347.4" y="618.7" class="st3" width="5.5" height="10.3"/>
		<path class="st3" d="M1301.8,619.8c0,0-51.9-3.7-55.7-3.7c2.5-4.1,4.8-6.5,4.8-6.5h146l-5.5,13.1h-6.7"/>
		<path class="st3" d="M1278.2,609.6l-19.9-9.5v-4l50.1-3.8c0,0,12.6-1.2,22.9-1c10.4,0.2,72.4,0,72.4,0s23.8-0.3,31.1,5.4
			c7.4,5.7,7.7,9.5,7.7,9.5s-2.5,6.2-21.2,7s-25.2,0-25.2,0"/>
		<line class="st3" x1="1281.2" y1="601.6" x2="1288.5" y2="601.6"/>
		<line class="st3" x1="1298.4" y1="601.6" x2="1305.7" y2="601.6"/>
		<line class="st3" x1="1314.2" y1="602.4" x2="1321.5" y2="602.4"/>
		<line class="st3" x1="1333.6" y1="602.4" x2="1340.9" y2="602.4"/>
		<line class="st3" x1="1350.4" y1="602.4" x2="1357.7" y2="602.4"/>
		<line class="st3" x1="1367.2" y1="602.4" x2="1374.5" y2="602.4"/>
		<line class="st3" x1="1383.8" y1="602.4" x2="1391.1" y2="602.4"/>
		<line class="st3" x1="1398.9" y1="602.4" x2="1406.2" y2="602.4"/>
		<line class="st3" x1="1417.6" y1="602.4" x2="1424.9" y2="602.4"/>
		<polyline class="st3" points="1431,594.6 1431,604.8 1441.5,605.8 		"/>
		<polyline class="st3" points="1304.2,592.6 1289.1,585.4 1263.9,543.3 1250,543.3 1266.9,594.8 		"/>
		<line class="st3" x1="1274" y1="594.9" x2="1255" y2="543.3"/>
		<line class="st3" x1="1278.7" y1="580.1" x2="1283" y2="586.1"/>
	</g>
	<circle class="st3" cx="1242.3" cy="661.6" r="26.3"/>
	<circle class="st3" cx="1241.5" cy="661.6" r="17.1"/>
	<g>
		<path class="st5" d="M1241,671.7c-3.7-0.3-5.9-2.3-6-5.2h2.4c0.2,1.9,1.8,2.9,3.7,3.1v-7l-0.8-0.3c-3-0.8-4.8-2.4-4.8-4.9
			c0-2.9,2.4-4.9,5.5-5.2v-2h1.5v2.1c3.3,0.3,5.7,2.3,5.8,4.9h-2.2c-0.2-1.7-1.6-2.7-3.6-2.9v6.5l0.8,0.2c2,0.5,5.3,1.7,5.3,5.2
			c0,2.9-2.2,5.2-6,5.4v2h-1.5L1241,671.7L1241,671.7z M1241,654.4c-2,0.3-3.3,1.4-3.3,3.1c0,1.9,2,2.6,3.3,3.1V654.4z
			 M1246.3,666.3c0-1.9-1.8-2.5-3.7-3.1h-0.1v6.5C1244.7,669.4,1246.3,668.2,1246.3,666.3z"/>
	</g>
	<path class="st3" d="M1144.4,575.4h78.4c0,0-1.2-21.4-14.7-23.8c-10,0-13.2,9.3-13.2,9.3s-2.2-19.4-14.5-19.4s-16.7,15.2-16.7,15.2
		S1144.4,552.6,1144.4,575.4z"/>
	<path class="st3" d="M612.9,588.2h77.9c0,0-2.2-24.2-14.2-24.2s-14,10.7-14,10.7s-1-19.9-14.9-19.9S632.6,570,632.6,570
		S612.9,561.3,612.9,588.2z"/>
	<line class="st3" x1="754.5" y1="589.8" x2="754.5" y2="604.9"/>
	<line class="st3" x1="749.7" y1="597.4" x2="764.6" y2="597.4"/>
	<line class="st3" x1="675" y1="704.5" x2="675" y2="721"/>
	<line class="st3" x1="669.3" y1="712.9" x2="682.8" y2="712.9"/>
	<line class="st3" x1="1205.3" y1="660.5" x2="1176.1" y2="660.5"/>
	<g>
		<path class="st5" d="M651.8,659.5c-6.2-0.4-10-3.9-10.4-8.8h4.1c0.3,3.2,3,4.9,6.3,5.4v-12l-1.3-0.3c-5.1-1.4-8.2-4.1-8.2-8.4
			c0-4.9,4.1-8.4,9.5-9v-3.7h2.6v3.7c5.7,0.3,9.8,3.9,9.9,8.5h-3.8c-0.3-2.9-2.8-4.7-6.1-5V641l1.3,0.3c3.3,0.8,9.1,2.9,9.1,8.9
			c0,4.9-3.7,8.8-10.4,9.3v3.6h-2.6L651.8,659.5L651.8,659.5z M651.8,629.8c-3.5,0.4-5.7,2.5-5.7,5.3c0,3.2,3.3,4.5,5.7,5.2V629.8z
			 M661,650.1c0-3.2-3.1-4.4-6.5-5.4h-0.1V656C658.3,655.5,661,653.3,661,650.1z"/>
	</g>
	<polyline class="st3" points="1196.5,648.5 1207.6,660.5 1196.5,670.9 	"/>
	<line class="st3" x1="1169.6" y1="717" x2="1169.7" y2="731.2"/>
	<line class="st3" x1="1163" y1="724.1" x2="1175.5" y2="724.1"/>
	<path class="st7" d="M1100.6,755.7c0,0,1.4-26.7,27.7-14.7"/>
	<path class="st7" d="M1105.2,756.4c0,0,1-19.9,20.6-10.9"/>
	<path class="st7" d="M1109.9,756.9c0,0,0.7-13.2,13.7-7.2"/>
	<path class="st7" d="M1114.8,757.1c0,0,0.3-6.5,6.8-3.7"/>
	<circle class="st7" cx="1120.5" cy="760.6" r="2"/>
	<line class="st3" x1="1336.8" y1="942.9" x2="1336.8" y2="957"/>
	<line class="st3" x1="1331.5" y1="950" x2="1344.1" y2="950"/>
	<line class="st3" x1="859.1" y1="980.8" x2="859.1" y2="995.2"/>
	<line class="st3" x1="854.2" y1="988.1" x2="866.3" y2="988.1"/>
	<circle class="st3" cx="917.4" cy="618.3" r="7.8"/>
	<circle class="st3" cx="475.6" cy="922" r="4.4"/>
	<circle class="st3" cx="846.3" cy="852" r="5"/>
	<circle class="st3" cx="919.2" cy="924.8" r="4.8"/>
	<circle class="st3" cx="1040.7" cy="935.2" r="5.4"/>
	<circle class="st3" cx="1454" cy="904.6" r="5.1"/>
	<circle class="st3" cx="1485.6" cy="858.4" r="2.8"/>
	<circle class="st3" cx="1494.7" cy="865.2" r="2.8"/>
	<circle class="st3" cx="1476.5" cy="865.2" r="2.8"/>
	<circle class="st3" cx="1476.5" cy="876.1" r="2.8"/>
	<circle class="st3" cx="1494.7" cy="876.1" r="2.8"/>
	<circle class="st3" cx="1485.6" cy="881" r="2.8"/>
</g>
</svg>
