<?xml version="1.0" encoding="utf-8"?>
<!-- Generator: Adobe Illustrator 24.2.3, SVG Export Plug-In . SVG Version: 6.00 Build 0)  -->
<svg version="1.1" id="Layer_1" xmlns="http://www.w3.org/2000/svg" xmlns:xlink="http://www.w3.org/1999/xlink" x="0px" y="0px"
	 viewBox="0 0 300 300" style="enable-background:new 0 0 300 300;" xml:space="preserve">
<style type="text/css">
	.st0{fill:#646AA2;}
	.st1{fill:url(#SVGID_1_);}
	.st2{opacity:0.7;fill:url(#SVGID_2_);}
	.st3{fill:#407BFF;}
	.st4{opacity:0.3;}
	.st5{fill:#FFFFFF;}
	.st6{fill:url(#SVGID_3_);}
	.st7{fill:url(#SVGID_4_);}
	.st8{opacity:0.4;fill:url(#SVGID_5_);}
	.st9{fill:#263238;}
	.st10{fill:#4EAD60;}
	.st11{fill:url(#SVGID_6_);}
	.st12{fill:url(#SVGID_7_);}
	.st13{font-family:'Montserrat-MediumItalic';}
	.st14{font-size:5.8239px;}
	.st15{font-size:4.0039px;}
	.st16{fill:#AC72BA;}
	.st17{opacity:0.5;fill:#AC72BA;}
	.st18{fill:#895396;}
	.st19{opacity:0.4;fill:#895396;}
	.st20{opacity:0.5;}
	.st21{fill:#D48CE5;}
	.st22{opacity:0.6;fill:#D48CE5;}
	.st23{opacity:0.6;fill:#895396;}
	.st24{opacity:0.6;}
	.st25{opacity:0.2;}
	.st26{opacity:0.5;fill:#FFFFFF;}
	.st27{fill:#FAB27B;}
	.st28{fill:#542360;}
	.st29{fill:#391160;}
	.st30{opacity:0.3;fill:#391160;}
	.st31{opacity:0.1;}
	.st32{opacity:0.7;fill:#FFFFFF;}
	.st33{fill:#ED893E;}
</style>
<g>
	<path class="st0" d="M284.24,269.38c0,2.46-61.32,4.46-136.95,4.46s-136.95-2-136.95-4.46c0-2.46,61.35-2.75,136.99-2.75
		C222.96,266.63,284.24,266.92,284.24,269.38z"/>
	<g>
		<linearGradient id="SVGID_1_" gradientUnits="userSpaceOnUse" x1="161.6079" y1="146.9329" x2="187.8673" y2="146.9329">
			<stop  offset="0" style="stop-color:#FFAA8D"/>
			<stop  offset="1" style="stop-color:#FFFFD9"/>
		</linearGradient>
		<polygon class="st1" points="183.6,171.32 161.61,154.64 187.87,122.54 		"/>
		<linearGradient id="SVGID_2_" gradientUnits="userSpaceOnUse" x1="161.6079" y1="146.9329" x2="187.8673" y2="146.9329">
			<stop  offset="0" style="stop-color:#FFAA8D"/>
			<stop  offset="1" style="stop-color:#FFFFD9"/>
		</linearGradient>
		<polygon class="st2" points="187.87,122.54 183.6,171.32 161.61,154.64 		"/>
	</g>
	<g>
		<g>
			<path class="st3" d="M238.7,36.11c3.81,0,7.61,0,11.42,0c0.56,0,0.64-0.87,0.08-0.87c-3.81,0-7.61,0-11.42,0
				C238.22,35.24,238.14,36.11,238.7,36.11L238.7,36.11z"/>
		</g>
		<g>
			<path class="st3" d="M254.3,36.11c1.09,0,2.19,0,3.28,0c0.56,0,0.64-0.87,0.08-0.87c-1.09,0-2.19,0-3.28,0
				C253.81,35.24,253.74,36.11,254.3,36.11L254.3,36.11z"/>
		</g>
		<g class="st4">
			<path class="st5" d="M238.7,36.11c3.81,0,7.61,0,11.42,0c0.56,0,0.64-0.87,0.08-0.87c-3.81,0-7.61,0-11.42,0
				C238.22,35.24,238.14,36.11,238.7,36.11L238.7,36.11z"/>
		</g>
		<g class="st4">
			<path class="st5" d="M254.3,36.11c1.09,0,2.19,0,3.28,0c0.56,0,0.64-0.87,0.08-0.87c-1.09,0-2.19,0-3.28,0
				C253.81,35.24,253.74,36.11,254.3,36.11L254.3,36.11z"/>
		</g>
	</g>
	<linearGradient id="SVGID_3_" gradientUnits="userSpaceOnUse" x1="175.3219" y1="116.2696" x2="288.1334" y2="116.2696">
		<stop  offset="0" style="stop-color:#FFAA8D"/>
		<stop  offset="1" style="stop-color:#FFFFD9"/>
	</linearGradient>
	<path class="st6" d="M274.24,195.6c-0.22,2.47-2.42,4.5-4.89,4.5h-89.91c-2.47,0-4.32-2.02-4.1-4.5l13.88-158.66
		c0.22-2.47,2.42-4.5,4.89-4.5h89.91c2.47,0,4.32,2.02,4.1,4.5L274.24,195.6z"/>
	<g>
		<linearGradient id="SVGID_4_" gradientUnits="userSpaceOnUse" x1="269.0795" y1="116.2696" x2="289.6641" y2="116.2696">
			<stop  offset="0" style="stop-color:#FFAA8D"/>
			<stop  offset="1" style="stop-color:#FFFFD9"/>
		</linearGradient>
		<path class="st7" d="M285.54,32.45h-1.8c2.47,0,4.32,2.02,4.1,4.5L273.97,195.6c-0.22,2.47-2.42,4.5-4.89,4.5h1.8
			c2.47,0,4.67-2.02,4.89-4.5l13.88-158.66C289.86,34.47,288.02,32.45,285.54,32.45z"/>
		<linearGradient id="SVGID_5_" gradientUnits="userSpaceOnUse" x1="269.0795" y1="116.2696" x2="289.6641" y2="116.2696">
			<stop  offset="0" style="stop-color:#FFAA8D"/>
			<stop  offset="1" style="stop-color:#FFFFD9"/>
		</linearGradient>
		<path class="st8" d="M285.54,32.45h-1.8c2.47,0,4.32,2.02,4.1,4.5L273.97,195.6c-0.22,2.47-2.42,4.5-4.89,4.5h1.8
			c2.47,0,4.67-2.02,4.89-4.5l13.88-158.66C289.86,34.47,288.02,32.45,285.54,32.45z"/>
	</g>
	<g>
		<path class="st9" d="M222.48,145.78l-0.06,0.63h-0.5l0.05-0.63c-0.81-0.06-1.38-0.47-1.57-1.17l1.04-0.58
			c0.12,0.35,0.31,0.55,0.63,0.6l0.09-0.99c-0.03-0.01-0.06-0.02-0.09-0.04c-0.6-0.25-1.32-0.6-1.24-1.57
			c0.08-0.94,0.83-1.42,1.6-1.49l0.05-0.63h0.5l-0.06,0.64c0.61,0.08,1.1,0.41,1.33,1.04l-1.02,0.57c-0.07-0.25-0.2-0.4-0.41-0.47
			l-0.08,0.97c0.6,0.27,1.43,0.5,1.34,1.55C224.01,145.15,223.34,145.68,222.48,145.78z M222.27,142.46l0.07-0.76
			c-0.21,0.05-0.33,0.19-0.35,0.36C221.97,142.2,222.03,142.31,222.27,142.46z M222.93,144.26c0.02-0.18-0.08-0.29-0.29-0.4
			l-0.07,0.77C222.83,144.57,222.92,144.41,222.93,144.26z"/>
		<path class="st9" d="M229.1,140.66l-0.44,5.04h-1.15l0.33-3.82l-0.91,0.24l-0.19-0.99l1.36-0.48H229.1z"/>
		<path class="st9" d="M229.57,144.86l1.84-1.76c0.32-0.3,0.56-0.6,0.59-0.89c0.03-0.32-0.15-0.53-0.49-0.53
			c-0.35,0-0.62,0.23-0.79,0.55l-0.92-0.57c0.39-0.75,1.1-1.1,1.79-1.1c0.9,0,1.65,0.59,1.56,1.6c-0.05,0.6-0.42,1.12-0.92,1.58
			l-0.91,0.84h1.69l-0.1,1.11h-3.43L229.57,144.86z"/>
		<path class="st9" d="M233.82,143.18c0.14-1.55,0.98-2.62,2.28-2.62c1.3,0,1.96,1.07,1.82,2.62c-0.14,1.55-0.98,2.62-2.28,2.62
			C234.34,145.8,233.68,144.73,233.82,143.18z M236.77,143.18c0.09-0.97-0.16-1.5-0.77-1.5c-0.6,0-0.95,0.53-1.03,1.5
			c-0.08,0.97,0.16,1.5,0.77,1.5C236.34,144.67,236.69,144.15,236.77,143.18z"/>
	</g>
	<g>
		<g>
			<path class="st10" d="M236.16,41.74l0.03-0.32c0.03-0.32-0.21-0.57-0.52-0.57h-5.29c-0.32,0-0.6,0.26-0.62,0.57l-0.03,0.32
				H236.16z"/>
			<path class="st10" d="M229.66,42.42l-0.22,2.5c-0.03,0.32,0.21,0.57,0.52,0.57h5.29c0.32,0,0.6-0.26,0.62-0.57l0.22-2.5H229.66z"
				/>
		</g>
		<g>
			<path class="st10" d="M246.82,45.49c-3.9,1.67-5.48-1.67-9.38,0c0.16-1.86,0.24-2.79,0.41-4.65c3.9-1.67,5.48,1.67,9.38,0
				C247.06,42.7,246.98,43.63,246.82,45.49z"/>
		</g>
		<path class="st10" d="M243.7,43.17c-0.07,0.76-0.74,1.38-1.5,1.38c-0.76,0-1.32-0.62-1.26-1.38c0.07-0.76,0.74-1.38,1.5-1.38
			S243.77,42.41,243.7,43.17z"/>
	</g>
	<path class="st5" d="M273.48,125.89c-0.22,2.47-2.42,4.5-4.89,4.5h-75.55c-2.47,0-4.32-2.02-4.1-4.5l0.41-4.64
		c0.22-2.47,2.42-4.5,4.89-4.5h75.55c2.47,0,4.32,2.02,4.1,4.5L273.48,125.89z"/>
	<g>
		<linearGradient id="SVGID_6_" gradientUnits="userSpaceOnUse" x1="189.9474" y1="112.1202" x2="274.8762" y2="112.1202">
			<stop  offset="0" style="stop-color:#FFAA8D"/>
			<stop  offset="1" style="stop-color:#FFC78A"/>
		</linearGradient>
		<path class="st11" d="M190.13,112.32c9.53,0,19.07,0,28.6,0c15.13,0,30.26,0,45.39,0c3.52,0,7.03,0,10.55,0
			c0.26,0,0.3-0.4,0.04-0.4c-9.53,0-19.07,0-28.6,0c-15.13,0-30.26,0-45.39,0c-3.52,0-7.03,0-10.55,0
			C189.9,111.92,189.87,112.32,190.13,112.32L190.13,112.32z"/>
	</g>
	<g>
		<linearGradient id="SVGID_7_" gradientUnits="userSpaceOnUse" x1="186.3456" y1="149.7631" x2="271.2744" y2="149.7631">
			<stop  offset="0" style="stop-color:#FFAA8D"/>
			<stop  offset="1" style="stop-color:#FFC78A"/>
		</linearGradient>
		<path class="st12" d="M186.52,149.97c9.53,0,19.07,0,28.6,0c15.13,0,30.26,0,45.39,0c3.52,0,7.03,0,10.55,0
			c0.26,0,0.3-0.4,0.04-0.4c-9.53,0-19.07,0-28.6,0c-15.13,0-30.26,0-45.39,0c-3.52,0-7.03,0-10.55,0
			C186.3,149.56,186.26,149.97,186.52,149.97L186.52,149.97z"/>
	</g>
	<g>
		<path class="st10" d="M198.87,122.15l0.03-0.32c0.03-0.32-0.21-0.57-0.52-0.57h-5.29c-0.32,0-0.6,0.26-0.62,0.57l-0.03,0.32
			H198.87z"/>
		<path class="st10" d="M192.37,122.82l-0.22,2.5c-0.03,0.32,0.21,0.57,0.52,0.57h5.29c0.32,0,0.6-0.26,0.62-0.57l0.22-2.5H192.37z"
			/>
	</g>
	<path class="st10" d="M210.81,162.93c-2.47,0-4.67,2.02-4.89,4.5l-0.41,4.64c-0.22,2.47,1.63,4.5,4.1,4.5h31.48
		c2.47,0,4.67-2.02,4.89-4.5l0.41-4.64c0.22-2.47-1.63-4.5-4.1-4.5H210.81z"/>
	<g>
		<g>
			<path class="st9" d="M211.11,61.19c0.63,0.51,0.94,1.21,0.94,2.12c0,0.77-0.18,1.45-0.55,2.03c-0.37,0.58-0.88,1.02-1.56,1.33
				c-0.67,0.31-1.47,0.46-2.38,0.46h-2.06l-0.5,2.55h-2.15l1.85-9.24h3.74C209.59,60.43,210.48,60.68,211.11,61.19z M209.31,64.89
				c0.39-0.33,0.58-0.79,0.58-1.4c0-0.44-0.15-0.77-0.44-0.99c-0.3-0.22-0.72-0.33-1.27-0.33h-1.68l-0.65,3.21h1.81
				C208.37,65.38,208.92,65.22,209.31,64.89z"/>
			<path class="st9" d="M218.5,67.69h-4.3l-1.2,1.98h-2.28l5.98-9.24h2.11l2.27,9.24h-2.14L218.5,67.69z M218.14,66.07l-0.78-3.56
				l-2.18,3.56H218.14z"/>
			<path class="st9" d="M226.53,66.46l-0.63,3.21h-2.14l0.65-3.3l-2.38-5.94h2.14l1.65,4.12l3.31-4.12h2.2L226.53,66.46z"/>
			<path class="st9" d="M242.55,60.43l-1.83,9.24h-2.01l1.08-5.49l-3.52,4.51h-0.95l-1.9-4.57l-1.11,5.54h-2.01l1.85-9.24h1.74
				l2.31,5.76l4.51-5.76H242.55z"/>
			<path class="st9" d="M246.53,62.15l-0.4,2.01h4.29l-0.33,1.66h-4.3l-0.42,2.14h5.04l-0.36,1.72h-7.15l1.85-9.24h6.98l-0.36,1.72
				H246.53z"/>
			<path class="st9" d="M262.08,60.43l-1.85,9.24h-1.76l-3.44-5.78l-1.16,5.78h-2.11l1.85-9.24h1.77l3.45,5.79l1.15-5.79H262.08z"/>
			<path class="st9" d="M265.83,62.17h-2.96l0.36-1.74h8.05l-0.36,1.74h-2.94l-1.5,7.5h-2.14L265.83,62.17z"/>
		</g>
		<g>
			<path class="st9" d="M208.22,78.68c-0.47,0.62-1.11,1.05-1.94,1.31l1.61,2.85h-2.26l-1.45-2.59h-1.82l-0.51,2.59h-2.15l1.85-9.24
				h3.76c1.14,0,2.03,0.25,2.67,0.75c0.63,0.5,0.95,1.21,0.95,2.11C208.92,77.32,208.69,78.06,208.22,78.68z M206.17,78.06
				c0.39-0.33,0.59-0.79,0.59-1.4c0-0.44-0.15-0.77-0.45-0.99c-0.3-0.22-0.73-0.33-1.28-0.33h-1.69l-0.65,3.21h1.82
				C205.23,78.55,205.78,78.38,206.17,78.06z"/>
			<path class="st9" d="M213.03,75.31l-0.4,2.01h4.29l-0.33,1.66h-4.3l-0.42,2.14h5.04l-0.36,1.72h-7.15l1.85-9.24h6.98l-0.36,1.72
				H213.03z"/>
			<path class="st9" d="M220.66,82.49c-0.69-0.33-1.22-0.81-1.59-1.41c-0.37-0.61-0.55-1.31-0.55-2.1c0-1.05,0.24-1.99,0.72-2.83
				c0.48-0.84,1.15-1.5,2.03-1.99c0.87-0.48,1.87-0.73,3-0.73c0.83,0,1.56,0.14,2.19,0.42c0.63,0.28,1.11,0.69,1.44,1.21l-1.54,1.27
				c-0.49-0.72-1.24-1.08-2.23-1.08c-0.68,0-1.28,0.16-1.8,0.48c-0.52,0.32-0.92,0.75-1.21,1.29c-0.29,0.55-0.43,1.15-0.43,1.82
				c0,0.71,0.23,1.28,0.68,1.7c0.45,0.42,1.09,0.63,1.91,0.63c0.98,0,1.79-0.36,2.45-1.07l1.27,1.29c-0.92,1.06-2.22,1.6-3.91,1.6
				C222.16,83,221.35,82.83,220.66,82.49z"/>
			<path class="st9" d="M231.53,75.31l-0.4,2.01h4.29l-0.33,1.66h-4.3l-0.42,2.14h5.04l-0.36,1.72h-7.15l1.85-9.24h6.98l-0.36,1.72
				H231.53z"/>
			<path class="st9" d="M238.61,73.6h2.15l-1.85,9.24h-2.15L238.61,73.6z"/>
			<path class="st9" d="M251.77,73.6l-5.85,9.24h-2.1l-2.15-9.24h2.2l1.49,6.59l4.18-6.59H251.77z"/>
			<path class="st9" d="M254.32,75.31l-0.4,2.01h4.29l-0.33,1.66h-4.3l-0.42,2.14h5.04l-0.36,1.72h-7.15l1.85-9.24h6.98l-0.36,1.72
				H254.32z"/>
			<path class="st9" d="M261.39,73.6h3.87c0.94,0,1.75,0.16,2.43,0.47c0.68,0.31,1.21,0.76,1.57,1.34c0.36,0.58,0.55,1.26,0.55,2.05
				c0,1.07-0.24,2.02-0.73,2.83c-0.48,0.81-1.16,1.44-2.03,1.89c-0.87,0.44-1.87,0.67-3,0.67h-4.51L261.39,73.6z M264.12,81.08
				c0.72,0,1.35-0.15,1.88-0.46c0.53-0.3,0.94-0.72,1.22-1.25c0.28-0.53,0.42-1.13,0.42-1.8c0-0.7-0.22-1.24-0.67-1.63
				c-0.45-0.39-1.1-0.59-1.95-0.59h-1.83l-1.15,5.73H264.12z"/>
		</g>
	</g>
	<text transform="matrix(1 0 0 1 216.8731 171.6419)" class="st5 st13 st14">OKAY</text>
	<text transform="matrix(1 0 0 1 204.9942 102.909)"><tspan x="0" y="0" class="st9 st13 st15">You just received a payment</tspan><tspan x="-9.48" y="4.8" class="st9 st13 st15">for Consultation from Juan Dela Cruz!</tspan></text>
	<text transform="matrix(1 0 0 1 202.0762 125.0609)" class="st13 st15">PAID VIA DEBIT CARD</text>
	<text transform="matrix(1 0 0 1 214.126 138.1009)" class="st9 st13 st15">Amount Received</text>
	<g>
		<path class="st16" d="M31.45,165.22h45.34c1.75,0,3.32,1.42,3.5,3.17l7.22,68.73c0.18,1.75-1.09,3.17-2.84,3.17H39.34
			L31.45,165.22z"/>
		<path class="st17" d="M31.45,165.22h45.34c1.75,0,3.32,1.42,3.5,3.17l7.22,68.73c0.18,1.75-1.09,3.17-2.84,3.17H39.34
			L31.45,165.22z"/>
	</g>
	<g>
		<path class="st16" d="M135.6,234.03c-0.23-2.19-6.34-60.36-6.57-62.55c-0.36-3.46-3.46-6.26-6.92-6.26H83.13
			c-1.75,0-3.02,1.42-2.84,3.17l7.22,68.73c0.18,1.75,1.75,3.17,3.5,3.17H130l0,0C133.45,240.29,135.96,237.49,135.6,234.03z"/>
		<path class="st17" d="M135.6,234.03c-0.23-2.19-6.34-60.36-6.57-62.55c-0.36-3.46-3.46-6.26-6.92-6.26H83.13
			c-1.75,0-3.02,1.42-2.84,3.17l7.22,68.73c0.18,1.75,1.75,3.17,3.5,3.17H130l0,0C133.45,240.29,135.96,237.49,135.6,234.03z"/>
	</g>
	<g>
		<path class="st18" d="M38.37,171.48c-0.36-3.46-3.46-6.26-6.92-6.26c-3.46,0-5.97,2.8-5.6,6.26c0.28,2.7,6.29,59.85,6.57,62.55
			c0.36,3.46,3.46,6.26,6.92,6.26c3.46,0,5.97-2.8,5.6-6.26C44.72,231.85,38.6,173.67,38.37,171.48z"/>
		<path class="st19" d="M38.37,171.48c-0.36-3.46-3.46-6.26-6.92-6.26c-3.46,0-5.97,2.8-5.6,6.26c0.28,2.7,6.29,59.85,6.57,62.55
			c0.36,3.46,3.46,6.26,6.92,6.26c3.46,0,5.97-2.8,5.6-6.26C44.72,231.85,38.6,173.67,38.37,171.48z"/>
	</g>
	<path class="st3" d="M64.61,193.72c-5.62,0-36.11,0-41.73,0c-6.92,0-12.52,5.61-12.52,12.52s5.61,12.52,12.52,12.52v46.49
		c0,1.94,1.58,3.52,3.52,3.52h5.48c1.94,0,34.31,0,36.25,0h5.48c1.94,0,3.52-1.58,3.52-3.52v-59.01
		C77.13,199.33,71.53,193.72,64.61,193.72z"/>
	<path class="st16" d="M64.61,193.72c-5.62,0-36.11,0-41.73,0c-6.92,0-12.52,5.61-12.52,12.52s5.61,12.52,12.52,12.52v46.49
		c0,1.94,1.58,3.52,3.52,3.52h5.48c1.94,0,34.31,0,36.25,0h5.48c1.94,0,3.52-1.58,3.52-3.52v-59.01
		C77.13,199.33,71.53,193.72,64.61,193.72z"/>
	<path class="st3" d="M144.93,193.72c5.62,0,36.11,0,41.73,0c6.92,0,12.52,5.61,12.52,12.52s-5.61,12.52-12.52,12.52v46.49
		c0,1.94-1.58,3.52-3.52,3.52h-5.48c-1.94,0-34.31,0-36.25,0h-5.48c-1.94,0-3.52-1.58-3.52-3.52v-59.01
		C132.41,199.33,138.02,193.72,144.93,193.72z"/>
	<path class="st16" d="M144.93,193.72c5.62,0,36.11,0,41.73,0c6.92,0,12.52,5.61,12.52,12.52s-5.61,12.52-12.52,12.52v46.49
		c0,1.94-1.58,3.52-3.52,3.52h-5.48c-1.94,0-34.31,0-36.25,0h-5.48c-1.94,0-3.52-1.58-3.52-3.52v-59.01
		C132.41,199.33,138.02,193.72,144.93,193.72z"/>
	<g class="st20">
		<path class="st21" d="M64.61,193.72c-6.92,0-12.52,5.61-12.52,12.52s5.61,12.52,12.52,12.52v46.49c0,1.94,1.58,3.52,3.52,3.52
			h5.48c1.94,0,3.52-1.58,3.52-3.52v-59.01C77.13,199.33,71.53,193.72,64.61,193.72z"/>
		<path class="st22" d="M64.61,193.72c-6.92,0-12.52,5.61-12.52,12.52s5.61,12.52,12.52,12.52v46.49c0,1.94,1.58,3.52,3.52,3.52
			h5.48c1.94,0,3.52-1.58,3.52-3.52v-59.01C77.13,199.33,71.53,193.72,64.61,193.72z"/>
	</g>
	<g class="st20">
		<path class="st21" d="M186.67,193.72c6.92,0,12.52,5.61,12.52,12.52s-5.61,12.52-12.52,12.52v46.49c0,1.94-1.58,3.52-3.52,3.52
			h-5.48c-1.94,0-3.52-1.58-3.52-3.52v-59.01C174.15,199.33,179.75,193.72,186.67,193.72z"/>
		<path class="st22" d="M186.67,193.72c6.92,0,12.52,5.61,12.52,12.52s-5.61,12.52-12.52,12.52v46.49c0,1.94-1.58,3.52-3.52,3.52
			h-5.48c-1.94,0-3.52-1.58-3.52-3.52v-59.01C174.15,199.33,179.75,193.72,186.67,193.72z"/>
	</g>
	<g>
		<path class="st18" d="M159.4,268.78H84.1c-3.85,0-6.97-3.12-6.97-6.97v-21.43c0-3.85,3.12-6.97,6.97-6.97h75.3
			c3.85,0,6.97,3.12,6.97,6.97v21.43C166.37,265.65,163.25,268.78,159.4,268.78z"/>
		<path class="st19" d="M159.4,268.78H84.1c-3.85,0-6.97-3.12-6.97-6.97v-21.43c0-3.85,3.12-6.97,6.97-6.97h75.3
			c3.85,0,6.97,3.12,6.97,6.97v21.43C166.37,265.65,163.25,268.78,159.4,268.78z"/>
	</g>
	<g>
		<path class="st18" d="M77.13,234.17v-1.54c0-3.38,2.74-6.12,6.12-6.12h36.27c3.38,0,6.12,2.74,6.12,6.12v1.54
			c0,3.38-2.74,6.12-6.12,6.12H83.25C79.87,240.29,77.13,237.55,77.13,234.17z"/>
		<path class="st23" d="M77.13,234.17v-1.54c0-3.38,2.74-6.12,6.12-6.12h36.27c3.38,0,6.12,2.74,6.12,6.12v1.54
			c0,3.38-2.74,6.12-6.12,6.12H83.25C79.87,240.29,77.13,237.55,77.13,234.17z"/>
	</g>
	<g>
		<path class="st18" d="M125.64,234.17v-1.54c0-3.38,2.74-6.12,6.12-6.12h36.27c3.38,0,6.12,2.74,6.12,6.12v1.54
			c0,3.38-2.74,6.12-6.12,6.12h-36.27C128.38,240.29,125.64,237.55,125.64,234.17z"/>
		<path class="st23" d="M125.64,234.17v-1.54c0-3.38,2.74-6.12,6.12-6.12h36.27c3.38,0,6.12,2.74,6.12,6.12v1.54
			c0,3.38-2.74,6.12-6.12,6.12h-36.27C128.38,240.29,125.64,237.55,125.64,234.17z"/>
	</g>
	<g class="st24">
		<g>
			<path class="st21" d="M82.36,191.7c0.1,0.93,0.2,1.86,0.29,2.79c0.02,0.21,0.35,0.21,0.33,0c-0.1-0.93-0.2-1.86-0.29-2.79
				C82.67,191.49,82.34,191.49,82.36,191.7L82.36,191.7z"/>
		</g>
		<g>
			<path class="st21" d="M80.75,176.37c0.45,4.27,0.9,8.53,1.35,12.8c0.02,0.21,0.35,0.21,0.33,0c-0.45-4.27-0.9-8.53-1.35-12.8
				C81.06,176.17,80.73,176.17,80.75,176.37L80.75,176.37z"/>
		</g>
		<g class="st4">
			<path class="st21" d="M82.36,191.7c0.1,0.93,0.2,1.86,0.29,2.79c0.02,0.21,0.35,0.21,0.33,0c-0.1-0.93-0.2-1.86-0.29-2.79
				C82.67,191.49,82.34,191.49,82.36,191.7L82.36,191.7z"/>
		</g>
		<g class="st4">
			<path class="st21" d="M80.75,176.37c0.45,4.27,0.9,8.53,1.35,12.8c0.02,0.21,0.35,0.21,0.33,0c-0.45-4.27-0.9-8.53-1.35-12.8
				C81.06,176.17,80.73,176.17,80.75,176.37L80.75,176.37z"/>
		</g>
	</g>
	<g class="st24">
		<g>
			<path class="st21" d="M125.5,259.19c0,0.79,0,1.58,0,2.37c0,0.18,0.28,0.18,0.28,0c0-0.79,0-1.58,0-2.37
				C125.78,259.01,125.5,259.01,125.5,259.19L125.5,259.19z"/>
		</g>
		<g>
			<path class="st21" d="M125.5,247.57c0,3.02,0,6.03,0,9.05c0,0.18,0.28,0.18,0.28,0c0-3.02,0-6.03,0-9.05
				C125.78,247.39,125.5,247.39,125.5,247.57L125.5,247.57z"/>
		</g>
		<g class="st25">
			<path class="st21" d="M125.5,259.19c0,0.79,0,1.58,0,2.37c0,0.18,0.28,0.18,0.28,0c0-0.79,0-1.58,0-2.37
				C125.78,259.01,125.5,259.01,125.5,259.19L125.5,259.19z"/>
		</g>
		<g class="st25">
			<path class="st21" d="M125.5,247.57c0,3.02,0,6.03,0,9.05c0,0.18,0.28,0.18,0.28,0c0-3.02,0-6.03,0-9.05
				C125.78,247.39,125.5,247.39,125.5,247.57L125.5,247.57z"/>
		</g>
	</g>
	<g>
		<g>
			<path class="st18" d="M52.09,206.24H10.35c0,6.92,5.61,12.52,12.52,12.52h41.73l0,0C57.69,218.76,52.09,213.16,52.09,206.24z"/>
		</g>
		<g class="st25">
			<path class="st18" d="M52.09,206.24H10.35c0,6.92,5.61,12.52,12.52,12.52h41.73l0,0C57.69,218.76,52.09,213.16,52.09,206.24z"/>
		</g>
	</g>
	<g>
		<g>
			<path class="st3" d="M153.83,161.5l-4.83,0.16c-0.42,0.01-0.73-0.31-0.7-0.73l0.77-10.78c0.03-0.42,0.39-0.77,0.81-0.78
				l4.83-0.16c0.42-0.01,0.73,0.31,0.7,0.73l-0.77,10.78C154.6,161.14,154.24,161.49,153.83,161.5z"/>
			<path class="st3" d="M154.73,161.47l-4.83,0.16c-0.42,0.01-0.73-0.31-0.7-0.73l0.77-10.78c0.03-0.42,0.39-0.77,0.81-0.78
				l4.83-0.16c0.42-0.01,0.73,0.31,0.7,0.73l-0.77,10.78C155.51,161.11,155.15,161.46,154.73,161.47z"/>
			<path class="st3" d="M149.2,160.91l0.77-10.78c0.03-0.42,0.39-0.77,0.81-0.78l-0.91,0.03c-0.42,0.01-0.78,0.36-0.81,0.78
				l-0.77,10.78c-0.03,0.42,0.28,0.74,0.7,0.73l0.91-0.03C149.49,161.65,149.17,161.32,149.2,160.91z"/>
			<path class="st26" d="M149.2,160.91l0.77-10.78c0.03-0.42,0.39-0.77,0.81-0.78l-0.91,0.03c-0.42,0.01-0.78,0.36-0.81,0.78
				l-0.77,10.78c-0.03,0.42,0.28,0.74,0.7,0.73l0.91-0.03C149.49,161.65,149.17,161.32,149.2,160.91z"/>
			<path class="st9" d="M152.01,150.59c-0.03,0.37-0.34,0.67-0.71,0.68c-0.36,0.01-0.64-0.27-0.61-0.64
				c0.03-0.37,0.34-0.67,0.71-0.68C151.76,149.94,152.04,150.22,152.01,150.59z"/>
		</g>
		<g>
			<g>
				<polygon class="st27" points="151.29,273.98 153.46,281 159.92,279.81 158.12,271.99 				"/>
				<polygon class="st25" points="152.58,278.14 159.17,276.55 158.66,274.33 152.07,276.51 				"/>
			</g>
			<path class="st28" d="M161.51,279.86c-0.07,0-0.14-0.04-0.17-0.11c-0.03-0.07-0.01-0.15,0.04-0.2c0.1-0.09,2.32-2.17,3.63-2.12
				c0.24,0.01,0.48,0.11,0.65,0.28c0.22,0.19,0.3,0.49,0.19,0.76c-0.21,0.47-1.12,0.86-2.03,1.07
				C163.06,279.71,162.29,279.82,161.51,279.86z M162.02,279.49c1.41-0.15,3.27-0.61,3.5-1.17c0.04-0.07,0.06-0.19-0.12-0.37
				c-0.1-0.11-0.25-0.17-0.4-0.16c-0.12,0-0.23,0.01-0.34,0.04C163.68,278.21,162.79,278.78,162.02,279.49z"/>
			<path class="st28" d="M161.42,279.87c-0.06-0.02-0.11-0.08-0.12-0.14c-0.01-0.09-0.28-2.13,0.47-3.12
				c0.22-0.29,0.54-0.48,0.9-0.53c0.49-0.07,0.7,0.14,0.77,0.34c0.35,0.79-1.04,2.81-1.83,3.41c-0.02,0.02-0.05,0.02-0.07,0.02
				C161.51,279.88,161.46,279.88,161.42,279.87z M162.64,276.44c-0.22,0.05-0.42,0.18-0.55,0.36c-0.4,0.77-0.55,1.63-0.44,2.49
				c0.79-0.76,1.65-2.28,1.49-2.77c-0.02-0.04-0.07-0.16-0.39-0.12L162.64,276.44L162.64,276.44z"/>
			<path class="st9" d="M160.52,279.01l-8.05,1.9c-0.3,0.07-0.52,0.34-0.51,0.66l0.09,6.89c0,0.61,0.5,1.1,1.11,1.1
				c0.08,0,0.16-0.01,0.23-0.03c2.89-0.74,5.43-1.5,9.04-2.35c4.26-1.01,3.3-0.24,8.33-1.35c3.03-0.67,2.77-4.23,1.45-4.1
				c-6.03,0.65-7.06-0.98-9.81-2.54C161.82,278.89,161.15,278.83,160.52,279.01z"/>
			<g>
				<polygon class="st27" points="182.55,263.73 185.89,270.28 192.05,268 188.94,260.61 				"/>
				<polygon class="st25" points="184.53,267.62 190.75,264.92 189.87,262.82 183.75,266.09 				"/>
			</g>
			<path class="st28" d="M193.63,267.78c-0.07,0.01-0.15-0.02-0.19-0.08c-0.04-0.06-0.04-0.15,0.01-0.21
				c0.08-0.11,1.92-2.53,3.22-2.71c0.24-0.04,0.49,0.02,0.68,0.16c0.25,0.15,0.37,0.43,0.32,0.71c-0.13,0.49-0.95,1.04-1.82,1.41
				C195.13,267.37,194.39,267.61,193.63,267.78z M194.07,267.33c1.36-0.39,3.12-1.16,3.25-1.75c0.02-0.08,0.02-0.19-0.19-0.35
				c-0.12-0.09-0.27-0.13-0.42-0.09c-0.12,0.02-0.23,0.05-0.33,0.09C195.48,265.79,194.7,266.5,194.07,267.33z"/>
			<path class="st28" d="M193.54,267.81c-0.06-0.01-0.12-0.06-0.14-0.12c-0.03-0.09-0.64-2.05-0.07-3.16
				c0.16-0.32,0.45-0.57,0.8-0.67c0.47-0.15,0.71,0.02,0.81,0.2c0.48,0.72-0.55,2.95-1.22,3.67c-0.02,0.02-0.04,0.03-0.07,0.04
				C193.62,267.8,193.58,267.81,193.54,267.81z M194.15,264.22c-0.21,0.09-0.38,0.25-0.48,0.45c-0.26,0.82-0.27,1.71-0.01,2.53
				c0.64-0.88,1.24-2.53,0.99-2.98c-0.03-0.04-0.1-0.15-0.41-0.05L194.15,264.22L194.15,264.22z"/>
			<path class="st9" d="M192.5,267.11l-7.6,3.25c-0.29,0.12-0.45,0.43-0.39,0.73l1.27,6.77c0.11,0.6,0.68,1,1.28,0.89
				c0.08-0.01,0.15-0.04,0.23-0.07c2.72-1.22,5.09-2.41,8.51-3.86c4.03-1.72,3.21-0.8,7.97-2.76c2.87-1.18,2-4.65,0.73-4.29
				c-5.83,1.67-7.12,0.24-10.1-0.83C193.76,266.78,193.09,266.83,192.5,267.11z"/>
			<path class="st28" d="M122.85,203.98c0,0,37-3.34,45.75,5.08s22.65,52.68,22.65,52.68l-9.83,4.39c0,0-15.49-24.62-23.03-43.21
				c0,0-46,6.43-49.26-3.15l1.56-16.61L122.85,203.98z"/>
			<g>
				<polygon class="st29" points="179.57,265.19 181.06,267.55 192.43,262.12 190.94,258.96 				"/>
				<polygon class="st30" points="179.57,265.19 181.06,267.55 192.43,262.12 190.94,258.96 				"/>
			</g>
			<path class="st28" d="M94.73,203.19c0,0-2.4,19.79,6.11,22.56c8.51,2.78,33.92-0.22,33.92-0.22s0.05,20.51,15.41,50.8l9.08-3.17
				c0,0-5.35-51.29-9.6-58.23C146.61,209.98,137.89,202.65,94.73,203.19z"/>
			<g>
				<polygon class="st29" points="148.72,275.11 149.76,277.95 160.63,273.92 159.81,271.17 				"/>
				<polygon class="st30" points="148.72,275.11 149.76,277.95 160.63,273.92 159.81,271.17 				"/>
			</g>
			<path class="st31" d="M151.16,213.43c-6.35-6.99-34.14-4.96-42.34-5v0.07c18.25,2.1,37.41,0.24,40.84,6.44
				c0.79,1.42,1.74,4.55,2.63,8.72c1.13-0.12,1.4-0.24,2.26-0.34C153.29,218.17,153.54,216.06,151.16,213.43z"/>
		</g>
		<g>
			<path class="st27" d="M118.98,156.23c0,0,4.6-0.15,9.93,12.9l6.01,11.77c0,0,8.16-5.53,12.63-12.57c0,0,0.67-12.41,5.06-11.44
				c4.38,0.97,5.07,5.3,4.06,7.51c-1.01,2.21-4.13,6.67-4.13,6.67s-10.63,18.31-17.51,18.54c-6.88,0.23-13.66-13.14-13.66-13.14
				l-2.14-12.62L118.98,156.23z"/>
			<path class="st9" d="M119.86,156c0,0,4.8,1.02,8.55,11.21c0,0,1.41,0.3,1.3,2.32c0,0,2.34,8.18-4.21,14.25
				c0,0-1.38,0.08-1.94-2.21l-3.01-5.23l-2.64-12.23l-0.15-4.47l0.22-3.92L119.86,156z"/>
			<path class="st9" d="M119.86,156c0,0,4.8,1.02,8.55,11.21c0,0,1.41,0.3,1.3,2.32c0,0,2.34,8.18-4.21,14.25
				c0,0-1.38,0.08-1.94-2.21l-3.01-5.23l-2.64-12.23l-0.15-4.47l0.22-3.92L119.86,156z"/>
			<g>
				<g>
					<path class="st3" d="M146.18,169.93c0,0,2.36,1.06,4,3.06l1.31-1.38c0,0-1-2.22-4.56-2.8L146.18,169.93z"/>
					<path class="st32" d="M146.18,169.93c0,0,2.36,1.06,4,3.06l1.31-1.38c0,0-1-2.22-4.56-2.8L146.18,169.93z"/>
				</g>
				<path class="st3" d="M152.38,173.25c-0.58,0.91-1.6,1.31-2.28,0.88c-0.67-0.43-0.75-1.52-0.16-2.44s1.6-1.31,2.28-0.88
					C152.89,171.25,152.96,172.34,152.38,173.25z"/>
				<path class="st9" d="M152.1,173.08c-0.45,0.71-1.25,1.01-1.77,0.68c-0.52-0.33-0.58-1.18-0.13-1.89
					c0.45-0.71,1.25-1.01,1.77-0.68C152.5,171.52,152.56,172.37,152.1,173.08z"/>
			</g>
			<path class="st4" d="M119.82,173.02l0.71,3.31l3.01,5.23c0.56,2.29,1.94,2.21,1.94,2.21c1.32-1.22,2.27-2.53,2.96-3.84
				C126.17,176.19,122,173.97,119.82,173.02z"/>
		</g>
		<path class="st9" d="M122.54,157.98c-0.99-1.34-3.03-2.79-6.09-3.86l-1.86,4.62l-2.97,1.14l-2.37-0.65l-2.1-1.02l-2.39-3.56
			l-0.32-2.11c-2.66,0.07-5.6,0.37-8.83,0.98c-15.53,2.94-2.3,51.37-2.3,51.37c25.03,4.88,34.89-1.88,34.89-1.88
			C124.91,193.9,125.01,161.34,122.54,157.98z"/>
		<path class="st4" d="M97.03,160.44l-8.45,3.09c-0.51,3.09-0.6,6.67-0.43,10.4C99.61,172.04,97.03,160.44,97.03,160.44z"/>
		<g>
			<path class="st9" d="M123.12,126.98c0,0,2.61,1.97,1.84,3.98c0,0,1.69,4.36-1.7,4.22C123.27,135.18,119.53,132.06,123.12,126.98z
				"/>
			<path class="st27" d="M112.67,159.1l2.11-2.14l1.61-2.88c-0.51-0.18-1.05-0.35-1.62-0.5l0.48-6.87l-8.04-4.7
				c0,0,0.26,8.73-1.7,10.49c-0.41,0.37-0.39,0-0.97,0.02l0.95,3.61l3.01,3.74L112.67,159.1z"/>
			<g>
				<path class="st3" d="M105.05,152.3c0,0,2.23,5.61,5.73,6.8c0,0-1.76,5.04-4.36,2.24c-2.6-2.8-2.9-8.99-2.9-8.99L105.05,152.3z"
					/>
				<path class="st32" d="M105.05,152.3c0,0,2.23,5.61,5.73,6.8c0,0-1.76,5.04-4.36,2.24c-2.6-2.8-2.9-8.99-2.9-8.99L105.05,152.3z"
					/>
			</g>
			<g>
				<path class="st3" d="M110.05,159.39c0,0,3.9-0.79,5.46-5.71l1.74,0.73c0,0-0.68,7.72-3.43,7.59
					C111.08,161.86,110.05,159.39,110.05,159.39z"/>
				<path class="st32" d="M110.05,159.39c0,0,3.9-0.79,5.46-5.71l1.74,0.73c0,0-0.68,7.72-3.43,7.59
					C111.08,161.86,110.05,159.39,110.05,159.39z"/>
			</g>
			<path class="st25" d="M107.15,142.6c0,0,0.18,6.27,7.79,8.43l0.25-3.59L107.15,142.6L107.15,142.6z"/>
			<path class="st27" d="M124.15,135.65c0.85,7.12-1.09,13.21-6.99,13.91c-5.9,0.7-10.56-3.87-11.4-10.99
				c-0.85-7.12,1-13.93,6.9-14.63C118.56,123.23,123.31,128.53,124.15,135.65z"/>
			<path class="st9" d="M107.24,137.66c0,0,2.09-3.11,2.03-6.75c0,0,2.34-0.28,2.92-1.53c0,0,7.3,3.06,10.52,0.58
				c0,0,6.55-2.06,1.83-5.69c0,0,0.94-2.85-3.01-4.21s-6.26-0.26-6.26-0.26s-3.3-2.25-7.02,1.02c0,0-6.58,0.69-5.49,5.21
				c0,0-3.61,1.07-2.21,4.46c0,0-1.78,2.48,0.39,4.69c0,0,0.01,5.57,3.6,5.79C104.53,140.96,107.82,146.4,107.24,137.66z"/>
			<path class="st27" d="M108.14,137.48c0.84,1.32,0.75,2.87-0.19,3.47c-0.94,0.6-2.39,0.01-3.22-1.31
				c-0.84-1.32-0.75-2.87,0.19-3.47C105.86,135.58,107.31,136.16,108.14,137.48z"/>
			<path class="st9" d="M103.6,122.4c0.19-0.16-0.01-0.49-0.21-0.33c-1.11,0.9-1.7,2.14-1.31,3.28c-0.81-0.39-1.79-0.49-2.57,0.04
				c-0.21,0.14,0,0.48,0.21,0.33c0.64-0.44,1.42-0.36,2.09-0.07c-0.95,0.09-1.81,1.05-2.3,2c-0.11,0.23,0.23,0.41,0.35,0.19
				c0.57-1.12,1.71-2.37,2.87-1.5c0.08,0.08,0.17,0.16,0.27,0.24c0.2,0.16,0.44-0.1,0.27-0.29c-0.1-0.1-0.19-0.19-0.29-0.27
				C101.85,124.88,102.37,123.4,103.6,122.4z"/>
			<path class="st9" d="M116.37,137.69c0.07,0.46,0.39,0.79,0.68,0.73c0.3-0.07,0.48-0.44,0.41-0.9c-0.07-0.46-0.39-0.8-0.69-0.73
				C116.46,136.86,116.29,137.24,116.37,137.69z"/>
			<path class="st9" d="M121.59,137.72c0.07,0.46,0.38,0.79,0.68,0.73c0.31-0.07,0.48-0.44,0.41-0.91
				c-0.07-0.47-0.39-0.79-0.69-0.73C121.68,136.88,121.51,137.26,121.59,137.72z"/>
			<path class="st33" d="M119.96,138.17c0.79,1.33,1.76,2.56,2.87,3.64c-0.68,0.87-2.13,0.73-2.13,0.73L119.96,138.17z"/>
			<path class="st9" d="M119.02,144.73c-1.09,0.03-2.14-0.39-2.91-1.16c-0.05-0.05-0.05-0.14,0-0.19c0.05-0.05,0.14-0.05,0.2,0
				c0,0,0,0,0,0c0.85,0.83,2.05,1.21,3.22,1.03c0.07-0.02,0.15,0.01,0.17,0.09c0.02,0.07-0.02,0.15-0.09,0.17
				c-0.02,0.01-0.03,0.01-0.05,0.01C119.39,144.71,119.21,144.73,119.02,144.73z"/>
			<path class="st9" d="M115.3,135.53c-0.04-0.01-0.08-0.03-0.12-0.06c-0.09-0.12-0.06-0.29,0.06-0.38c0,0,0.01,0,0.01-0.01
				c0.72-0.52,1.64-0.64,2.47-0.34c0.14,0.06,0.2,0.22,0.14,0.35c0,0,0,0.01,0,0.01c-0.06,0.14-0.22,0.2-0.35,0.14
				c0,0-0.01,0-0.01,0c-0.64-0.23-1.36-0.14-1.92,0.26C115.5,135.57,115.39,135.58,115.3,135.53z"/>
			<path class="st9" d="M123.37,135.41c0.04-0.01,0.08-0.04,0.11-0.07c0.07-0.13,0.03-0.29-0.1-0.37c0,0-0.01,0-0.01-0.01
				c-0.76-0.45-1.7-0.48-2.49-0.1c-0.13,0.07-0.18,0.24-0.11,0.37c0,0,0,0,0,0.01c0.07,0.13,0.24,0.18,0.37,0.11c0,0,0.01,0,0.01,0
				c0.62-0.29,1.34-0.27,1.94,0.07C123.18,135.47,123.29,135.47,123.37,135.41z"/>
		</g>
		<g>
			<path class="st27" d="M94.79,154.87c0,0-20.68-1.84-33.92,4.87c0,0-2.13,4.24,0.26,7.66c2.39,3.42,10.48,17.1,10.48,17.1
				l1.11,6.55c0,0-0.52,3.9,1.45,5.2c1.97,1.3,6.88-1.14,7.17-3.24c0.29-2.11-4.22-10.79-4.22-10.79s-4.78-13.97-6.64-17.23
				c0,0,18.24,1.83,24.64-0.13C95.12,164.87,98.68,161.51,94.79,154.87z"/>
			<path class="st9" d="M95.02,154.08c0,0-6.12-0.65-10.23-0.05c0,0-0.75-0.84-2.47,0.47c0,0,1.57,5.72-0.15,11.35
				c0,0,1.48,0.69,2.67,0.17c0,0,7.5,2.16,11.03-0.21C98.31,164.17,100.99,160.04,95.02,154.08z"/>
		</g>
	</g>
</g>
</svg>
