<?xml version="1.0" encoding="utf-8"?>
<!-- Generator: Adobe Illustrator 24.2.3, SVG Export Plug-In . SVG Version: 6.00 Build 0)  -->
<svg version="1.1" id="Layer_1" xmlns="http://www.w3.org/2000/svg" xmlns:xlink="http://www.w3.org/1999/xlink" x="0px" y="0px"
	 viewBox="0 0 300 300" style="enable-background:new 0 0 300 300;" xml:space="preserve">
<style type="text/css">
	.st0{fill:#D4DEFF;}
	.st1{fill:#FFFFFF;}
	.st2{fill:#E3EAFF;}
	.st3{fill:#646AA2;}
	.st4{fill:#3F964F;}
	.st5{fill:#4EAD60;}
	.st6{opacity:0.2;fill:#193F1E;}
	.st7{fill:#542360;}
	.st8{fill:url(#SVGID_1_);}
	.st9{fill:url(#SVGID_2_);}
	.st10{fill:#FABA23;}
	.st11{fill:#FAD332;}
	.st12{fill:#95A6DB;}
	.st13{fill:#FAEE6C;}
	.st14{fill:#E62552;}
	.st15{fill:#D6224C;}
	.st16{fill:#FAC832;}
</style>
<g>
	
		<ellipse transform="matrix(0.0595 -0.9982 0.9982 0.0595 2.4031 120.7485)" class="st0" cx="65.28" cy="59.1" rx="10.61" ry="10.61"/>
	<g>
		<path class="st1" d="M67.97,66.89l-0.81-1.85c-1.07,0.45-2.31,0.6-3.16,0.43l-0.1-1.42c0.85,0.15,1.96,0.08,2.98-0.37
			c1.3-0.57,1.85-1.71,1.39-2.75c-0.44-1.01-1.43-1.31-3.03-1.27c-2.19,0.09-3.71-0.24-4.41-1.84c-0.67-1.52-0.1-3.15,1.47-4.16
			l-0.81-1.85l1.13-0.5l0.78,1.78c1.11-0.45,1.99-0.48,2.66-0.41l0.07,1.41c-0.48-0.05-1.41-0.12-2.58,0.39
			c-1.41,0.62-1.57,1.7-1.25,2.43c0.42,0.95,1.31,1.13,3.19,1.09c2.22-0.06,3.59,0.47,4.31,2.1c0.64,1.45,0.23,3.24-1.52,4.39
			l0.84,1.9L67.97,66.89z"/>
	</g>
</g>
<g>
	<path class="st0" d="M34.59,114.42l-8.95-10.05c0,0,3.29-7.05,12.95-7.3c5.99-0.16,11.28-6.19,11.28-6.19l8.99,10.1
		c0,0-5.82,8.28-12.67,8.34C38.95,109.38,34.59,114.42,34.59,114.42z"/>
	<path class="st2" d="M47.37,100.54c0.94,2.59-0.75,5.57-3.77,6.67c-3.02,1.09-6.23-0.12-7.17-2.7c-0.94-2.59,0.75-5.57,3.77-6.67
		C43.22,96.75,46.43,97.96,47.37,100.54z"/>
</g>
<g>
	<path class="st0" d="M225.36,38.85l-4.33-12.74c0,0-7.76-0.62-12.74,7.66c-3.09,5.13-10.95,6.76-10.95,6.76l4.35,12.81
		c0,0,10.07-0.98,13.51-6.9C218.83,40.17,225.36,38.85,225.36,38.85z"/>
	<path class="st2" d="M206.99,43.13c1.79,2.09,5.22,2.1,7.66,0.01c2.44-2.09,2.97-5.47,1.18-7.57c-1.79-2.09-5.22-2.1-7.66-0.01
		C205.73,37.65,205.2,41.04,206.99,43.13z"/>
</g>
<g>
	<path class="st1" d="M274.82,106.09c1.67,5.69-1.58,11.66-7.27,13.33c-5.69,1.67-11.66-1.58-13.33-7.27
		c-1.67-5.69,1.58-11.66,7.27-13.33C267.18,97.15,273.14,100.4,274.82,106.09z"/>
	<g>
		<path class="st2" d="M266.21,117.29l-0.58-1.96c-1.13,0.31-2.4,0.31-3.22,0.02l0.08-1.44c0.84,0.26,1.95,0.33,3.04,0.01
			c1.38-0.41,2.08-1.48,1.75-2.58c-0.31-1.07-1.27-1.51-2.88-1.66c-2.21-0.19-3.7-0.73-4.19-2.42c-0.47-1.61,0.31-3.17,2.01-3.99
			l-0.58-1.96l1.2-0.35l0.55,1.88c1.18-0.3,2.06-0.23,2.72-0.06l-0.11,1.42c-0.48-0.11-1.4-0.31-2.64,0.06
			c-1.5,0.44-1.8,1.5-1.57,2.28c0.3,1.01,1.16,1.3,3.06,1.5c2.24,0.23,3.55,0.94,4.06,2.67c0.45,1.53-0.19,3.29-2.1,4.2l0.59,2.02
			L266.21,117.29z"/>
	</g>
</g>
<g>
	<path class="st0" d="M167.49,21.53c2.14,4.87-0.06,10.55-4.93,12.69c-4.87,2.14-10.55-0.06-12.69-4.93
		c-2.14-4.87,0.06-10.55,4.93-12.69C159.66,14.46,165.34,16.67,167.49,21.53z"/>
	<g>
		<path class="st1" d="M161.12,32.49l-0.74-1.68c-0.97,0.41-2.1,0.55-2.86,0.39l-0.09-1.29c0.77,0.14,1.78,0.07,2.71-0.34
			c1.18-0.52,1.68-1.55,1.26-2.5c-0.4-0.91-1.3-1.19-2.75-1.15c-1.99,0.08-3.37-0.22-4.01-1.67c-0.61-1.38-0.09-2.86,1.33-3.78
			l-0.74-1.68l1.03-0.45l0.71,1.61c1.01-0.41,1.81-0.44,2.42-0.37l0.07,1.28c-0.44-0.05-1.28-0.11-2.34,0.36
			c-1.28,0.56-1.42,1.54-1.13,2.21c0.38,0.86,1.19,1.03,2.89,0.99c2.02-0.06,3.26,0.43,3.92,1.91c0.58,1.31,0.21,2.95-1.38,3.98
			l0.76,1.73L161.12,32.49z"/>
	</g>
</g>
<g>
	<path class="st0" d="M90.69,37.42l-8.95-10.05c0,0,3.29-7.05,12.95-7.3c5.99-0.16,11.28-6.19,11.28-6.19l8.99,10.1
		c0,0-5.82,8.28-12.67,8.34C95.05,32.39,90.69,37.42,90.69,37.42z"/>
	<path class="st2" d="M103.47,23.55c0.94,2.59-0.75,5.57-3.77,6.67c-3.02,1.09-6.23-0.12-7.17-2.7c-0.94-2.59,0.75-5.57,3.77-6.67
		C99.32,19.76,102.53,20.97,103.47,23.55z"/>
</g>
<g>
	<path class="st0" d="M253.81,79.88l-1.51-11.24c0,0-6.31-1.77-11.78,4.27c-3.39,3.74-10.15,3.81-10.15,3.81l1.52,11.3
		c0,0,8.49,0.83,12.29-3.52C248.2,79.9,253.81,79.88,253.81,79.88z"/>
	<path class="st2" d="M237.93,80.43c1.14,2.02,3.97,2.58,6.33,1.25c2.36-1.33,3.35-4.04,2.21-6.07c-1.14-2.02-3.97-2.58-6.33-1.25
		C237.78,75.69,236.79,78.41,237.93,80.43z"/>
</g>
<g>
	<path class="st3" d="M271.24,279.51c0,3.38-54.28,6.12-121.24,6.12s-121.24-2.74-121.24-6.12c0-3.38,54.31-3.78,121.27-3.78
		C216.99,275.73,271.24,276.13,271.24,279.51z"/>
	<g>
		<polygon class="st4" points="156.31,178.47 143.35,187.66 102.6,216.55 98.38,219.54 101.59,224.11 119.41,249.47 150.57,227.34 
			166.44,216.07 166.63,215.93 168.23,195.44 		"/>
		<path class="st5" d="M165.82,202.72l-8.07-11.48c-2.78,1.96-6.62,1.28-8.58-1.5l-37.78,26.9c1.96,2.78,1.28,6.62-1.5,8.58
			l8.07,11.48c2.78-1.95,6.62-1.28,8.58,1.5l37.78-26.9C162.37,208.52,163.04,204.67,165.82,202.72z"/>
		<path class="st4" d="M147.92,207.31c-3.25-4.62-9.62-5.73-14.24-2.49c-4.62,3.25-5.73,9.62-2.49,14.24
			c3.25,4.62,9.62,5.73,14.24,2.49C150.06,218.3,151.17,211.93,147.92,207.31z"/>
		<polygon class="st4" points="168.23,195.44 156.7,206.47 166.44,216.07 166.6,216.23 166.63,215.93 		"/>
		<g>
			<polygon class="st6" points="162.37,218.93 156.7,206.47 166.44,216.07 			"/>
			<polygon class="st6" points="168.23,195.44 156.7,206.47 167.44,194.31 			"/>
		</g>
		<path class="st6" d="M143.35,187.66l-40.75,28.89l-1.01,7.56l17.82,25.36l31.16-22.14l-1.59-6.03c-0.6-2.28-4.64-3.28-9.75-2.71
			L143.35,187.66z"/>
		
			<rect x="77" y="193.28" transform="matrix(0.1321 -0.9912 0.9912 0.1321 -105.8205 302.2788)" class="st4" width="85.42" height="36.58"/>
		<path class="st5" d="M131.5,176.27l-13.91-1.85c-0.45,3.37-3.55,5.74-6.92,5.29l-8.03,60.25c3.37,0.45,5.74,3.55,5.29,6.92
			l13.91,1.85c0.45-3.37,3.55-5.74,6.92-5.29l8.03-60.25C133.42,182.74,131.05,179.64,131.5,176.27z"/>
		
			<ellipse transform="matrix(0.1989 -0.98 0.98 0.1989 -111.2688 287.7552)" class="st4" cx="120.38" cy="211.94" rx="10.22" ry="10.22"/>
		<path class="st4" d="M132.72,221.53l-34.84,9.2l9.33,35.37l34.84-9.2l-6.57-24.89c6.96-1.86,11.97-5.69,11.21-8.56
			C145.94,220.57,139.69,219.72,132.72,221.53L132.72,221.53z"/>
		
			<rect x="117.48" y="220.82" transform="matrix(-0.2552 -0.9669 0.9669 -0.2552 -69.477 428.622)" class="st5" width="25.74" height="40.5"/>
		
			<ellipse transform="matrix(0.8392 -0.5438 0.5438 0.8392 -110.8186 108.5073)" class="st4" cx="128.09" cy="241.67" rx="9.13" ry="9.13"/>
		<path class="st6" d="M132.72,221.53l-3.57,0.94l9.33,35.37l16.16-4.27l-7.95-30.13C145.94,220.57,139.69,219.72,132.72,221.53
			L132.72,221.53z"/>
		<path class="st4" d="M146.7,223.44c0.76,2.88-4.25,6.7-11.21,8.56l9.34,35.37l0,0c6.96-1.86,11.97-5.69,11.21-8.56L146.7,223.44z"
			/>
		<path class="st5" d="M148.38,229.83c0.34,1.27-0.52,2.7-2.1,3.8c0.47,1.96-0.62,3.93-2.46,4.41l-0.01,0l4.72,17.88l0.01,0
			c1.69-0.45,3.44,0.5,4.15,2.16c1.6-1.11,2.47-2.55,2.13-3.83L148.38,229.83z"/>
	</g>
	<path class="st7" d="M105.25,279.5L54,279.54c-8.08,0.01-14.64-6.54-14.65-14.63l-0.08-125.43c-0.01-8.08,6.54-14.64,14.63-14.65
		l51.26-0.03c8.08-0.01,14.64,6.54,14.65,14.63l0.08,125.43C119.89,272.94,113.34,279.5,105.25,279.5z"/>
	<linearGradient id="SVGID_1_" gradientUnits="userSpaceOnUse" x1="43.086" y1="202.6303" x2="116.069" y2="202.6303">
		<stop  offset="0" style="stop-color:#FFAA8D"/>
		<stop  offset="1" style="stop-color:#FFFFD9"/>
	</linearGradient>
	<path class="st8" d="M105.78,277l-52.31,0.03c-5.68,0-10.3-4.6-10.3-10.29l-0.08-128.18c0-5.68,4.6-10.3,10.29-10.3l52.31-0.03
		c5.68,0,10.3,4.6,10.3,10.29l0.08,128.18C116.07,272.38,111.47,276.99,105.78,277z"/>
	<path class="st7" d="M38.8,165.84L38.8,165.84c-1.26,0-2.28-1.02-2.28-2.28v-11.84c0-1.26,1.02-2.28,2.28-2.28l0,0
		c1.26,0,2.28,1.02,2.28,2.28v11.84C41.08,164.82,40.06,165.84,38.8,165.84z"/>
	<path class="st7" d="M120.24,165.84L120.24,165.84c-1.26,0-2.28-1.02-2.28-2.28v-11.84c0-1.26,1.02-2.28,2.28-2.28l0,0
		c1.26,0,2.28,1.02,2.28,2.28v11.84C122.53,164.82,121.5,165.84,120.24,165.84z"/>
	<path class="st7" d="M243.96,279.5l-51.26,0.03c-8.08,0.01-14.64-6.54-14.65-14.63l-0.08-125.43c-0.01-8.08,6.54-14.64,14.63-14.65
		l51.26-0.03c8.08-0.01,14.64,6.54,14.65,14.63l0.08,125.43C258.6,272.94,252.05,279.5,243.96,279.5z"/>
	<linearGradient id="SVGID_2_" gradientUnits="userSpaceOnUse" x1="181.7947" y1="202.6303" x2="254.7776" y2="202.6303">
		<stop  offset="0" style="stop-color:#FFAA8D"/>
		<stop  offset="1" style="stop-color:#FFFFD9"/>
	</linearGradient>
	<path class="st9" d="M244.49,277l-52.31,0.03c-5.69,0-10.3-4.6-10.3-10.29l-0.08-128.18c0-5.68,4.6-10.3,10.29-10.3l52.31-0.03
		c5.68,0,10.3,4.6,10.3,10.29l0.08,128.18C254.78,272.38,250.18,276.99,244.49,277z"/>
	<path class="st7" d="M177.51,165.84L177.51,165.84c-1.26,0-2.28-1.02-2.28-2.28v-11.84c0-1.26,1.02-2.28,2.28-2.28l0,0
		c1.26,0,2.28,1.02,2.28,2.28v11.84C179.79,164.82,178.77,165.84,177.51,165.84z"/>
	<path class="st7" d="M258.95,165.84L258.95,165.84c-1.26,0-2.28-1.02-2.28-2.28v-11.84c0-1.26,1.02-2.28,2.28-2.28l0,0
		c1.26,0,2.28,1.02,2.28,2.28v11.84C261.23,164.82,260.21,165.84,258.95,165.84z"/>
	<path class="st7" d="M177.51,183.36L177.51,183.36c-1.26,0-2.28-1.02-2.28-2.28v-11.84c0-1.26,1.02-2.28,2.28-2.28l0,0
		c1.26,0,2.28,1.02,2.28,2.28v11.84C179.79,182.34,178.77,183.36,177.51,183.36z"/>
	<g>
		<path class="st10" d="M90.92,110.12c-2.63,6.01-9.64,8.75-15.65,6.12c-6.01-2.63-8.75-9.64-6.12-15.65
			c2.63-6.01,9.64-8.75,15.65-6.12C90.82,97.1,93.56,104.11,90.92,110.12z"/>
		<path class="st11" d="M88.98,109.26c-2.34,5.51-9.35,7.56-14.31,4.23c-3.15-2.05-4.87-5.88-4.28-9.63
			c0.92-6.33,7.86-10.03,13.56-7.45C88.81,98.49,91.18,104.34,88.98,109.26z"/>
		<g>
			<path class="st10" d="M79.37,113.55l-0.01-2.02c-1.16-0.02-2.36-0.37-3.06-0.87l0.48-1.34c0.72,0.48,1.76,0.86,2.88,0.85
				c1.42,0,2.38-0.83,2.37-1.97c0-1.1-0.78-1.78-2.27-2.37c-2.04-0.79-3.3-1.71-3.31-3.45c0-1.66,1.17-2.92,3.01-3.23l-0.01-2.02
				l1.24,0l0.01,1.94c1.2,0.04,2.02,0.35,2.6,0.69l-0.5,1.32c-0.42-0.24-1.24-0.68-2.52-0.67c-1.54,0-2.12,0.93-2.12,1.73
				c0,1.04,0.74,1.56,2.49,2.27c2.06,0.83,3.11,1.87,3.11,3.65c0,1.58-1.09,3.06-3.15,3.41l0.01,2.08L79.37,113.55z"/>
		</g>
	</g>
	<g>
		<path class="st10" d="M112.23,75.65c-2.63,6.01-9.64,8.75-15.65,6.12c-6.01-2.63-8.75-9.64-6.12-15.65
			c2.63-6.01,9.64-8.75,15.65-6.12C112.13,62.64,114.87,69.64,112.23,75.65z"/>
		<path class="st11" d="M110.29,74.8c-2.34,5.51-9.35,7.56-14.31,4.23c-3.15-2.06-4.87-5.88-4.28-9.63
			c0.92-6.33,7.86-10.03,13.56-7.45C110.12,64.03,112.49,69.88,110.29,74.8z"/>
		<g>
			<path class="st10" d="M100.68,79.09l-0.01-2.02c-1.16-0.02-2.36-0.37-3.06-0.87l0.48-1.34c0.72,0.48,1.76,0.86,2.88,0.85
				c1.42,0,2.38-0.83,2.37-1.97c0-1.1-0.78-1.78-2.27-2.37c-2.04-0.79-3.3-1.71-3.31-3.45c0-1.66,1.17-2.92,3.01-3.23l-0.01-2.02
				l1.24,0l0.01,1.94c1.2,0.04,2.02,0.35,2.6,0.69l-0.5,1.32c-0.42-0.24-1.24-0.68-2.52-0.67c-1.54,0-2.12,0.93-2.12,1.73
				c0,1.04,0.74,1.56,2.49,2.27c2.06,0.83,3.11,1.87,3.11,3.65c0,1.58-1.09,3.06-3.15,3.41l0.01,2.08L100.68,79.09z"/>
		</g>
	</g>
	<g>
		
			<ellipse transform="matrix(0.988 -0.1545 0.1545 0.988 -8.6454 30.5156)" class="st10" cx="192.03" cy="70.89" rx="11.88" ry="11.88"/>
		<path class="st11" d="M200.97,74.8c-2.34,5.51-9.35,7.56-14.31,4.23c-3.15-2.06-4.87-5.88-4.28-9.63
			c0.92-6.33,7.86-10.03,13.56-7.45C200.8,64.03,203.17,69.88,200.97,74.8z"/>
		<g>
			<path class="st10" d="M191.37,79.09l-0.01-2.02c-1.16-0.02-2.36-0.37-3.06-0.87l0.48-1.34c0.72,0.48,1.76,0.86,2.88,0.85
				c1.42,0,2.38-0.83,2.37-1.97c0-1.1-0.79-1.78-2.27-2.37c-2.04-0.79-3.3-1.71-3.31-3.45c0-1.66,1.17-2.92,3.01-3.23l-0.01-2.02
				l1.24,0l0.01,1.94c1.2,0.04,2.02,0.35,2.6,0.69l-0.5,1.32c-0.42-0.24-1.24-0.68-2.52-0.67c-1.54,0-2.12,0.93-2.12,1.73
				c0,1.04,0.74,1.56,2.49,2.27c2.06,0.83,3.11,1.87,3.11,3.65c0,1.58-1.09,3.06-3.15,3.41l0.01,2.08L191.37,79.09z"/>
		</g>
	</g>
	<g>
		<path class="st10" d="M227.12,110.12c-2.63,6.01-9.64,8.75-15.65,6.12c-6.01-2.63-8.75-9.64-6.12-15.65
			c2.63-6.01,9.64-8.75,15.65-6.12C227.02,97.1,229.76,104.11,227.12,110.12z"/>
		<path class="st11" d="M225.18,109.26c-2.34,5.51-9.35,7.56-14.31,4.23c-3.15-2.05-4.87-5.88-4.28-9.63
			c0.92-6.33,7.86-10.03,13.56-7.45C225.01,98.49,227.38,104.34,225.18,109.26z"/>
		<g>
			<path class="st10" d="M215.57,113.55l-0.01-2.02c-1.16-0.02-2.36-0.37-3.06-0.87l0.48-1.34c0.72,0.48,1.76,0.86,2.88,0.85
				c1.42,0,2.38-0.83,2.37-1.97c0-1.1-0.79-1.78-2.27-2.37c-2.04-0.79-3.3-1.71-3.31-3.45c0-1.66,1.17-2.92,3.01-3.23l-0.01-2.02
				l1.24,0l0.01,1.94c1.2,0.04,2.02,0.35,2.6,0.69l-0.5,1.32c-0.42-0.24-1.24-0.68-2.52-0.67c-1.54,0-2.12,0.93-2.12,1.73
				c0,1.04,0.74,1.56,2.49,2.27c2.06,0.83,3.11,1.87,3.11,3.65c0,1.58-1.09,3.06-3.15,3.41l0.01,2.08L215.57,113.55z"/>
		</g>
	</g>
	<g>
		<path class="st10" d="M161.08,61.01c-2.63,6.01-9.64,8.75-15.65,6.12c-6.01-2.63-8.75-9.64-6.12-15.65
			c2.63-6.01,9.64-8.75,15.65-6.12C160.98,48,163.72,55,161.08,61.01z"/>
		<path class="st11" d="M159.14,60.16c-2.34,5.51-9.35,7.56-14.31,4.23c-3.15-2.05-4.87-5.88-4.28-9.63
			c0.92-6.33,7.86-10.03,13.56-7.45C158.97,49.39,161.34,55.24,159.14,60.16z"/>
		<g>
			<path class="st10" d="M149.53,64.45l-0.01-2.02c-1.16-0.02-2.36-0.37-3.06-0.87l0.48-1.34c0.72,0.48,1.76,0.86,2.88,0.85
				c1.42,0,2.38-0.83,2.37-1.97c0-1.1-0.79-1.78-2.27-2.37c-2.04-0.79-3.3-1.71-3.31-3.45c0-1.66,1.17-2.92,3.01-3.23l-0.01-2.02
				l1.24,0l0.01,1.94c1.2,0.04,2.02,0.35,2.6,0.69l-0.5,1.32c-0.42-0.24-1.24-0.68-2.52-0.67c-1.54,0-2.12,0.93-2.12,1.73
				c0,1.04,0.74,1.56,2.49,2.27c2.06,0.83,3.11,1.87,3.11,3.65c0,1.58-1.09,3.06-3.15,3.41l0.01,2.08L149.53,64.45z"/>
		</g>
	</g>
	<g>
		<g>
			<g>
				<g>
					<path class="st12" d="M197.31,123.93c-0.58,0-1.04-0.47-1.04-1.04c0-0.85-0.02-1.71-0.06-2.55c-0.03-0.57,0.41-1.06,0.99-1.09
						c0.57-0.03,1.06,0.41,1.09,0.99c0.04,0.88,0.07,1.77,0.07,2.66C198.36,123.46,197.89,123.93,197.31,123.93z"/>
				</g>
				<g>
					<path class="st12" d="M196.7,116.08c-0.5,0-0.95-0.37-1.03-0.88c-0.27-1.69-0.62-3.39-1.07-5.05
						c-0.15-0.56,0.18-1.13,0.74-1.28c0.56-0.15,1.13,0.18,1.28,0.74c0.46,1.73,0.83,3.5,1.11,5.26c0.09,0.57-0.3,1.1-0.87,1.19
						C196.81,116.07,196.76,116.08,196.7,116.08z M97.24,116.03c-0.05,0-0.11,0-0.16-0.01c-0.57-0.09-0.96-0.62-0.87-1.19
						c0.28-1.77,0.65-3.54,1.12-5.26c0.15-0.56,0.72-0.89,1.28-0.74c0.56,0.15,0.89,0.72,0.74,1.28c-0.44,1.65-0.8,3.35-1.07,5.05
						C98.19,115.67,97.74,116.03,97.24,116.03z M193.99,105.9c-0.42,0-0.81-0.25-0.97-0.67c-0.61-1.6-1.32-3.19-2.1-4.72
						c-0.26-0.51-0.06-1.14,0.45-1.4c0.51-0.26,1.14-0.06,1.4,0.45c0.81,1.59,1.55,3.25,2.19,4.92c0.21,0.54-0.06,1.14-0.6,1.35
						C194.24,105.88,194.12,105.9,193.99,105.9z M99.96,105.86c-0.12,0-0.25-0.02-0.37-0.07c-0.54-0.21-0.81-0.81-0.6-1.35
						c0.64-1.67,1.38-3.32,2.19-4.91c0.26-0.51,0.89-0.72,1.4-0.45c0.51,0.26,0.72,0.89,0.45,1.4c-0.78,1.53-1.49,3.11-2.1,4.71
						C100.77,105.61,100.38,105.86,99.96,105.86z M189.21,96.52c-0.34,0-0.68-0.17-0.87-0.47c-0.93-1.44-1.96-2.84-3.04-4.18
						c-0.36-0.45-0.29-1.1,0.15-1.47c0.45-0.36,1.1-0.29,1.47,0.15c1.13,1.39,2.19,2.85,3.16,4.35c0.31,0.48,0.18,1.13-0.31,1.44
						C189.6,96.47,189.4,96.52,189.21,96.52z M104.75,96.49c-0.19,0-0.39-0.05-0.57-0.17c-0.48-0.31-0.62-0.96-0.3-1.44
						c0.97-1.5,2.04-2.96,3.17-4.35c0.36-0.45,1.02-0.52,1.47-0.15c0.45,0.36,0.52,1.02,0.15,1.47c-1.08,1.33-2.1,2.74-3.04,4.17
						C105.42,96.33,105.09,96.49,104.75,96.49z M182.58,88.34c-0.27,0-0.53-0.1-0.74-0.31c-1.21-1.21-2.5-2.38-3.83-3.46
						c-0.45-0.36-0.52-1.02-0.15-1.47c0.36-0.45,1.02-0.52,1.47-0.15c1.39,1.13,2.73,2.34,4,3.6c0.41,0.41,0.41,1.07,0,1.47
						C183.11,88.24,182.85,88.34,182.58,88.34z M111.38,88.32c-0.27,0-0.53-0.1-0.74-0.31c-0.41-0.41-0.41-1.07,0-1.47
						c1.26-1.26,2.61-2.48,4-3.6c0.45-0.36,1.1-0.29,1.47,0.15c0.36,0.45,0.29,1.1-0.15,1.47c-1.33,1.08-2.62,2.24-3.84,3.45
						C111.91,88.22,111.64,88.32,111.38,88.32z M174.41,81.71c-0.19,0-0.39-0.05-0.57-0.17c-1.44-0.94-2.94-1.81-4.47-2.59
						c-0.51-0.26-0.72-0.89-0.45-1.4c0.26-0.51,0.89-0.72,1.4-0.45c1.59,0.81,3.16,1.72,4.65,2.7c0.48,0.31,0.62,0.96,0.3,1.44
						C175.08,81.54,174.75,81.71,174.41,81.71z M119.56,81.69c-0.34,0-0.67-0.17-0.87-0.47c-0.31-0.48-0.18-1.13,0.31-1.44
						c1.5-0.98,3.07-1.88,4.66-2.69c0.51-0.26,1.14-0.06,1.4,0.45c0.26,0.51,0.06,1.14-0.45,1.4c-1.53,0.78-3.03,1.65-4.47,2.58
						C119.95,81.64,119.75,81.69,119.56,81.69z M165.04,76.92c-0.12,0-0.25-0.02-0.37-0.07c-1.6-0.62-3.25-1.15-4.91-1.6
						c-0.56-0.15-0.89-0.72-0.74-1.28c0.15-0.56,0.72-0.89,1.28-0.74c1.73,0.46,3.45,1.02,5.12,1.66c0.54,0.21,0.81,0.81,0.6,1.35
						C165.85,76.67,165.45,76.92,165.04,76.92z M128.94,76.91c-0.42,0-0.81-0.25-0.97-0.67c-0.21-0.54,0.06-1.14,0.6-1.35
						c1.67-0.64,3.39-1.2,5.12-1.66c0.56-0.15,1.13,0.18,1.28,0.74c0.15,0.56-0.18,1.13-0.74,1.28c-1.66,0.44-3.31,0.98-4.91,1.59
						C129.19,76.88,129.06,76.91,128.94,76.91z M154.87,74.2c-0.05,0-0.11,0-0.16-0.01c-1.69-0.27-3.42-0.45-5.13-0.54
						c-0.57-0.03-1.02-0.52-0.99-1.09c0.03-0.57,0.52-1.02,1.09-0.99c1.79,0.09,3.59,0.28,5.35,0.56c0.57,0.09,0.96,0.62,0.87,1.19
						C155.82,73.83,155.37,74.2,154.87,74.2z M139.11,74.19c-0.5,0-0.95-0.37-1.03-0.88c-0.09-0.57,0.3-1.1,0.87-1.19
						c1.76-0.28,3.56-0.46,5.35-0.55c0.58-0.03,1.06,0.41,1.09,0.99c0.03,0.57-0.41,1.06-0.99,1.09c-1.72,0.09-3.44,0.27-5.13,0.53
						C139.22,74.19,139.16,74.19,139.11,74.19z"/>
				</g>
				<g>
					<path class="st12" d="M96.62,123.93c-0.58,0-1.04-0.47-1.04-1.04c0-0.88,0.02-1.78,0.07-2.66c0.03-0.57,0.52-1.02,1.09-0.99
						c0.57,0.03,1.02,0.52,0.99,1.09c-0.04,0.84-0.06,1.7-0.06,2.55C97.67,123.46,97.2,123.93,96.62,123.93z"/>
				</g>
			</g>
		</g>
		<g>
			<g>
				<g>
					<path class="st12" d="M110.73,123.93c-0.58,0-1.04-0.47-1.04-1.04c0-0.89,0.03-1.79,0.09-2.68c0.04-0.57,0.54-1.01,1.11-0.97
						c0.57,0.04,1.01,0.54,0.97,1.11c-0.06,0.84-0.09,1.69-0.09,2.53C111.77,123.46,111.3,123.93,110.73,123.93z"/>
				</g>
				<g>
					<path class="st12" d="M111.55,116.21c-0.07,0-0.15-0.01-0.22-0.02c-0.56-0.12-0.92-0.68-0.8-1.24c0.38-1.73,0.88-3.45,1.5-5.11
						c0.2-0.54,0.8-0.81,1.34-0.61c0.54,0.2,0.81,0.8,0.61,1.34c-0.58,1.56-1.06,3.19-1.41,4.82
						C112.47,115.87,112.03,116.21,111.55,116.21z M182.38,116.18c-0.48,0-0.91-0.33-1.02-0.82c-0.36-1.63-0.83-3.25-1.42-4.81
						c-0.2-0.54,0.07-1.14,0.61-1.34c0.54-0.2,1.14,0.07,1.34,0.61c0.62,1.66,1.13,3.37,1.5,5.1c0.12,0.56-0.23,1.12-0.8,1.24
						C182.52,116.17,182.45,116.18,182.38,116.18z M115.16,106.54c-0.17,0-0.34-0.04-0.5-0.13c-0.5-0.28-0.69-0.91-0.41-1.41
						c0.85-1.55,1.82-3.05,2.88-4.47c0.35-0.46,1-0.55,1.46-0.21c0.46,0.35,0.55,1,0.21,1.46c-1,1.34-1.92,2.76-2.72,4.22
						C115.89,106.35,115.53,106.54,115.16,106.54z M178.77,106.53c-0.37,0-0.73-0.2-0.91-0.54c-0.8-1.46-1.72-2.88-2.72-4.22
						c-0.35-0.46-0.25-1.11,0.21-1.46c0.46-0.35,1.11-0.25,1.46,0.21c1.06,1.41,2.03,2.92,2.88,4.47c0.28,0.5,0.09,1.14-0.41,1.41
						C179.11,106.49,178.94,106.53,178.77,106.53z M121.35,98.29c-0.27,0-0.53-0.1-0.74-0.31c-0.41-0.41-0.41-1.07,0-1.47
						c1.25-1.25,2.6-2.42,4.02-3.48c0.46-0.35,1.11-0.25,1.46,0.21c0.35,0.46,0.25,1.11-0.21,1.46c-1.34,1-2.61,2.11-3.79,3.29
						C121.88,98.19,121.62,98.29,121.35,98.29z M172.58,98.28c-0.27,0-0.53-0.1-0.74-0.3c-1.18-1.18-2.46-2.29-3.8-3.29
						c-0.46-0.34-0.55-1-0.21-1.46c0.34-0.46,1-0.55,1.46-0.21c1.41,1.06,2.77,2.23,4.02,3.48c0.41,0.41,0.41,1.07,0,1.47
						C173.11,98.18,172.84,98.28,172.58,98.28z M129.6,92.11c-0.37,0-0.73-0.2-0.92-0.54c-0.28-0.5-0.09-1.14,0.41-1.41
						c1.55-0.85,3.18-1.59,4.83-2.21c0.54-0.2,1.14,0.07,1.34,0.61c0.2,0.54-0.07,1.14-0.61,1.34c-1.56,0.58-3.1,1.29-4.56,2.09
						C129.94,92.07,129.77,92.11,129.6,92.11z M164.32,92.1c-0.17,0-0.34-0.04-0.5-0.13c-1.47-0.8-3-1.5-4.57-2.09
						c-0.54-0.2-0.81-0.8-0.61-1.34c0.2-0.54,0.8-0.81,1.34-0.61c1.66,0.62,3.28,1.36,4.84,2.21c0.51,0.28,0.69,0.91,0.41,1.41
						C165.05,91.91,164.69,92.1,164.32,92.1z M139.25,88.51c-0.48,0-0.91-0.33-1.02-0.82c-0.12-0.56,0.24-1.12,0.8-1.24
						c1.72-0.37,3.5-0.63,5.26-0.75c0.57-0.04,1.07,0.39,1.11,0.97c0.04,0.57-0.39,1.07-0.97,1.11c-1.67,0.12-3.34,0.36-4.97,0.71
						C139.4,88.5,139.33,88.51,139.25,88.51z M154.66,88.5c-0.07,0-0.15-0.01-0.22-0.02c-1.63-0.35-3.3-0.59-4.97-0.71
						c-0.57-0.04-1.01-0.54-0.97-1.11c0.04-0.57,0.54-1.01,1.11-0.97c1.77,0.12,3.54,0.38,5.26,0.75c0.56,0.12,0.92,0.68,0.8,1.24
						C155.57,88.17,155.14,88.5,154.66,88.5z"/>
				</g>
				<g>
					<path class="st12" d="M183.21,123.93c-0.58,0-1.04-0.47-1.04-1.04c0-0.84-0.03-1.69-0.09-2.53c-0.04-0.57,0.39-1.07,0.97-1.11
						c0.58-0.04,1.07,0.39,1.11,0.97c0.06,0.89,0.09,1.79,0.09,2.68C184.25,123.46,183.78,123.93,183.21,123.93z"/>
				</g>
			</g>
		</g>
		<g>
			<path class="st12" d="M197.13,124.54c0,0-0.01,0-0.01,0c-0.2,0-0.39-0.1-0.51-0.26l-6.65-8.95c-0.21-0.29-0.15-0.7,0.13-0.91
				c0.29-0.21,0.7-0.15,0.91,0.13l6.15,8.27l6.12-7.6c0.23-0.28,0.64-0.32,0.91-0.1c0.28,0.23,0.32,0.64,0.1,0.91l-6.65,8.26
				C197.51,124.45,197.33,124.54,197.13,124.54z"/>
		</g>
		<g>
			<path class="st12" d="M110.71,124.54c0,0-0.01,0-0.01,0c-0.2,0-0.39-0.1-0.51-0.26l-6.65-8.95c-0.21-0.29-0.15-0.7,0.13-0.91
				c0.29-0.21,0.7-0.15,0.91,0.13l6.15,8.27l6.12-7.6c0.23-0.28,0.64-0.32,0.91-0.1c0.28,0.23,0.32,0.64,0.1,0.91l-6.65,8.26
				C111.09,124.45,110.91,124.54,110.71,124.54z"/>
		</g>
	</g>
	<g>
		<g>
			<g>
				<path class="st11" d="M242.95,264.88v2.64c0,1.03-0.84,1.87-1.87,1.87h-32.21c-1.03,0-1.87-0.84-1.87-1.87v-2.64
					c0-0.46,0.17-0.88,0.44-1.21c0.34-0.41,0.85-0.66,1.43-0.66h32.21c0.57,0,1.08,0.26,1.43,0.66
					C242.79,264,242.95,264.42,242.95,264.88z"/>
				<rect x="208.79" y="263.01" class="st10" width="0.94" height="6.37"/>
				<rect x="212.72" y="263.01" class="st10" width="0.94" height="6.37"/>
				<rect x="216.64" y="263.01" class="st10" width="0.94" height="6.37"/>
				<rect x="220.56" y="263.01" class="st10" width="0.94" height="6.37"/>
				<rect x="224.49" y="263.01" class="st10" width="0.94" height="6.37"/>
				<rect x="228.41" y="263.01" class="st10" width="0.94" height="6.37"/>
				<rect x="232.33" y="263.01" class="st10" width="0.94" height="6.37"/>
				<rect x="236.26" y="263.01" class="st10" width="0.94" height="6.37"/>
				<rect x="240.18" y="263.01" class="st10" width="0.94" height="6.37"/>
				<path class="st10" d="M242.51,263.68h-35.06c0.34-0.41,0.85-0.66,1.43-0.66h32.21C241.66,263.01,242.17,263.27,242.51,263.68z"
					/>
				<path class="st10" d="M242.51,268.73h-35.06c0.34,0.4,0.85,0.66,1.43,0.66h32.21C241.66,269.39,242.17,269.13,242.51,268.73z"/>
			</g>
			<g>
				<path class="st11" d="M245.2,258.51v2.64c0,1.03-0.84,1.87-1.87,1.87h-32.21c-1.03,0-1.87-0.84-1.87-1.87v-2.64
					c0-0.46,0.17-0.88,0.44-1.21c0.34-0.4,0.85-0.66,1.43-0.66h32.21c0.57,0,1.08,0.26,1.43,0.66
					C245.04,257.63,245.2,258.05,245.2,258.51z"/>
				<rect x="211.05" y="256.64" class="st10" width="0.94" height="6.37"/>
				<rect x="214.97" y="256.64" class="st10" width="0.94" height="6.37"/>
				<rect x="218.89" y="256.64" class="st10" width="0.94" height="6.37"/>
				<rect x="222.82" y="256.64" class="st10" width="0.94" height="6.37"/>
				<rect x="226.74" y="256.64" class="st10" width="0.94" height="6.37"/>
				<rect x="230.66" y="256.64" class="st10" width="0.94" height="6.37"/>
				<rect x="234.59" y="256.64" class="st10" width="0.94" height="6.37"/>
				<rect x="238.51" y="256.64" class="st10" width="0.94" height="6.37"/>
				<rect x="242.43" y="256.64" class="st10" width="0.94" height="6.37"/>
				<path class="st10" d="M244.76,257.3H209.7c0.34-0.4,0.85-0.66,1.43-0.66h32.21C243.91,256.64,244.42,256.9,244.76,257.3z"/>
				<path class="st10" d="M244.76,262.35H209.7c0.34,0.41,0.85,0.66,1.43,0.66h32.21C243.91,263.01,244.42,262.76,244.76,262.35z"/>
			</g>
			<g>
				<path class="st11" d="M243.46,252.15v2.64c0,1.03-0.84,1.87-1.87,1.87h-32.21c-1.03,0-1.87-0.84-1.87-1.87v-2.64
					c0-0.46,0.17-0.88,0.44-1.21c0.34-0.41,0.85-0.66,1.43-0.66h32.21c0.57,0,1.08,0.26,1.43,0.66
					C243.29,251.27,243.46,251.69,243.46,252.15z"/>
				<rect x="209.3" y="250.28" class="st10" width="0.94" height="6.37"/>
				<rect x="213.22" y="250.28" class="st10" width="0.94" height="6.37"/>
				<rect x="217.15" y="250.28" class="st10" width="0.94" height="6.37"/>
				<rect x="221.07" y="250.28" class="st10" width="0.94" height="6.37"/>
				<rect x="224.99" y="250.28" class="st10" width="0.94" height="6.37"/>
				<rect x="228.92" y="250.28" class="st10" width="0.94" height="6.37"/>
				<rect x="232.84" y="250.28" class="st10" width="0.94" height="6.37"/>
				<rect x="236.76" y="250.28" class="st10" width="0.94" height="6.37"/>
				<rect x="240.69" y="250.28" class="st10" width="0.94" height="6.37"/>
				<path class="st10" d="M243.02,250.94h-35.06c0.34-0.41,0.85-0.66,1.43-0.66h32.21C242.16,250.28,242.67,250.54,243.02,250.94z"
					/>
				<path class="st10" d="M243.02,255.99h-35.06c0.34,0.4,0.85,0.66,1.43,0.66h32.21C242.16,256.65,242.67,256.4,243.02,255.99z"/>
			</g>
			<g>
				<path class="st11" d="M244.18,245.9v2.64c0,1.03-0.84,1.87-1.87,1.87H210.1c-1.03,0-1.87-0.84-1.87-1.87v-2.64
					c0-0.46,0.17-0.88,0.44-1.21c0.34-0.4,0.85-0.66,1.43-0.66h32.21c0.57,0,1.08,0.26,1.43,0.66
					C244.01,245.02,244.18,245.44,244.18,245.9z"/>
				<rect x="210.02" y="244.03" class="st10" width="0.94" height="6.37"/>
				<rect x="213.94" y="244.03" class="st10" width="0.94" height="6.37"/>
				<rect x="217.86" y="244.03" class="st10" width="0.94" height="6.37"/>
				<rect x="221.79" y="244.03" class="st10" width="0.94" height="6.37"/>
				<rect x="225.71" y="244.03" class="st10" width="0.94" height="6.37"/>
				<rect x="229.63" y="244.03" class="st10" width="0.94" height="6.37"/>
				<rect x="233.56" y="244.03" class="st10" width="0.94" height="6.37"/>
				<rect x="237.48" y="244.03" class="st10" width="0.94" height="6.37"/>
				<rect x="241.4" y="244.03" class="st10" width="0.94" height="6.37"/>
				<path class="st10" d="M243.74,244.69h-35.06c0.34-0.4,0.85-0.66,1.43-0.66h32.21C242.88,244.03,243.39,244.29,243.74,244.69z"/>
				<path class="st10" d="M243.74,249.74h-35.06c0.34,0.4,0.85,0.66,1.43,0.66h32.21C242.88,250.41,243.39,250.15,243.74,249.74z"/>
			</g>
			<g>
				<path class="st11" d="M240.16,239.43v2.64c0,1.03-0.84,1.87-1.87,1.87h-32.21c-1.03,0-1.87-0.84-1.87-1.87v-2.64
					c0-0.46,0.17-0.88,0.44-1.21c0.34-0.41,0.85-0.66,1.43-0.66h32.21c0.57,0,1.08,0.26,1.43,0.66
					C240,238.55,240.16,238.97,240.16,239.43z"/>
				<rect x="206" y="237.56" class="st10" width="0.94" height="6.37"/>
				<rect x="209.93" y="237.56" class="st10" width="0.94" height="6.37"/>
				<rect x="213.85" y="237.56" class="st10" width="0.94" height="6.37"/>
				<rect x="217.77" y="237.56" class="st10" width="0.94" height="6.37"/>
				<rect x="221.7" y="237.56" class="st10" width="0.94" height="6.37"/>
				<rect x="225.62" y="237.56" class="st10" width="0.94" height="6.37"/>
				<rect x="229.54" y="237.56" class="st10" width="0.94" height="6.37"/>
				<rect x="233.47" y="237.56" class="st10" width="0.94" height="6.37"/>
				<rect x="237.39" y="237.56" class="st10" width="0.94" height="6.37"/>
				<path class="st10" d="M239.72,238.23h-35.06c0.34-0.41,0.85-0.66,1.43-0.66h32.21C238.87,237.56,239.38,237.82,239.72,238.23z"
					/>
				<path class="st10" d="M239.72,243.27h-35.06c0.34,0.41,0.85,0.66,1.43,0.66h32.21C238.87,243.94,239.38,243.68,239.72,243.27z"
					/>
			</g>
			<g>
				<path class="st11" d="M244.11,233.13v2.64c0,1.03-0.84,1.87-1.87,1.87h-32.21c-1.03,0-1.87-0.84-1.87-1.87v-2.64
					c0-0.46,0.17-0.88,0.44-1.21c0.34-0.4,0.85-0.66,1.43-0.66h32.21c0.57,0,1.08,0.26,1.43,0.66
					C243.95,232.25,244.11,232.67,244.11,233.13z"/>
				<rect x="209.95" y="231.27" class="st10" width="0.94" height="6.37"/>
				<rect x="213.88" y="231.27" class="st10" width="0.94" height="6.37"/>
				<rect x="217.8" y="231.27" class="st10" width="0.94" height="6.37"/>
				<rect x="221.72" y="231.27" class="st10" width="0.94" height="6.37"/>
				<rect x="225.65" y="231.27" class="st10" width="0.94" height="6.37"/>
				<rect x="229.57" y="231.27" class="st10" width="0.94" height="6.37"/>
				<rect x="233.49" y="231.27" class="st10" width="0.94" height="6.37"/>
				<rect x="237.42" y="231.27" class="st10" width="0.94" height="6.37"/>
				<rect x="241.34" y="231.27" class="st10" width="0.94" height="6.37"/>
				<path class="st10" d="M243.67,231.93h-35.06c0.34-0.4,0.85-0.66,1.43-0.66h32.21C242.82,231.27,243.33,231.52,243.67,231.93z"/>
				<path class="st10" d="M243.67,236.98h-35.06c0.34,0.41,0.85,0.66,1.43,0.66h32.21C242.82,237.64,243.33,237.38,243.67,236.98z"
					/>
			</g>
			<g>
				<path class="st11" d="M242.71,226.74v2.64c0,1.03-0.84,1.87-1.87,1.87h-32.21c-1.03,0-1.87-0.84-1.87-1.87v-2.64
					c0-0.46,0.17-0.88,0.44-1.21c0.34-0.41,0.85-0.66,1.43-0.66h32.21c0.57,0,1.08,0.26,1.43,0.66
					C242.55,225.86,242.71,226.28,242.71,226.74z"/>
				<rect x="208.55" y="224.87" class="st10" width="0.94" height="6.37"/>
				<rect x="212.48" y="224.87" class="st10" width="0.94" height="6.37"/>
				<rect x="216.4" y="224.87" class="st10" width="0.94" height="6.37"/>
				<rect x="220.32" y="224.87" class="st10" width="0.94" height="6.37"/>
				<rect x="224.25" y="224.87" class="st10" width="0.94" height="6.37"/>
				<rect x="228.17" y="224.87" class="st10" width="0.94" height="6.37"/>
				<rect x="232.09" y="224.87" class="st10" width="0.94" height="6.37"/>
				<rect x="236.02" y="224.87" class="st10" width="0.94" height="6.37"/>
				<rect x="239.94" y="224.87" class="st10" width="0.94" height="6.37"/>
				<path class="st10" d="M242.27,225.53h-35.06c0.34-0.41,0.85-0.66,1.43-0.66h32.21C241.42,224.87,241.93,225.13,242.27,225.53z"
					/>
				<path class="st10" d="M242.27,230.58h-35.06c0.34,0.4,0.85,0.66,1.43,0.66h32.21C241.42,231.25,241.93,230.99,242.27,230.58z"/>
			</g>
			<g>
				<path class="st11" d="M244.64,220.4v2.64c0,1.03-0.84,1.87-1.87,1.87h-32.21c-1.03,0-1.87-0.84-1.87-1.87v-2.64
					c0-0.46,0.17-0.88,0.44-1.21c0.34-0.4,0.85-0.66,1.43-0.66h32.21c0.57,0,1.08,0.26,1.43,0.66
					C244.47,219.52,244.64,219.94,244.64,220.4z"/>
				<rect x="210.48" y="218.53" class="st10" width="0.94" height="6.37"/>
				<rect x="214.4" y="218.53" class="st10" width="0.94" height="6.37"/>
				<rect x="218.32" y="218.53" class="st10" width="0.94" height="6.37"/>
				<rect x="222.25" y="218.53" class="st10" width="0.94" height="6.37"/>
				<rect x="226.17" y="218.53" class="st10" width="0.94" height="6.37"/>
				<rect x="230.09" y="218.53" class="st10" width="0.94" height="6.37"/>
				<rect x="234.02" y="218.53" class="st10" width="0.94" height="6.37"/>
				<rect x="237.94" y="218.53" class="st10" width="0.94" height="6.37"/>
				<rect x="241.86" y="218.53" class="st10" width="0.94" height="6.37"/>
				<path class="st10" d="M244.19,219.2h-35.06c0.34-0.4,0.85-0.66,1.43-0.66h32.21C243.34,218.53,243.85,218.79,244.19,219.2z"/>
				<path class="st10" d="M244.19,224.25h-35.06c0.34,0.41,0.85,0.66,1.43,0.66h32.21C243.34,224.91,243.85,224.65,244.19,224.25z"
					/>
			</g>
		</g>
		<g>
			
				<ellipse transform="matrix(0.9497 -0.3132 0.3132 0.9497 -67.9893 77.6484)" class="st10" cx="207.71" cy="250.46" rx="19.22" ry="19.22"/>
			<path class="st11" d="M222.73,255.31c-2.68,8.3-11.58,12.85-19.88,10.17c-0.87-0.28-1.69-0.63-2.47-1.04
				c-1.32-0.69-2.51-1.55-3.56-2.55c-0.4-0.38-0.77-0.77-1.12-1.19c-2.59-3.04-3.98-7-3.76-11.08c0.07-1.34,0.31-2.69,0.75-4.02
				c2-6.19,7.46-10.3,13.54-10.87c2.07-0.2,4.22,0.02,6.33,0.7c1.83,0.59,3.47,1.48,4.9,2.6c0.43,0.34,0.84,0.7,1.23,1.07
				c1.06,1.03,1.96,2.19,2.69,3.45C223.54,246.3,224.16,250.89,222.73,255.31z"/>
			<path class="st13" d="M217.46,238.04l-21.76,22.68c-2.59-3.04-3.98-7-3.76-11.08l14.29-14.9c2.07-0.2,4.22,0.02,6.33,0.7
				C214.39,236.02,216.03,236.92,217.46,238.04z"/>
			<path class="st13" d="M221.38,242.56l-21,21.89c-1.32-0.69-2.51-1.55-3.56-2.55l21.87-22.79
				C219.75,240.14,220.65,241.3,221.38,242.56z"/>
			<path class="st1" d="M208.77,235.45c-1.87-0.2-2.21-0.01-3.04,1.64c0.21-1.84,0.02-2.18-1.64-3.04c1.87,0.2,2.21,0.01,3.04-1.64
				C206.93,234.27,207.11,234.62,208.77,235.45z"/>
			<path class="st1" d="M202.17,265.11c-1.57-0.17-1.86-0.01-2.57,1.39c0.18-1.55,0.02-1.84-1.39-2.57
				c1.57,0.17,1.86,0.01,2.57-1.39C200.61,264.12,200.77,264.4,202.17,265.11z"/>
		</g>
	</g>
	<g>
		<g>
			<path class="st2" d="M220.17,186.65c-11.63,0-21.1-9.46-21.1-21.1c0-11.63,9.46-21.1,21.1-21.1c11.63,0,21.1,9.46,21.1,21.1
				C241.27,177.18,231.8,186.65,220.17,186.65z M220.17,145.49c-11.06,0-20.06,9-20.06,20.06c0,11.06,9,20.06,20.06,20.06
				c11.06,0,20.05-9,20.05-20.06C240.22,154.49,231.23,145.49,220.17,145.49z"/>
		</g>
		<g>
			<g>
				<path class="st2" d="M220.17,177.52c-1.55,0-2.8-1.25-2.8-2.8v-38.71c0-1.55,1.25-2.8,2.8-2.8c1.55,0,2.8,1.25,2.8,2.8v38.71
					C222.97,176.27,221.71,177.52,220.17,177.52z"/>
			</g>
		</g>
	</g>
	<g>
		<g>
			<path class="st2" d="M220.17,186.65c-11.63,0-21.1-9.46-21.1-21.1c0-11.63,9.46-21.1,21.1-21.1c11.63,0,21.1,9.46,21.1,21.1
				C241.27,177.18,231.8,186.65,220.17,186.65z M220.17,145.49c-11.06,0-20.06,9-20.06,20.06c0,11.06,9,20.06,20.06,20.06
				c11.06,0,20.05-9,20.05-20.06C240.22,154.49,231.23,145.49,220.17,145.49z"/>
		</g>
		<g>
			<g>
				<path class="st2" d="M220.17,177.52c-1.55,0-2.8-1.25-2.8-2.8v-38.71c0-1.55,1.25-2.8,2.8-2.8c1.55,0,2.8,1.25,2.8,2.8v38.71
					C222.97,176.27,221.71,177.52,220.17,177.52z"/>
			</g>
			<g>
				<path class="st2" d="M220.36,179.82c-0.04,0-0.07,0-0.11,0c-0.86-0.03-1.65-0.46-2.16-1.15l-11.63-14.9
					c-0.91-1.25-0.63-3,0.62-3.91c1.25-0.91,3-0.63,3.91,0.62l9.54,12.03l8.94-12.2c1-1.18,2.77-1.31,3.95-0.31
					c1.18,1,1.31,2.77,0.31,3.95l-11.25,14.9C221.96,179.46,221.18,179.82,220.36,179.82z"/>
			</g>
		</g>
	</g>
	<g>
		<g>
			<path class="st2" d="M80.36,184.5c-11.63,0-21.1-9.46-21.1-21.1c0-11.63,9.46-21.1,21.1-21.1c11.63,0,21.1,9.46,21.1,21.1
				C101.45,175.04,91.99,184.5,80.36,184.5z M80.36,143.35c-11.06,0-20.06,9-20.06,20.06c0,11.06,9,20.06,20.06,20.06
				s20.06-9,20.06-20.06C100.41,152.35,91.42,143.35,80.36,143.35z"/>
		</g>
		<g>
			
				<ellipse transform="matrix(0.5847 -0.8112 0.8112 0.5847 -99.1884 133.0486)" class="st2" cx="80.36" cy="163.4" rx="15.27" ry="15.27"/>
			<path class="st12" d="M91.92,169.81c-2.24,4.08-6.58,6.84-11.56,6.84c-4.98,0-9.32-2.76-11.56-6.84
				c1.42-2.52,3.64-4.53,6.31-5.69c-1.14-1.26-1.84-2.93-1.84-4.77c0-3.92,3.17-7.09,7.09-7.09c3.92,0,7.09,3.18,7.09,7.09
				c0,1.84-0.7,3.51-1.84,4.77C88.28,165.28,90.5,167.29,91.92,169.81z"/>
		</g>
	</g>
	<g>
		<path class="st10" d="M242.18,199.58l-8.85-4.76c-0.25,0.46-0.5,0.93-0.75,1.39l0,0c-0.36,0.67,1.34,2.29,3.8,3.61
			c2.46,1.32,4.74,1.85,5.11,1.18C241.51,200.94,242.18,199.58,242.18,199.58z"/>
		<path class="st11" d="M242.19,199.68c-0.36,0.67-2.65,0.15-5.11-1.18s-4.16-2.94-3.8-3.61c0.36-0.67,2.65-0.15,5.11,1.18
			C240.85,197.39,242.55,199.01,242.19,199.68z"/>
	</g>
	<g>
		<path class="st10" d="M202.84,217.47l-8.96,1.45c0.08,0.47,0.15,0.94,0.23,1.41l0,0c0.11,0.68,2.22,0.91,4.7,0.5
			c2.49-0.4,4.41-1.28,4.3-1.96C203.11,218.81,202.84,217.47,202.84,217.47z"/>
		<path class="st11" d="M202.9,217.54c0.11,0.68-1.82,1.56-4.3,1.96c-2.49,0.4-4.59,0.18-4.7-0.5c-0.11-0.68,1.82-1.56,4.3-1.96
			C200.69,216.63,202.79,216.85,202.9,217.54z"/>
	</g>
	<g>
		<path class="st10" d="M213.54,201.75l-8.14-4.01c-0.21,0.43-0.42,0.85-0.63,1.28l0,0c-0.3,0.62,1.28,2.02,3.54,3.14
			c2.26,1.11,4.34,1.51,4.65,0.9C212.99,203,213.54,201.75,213.54,201.75z"/>
		<path class="st11" d="M213.56,201.84c-0.3,0.62-2.38,0.22-4.65-0.9c-2.26-1.11-3.85-2.52-3.54-3.14c0.3-0.62,2.38-0.22,4.65,0.9
			C212.28,199.82,213.86,201.22,213.56,201.84z"/>
	</g>
	<g>
		<path class="st10" d="M201.41,186.62l-9.38,1.52c0.08,0.49,0.16,0.98,0.24,1.48l0,0c0.12,0.71,2.32,0.95,4.92,0.52
			c2.6-0.42,4.62-1.34,4.51-2.06C201.69,188.03,201.41,186.62,201.41,186.62z"/>
		<path class="st11" d="M201.47,186.7c0.12,0.71-1.9,1.63-4.51,2.06c-2.6,0.42-4.81,0.19-4.92-0.52c-0.12-0.71,1.9-1.63,4.51-2.06
			S201.36,185.98,201.47,186.7z"/>
	</g>
	<g>
		<path class="st2" d="M102.28,218.12H57.44c-5.85,0-10.59-4.74-10.59-10.59v0c0-5.85,4.74-10.59,10.59-10.59h44.84
			c5.85,0,10.59,4.74,10.59,10.59v0C112.87,213.38,108.13,218.12,102.28,218.12z"/>
		<g>
			<path class="st10" d="M67.36,204.55v5.96c0,1.61-1.3,2.91-2.91,2.91H53.19c-0.59,0-1.14-0.18-1.6-0.48
				c-0.79-0.52-1.3-1.41-1.3-2.43v-5.96c0-1.61,1.3-2.91,2.91-2.91h11.27c0.66,0,1.26,0.22,1.75,0.58
				C66.91,202.76,67.36,203.6,67.36,204.55z"/>
			<path class="st12" d="M90.33,209.96h-18.7c-1.34,0-2.42-1.09-2.42-2.42l0,0c0-1.34,1.09-2.42,2.42-2.42h18.7
				c1.34,0,2.42,1.08,2.42,2.42l0,0C92.75,208.87,91.67,209.96,90.33,209.96z"/>
			<path class="st5" d="M107.02,209.96h-9.37c-1.34,0-2.42-1.09-2.42-2.42l0,0c0-1.34,1.09-2.42,2.42-2.42h9.37
				c1.34,0,2.42,1.08,2.42,2.42l0,0C109.45,208.87,108.36,209.96,107.02,209.96z"/>
		</g>
		<path class="st11" d="M66.2,202.23l-14.62,10.71c-0.79-0.52-1.3-1.41-1.3-2.43v-5.96c0-1.61,1.3-2.91,2.91-2.91h11.27
			C65.11,201.65,65.72,201.86,66.2,202.23z"/>
		<path class="st14" d="M63.58,210.07c0,1.08-0.88,1.96-1.95,1.96c-1.08,0-1.95-0.88-1.95-1.96c0-1.08,0.88-1.95,1.95-1.95
			C62.71,208.11,63.58,208.99,63.58,210.07z"/>
		<path class="st12" d="M65.9,210.07c0,1.08-0.88,1.96-1.95,1.96c-1.08,0-1.96-0.88-1.96-1.96c0-1.08,0.88-1.95,1.96-1.95
			C65.03,208.11,65.9,208.99,65.9,210.07z"/>
	</g>
	<g>
		<path class="st2" d="M102.28,243.78H57.44c-5.85,0-10.59-4.74-10.59-10.59v0c0-5.85,4.74-10.59,10.59-10.59h44.84
			c5.85,0,10.59,4.74,10.59,10.59v0C112.87,239.04,108.13,243.78,102.28,243.78z"/>
		<g>
			<path class="st15" d="M67.36,230.21v5.96c0,1.61-1.3,2.91-2.91,2.91H53.19c-0.59,0-1.14-0.18-1.6-0.48
				c-0.79-0.52-1.3-1.41-1.3-2.43v-5.96c0-1.61,1.3-2.91,2.91-2.91h11.27c0.66,0,1.26,0.22,1.75,0.58
				C66.91,228.42,67.36,229.26,67.36,230.21z"/>
			<path class="st12" d="M90.33,235.62h-18.7c-1.34,0-2.42-1.09-2.42-2.42l0,0c0-1.34,1.09-2.42,2.42-2.42h18.7
				c1.34,0,2.42,1.09,2.42,2.42l0,0C92.75,234.53,91.67,235.62,90.33,235.62z"/>
			<path class="st5" d="M107.02,235.62h-9.37c-1.34,0-2.42-1.09-2.42-2.42l0,0c0-1.34,1.09-2.42,2.42-2.42h9.37
				c1.34,0,2.42,1.09,2.42,2.42l0,0C109.45,234.53,108.36,235.62,107.02,235.62z"/>
		</g>
		<path class="st14" d="M66.2,227.89L51.59,238.6c-0.79-0.52-1.3-1.41-1.3-2.43v-5.96c0-1.61,1.3-2.91,2.91-2.91h11.27
			C65.11,227.31,65.72,227.52,66.2,227.89z"/>
		
			<ellipse transform="matrix(0.9996 -0.0294 0.0294 0.9996 -6.8977 1.912)" class="st16" cx="61.63" cy="235.73" rx="1.95" ry="1.95"/>
		<path class="st12" d="M65.9,235.73c0,1.08-0.88,1.95-1.95,1.95c-1.08,0-1.96-0.88-1.96-1.95c0-1.08,0.88-1.95,1.96-1.95
			C65.03,233.77,65.9,234.65,65.9,235.73z"/>
	</g>
	<g>
		<path class="st2" d="M102.28,269.44H57.44c-5.85,0-10.59-4.74-10.59-10.59v0c0-5.85,4.74-10.59,10.59-10.59h44.84
			c5.85,0,10.59,4.74,10.59,10.59v0C112.87,264.7,108.13,269.44,102.28,269.44z"/>
		<g>
			<path class="st10" d="M67.36,255.87v5.96c0,1.61-1.3,2.91-2.91,2.91H53.19c-0.59,0-1.14-0.18-1.6-0.48
				c-0.79-0.52-1.3-1.41-1.3-2.43v-5.96c0-1.61,1.3-2.91,2.91-2.91h11.27c0.66,0,1.26,0.22,1.75,0.58
				C66.91,254.08,67.36,254.92,67.36,255.87z"/>
			<path class="st12" d="M90.33,261.27h-18.7c-1.34,0-2.42-1.09-2.42-2.42l0,0c0-1.34,1.09-2.42,2.42-2.42h18.7
				c1.34,0,2.42,1.09,2.42,2.42l0,0C92.75,260.19,91.67,261.27,90.33,261.27z"/>
			<path class="st5" d="M107.02,261.27h-9.37c-1.34,0-2.42-1.09-2.42-2.42l0,0c0-1.34,1.09-2.42,2.42-2.42h9.37
				c1.34,0,2.42,1.09,2.42,2.42l0,0C109.45,260.19,108.36,261.27,107.02,261.27z"/>
		</g>
		<path class="st11" d="M66.2,253.55l-14.62,10.71c-0.79-0.52-1.3-1.41-1.3-2.43v-5.96c0-1.61,1.3-2.91,2.91-2.91h11.27
			C65.11,252.96,65.72,253.18,66.2,253.55z"/>
		<path class="st14" d="M63.58,261.39c0,1.08-0.88,1.96-1.95,1.96c-1.08,0-1.95-0.88-1.95-1.96c0-1.08,0.88-1.95,1.95-1.95
			C62.71,259.43,63.58,260.31,63.58,261.39z"/>
		<path class="st12" d="M65.9,261.39c0,1.08-0.88,1.96-1.95,1.96c-1.08,0-1.96-0.88-1.96-1.96c0-1.08,0.88-1.95,1.96-1.95
			C65.03,259.43,65.9,260.31,65.9,261.39z"/>
	</g>
</g>
</svg>
