<?xml version="1.0" encoding="utf-8"?>
<!-- Generator: Adobe Illustrator 24.2.3, SVG Export Plug-In . SVG Version: 6.00 Build 0)  -->
<svg version="1.1" id="Layer_1" xmlns="http://www.w3.org/2000/svg" xmlns:xlink="http://www.w3.org/1999/xlink" x="0px" y="0px"
	 viewBox="0 0 300 300" style="enable-background:new 0 0 300 300;" xml:space="preserve">
<style type="text/css">
	.st0{fill:#F66D75;}
	.st1{fill:#AC4492;}
	.st2{fill:#F794AC;}
	.st3{fill:url(#SVGID_1_);}
	.st4{fill:#F8E000;}
	.st5{fill:#0072C5;}
	.st6{fill:#646AA2;}
	.st7{fill:url(#SVGID_2_);}
	.st8{fill:url(#SVGID_3_);}
	.st9{fill:url(#SVGID_4_);}
	.st10{fill:#B9BCFC;}
	.st11{fill:#BF2604;}
	.st12{fill:#542360;}
	.st13{fill:#432C47;}
	.st14{fill:#30323E;}
	.st15{fill:#FD5E5A;}
	.st16{fill:#FC7575;}
	.st17{fill:url(#SVGID_5_);}
	.st18{fill:url(#SVGID_6_);}
	.st19{fill:url(#SVGID_7_);}
	.st20{opacity:0.57;fill:#262943;}
	.st21{fill:#38202E;}
	.st22{fill:#8C9FBF;}
	.st23{fill:#75B3BC;}
	.st24{fill:#58868D;}
	.st25{fill:url(#SVGID_8_);}
	.st26{fill:url(#SVGID_9_);}
	.st27{fill:#284758;}
	.st28{fill:#3B5A5E;}
	.st29{fill:url(#SVGID_10_);}
	.st30{fill:#E9E9B6;}
	.st31{fill:#381A3F;}
	.st32{fill:#653870;}
	.st33{fill:#172866;}
	.st34{fill:#2F499F;}
	.st35{fill:#FFFFFF;}
	.st36{fill:url(#SVGID_11_);}
	.st37{fill:#ACD1D7;}
	.st38{fill:#F7931E;}
	.st39{fill:#C77618;}
	.st40{fill:#58307D;}
</style>
<g>
	<g>
		<g>
			<path class="st0" d="M102.08,208.33c1.04,1.08,2.92,1.77,5.05,1.69c2.13-0.08,3.96-0.9,4.92-2.05c-1.04-1.08-2.92-1.77-5.05-1.69
				C104.87,206.35,103.04,207.17,102.08,208.33z"/>
			<g>
				<path class="st1" d="M79.04,252.73c1.42-9.7,2.07-19.51,1.91-29.29c-0.04-4.89-0.31-9.78-0.7-14.65
					c-0.37-4.87-0.97-9.73-1.64-14.56c-1.39-9.67-3.35-19.25-5.77-28.71c-1.22-4.73-2.57-9.42-4.04-14.07
					c-1.48-4.65-3.06-9.26-4.88-13.8l-0.57,0.24c1.75,4.52,3.28,9.16,4.69,13.81c1.41,4.65,2.7,9.35,3.85,14.07
					c2.3,9.45,4.13,19.01,5.39,28.65c0.61,4.82,1.15,9.65,1.45,14.5c0.33,4.84,0.53,9.7,0.51,14.55c0.04,9.7-0.73,19.4-2.25,28.95
					L79.04,252.73z"/>
				<path class="st1" d="M61.06,118.2c2.76,1.67,4.97,5.2,5.58,9.51c0.61,4.32-0.52,8.32-2.71,10.69c-2.76-1.67-4.97-5.2-5.58-9.51
					C57.74,124.57,58.87,120.56,61.06,118.2z"/>
				<path class="st1" d="M77.35,133.08c0.34,2.5-0.73,5.57-3.06,8.05c-2.33,2.49-5.32,3.75-7.84,3.58c-0.34-2.5,0.73-5.57,3.06-8.05
					C71.84,134.17,74.83,132.9,77.35,133.08z"/>
				<path class="st1" d="M65.86,144.77c-2.12,1.37-5.35,1.71-8.59,0.66c-3.24-1.05-5.66-3.22-6.58-5.57
					c2.12-1.37,5.35-1.71,8.59-0.66C62.52,140.26,64.95,142.42,65.86,144.77z"/>
				<path class="st1" d="M69.14,155.29c-2.12,1.37-5.35,1.71-8.59,0.66c-3.24-1.05-5.66-3.22-6.58-5.57
					c2.12-1.37,5.35-1.71,8.59-0.66C65.81,150.78,68.23,152.94,69.14,155.29z"/>
				<path class="st1" d="M72.45,166.27c-2.12,1.37-5.35,1.71-8.59,0.66c-3.24-1.05-5.66-3.22-6.58-5.57
					c2.12-1.37,5.35-1.71,8.59-0.66C69.12,161.75,71.54,163.92,72.45,166.27z"/>
				<path class="st1" d="M74.67,176.49c-2.12,1.37-5.35,1.71-8.59,0.66c-3.24-1.05-5.66-3.22-6.58-5.57
					c2.12-1.37,5.35-1.71,8.59-0.66C71.34,171.97,73.76,174.14,74.67,176.49z"/>
				<path class="st1" d="M73.75,174.42c2.12,1.37,5.35,1.71,8.59,0.66c3.24-1.05,5.66-3.22,6.58-5.57
					c-2.12-1.37-5.35-1.71-8.59-0.66C77.09,169.9,74.66,172.07,73.75,174.42z"/>
				<path class="st1" d="M80.32,142.8c0.34,2.5-0.73,5.57-3.06,8.05c-2.33,2.49-5.32,3.75-7.84,3.58c-0.34-2.5,0.73-5.57,3.06-8.05
					C74.81,143.89,77.8,142.63,80.32,142.8z"/>
				<path class="st1" d="M83.72,153.85c0.34,2.5-0.73,5.57-3.06,8.05c-2.33,2.49-5.32,3.75-7.84,3.58c-0.34-2.5,0.73-5.57,3.06-8.05
					C78.21,154.94,81.21,153.67,83.72,153.85z"/>
				<g>
					<path class="st1" d="M26.59,185.02c3.01,1.66,5.83,3.61,8.57,5.68c2.73,2.07,5.34,4.3,7.84,6.66c2.49,2.35,4.87,4.84,7.11,7.43
						c2.24,2.61,4.33,5.33,6.29,8.15c3.92,5.64,7.19,11.74,9.82,18.1c2.57,6.39,4.48,13.04,5.69,19.83l-1.46,0.24
						c-1.09-6.7-2.86-13.3-5.31-19.64c-2.5-6.32-5.64-12.4-9.44-18.06c-1.9-2.83-3.94-5.56-6.12-8.19c-2.19-2.61-4.51-5.12-6.96-7.5
						c-2.45-2.38-5.01-4.64-7.7-6.75c-2.69-2.1-5.48-4.09-8.44-5.79L26.59,185.02z"/>
					<path class="st1" d="M15.49,177.27c0.16,2.29,1.68,4.82,4.21,6.6c2.53,1.78,5.43,2.36,7.63,1.74c-0.16-2.29-1.68-4.82-4.21-6.6
						C20.59,177.23,17.69,176.65,15.49,177.27z"/>
					<path class="st1" d="M32.53,175.34c-1.69,1.55-2.73,4.31-2.55,7.4c0.18,3.09,1.53,5.72,3.38,7.06c1.69-1.55,2.73-4.31,2.55-7.4
						C35.74,179.31,34.39,176.68,32.53,175.34z"/>
					<path class="st1" d="M42.6,180.39c-2.04,1.04-3.78,3.43-4.43,6.45c-0.65,3.03-0.05,5.92,1.38,7.71
						c2.04-1.04,3.78-3.43,4.43-6.45C44.63,185.07,44.03,182.17,42.6,180.39z"/>
					<path class="st1" d="M49.39,186.63c-2.04,1.04-3.78,3.43-4.43,6.45c-0.65,3.03-0.05,5.92,1.38,7.71
						c2.04-1.04,3.78-3.43,4.43-6.45C51.42,191.31,50.82,188.42,49.39,186.63z"/>
					<path class="st1" d="M57.2,193.05c-2.24,0.48-4.53,2.35-5.93,5.11c-1.4,2.76-1.56,5.71-0.64,7.8c2.24-0.48,4.53-2.35,5.93-5.11
						C57.97,198.09,58.13,195.15,57.2,193.05z"/>
					<path class="st1" d="M62.7,201.09c-2.04-0.09-4.44,1.01-6.28,3.08c-1.84,2.07-2.64,4.58-2.31,6.6
						c2.04,0.09,4.44-1.01,6.28-3.08C62.23,205.62,63.03,203.11,62.7,201.09z"/>
					<path class="st1" d="M66.7,206.14c-2.04-0.09-4.44,1.01-6.28,3.08c-1.83,2.07-2.64,4.58-2.31,6.6
						c2.04,0.09,4.44-1.01,6.28-3.08C66.22,210.67,67.02,208.16,66.7,206.14z"/>
					<path class="st1" d="M68.98,213.59c-1.75-0.07-3.81,0.86-5.38,2.64c-1.57,1.77-2.26,3.93-1.98,5.66
						c1.75,0.07,3.81-0.86,5.38-2.64C68.57,217.48,69.26,215.32,68.98,213.59z"/>
					<path class="st1" d="M71.19,221.36c-1.27-0.72-3.17-0.81-5.03-0.09c-1.86,0.72-3.2,2.05-3.67,3.44
						c1.28,0.72,3.17,0.81,5.03,0.09C69.38,224.09,70.73,222.75,71.19,221.36z"/>
					<path class="st1" d="M72.08,227.77c-0.78-0.87-2.2-1.42-3.8-1.35c-1.59,0.07-2.96,0.74-3.67,1.68c0.78,0.87,2.2,1.42,3.8,1.35
						C70.01,229.37,71.38,228.71,72.08,227.77z"/>
					<path class="st1" d="M19.7,194.29c1.95,1.21,4.89,1.45,7.82,0.44c2.93-1.01,5.09-3.02,5.87-5.18
						c-1.95-1.21-4.89-1.45-7.82-0.44C22.64,190.12,20.48,192.14,19.7,194.29z"/>
					<path class="st1" d="M25.87,199.37c1.95,1.21,4.89,1.45,7.82,0.44c2.92-1.01,5.09-3.02,5.87-5.18
						c-1.95-1.21-4.89-1.45-7.82-0.44C28.82,195.21,26.66,197.22,25.87,199.37z"/>
					<path class="st1" d="M32.46,205.64c1.95,1.21,4.89,1.45,7.82,0.44c2.92-1.01,5.09-3.03,5.87-5.18
						c-1.95-1.21-4.89-1.45-7.82-0.44C35.41,201.48,33.25,203.49,32.46,205.64z"/>
					<path class="st1" d="M39.9,209.81c1.58,0.98,3.98,1.18,6.36,0.36c2.38-0.82,4.14-2.46,4.78-4.21
						c-1.58-0.98-3.98-1.18-6.36-0.36C42.29,206.43,40.53,208.06,39.9,209.81z"/>
					<path class="st1" d="M45.46,213.8c1.3,0.84,3.24,1.03,5.16,0.36c1.92-0.66,3.33-2.02,3.83-3.48c-1.3-0.84-3.24-1.03-5.16-0.36
						C47.37,210.99,45.96,212.34,45.46,213.8z"/>
					<path class="st1" d="M48.79,218.92c1.3,0.84,3.24,1.03,5.16,0.36c1.92-0.66,3.33-2.02,3.83-3.48c-1.3-0.84-3.24-1.03-5.16-0.36
						C50.7,216.11,49.29,217.46,48.79,218.92z"/>
					<path class="st1" d="M52.43,223.55c1.05,0.89,2.81,1.33,4.7,1.02c1.89-0.31,3.42-1.27,4.13-2.45
						c-1.05-0.89-2.81-1.33-4.69-1.02C54.68,221.41,53.15,222.38,52.43,223.55z"/>
					<path class="st1" d="M55.96,229.39c1.18,0.34,2.75,0.03,4.14-0.92c1.39-0.95,2.25-2.3,2.36-3.53
						c-1.18-0.34-2.75-0.03-4.14,0.92C56.93,226.82,56.07,228.17,55.96,229.39z"/>
					<path class="st1" d="M59.88,232.88c0.94,0.08,2.07-0.37,2.98-1.28c0.91-0.91,1.36-2.05,1.27-2.99
						c-0.94-0.08-2.07,0.37-2.98,1.28C60.24,230.8,59.79,231.94,59.88,232.88z"/>
					<path class="st1" d="M62.48,233.79c0.62,0.09,1.34-0.15,1.9-0.71c0.56-0.56,0.8-1.28,0.71-1.9c-0.62-0.09-1.34,0.15-1.9,0.71
						C62.63,232.45,62.39,233.18,62.48,233.79z"/>
					<path class="st1" d="M63.32,235.51c0.62,0.09,1.34-0.15,1.9-0.71c0.56-0.56,0.8-1.28,0.71-1.9c-0.61-0.09-1.34,0.15-1.9,0.71
						C63.47,234.17,63.23,234.9,63.32,235.51z"/>
				</g>
				<g>
					<path class="st0" d="M110.9,155.1c-3.03,3.32-5.69,6.92-8.21,10.62c-2.51,3.71-4.8,7.57-6.9,11.53
						c-2.1,3.96-3.99,8.03-5.68,12.19c-1.67,4.16-3.12,8.42-4.36,12.73c-2.48,8.63-3.97,17.55-4.55,26.52
						c-0.5,8.98-0.06,18.02,1.29,26.93l1.9-0.31c-1.47-8.75-2.04-17.66-1.69-26.54c0.44-8.87,1.77-17.72,4.1-26.31
						c1.16-4.3,2.53-8.54,4.13-12.7c1.61-4.15,3.43-8.23,5.46-12.2c2.03-3.97,4.25-7.85,6.69-11.58c2.45-3.72,5.06-7.37,8.01-10.7
						L110.9,155.1z"/>
					<path class="st0" d="M121.38,140.85c0.76,2.9-0.06,6.67-2.44,9.94c-2.38,3.27-5.73,5.2-8.72,5.36
						c-0.76-2.9,0.06-6.67,2.44-9.93C115.05,142.94,118.39,141.01,121.38,140.85z"/>
					<path class="st0" d="M99.47,145.62c2.74,1.2,5.19,4.19,6.27,8.09c1.08,3.9,0.51,7.72-1.22,10.16c-2.74-1.2-5.19-4.19-6.27-8.09
						C97.17,151.87,97.74,148.06,99.47,145.62z"/>
					<path class="st0" d="M89.14,156.09c2.96,0.43,6.12,2.65,8.19,6.13c2.08,3.47,2.55,7.3,1.53,10.12
						c-2.96-0.43-6.12-2.65-8.19-6.13C88.59,162.74,88.12,158.91,89.14,156.09z"/>
					<path class="st0" d="M83.36,166.67c2.96,0.43,6.12,2.65,8.19,6.13c2.08,3.47,2.55,7.3,1.53,10.12
						c-2.96-0.43-6.12-2.65-8.19-6.13C82.81,173.32,82.34,169.49,83.36,166.67z"/>
					<path class="st0" d="M76.39,177.9c2.97-0.34,6.59,1,9.49,3.83c2.9,2.82,4.33,6.41,4.07,9.39c-2.97,0.34-6.59-1-9.49-3.83
						C77.56,184.46,76.12,180.88,76.39,177.9z"/>
					<path class="st0" d="M72.96,190.15c2.49-0.97,5.92-0.62,9.06,1.17c3.14,1.79,5.19,4.56,5.63,7.2
						c-2.49,0.97-5.92,0.62-9.06-1.17C75.44,195.56,73.4,192.79,72.96,190.15z"/>
					<path class="st0" d="M70.14,198.08c2.49-0.97,5.92-0.62,9.06,1.17c3.14,1.79,5.19,4.56,5.63,7.2
						c-2.49,0.97-5.92,0.62-9.06-1.17C72.63,203.49,70.58,200.72,70.14,198.08z"/>
					<path class="st0" d="M70.44,208.26c2.14-0.83,5.08-0.53,7.77,1c2.69,1.53,4.45,3.91,4.82,6.17c-2.14,0.83-5.08,0.53-7.77-1
						C72.58,212.9,70.82,210.52,70.44,208.26z"/>
					<path class="st0" d="M70.97,218.81c1.28-1.43,3.59-2.33,6.18-2.22c2.6,0.11,4.83,1.19,5.98,2.72
						c-1.28,1.43-3.58,2.33-6.18,2.22C74.35,221.42,72.12,220.33,70.97,218.81z"/>
					<path class="st0" d="M72.55,227.11c0.6-1.41,2.13-2.68,4.13-3.27c2-0.58,3.97-0.33,5.24,0.54c-0.6,1.41-2.13,2.68-4.13,3.27
						C75.79,228.23,73.82,227.97,72.55,227.11z"/>
					<path class="st0" d="M123.32,163.68c-1.9,2.31-5.44,3.85-9.49,3.83c-4.05-0.02-7.56-1.61-9.44-3.94
						c1.9-2.31,5.44-3.85,9.49-3.83C117.92,159.76,121.44,161.35,123.32,163.68z"/>
					<path class="st0" d="M117.81,172.57c-1.9,2.31-5.44,3.85-9.49,3.83c-4.05-0.02-7.57-1.61-9.44-3.94
						c1.9-2.31,5.44-3.85,9.49-3.83C112.41,168.65,115.93,170.23,117.81,172.57z"/>
					<path class="st0" d="M112.29,183.09c-1.9,2.31-5.44,3.85-9.49,3.83c-4.05-0.02-7.56-1.61-9.44-3.94
						c1.9-2.31,5.44-3.85,9.49-3.83C106.89,179.17,110.41,180.76,112.29,183.09z"/>
					<path class="st0" d="M104.84,191.37c-1.55,1.88-4.43,3.13-7.72,3.11c-3.29-0.02-6.15-1.31-7.68-3.2
						c1.55-1.88,4.43-3.13,7.72-3.11C100.46,188.19,103.32,189.48,104.84,191.37z"/>
					<path class="st0" d="M99.63,198.64c-1.25,1.58-3.58,2.63-6.23,2.62c-2.66-0.02-4.97-1.1-6.2-2.69
						c1.25-1.58,3.58-2.63,6.23-2.62C96.08,195.96,98.4,197.05,99.63,198.64z"/>
					<path class="st0" d="M97.66,206.38c-1.25,1.58-3.58,2.63-6.23,2.62c-2.66-0.02-4.97-1.1-6.2-2.69
						c1.25-1.58,3.58-2.63,6.23-2.62C94.12,203.7,96.43,204.78,97.66,206.38z"/>
					<path class="st0" d="M95.1,213.64c-0.92,1.55-2.92,2.82-5.38,3.23c-2.46,0.41-4.76-0.14-6.14-1.3
						c0.92-1.55,2.92-2.82,5.38-3.23C91.42,211.93,93.72,212.48,95.1,213.64z"/>
					<path class="st0" d="M93.19,222.35c-1.32,0.91-3.39,1.2-5.51,0.61c-2.12-0.59-3.75-1.91-4.4-3.37c1.32-0.91,3.39-1.2,5.51-0.61
						C90.91,219.57,92.53,220.88,93.19,222.35z"/>
					<path class="st0" d="M89.8,228.31c-1.12,0.5-2.72,0.42-4.23-0.33c-1.51-0.75-2.54-1.97-2.83-3.16c1.12-0.5,2.72-0.42,4.23,0.33
						C88.48,225.89,89.51,227.11,89.8,228.31z"/>
					<path class="st0" d="M86.97,230.53c-0.72,0.38-1.72,0.37-2.64-0.08c-0.92-0.46-1.53-1.25-1.67-2.05
						c0.72-0.38,1.72-0.37,2.64,0.08C86.22,228.94,86.82,229.73,86.97,230.53z"/>
					<path class="st0" d="M86.65,233.02c-0.72,0.38-1.72,0.37-2.64-0.08c-0.92-0.46-1.53-1.25-1.67-2.05
						c0.72-0.38,1.72-0.37,2.64,0.08C85.9,231.42,86.51,232.21,86.65,233.02z"/>
				</g>
				<g>
					<path class="st2" d="M46.76,145.25c3.08,3.73,5.77,7.75,8.29,11.87c2.51,4.13,4.77,8.4,6.83,12.78
						c2.05,4.38,3.88,8.86,5.48,13.42c1.58,4.57,2.92,9.23,4.03,13.94c2.22,9.43,3.35,19.1,3.51,28.8c0.07,9.7-0.88,19.41-2.8,28.93
						l-2.03-0.43c2.04-9.35,3.12-18.91,3.21-28.49c-0.01-9.58-0.98-19.17-3.04-28.55c-1.03-4.69-2.28-9.33-3.78-13.89
						c-1.52-4.56-3.26-9.04-5.24-13.42c-1.98-4.38-4.16-8.67-6.6-12.82c-2.44-4.14-5.06-8.2-8.07-11.95L46.76,145.25z"/>
					<path class="st2" d="M36.22,129.36c-0.97,3.08-0.29,7.18,2.11,10.83c2.4,3.64,5.89,5.9,9.11,6.22
						c0.97-3.08,0.29-7.18-2.11-10.83C42.92,131.94,39.43,129.69,36.22,129.36z"/>
					<path class="st2" d="M59.56,135.64c-3.01,1.15-5.81,4.24-7.17,8.38c-1.37,4.14-0.96,8.28,0.78,11
						c3.01-1.15,5.81-4.24,7.17-8.38C61.7,142.5,61.29,138.36,59.56,135.64z"/>
					<path class="st2" d="M70.13,147.46c-3.21,0.31-6.73,2.54-9.14,6.17c-2.42,3.63-3.13,7.73-2.18,10.81
						c3.21-0.31,6.73-2.54,9.14-6.17C70.37,154.65,71.08,150.54,70.13,147.46z"/>
					<path class="st2" d="M75.8,159.16c-3.21,0.31-6.72,2.54-9.14,6.17c-2.42,3.63-3.13,7.73-2.18,10.81
						c3.21-0.31,6.73-2.54,9.14-6.17C76.04,166.34,76.75,162.24,75.8,159.16z"/>
					<path class="st2" d="M82.72,171.61c-3.18-0.52-7.15,0.73-10.42,3.62c-3.27,2.89-5,6.67-4.87,9.9
						c3.18,0.52,7.15-0.73,10.42-3.62C81.11,178.62,82.85,174.83,82.72,171.61z"/>
					<path class="st2" d="M85.77,184.99c-2.63-1.17-6.35-0.98-9.82,0.78c-3.47,1.76-5.82,4.64-6.44,7.46
						c2.63,1.17,6.34,0.98,9.82-0.78C82.81,190.68,85.16,187.8,85.77,184.99z"/>
					<path class="st2" d="M88.39,193.67c-2.63-1.17-6.35-0.98-9.82,0.78c-3.47,1.76-5.82,4.64-6.44,7.46
						c2.63,1.17,6.34,0.98,9.82-0.78C85.43,199.37,87.78,196.49,88.39,193.67z"/>
					<path class="st2" d="M87.53,204.62c-2.26-1-5.44-0.84-8.42,0.67c-2.98,1.51-4.99,3.98-5.52,6.39c2.26,1,5.44,0.84,8.42-0.67
						C84.99,209.5,87,207.03,87.53,204.62z"/>
					<path class="st2" d="M86.41,215.94c-1.3-1.6-3.74-2.7-6.54-2.72c-2.81-0.02-5.26,1.03-6.59,2.61c1.3,1.6,3.74,2.7,6.54,2.72
						C82.63,218.58,85.08,217.53,86.41,215.94z"/>
					<path class="st2" d="M84.27,224.8c-0.58-1.55-2.15-3-4.27-3.74c-2.13-0.73-4.26-0.56-5.67,0.3c0.58,1.55,2.15,3,4.27,3.74
						C80.72,225.84,82.86,225.66,84.27,224.8z"/>
					<path class="st2" d="M32.93,153.84c1.93,2.59,5.66,4.43,10.01,4.62c4.36,0.19,8.23-1.33,10.37-3.75
						c-1.93-2.59-5.66-4.43-10.01-4.62C38.95,149.9,35.07,151.42,32.93,153.84z"/>
					<path class="st2" d="M38.4,163.69c1.93,2.59,5.66,4.43,10.01,4.62c4.36,0.19,8.23-1.33,10.37-3.75
						c-1.93-2.59-5.66-4.43-10.01-4.62C44.41,159.76,40.54,161.28,38.4,163.69z"/>
					<path class="st2" d="M43.79,175.32c1.93,2.59,5.66,4.43,10.01,4.62c4.36,0.19,8.23-1.33,10.37-3.75
						c-1.93-2.59-5.66-4.43-10.01-4.62C49.8,171.38,45.93,172.9,43.79,175.32z"/>
					<path class="st2" d="M51.37,184.63c1.57,2.1,4.6,3.61,8.15,3.76c3.54,0.15,6.69-1.08,8.44-3.05c-1.57-2.1-4.6-3.61-8.14-3.76
						C56.26,181.43,53.11,182.66,51.37,184.63z"/>
					<path class="st2" d="M56.61,192.73c1.26,1.77,3.71,3.02,6.58,3.15c2.86,0.12,5.41-0.92,6.82-2.57
						c-1.26-1.77-3.71-3.02-6.57-3.15C60.56,190.03,58.02,191.07,56.61,192.73z"/>
					<path class="st2" d="M58.31,201.16c1.26,1.77,3.71,3.02,6.57,3.15c2.86,0.12,5.41-0.92,6.82-2.57
						c-1.26-1.77-3.71-3.02-6.57-3.15C62.27,198.46,59.73,199.51,58.31,201.16z"/>
					<path class="st2" d="M60.69,209.12c0.91,1.71,3,3.19,5.63,3.76c2.63,0.57,5.14,0.1,6.68-1.07c-0.91-1.71-3-3.19-5.63-3.76
						C64.75,207.47,62.24,207.94,60.69,209.12z"/>
					<path class="st2" d="M62.29,218.59c1.38,1.05,3.59,1.47,5.9,0.94c2.31-0.52,4.13-1.86,4.92-3.4c-1.38-1.05-3.59-1.47-5.9-0.94
						C64.9,215.72,63.08,217.05,62.29,218.59z"/>
					<path class="st2" d="M65.63,225.19c1.18,0.6,2.91,0.59,4.57-0.13c1.66-0.72,2.84-1.98,3.21-3.25c-1.18-0.6-2.91-0.59-4.57,0.13
						C67.18,222.66,66,223.91,65.63,225.19z"/>
					<path class="st2" d="M68.57,227.73c0.76,0.44,1.83,0.49,2.85,0.05c1.02-0.44,1.72-1.26,1.91-2.12
						c-0.76-0.44-1.83-0.49-2.85-0.05C69.46,226.05,68.76,226.87,68.57,227.73z"/>
					<path class="st2" d="M68.78,230.42c0.76,0.44,1.84,0.49,2.85,0.05c1.02-0.44,1.72-1.26,1.91-2.12
						c-0.76-0.44-1.83-0.49-2.85-0.05C69.67,228.74,68.97,229.57,68.78,230.42z"/>
				</g>
				<g>
					<path class="st0" d="M91.58,222.99c4.56-6.68,9.36-13.2,14.48-19.46l-0.08-0.07c-5.25,6.16-10.19,12.59-14.89,19.19
						c-4.69,6.61-9.11,13.41-13.09,20.49c-0.96,1.72-1.89,3.45-2.8,5.2c0.35,0.2,0.71,0.4,1.06,0.6c0.87-1.77,1.77-3.53,2.7-5.27
						C82.77,236.54,87.04,229.67,91.58,222.99z"/>
					<path class="st0" d="M111.13,195.01c-1.68,0.15-3.42,1.27-4.52,3.1c-1.1,1.83-1.27,3.89-0.62,5.45
						c1.68-0.15,3.42-1.27,4.52-3.1C111.61,198.63,111.78,196.57,111.13,195.01z"/>
					<path class="st0" d="M98.6,198.91c-0.69,1.33-0.72,3.34,0.05,5.33c0.77,1.99,2.14,3.45,3.55,3.98
						c0.69-1.33,0.72-3.34-0.05-5.33C101.38,200.9,100,199.44,98.6,198.91z"/>
					<path class="st0" d="M98.17,213.6c1.14,0.97,3.09,1.47,5.2,1.18c2.11-0.29,3.85-1.29,4.69-2.54c-1.14-0.97-3.09-1.47-5.2-1.18
						C100.75,211.35,99.01,212.35,98.17,213.6z"/>
					<path class="st0" d="M93.13,220.11c1.14,0.97,3.09,1.47,5.2,1.18c2.11-0.29,3.85-1.29,4.69-2.54c-1.14-0.97-3.09-1.47-5.2-1.18
						C95.71,217.86,93.97,218.86,93.13,220.11z"/>
					<path class="st0" d="M89.71,225.29c1.14,0.97,3.09,1.47,5.2,1.18c2.11-0.29,3.85-1.29,4.69-2.54c-1.14-0.97-3.09-1.47-5.2-1.18
						C92.28,223.04,90.54,224.05,89.71,225.29z"/>
					<path class="st0" d="M85.91,231.02c1.14,0.97,3.09,1.47,5.2,1.18c2.11-0.29,3.85-1.29,4.69-2.54c-1.14-0.97-3.09-1.47-5.2-1.18
						C88.48,228.77,86.75,229.77,85.91,231.02z"/>
					<path class="st0" d="M94.21,204.49c-0.69,1.33-0.72,3.34,0.05,5.33c0.77,1.99,2.14,3.45,3.55,3.98
						c0.69-1.33,0.72-3.34-0.05-5.33C96.99,206.48,95.61,205.02,94.21,204.49z"/>
					<path class="st0" d="M90.01,210.24c-0.69,1.33-0.72,3.34,0.05,5.33s2.14,3.45,3.55,3.98c0.69-1.33,0.72-3.34-0.05-5.33
						C92.79,212.23,91.42,210.77,90.01,210.24z"/>
					<path class="st0" d="M86.02,216.04c-0.69,1.33-0.72,3.34,0.05,5.33c0.77,1.99,2.14,3.45,3.55,3.98
						c0.69-1.33,0.72-3.34-0.05-5.33C88.8,218.02,87.43,216.56,86.02,216.04z"/>
					<path class="st0" d="M82.15,221.71c-0.69,1.33-0.72,3.34,0.05,5.33s2.14,3.45,3.55,3.98c0.69-1.33,0.72-3.34-0.05-5.33
						C84.93,223.7,83.56,222.24,82.15,221.71z"/>
				</g>
			</g>
		</g>
		<linearGradient id="SVGID_1_" gradientUnits="userSpaceOnUse" x1="80.3938" y1="294.8502" x2="73.6746" y2="242.5899">
			<stop  offset="0" style="stop-color:#F20000"/>
			<stop  offset="1" style="stop-color:#FF9100"/>
		</linearGradient>
		<path class="st3" d="M63.63,247.67h24.94c4.14,3.33,6.77,8.28,6.77,13.81c0,5.91-3,11.15-7.63,14.47H64.49
			c-4.64-3.31-7.63-8.56-7.63-14.47C56.86,255.95,59.49,250.99,63.63,247.67z"/>
		<path class="st4" d="M65.98,250.77c-2.46-0.45-5.75,2.46-6.6,8.32c-1.16,11.57,6.21,14.96,10.22,12.03
			c-3.5-1.38-7.33-3.91-7.44-9.6c-0.19-2.98,0.93-5.85,0.95-5.94c0.16-0.35,0.47-1.22,1.06-2.22
			C64.68,252.38,65.31,251.56,65.98,250.77z"/>
		
			<rect x="62.47" y="245.97" transform="matrix(-1 -1.224647e-16 1.224647e-16 -1 152.4886 494.6606)" class="st5" width="27.55" height="2.72"/>
	</g>
	<path class="st6" d="M262.77,278.39c0,4.67-52.63,8.46-117.56,8.46s-117.56-3.79-117.56-8.46s52.66-5.22,117.59-5.22
		C210.16,273.18,262.77,273.72,262.77,278.39z"/>
	<g>
		<linearGradient id="SVGID_2_" gradientUnits="userSpaceOnUse" x1="130.7182" y1="13.1265" x2="141.813" y2="139.3291">
			<stop  offset="0" style="stop-color:#F59BF3"/>
			<stop  offset="1" style="stop-color:#FFAF90"/>
		</linearGradient>
		<path class="st7" d="M208.38,161.13H66.07c-10.06,0-18.22-8.16-18.22-18.22V31.36c0-10.06,8.16-18.22,18.22-18.22h142.32
			c10.06,0,18.22,8.16,18.22,18.22v111.55C226.6,152.98,218.44,161.13,208.38,161.13z"/>
		<linearGradient id="SVGID_3_" gradientUnits="userSpaceOnUse" x1="136.3693" y1="149.5784" x2="138.2466" y2="12.5281">
			<stop  offset="0" style="stop-color:#8648D6"/>
			<stop  offset="1" style="stop-color:#9A5CEA"/>
		</linearGradient>
		<path class="st8" d="M204.5,157.1H69.95c-9.51,0-17.22-7.71-17.22-17.22V34.4c0-9.51,7.71-17.22,17.22-17.22H204.5
			c9.51,0,17.22,7.71,17.22,17.22v105.47C221.73,149.39,214.02,157.1,204.5,157.1z"/>
		<linearGradient id="SVGID_4_" gradientUnits="userSpaceOnUse" x1="134.4912" y1="142.7219" x2="140.4225" y2="22.12">
			<stop  offset="0" style="stop-color:#FFAA8D"/>
			<stop  offset="1" style="stop-color:#FFFFD9"/>
		</linearGradient>
		<path class="st9" d="M197.81,150.13H76.64c-8.57,0-15.51-6.94-15.51-15.51V39.65c0-8.57,6.94-15.51,15.51-15.51h121.17
			c8.57,0,15.51,6.94,15.51,15.51v94.97C213.32,143.19,206.37,150.13,197.81,150.13z"/>
		<rect x="77.67" y="45.71" class="st10" width="3.34" height="90.63"/>
		<rect x="79.34" y="133.78" class="st10" width="127.82" height="2.56"/>
		
			<rect x="193.18" y="65.53" transform="matrix(-1 -1.224647e-16 1.224647e-16 -1 393.8223 201.5927)" class="st10" width="7.46" height="70.54"/>
		
			<rect x="180.67" y="76.9" transform="matrix(-1 -1.224647e-16 1.224647e-16 -1 368.7971 212.9691)" class="st10" width="7.46" height="59.16"/>
		
			<rect x="168.92" y="89.2" transform="matrix(-1 -1.224647e-16 1.224647e-16 -1 345.3081 225.2623)" class="st10" width="7.46" height="46.87"/>
		
			<rect x="157.18" y="89.2" transform="matrix(-1 -1.224647e-16 1.224647e-16 -1 321.82 225.2623)" class="st10" width="7.46" height="46.87"/>
		
			<rect x="145.43" y="91.93" transform="matrix(-1 -1.224647e-16 1.224647e-16 -1 298.3318 227.9926)" class="st10" width="7.46" height="44.14"/>
		
			<rect x="133.69" y="103.91" transform="matrix(-1 -1.224647e-16 1.224647e-16 -1 274.8429 239.9702)" class="st10" width="7.46" height="32.16"/>
		
			<rect x="121.95" y="114" transform="matrix(-1 -1.224647e-16 1.224647e-16 -1 251.3548 250.061)" class="st10" width="7.46" height="22.07"/>
		
			<rect x="110.2" y="117.52" transform="matrix(-1 -1.224647e-16 1.224647e-16 -1 227.8661 253.5803)" class="st10" width="7.46" height="18.55"/>
		
			<rect x="98.46" y="117.52" transform="matrix(-1 -1.224647e-16 1.224647e-16 -1 204.3776 253.5803)" class="st10" width="7.46" height="18.55"/>
		
			<rect x="86.71" y="127.48" transform="matrix(-1 -1.224647e-16 1.224647e-16 -1 180.889 263.5453)" class="st10" width="7.46" height="8.58"/>
		<polygon class="st11" points="188.19,50.15 186.58,43.8 178.51,57.39 157.49,58.62 131.5,82.04 112.99,82.04 84.52,111.3 
			81.75,108.6 111.36,78.17 130.01,78.17 155.91,54.84 176.23,53.65 183.25,41.83 176.91,43.45 179.75,38.66 188.74,36.36 
			191.04,45.36 		"/>
		<rect x="76.3" y="29.83" class="st10" width="80.28" height="3.57"/>
	</g>
	
		<rect x="136.75" y="156.95" transform="matrix(1 5.527754e-03 -5.527754e-03 1 1.1362 -0.7643)" class="st12" width="4.17" height="96.41"/>
	<polygon class="st12" points="106.76,277.47 137.67,253.77 137.54,277.64 139.74,277.65 139.87,254.07 171.66,277.83 
		175.05,277.85 140.4,251.94 139.68,252.66 137.68,252.65 137.68,252.85 136.74,251.93 103.46,277.45 	"/>
	<path class="st12" d="M142.28,254.83l-7.03-0.04l0.04-6.88c0.01-1.94,1.59-3.5,3.53-3.49l0,0c1.94,0.01,3.5,1.59,3.49,3.53
		L142.28,254.83z"/>
	<path class="st13" d="M251.36,281.17l-19.45,0.43l12.93-6.63l0.44-3.68c1.97,0,3.26-0.98,5.25-0.98
		C251.08,273.42,251.36,281.17,251.36,281.17z"/>
	<path class="st13" d="M220.05,279.12l-19.45,0.43l12.79-5.44l0.58-4.88c1.97,0,2.45,1.33,4.44,1.33
		C218.97,273.68,220.05,279.12,220.05,279.12z"/>
	<path class="st14" d="M196.07,148.56c0,0,53.01-6.17,62.3,0.39l-16.79-55.68L237,55.1l-10.82,0.25l-8.06,2.25L196.07,148.56z"/>
	<path class="st15" d="M180.93,93.59c-1.61-3.32-2.21-5.71-2.34-9.74c-0.13-4.04-3.99-8.24-3.99-8.24c-0.41-0.48-2.86-1.2-3.23-0.45
		c-0.37,0.74,1.45,0.74,1.88,2.38c0.42,1.63-0.6,1.65-1.23,1.51c-0.64-0.13-5.38-9.62-6.61-9.23c-1.23,0.38,2.7,7.38,3.13,8.73
		c0.42,1.35-1.24,1.61-1.62,2.4c-0.39,0.78,0.08,0.93-0.33,1.76c-0.42,0.84-0.01,2.05,1.12,3.55c1.14,1.5,5.4,2.86,6.01,4.12
		c0.17,0.34,1.22,3,2.81,6.61c1.52-1,3.08-1.96,4.68-2.89C181.1,93.92,181,93.74,180.93,93.59z"/>
	<path class="st16" d="M168.77,78.52c0,0,6.09,4.61,4.92,5.51c-1.17,0.9-6.06-3.99-6.06-3.99s5.43,4.28,4.47,5.02
		c-0.96,0.74-5.65-2.88-5.65-2.88s4.95,3.29,4.06,3.67c-0.89,0.38-4.06-2.25-4.06-2.25s-0.45-0.98-0.29-1.58
		c0.17-0.59-0.11-0.84,0.03-1.21c0.14-0.37,0.74-0.92,1.01-1.13C167.47,79.5,167.58,78.18,168.77,78.52z"/>
	<linearGradient id="SVGID_5_" gradientUnits="userSpaceOnUse" x1="201.1781" y1="94.7298" x2="223.5463" y2="111.5787">
		<stop  offset="0" style="stop-color:#29002C"/>
		<stop  offset="1" style="stop-color:#330065"/>
	</linearGradient>
	<path class="st17" d="M179.51,85.96l-6.91,4.66c0,0,12.53,29.4,15.26,29.4c2.73,0,17.95-20.81,17.95-20.81l-0.29-36.68
		c0,0-15.58,38.85-17.1,38.85C186.9,101.38,179.51,85.96,179.51,85.96z"/>
	<linearGradient id="SVGID_6_" gradientUnits="userSpaceOnUse" x1="230.7542" y1="199.0908" x2="267.0667" y2="198.2193">
		<stop  offset="0" style="stop-color:#29002C"/>
		<stop  offset="1" style="stop-color:#330065"/>
	</linearGradient>
	<path class="st18" d="M212.82,272.18h9.4c0,0,6.67-51.58,2.81-73.51c-1.49-8.46,1.17-36.07,1.2-48.47
		c0.04-19.74-1.85-23.83-1.85-23.83l-14.73,5.02c0,0-1.17,67.04,0.03,72.82C210.89,209.99,212.82,272.18,212.82,272.18z"/>
	<linearGradient id="SVGID_7_" gradientUnits="userSpaceOnUse" x1="273.4882" y1="209.9227" x2="223.813" y2="195.1073">
		<stop  offset="0" style="stop-color:#290051"/>
		<stop  offset="1" style="stop-color:#330065"/>
	</linearGradient>
	<path class="st19" d="M244.15,130.46c0,0,2.36,62.04,4.95,70.97c3.06,10.57,2.86,70.42,2.86,70.42l-9.56-0.49
		c0,0-8.57-56.65-10.49-65.08c-1.93-8.44-10.41-47.86-10.41-47.86l-12.12-6.92l0.28-20.11L244.15,130.46z"/>
	<path class="st20" d="M239.26,162.56c1.32,0,3.29,0.08,6.4,0.18c-0.87-16.4-1.51-32.28-1.51-32.28l-15.06,0.41
		C231.19,149.56,235.3,162.56,239.26,162.56z"/>
	<path class="st21" d="M209.65,131.39l34.5-0.93c0,0,0.13-3.1,0.48-7.45c-11.72,2.51-23.76,3.17-35.29,3.21L209.65,131.39z"/>
	
		<rect x="214.79" y="126.36" transform="matrix(0.999 -0.0447 0.0447 0.999 -5.5273 9.9122)" class="st22" width="8.28" height="4.43"/>
	<path class="st23" d="M255.41,61.69L237,56.48l-14.54,0.47l-16.94,5.58l3.82,63.69c11.53-0.05,23.57-0.7,35.29-3.21
		c0.5-6.11,1.45-14.7,3.13-20.75C250.66,91.9,255.41,61.69,255.41,61.69z"/>
	<path class="st24" d="M205.52,62.54l3.82,63.69c0.58,0,1.73-0.01,1.73-0.01c-2.27-23.25,6.94-65.65,6.94-68.21L205.52,62.54z"/>
	<path class="st24" d="M240.68,56.48c-1.8,5.15-13.96,42.15-12.48,64.38c0.1,1.54,0.22,3.05,0.35,4.53
		c5.38-0.49,10.76-1.25,16.09-2.39c0.5-6.11,1.45-14.7,3.13-20.75c2.89-10.36,7.64-40.57,7.64-40.57L240.68,56.48z"/>
	<linearGradient id="SVGID_8_" gradientUnits="userSpaceOnUse" x1="237.1913" y1="101.7412" x2="257.8166" y2="110.4561">
		<stop  offset="0" style="stop-color:#290051"/>
		<stop  offset="1" style="stop-color:#330065"/>
	</linearGradient>
	<path class="st25" d="M238.68,55.73c0,0-9.34,36.3-8.21,57.38c1.13,21.08,4.58,36.78,7.89,36.78c3.31,0,17.94,1.14,20.01-0.94
		c2.07-2.07-8-42.88-7.96-50.83c0.04-7.95,5-36.43,5-36.43L238.68,55.73z"/>
	<path class="st20" d="M255.17,125.79c-0.71-3.61-1.45-7.29-2.12-10.77c-2.28-2.05-5.04-4.08-7.05-4.08c-4.05,0-7.64,0.72-7.64,0.72
		L255.17,125.79z"/>
	<linearGradient id="SVGID_9_" gradientUnits="userSpaceOnUse" x1="196.7666" y1="119.3028" x2="208.3865" y2="102.7445">
		<stop  offset="0" style="stop-color:#290051"/>
		<stop  offset="1" style="stop-color:#330065"/>
	</linearGradient>
	<path class="st26" d="M218.02,58c0,0-11.94,61.88-11.94,73.49c0,11.61,3.28,17.38-0.55,18.71c-3.83,1.33-9.45-1.64-9.45-1.64
		l9.45-86.02L218.02,58z"/>
	<path class="st27" d="M246.62,58.71L237,55.1c0,0-4.39,25.53-5.96,43.82l8.17-20.83v-3.86L246.62,58.71z"/>
	<polygon class="st27" points="218.12,57.6 210.3,100.44 209.65,77.03 212.7,73.29 210.51,60.09 	"/>
	<path class="st28" d="M222.3,61.69l-1.69-6.55c0,0,12.92-1.56,12.92-1.8l2.48,3.25L222.3,61.69z"/>
	<linearGradient id="SVGID_10_" gradientUnits="userSpaceOnUse" x1="250.4133" y1="95.4356" x2="271.0956" y2="95.4356">
		<stop  offset="0" style="stop-color:#29002C"/>
		<stop  offset="1" style="stop-color:#330065"/>
	</linearGradient>
	<path class="st29" d="M255.41,61.69c0,0-6.53,24.65-4.66,30.16c1.87,5.51,9.26,33.95,15.37,37.33L271.1,116L255.41,61.69z"/>
	<path class="st30" d="M255.11,68.77l29.4,12.64l-23.71,43.74c0,0-16.9-14.46-22.44-13.49L255.11,68.77z"/>
	<path class="st16" d="M278.49,110.94c0,0,1.81-13.98,1.81-15.12c0-1.14-3.37-6.87-5.72-6.87c-2.35,0-5.18,0.24-5.18,0.78
		c0,0.54,3.13,0.78,4.22,0.78c1.08,0,2.53,2.95,2.53,3.68c0,0.72-4.1-2.17-6.09-2.17s-4.51,0.34-3.55,1.29
		c0.95,0.95,3.07,0.09,4.16,0.64c1.08,0.54,2.89,2.47,2.89,2.47s-2.67-0.43-6.09-0.72c-3.3-0.29-2.28,1.27-0.24,1.42
		c1.57,0.12,5.95,1.42,5.95,1.42s-5.31-0.64-6.01,0.05c-0.52,0.52,3.59,1.22,5.68,1.79c0.81,0.22,0.02,3.25,0.32,3.88
		c1.21,2.49-0.22,6.38-0.22,6.38L278.49,110.94z"/>
	<g>
		<g>
			<path class="st31" d="M230.62,47.53c0.35-0.22,4.64-10.91,4.64-10.91s2.87-8.03,1.02-9.38c-1.85-1.36-6.25-6.07-10.11-6.16
				c-3.86-0.09-6.44,1.07-6.79,1.29c-0.35,0.22-2.85,4.44-2.85,4.44s1.16-1.42,1.76,3.85C218.89,35.94,230.62,47.53,230.62,47.53z"
				/>
			<path class="st16" d="M220.89,47.05c0.46,1.37,0.26,11.11,0.62,13.57c0.36,2.42,11.39,4.23,11.63-2.64
				c0.31-8.81-0.65-19.18-0.65-19.18L220.89,47.05z"/>
			<path class="st15" d="M220.89,47.05L220.89,47.05L220.89,47.05l3.85-2.74l7.75-5.51c0,0,0,0,0,0.01c0,0,0,0.01,0,0.01
				c0,0,0,0,0,0c0,0.04,0.01,0.11,0.02,0.2c0.03,0.32,0.07,0.96,0.14,1.85v0c0.01,0.18,0.03,0.37,0.04,0.57c0,0.01,0,0.03,0,0.04
				c0.04,0.64,0.09,1.38,0.13,2.19c0,0.05,0.01,0.09,0.01,0.14c0.01,0.19,0.02,0.39,0.03,0.59c0,0,0,0,0,0.01
				c0.01,0.1,0.01,0.21,0.02,0.31c0,0.01,0,0.02,0,0.03c0,0.04,0,0.08,0.01,0.12c0,0.02,0,0.03,0,0.05c0,0.07,0.01,0.14,0.01,0.21
				c-1.44,4.72-6.89,9.85-11.59,10.46c-0.01-0.33-0.03-0.65-0.05-0.99C221.2,51.3,221.15,47.82,220.89,47.05z"/>
			<path class="st16" d="M232.93,30.73c1.42,3.52,1.49,9.97-1.88,14.84c-3.38,4.87-8.04,7.39-11.38,4.93
				c-3.34-2.46-4.29-17.88-1.88-21.85C220.2,24.68,230.77,25.36,232.93,30.73z"/>
			<path class="st32" d="M232.92,45.53c0,0,0.75-5.04,2.69-6.27c1.94-1.23,2.81-1.98,3.16-3.76c0.35-1.78,3.78-4.24,2.73-7.17
				c-1.05-2.93-3.09-3.03-5.66-8.13c-2.57-5.09-5.35-7.91-11.34-6.06c-5.99,1.86-6.83,5.51-6.83,5.51s-2.37-0.3-4.26,2.71
				c-3.73,5.93,9.04,9.49,13.95,4.58c2.38-2.38,5.49-0.16,6.68,3.38C235.22,33.86,230.13,39.41,232.92,45.53z"/>
			<path class="st16" d="M231.81,36.26c0,0,2.11-3.61,3.21-2.04c1.1,1.57,0.19,6.25-2.14,6.3
				C230.56,40.57,231.81,36.26,231.81,36.26z"/>
			<path class="st15" d="M233.01,36.52c0,0-0.08-2.09,1.05-1.4c1.13,0.69-0.01,4.05-1.05,3.98
				C231.96,39.04,233.01,36.52,233.01,36.52z"/>
			<path class="st33" d="M221.03,35.56c-0.41,0.95-0.68,1.96-0.85,2.98c-0.34,2.21,0.02,3.16,0.03,3.3
				c0.26-0.05,0.94-0.15,1.85-0.39c-0.58-0.02-1.16,0-1.74,0.03l0.19,0.14C220.42,39.62,220.81,37.61,221.03,35.56z"/>
			<path class="st34" d="M223.88,36.09c-0.12,0.63,0.15,1.21,0.61,1.3c0.46,0.09,0.93-0.34,1.06-0.97c0.12-0.63-0.15-1.21-0.61-1.3
				C224.48,35.03,224.01,35.47,223.88,36.09z"/>
			<path class="st34" d="M217.56,35.19c-0.12,0.63,0.15,1.21,0.61,1.3c0.46,0.09,0.93-0.34,1.06-0.97c0.12-0.63-0.15-1.21-0.61-1.3
				C218.15,34.13,217.68,34.57,217.56,35.19z"/>
			<path class="st33" d="M227.48,34.5c0,0-0.97-1.71-2.59-2.03c-1.62-0.33-1.13,1.03-0.75,1.11
				C224.52,33.66,227.54,34.18,227.48,34.5z"/>
			<path class="st33" d="M219.76,31.68c0,0-1.92,0.57-2.28,1.45c0,0,2.03-0.17,2.4-0.64C220.24,32.01,219.76,31.68,219.76,31.68z"/>
		</g>
		<path class="st35" d="M226.55,44.3c-1.74,1.21-4.46,2.34-6.54,1.96C221.68,47.82,225.14,46.03,226.55,44.3z"/>
	</g>
	<linearGradient id="SVGID_11_" gradientUnits="userSpaceOnUse" x1="276.2895" y1="105.3279" x2="265.2505" y2="132.9252">
		<stop  offset="0" style="stop-color:#290051"/>
		<stop  offset="1" style="stop-color:#330065"/>
	</linearGradient>
	<path class="st36" d="M271.38,108.85c0,0-8.02,12.1-8.56,14.57c-0.54,2.47,3.29,5.76,3.29,5.76s2.85,1.06,5.56,0
		c2.71-1.06,8.32-18.36,8.32-18.36L271.38,108.85z"/>
	<polygon class="st28" points="221.9,58.08 224.63,63.04 228.09,58 230.14,63.11 224.88,66.45 219.83,62.76 	"/>
	<path class="st37" d="M228.09,58v8.19l8.68-9.7l-3.23-3.15C233.54,53.34,232.5,56.95,228.09,58z"/>
	<polygon class="st38" points="221.9,58.08 228.11,58.32 226.83,66.45 221.9,65.91 	"/>
	<polygon class="st38" points="221.9,65.91 226.83,66.45 224.88,111.3 219.83,123.01 213.89,110.94 	"/>
	<polygon class="st39" points="228.09,58.49 226.83,66.45 224.88,111.3 219.83,123.01 213.89,110.94 219.83,119.51 223.88,110.94 
		226.33,66.4 	"/>
	<g>
		<path class="st40" d="M244.51,42.13c-0.09,0-0.18-0.03-0.26-0.08c-0.19-0.14-0.24-0.41-0.09-0.61c6.41-8.77-1.58-21.43-1.67-21.55
			c-0.13-0.2-0.07-0.47,0.13-0.6c0.2-0.13,0.47-0.07,0.6,0.13c0.09,0.13,8.4,13.29,1.64,22.54
			C244.78,42.07,244.65,42.13,244.51,42.13z"/>
	</g>
	<polygon class="st37" points="220.3,65.53 222.06,58 220.61,55.15 218.23,58.35 	"/>
</g>
</svg>
