<?xml version="1.0" encoding="utf-8"?>
<!-- Generator: Adobe Illustrator 24.2.3, SVG Export Plug-In . SVG Version: 6.00 Build 0)  -->
<svg version="1.1" id="Layer_1" xmlns="http://www.w3.org/2000/svg" xmlns:xlink="http://www.w3.org/1999/xlink" x="0px" y="0px"
	 viewBox="0 0 300 300" style="enable-background:new 0 0 300 300;" xml:space="preserve">
<style type="text/css">
	.st0{fill:#646AA2;}
	.st1{fill:#E8A76D;}
	.st2{fill:#FFD6AE;}
	.st3{fill:#F9E4CA;}
	.st4{fill:#542360;}
	.st5{opacity:0.8;fill:#542360;}
	.st6{fill:#895396;}
	.st7{opacity:0.2;fill:#FFFFFF;}
	.st8{fill:#FF8C7B;}
	.st9{fill:#263238;}
	.st10{fill:#FF5551;}
	.st11{opacity:0.2;}
	.st12{opacity:0.2;fill:#542360;}
	.st13{opacity:0.4;}
	.st14{fill:#FFFFFF;}
</style>
<path class="st0" d="M280.04,284.03c0,2.75-57.33,4.97-128.05,4.97s-128.05-2.23-128.05-4.97s57.36-3.07,128.08-3.07
	C222.74,280.96,280.04,281.28,280.04,284.03z"/>
<g>
	<path class="st1" d="M268.45,206.65h-89.37c-4.76,0-8.5-3.89-8.32-8.65l6.56-169.65c0.18-4.76,4.23-8.65,8.98-8.65h89.37
		c4.76,0,8.5,3.89,8.32,8.65l-6.56,169.65C277.25,202.76,273.21,206.65,268.45,206.65z"/>
	<path class="st2" d="M262.97,206.65H173.6c-4.76,0-8.5-3.89-8.32-8.65l6.56-169.65c0.18-4.76,4.23-8.65,8.98-8.65h89.37
		c4.76,0,8.5,3.89,8.32,8.65l-6.56,169.65C271.77,202.76,267.73,206.65,262.97,206.65z"/>
	<path class="st3" d="M255.2,203.21h-78.83c-4.17,0-7.45-3.41-7.29-7.59l6.14-158.88c0.16-4.17,3.71-7.59,7.88-7.59h78.83
		c4.17,0,7.45,3.41,7.29,7.59l-6.14,158.88C262.91,199.8,259.37,203.21,255.2,203.21z"/>
	<g>
		<path class="st1" d="M231.81,127.67c-2.72,2.38-6.48,3.82-11.28,4.33l-0.62,7.08h-5.18l0.61-7.02c-3.1-0.21-6-0.78-8.7-1.71
			c-2.7-0.93-4.81-2.11-6.33-3.54l3.4-6.38c1.45,1.26,3.25,2.33,5.41,3.19c2.16,0.86,4.43,1.4,6.81,1.61l1.11-12.64
			c-2.93-0.72-5.36-1.51-7.28-2.37c-1.93-0.86-3.49-2.13-4.69-3.79c-1.2-1.66-1.68-3.87-1.44-6.61c0.3-3.41,1.8-6.32,4.49-8.72
			c2.7-2.4,6.42-3.83,11.18-4.3l0.62-7.14h5.18l-0.61,7.02c2.35,0.13,4.62,0.53,6.82,1.2c2.2,0.67,4.09,1.56,5.68,2.65l-3.15,6.38
			c-3.04-1.85-6.35-2.99-9.94-3.41l-1.12,12.77c2.97,0.72,5.42,1.5,7.35,2.34c1.93,0.84,3.5,2.1,4.73,3.76
			c1.22,1.67,1.72,3.87,1.48,6.61C236.04,122.39,234.53,125.29,231.81,127.67z M213.16,102.8c1.02,0.84,2.54,1.56,4.55,2.15
			l0.98-11.25c-2.18,0.34-3.84,1.01-4.98,2.02c-1.14,1.01-1.78,2.25-1.91,3.73C211.69,100.84,212.14,101.96,213.16,102.8z
			 M226.27,123.15c1.16-0.97,1.8-2.17,1.93-3.6c0.13-1.43-0.34-2.58-1.41-3.45c-1.06-0.86-2.62-1.59-4.68-2.18l-0.98,11.19
			C223.4,124.77,225.11,124.12,226.27,123.15z"/>
	</g>
	
		<ellipse transform="matrix(0.7138 -0.7003 0.7003 0.7138 -71.5737 205.9906)" class="st1" cx="216.27" cy="190.57" rx="5.29" ry="5.09"/>
	<path class="st1" d="M236.3,26.59h-27.39c-0.87,0-1.55-0.71-1.52-1.58l0,0c0.03-0.87,0.77-1.58,1.64-1.58h27.39
		c0.87,0,1.55,0.71,1.52,1.58l0,0C237.91,25.88,237.17,26.59,236.3,26.59z"/>
	<g>
		<path class="st4" d="M204.28,81.45c-1.58,0.13-3.21,0.16-4.87,0.11c-0.56-0.12-1.14-0.16-1.75-0.11c-0.06,0-0.12,0-0.18,0.01
			c-4.54-0.3-9.2-1.18-13.52-2.44c-4.75-1.38-10.93-4.68-14.93-8.46c-1.07-1.02-2.47-1.52-3.88-1.53l0,0h-6.61l0,0
			c-1.42,0-2.86,0.51-4.02,1.53c-4.28,3.78-10.7,7.07-15.56,8.46c-4.42,1.26-9.15,2.14-13.71,2.44c-0.06,0-0.12,0-0.18-0.01
			c-0.6-0.05-1.19,0-1.75,0.11c-1.66,0.05-3.29,0.02-4.86-0.11c-3.47-0.29-6.58,2.42-6.71,5.91l-2.54,65.67
			c-0.11,2.74,1.15,5.3,3.34,6.84l36.79,25.88c1.37,0.97,2.99,1.45,4.63,1.45h6.61c1.64,0,3.29-0.48,4.74-1.45l38.79-25.88
			c2.32-1.55,3.77-4.11,3.87-6.84l2.54-65.67C210.68,83.87,207.78,81.16,204.28,81.45z"/>
		<path class="st5" d="M204.28,81.45c-1.58,0.13-3.21,0.16-4.87,0.11c-0.56-0.12-1.14-0.16-1.75-0.11c-0.06,0-0.12,0-0.18,0.01
			c-4.54-0.3-9.2-1.18-13.52-2.44c-4.75-1.38-10.93-4.68-14.93-8.46c-1.07-1.02-2.47-1.52-3.88-1.53l0,0h-6.61l0,0
			c-1.42,0-2.86,0.51-4.02,1.53c-4.28,3.78-10.7,7.07-15.56,8.46c-4.42,1.26-9.15,2.14-13.71,2.44c-0.06,0-0.12,0-0.18-0.01
			c-0.6-0.05-1.19,0-1.75,0.11c-1.66,0.05-3.29,0.02-4.86-0.11c-3.47-0.29-6.58,2.42-6.71,5.91l-2.54,65.67
			c-0.11,2.74,1.15,5.3,3.34,6.84l36.79,25.88c1.37,0.97,2.99,1.45,4.63,1.45h6.61c1.64,0,3.29-0.48,4.74-1.45l38.79-25.88
			c2.32-1.55,3.77-4.11,3.87-6.84l2.54-65.67C210.68,83.87,207.78,81.16,204.28,81.45z"/>
	</g>
	<path class="st6" d="M113.45,152.91l2.43-62.79c0.09-2.37,2.09-4.3,4.46-4.3l1.4,0c5.65,0,11.96-0.95,18.24-2.73
		c4.55-1.3,10.74-4.19,15.6-7.99c1.64-1.28,3.89-1.28,5.44,0c4.57,3.8,10.54,6.69,15,7.99c6.14,1.79,12.38,2.73,18.03,2.73l1.32,0
		c2.42,0,4.3,1.96,4.21,4.38l-2.42,62.71c-0.05,1.42-0.81,2.74-2.01,3.55l-38.55,25.72c-1.5,1-3.43,1-4.86,0l-36.56-25.72
		C114.05,155.65,113.4,154.32,113.45,152.91z"/>
	<path class="st7" d="M124.16,149.59l2.06-53.38c5.26-0.39,10.81-1.4,16.3-2.96c4.2-1.2,9.94-3.59,15.36-7.07
		c5.16,3.47,10.72,5.87,14.83,7.07c5.37,1.56,10.84,2.57,16.07,2.96l-2.06,53.38l-32.1,21.42L124.16,149.59z"/>
	<path class="st6" d="M134.96,144.02l1.49-38.56c2.86-0.54,5.73-1.22,8.61-2.04c3.97-1.13,8.25-2.87,12.35-4.98
		c3.94,2.11,8.09,3.85,11.98,4.98c2.81,0.82,5.63,1.5,8.45,2.04l-1.49,38.56l-21.24,14.17L134.96,144.02z"/>
	<path class="st8" d="M64.13,83.81c-1.46,3.03-2.94,6.14-4.36,9.19c-0.71,1.53-1.39,3.07-2.04,4.59c-0.62,1.51-1.24,3.07-1.61,4.38
		c-0.34,1.05-0.39,2.72-0.44,4.34c-0.02,1.64-0.02,3.34,0.03,5.03l0.26,10.29l-3.6,0.53c-0.91-3.41-1.63-6.82-2.2-10.31
		c-0.26-1.75-0.53-3.5-0.67-5.32c-0.08-0.91-0.14-1.83-0.15-2.8c0-0.49,0-0.98,0.04-1.53c0.01-0.26,0.04-0.55,0.08-0.86
		c0.03-0.32,0.09-0.53,0.14-0.8c0.4-2.06,0.97-3.76,1.56-5.48c0.6-1.7,1.25-3.36,1.93-4.99c1.37-3.27,2.84-6.42,4.47-9.58
		L64.13,83.81z"/>
	<path class="st8" d="M58.55,123.06l-3-3.45l-3.38,0.17c-1.56,3.71,1.83,6.07,1.83,6.07l0.6,2.03c0.25,0.86,1.22,1.27,2.05,0.86
		l1.88-0.93c0.54-0.27,0.88-0.83,0.87-1.42l-0.02-1.16C59.36,124.42,59.07,123.65,58.55,123.06z"/>
	<path class="st4" d="M49.03,277.21c-0.6-0.25-1.21-0.66-1.62-0.97c-0.05-0.04-0.08-0.11-0.06-0.18c0.02-0.07,0.07-0.12,0.14-0.13
		c0.29-0.06,2.85-0.53,3.45,0.15c0.1,0.11,0.19,0.29,0.11,0.57c-0.11,0.37-0.32,0.62-0.62,0.73
		C50.03,277.53,49.53,277.42,49.03,277.21z M47.95,276.2c1.03,0.71,1.91,1.03,2.37,0.86c0.2-0.07,0.33-0.23,0.4-0.5
		c0.04-0.14,0-0.21-0.04-0.25C50.36,275.95,48.97,276.04,47.95,276.2z"/>
	<path class="st4" d="M47.44,276.26c-0.03-0.01-0.05-0.03-0.07-0.05c-0.04-0.05-0.04-0.11-0.02-0.17c0.04-0.08,0.89-2,1.88-2.34
		c0.26-0.09,0.52-0.07,0.75,0.07c0.37,0.21,0.36,0.5,0.33,0.66c-0.18,0.81-2,1.75-2.78,1.85C47.5,276.27,47.47,276.27,47.44,276.26z
		 M49.74,274.02c-0.13-0.05-0.26-0.06-0.4-0.01c-0.59,0.2-1.21,1.22-1.53,1.85c0.84-0.24,2.06-1.01,2.17-1.51
		c0.02-0.08,0.02-0.19-0.17-0.3C49.79,274.04,49.76,274.03,49.74,274.02z"/>
	<path class="st8" d="M75.96,55.7c0.64,4.28,2.1,13.6-1.01,16.39c0,0,0.97,4.34,8.89,4.5c8.71,0.17,4.36-4.24,4.36-4.24
		c-4.7-1.23-4.42-4.75-3.44-8.04L75.96,55.7z"/>
	<path class="st9" d="M93.8,48.62c-0.05-0.01-0.1-0.03-0.14-0.07c-0.14-0.12-0.16-0.33-0.04-0.48c1.22-1.47,2.78-1.32,2.85-1.31
		c0.19,0.02,0.32,0.19,0.29,0.37c-0.02,0.19-0.19,0.32-0.38,0.3l0,0c-0.05,0-1.27-0.11-2.24,1.06C94.06,48.6,93.92,48.64,93.8,48.62
		z"/>
	<path class="st10" d="M95.42,52.82c0,0,0.68,2.58,1.61,3.88c-0.84,0.64-2.09,0.19-2.09,0.19L95.42,52.82z"/>
	<path class="st9" d="M95.03,51.78c-0.07,0.58,0.18,1.08,0.55,1.11c0.38,0.04,0.74-0.4,0.81-0.98c0.07-0.58-0.18-1.08-0.55-1.11
		C95.46,50.76,95.1,51.2,95.03,51.78z"/>
	<path class="st9" d="M95.66,50.81l1.43-0.27C97.09,50.55,96.25,51.56,95.66,50.81z"/>
	<polygon class="st8" points="101.98,280.06 109.58,277.66 108.83,262.17 101.23,264.57 	"/>
	<polygon class="st8" points="39.59,274.53 46.44,276.46 52.17,260.61 45.32,258.68 	"/>
	<path class="st9" d="M47.31,275.1l-7.33-3.1c-0.27-0.11-0.57-0.01-0.72,0.24l-3.44,5.58c-0.36,0.58-0.09,1.38,0.53,1.63
		c2.58,1.04,3.87,1.4,7.1,2.76c1.98,0.84,3.53,3.38,7.9,3.38c2.95,0,3.51-2.67,2.3-3.06c-5.44-1.74-4.35-4.35-5.42-6.56
		C48.02,275.57,47.7,275.26,47.31,275.1z"/>
	<path class="st4" d="M112.29,278.72c-0.66,0-1.39-0.14-1.91-0.26c-0.07-0.02-0.12-0.07-0.13-0.14c-0.01-0.07,0.01-0.13,0.07-0.17
		c0.24-0.16,2.38-1.57,3.22-1.19c0.13,0.06,0.3,0.19,0.35,0.48c0.07,0.38-0.02,0.69-0.25,0.9
		C113.35,278.63,112.85,278.72,112.29,278.72z M110.86,278.22c1.26,0.25,2.2,0.21,2.55-0.13c0.15-0.14,0.2-0.34,0.15-0.61
		c-0.02-0.14-0.09-0.19-0.15-0.22C112.97,277.07,111.73,277.69,110.86,278.22z"/>
	<path class="st4" d="M110.43,278.47c-0.03,0-0.06-0.01-0.09-0.02c-0.05-0.03-0.09-0.09-0.09-0.15c0-0.09-0.06-2.16,0.7-2.85
		c0.2-0.18,0.44-0.26,0.71-0.23c0.43,0.05,0.55,0.32,0.59,0.47c0.19,0.81-1.07,2.36-1.74,2.75
		C110.48,278.46,110.45,278.47,110.43,278.47z M111.55,275.56c-0.14,0-0.26,0.05-0.37,0.15c-0.45,0.41-0.57,1.57-0.59,2.26
		c0.67-0.55,1.44-1.71,1.33-2.2c-0.02-0.08-0.07-0.18-0.29-0.2C111.6,275.56,111.58,275.56,111.55,275.56z"/>
	<path class="st9" d="M109.79,277.47l-8.07,0c-0.29,0-0.53,0.2-0.56,0.49l-0.71,6.39c-0.07,0.66,0.52,1.29,1.19,1.28
		c2.81-0.05,4.16-0.21,7.71-0.21c2.18,0,5.38,0.23,8.4,0.23c2.95,0,3.08-2.98,1.81-3.25c-5.67-1.21-6.61-2.88-8.56-4.47
		C110.66,277.62,110.22,277.47,109.79,277.47z"/>
	<g>
		<polygon class="st11" points="108.83,262.18 109.24,270.47 101.61,272.56 101.23,264.58 		"/>
		<polygon class="st11" points="45.32,258.68 52.17,260.62 49.21,268.79 42.36,266.85 		"/>
	</g>
	<g>
		<path class="st4" d="M60.87,73c-2.99,0.7-6.28,11.49-6.28,11.49l8.35,8.84c0,0,7.1-10.19,5.71-13.88
			C67.2,75.61,64.4,72.17,60.87,73z"/>
		<path class="st12" d="M60.87,73c-2.99,0.7-6.28,11.49-6.28,11.49l8.35,8.84c0,0,7.1-10.19,5.71-13.88
			C67.2,75.61,64.4,72.17,60.87,73z"/>
	</g>
	<path class="st13" d="M65.53,79.76c1.52-1.41,2.54-1.01,3.22,0.08c0.66,3.18-3.78,10.38-5.44,12.93
		C62.59,89.76,62.09,82.95,65.53,79.76z"/>
	<g>
		<path class="st4" d="M99.15,75.47c0.42,3.14,0.16,12.71-5.89,41.73l-29.18-0.57c1.02-11.86,1.37-19.17-3.21-43.63
			c0,0,6.17-1.21,12.46-1.39c4.92-0.14,8.95-0.22,13.25,0.26c4.22,0.47,8.85,1.39,10.93,1.83C98.39,73.89,99.04,74.59,99.15,75.47z"
			/>
		<path class="st12" d="M99.15,75.47c0.42,3.14,0.16,12.71-5.89,41.73l-29.18-0.57c1.02-11.86,1.37-19.17-3.21-43.63
			c0,0,6.17-1.21,12.46-1.39c4.92-0.14,8.95-0.22,13.25,0.26c4.22,0.47,8.85,1.39,10.93,1.83C98.39,73.89,99.04,74.59,99.15,75.47z"
			/>
	</g>
	<path class="st8" d="M75.95,47.96c-0.42,7.14-0.75,10.16,2.38,14.14c4.7,5.99,13.52,4.72,16.05-2.21
		c2.28-6.24,2.58-16.87-3.99-20.35C83.93,36.12,76.37,40.82,75.95,47.96z"/>
	<path class="st9" d="M85.55,117.05c0,0-4.23,52.06-9.81,79.74c-4.51,22.36-24.93,70.67-24.93,70.67l-8.9-3.76
		c0,0,10.26-54.72,17.22-68.05c7.83-45.89-4.83-61.54,4.95-79.02L85.55,117.05z"/>
	<path class="st13" d="M77.62,145.55c-3.19,13.57-1.13,25.89,1.04,34.02c1.27-8.71,2.43-18.11,3.42-26.9
		C80.72,150.14,79.03,147.75,77.62,145.55z"/>
	<path class="st9" d="M93.26,117.2c0,0,11.08,50.87,12.5,72.62c1.48,22.62,4.46,76.24,4.46,76.24l-9.78,2.62
		c0,0-10.99-55.26-10.13-71.89c-5.44-23.6-24.51-80.1-24.51-80.1L93.26,117.2z"/>
	<polygon class="st4" points="111.67,268.54 98.98,270.68 97.77,266.16 111.35,263.85 	"/>
	<polygon class="st4" points="52.36,267.91 40.47,264.55 41.13,260.14 53.84,263.26 	"/>
	<path class="st14" d="M63.72,114.91l-1.43,2.58c-0.11,0.2,0.12,0.41,0.46,0.42l30.6,0.6c0.26,0.01,0.49-0.12,0.51-0.28l0.38-2.6
		c0.03-0.18-0.19-0.34-0.48-0.34L64.2,114.7C63.99,114.7,63.79,114.78,63.72,114.91z"/>
	<path class="st9" d="M67.54,118.29l-0.79-0.02c-0.16,0-0.27-0.09-0.26-0.19l0.52-3.38c0.02-0.1,0.16-0.18,0.31-0.17l0.79,0.02
		c0.16,0,0.27,0.09,0.26,0.19l-0.52,3.38C67.84,118.22,67.7,118.29,67.54,118.29z"/>
	<path class="st9" d="M86.72,118.67l-0.79-0.02c-0.16,0-0.27-0.09-0.26-0.19l0.52-3.38c0.02-0.1,0.16-0.18,0.31-0.17l0.79,0.02
		c0.16,0,0.27,0.09,0.26,0.19l-0.52,3.38C87.02,118.59,86.88,118.67,86.72,118.67z"/>
	<path class="st8" d="M100.75,79.18c1.43,3.04,3.02,6.19,4.66,9.18c1.65,2.99,3.41,5.95,5.38,8.49c0.25,0.32,0.5,0.65,0.7,0.88
		c0.22,0.26,0.46,0.51,0.73,0.77c0.52,0.51,1.1,1.02,1.73,1.49c1.26,0.95,2.65,1.86,4.11,2.69c2.91,1.67,6.1,3.19,9.25,4.53
		l-0.95,3.51c-3.7-0.63-7.21-1.61-10.73-3.02c-1.74-0.72-3.48-1.53-5.17-2.58c-0.85-0.52-1.69-1.1-2.51-1.76
		c-0.41-0.33-0.81-0.69-1.21-1.07c-0.42-0.41-0.74-0.77-1.06-1.13c-0.67-0.72-1.26-1.47-1.88-2.21c-0.57-0.76-1.15-1.51-1.68-2.28
		c-1.1-1.53-2.08-3.1-3.03-4.69c-1.9-3.19-3.55-6.39-5.06-9.85L100.75,79.18z"/>
	<g>
		<path class="st4" d="M97.09,73.6c6.84,1.49,8.5,12.24,8.5,12.24l-6.74,7.85c0,0-10.7-10.12-10.17-15.66
			C89.08,73.91,93.36,72.78,97.09,73.6z"/>
		<path class="st12" d="M97.09,73.6c6.84,1.49,8.5,12.24,8.5,12.24l-6.74,7.85c0,0-10.7-10.12-10.17-15.66
			C89.08,73.91,93.36,72.78,97.09,73.6z"/>
	</g>
	<path class="st8" d="M135.24,110l-1.89-2.25c0,0-6.12-1.43-8.82-0.1l-0.84,2.53l6.84,3.54l1.42,0.67c0.68,0.32,1.52,0.09,1.97-0.55
		l1.38-1.94C135.7,111.31,135.68,110.53,135.24,110z"/>
	<path class="st9" d="M95.91,87.41c1.2-3.18,1.86-7.05,1.59-8.85c-0.4,3.26-2.88,7.72-5.38,11.04c-10,4.1-20.74,2.22-27.74-1.96
		c-2.05-4.15-3.75-10.64-2.68-14.51c-1.32,1.97-2.29,7.35-1.67,11.14c-2.1-2.15-3.32-4.56-3.33-6.93
		c-0.03-11.4,13.74-10.7,13.93-19.02c0.19-8.32-3.2-25.33,13.76-21.69c11.11-0.52,8.79,9.27,6.98,15.23
		C89.7,57.35,106.5,78.47,95.91,87.41z"/>
	<path class="st9" d="M84.4,36.61c6.95-3.71,14.02,2.12,10.42,8.24c-3.21-0.14-5.81,1.9-3.3,5.97C84.06,46.12,79.5,37.02,84.4,36.61
		z"/>
	<path class="st8" d="M91.71,49.73c0.92,1.53,1.03,3.2,0.9,4.31c-0.22,1.91-1.72,1.92-2.77,0.77c-0.95-1.03-1.93-3.51-1.31-4.97
		C89.12,48.41,90.89,48.36,91.71,49.73z"/>
</g>
</svg>
