<?xml version="1.0" encoding="utf-8"?>
<!-- Generator: Adobe Illustrator 24.2.3, SVG Export Plug-In . SVG Version: 6.00 Build 0)  -->
<svg version="1.1" id="Layer_1" xmlns="http://www.w3.org/2000/svg" xmlns:xlink="http://www.w3.org/1999/xlink" x="0px" y="0px"
	 viewBox="0 0 100 100" style="enable-background:new 0 0 100 100;" xml:space="preserve">
<style type="text/css">
	.st0{fill:#CACAE1;}
	.st1{fill:#7DC242;}
	.st2{fill:#F3F3F1;}
	.st3{fill:#61A527;}
	.st4{fill:#D5DBE1;}
	.st5{fill:#A4AFC1;}
</style>
<g>
	<g id="Layer_2_1_" transform="translate(0 0)">
		<g id="Group_272">
			<path id="Path_4618" class="st0" d="M74.95,12.68c-18.32,0.34-31.09-8.92-39.91-8.75C26.21,4.09,7.76,9.52,8.52,50.14
				c0.76,40.62,25.82,46.12,35.53,45.93C89.53,95.22,107.41,12.07,74.95,12.68L74.95,12.68z"/>
		</g>
	</g>
	<g id="color" transform="translate(22.296 7.53)">
		<g id="Group_273" transform="translate(6.624 8.611)">
			<path id="Path_4619" class="st1" d="M33.67,3.92c-2.19,0-3.97,1.77-3.97,3.96c0,0,0,0.01,0,0.01c0,1.46-1.19,2.65-2.65,2.65
				H15.12c-1.46,0-2.65-1.19-2.65-2.65c0-2.19-1.77-3.97-3.96-3.97c0,0-0.01,0-0.01,0H33.67z"/>
		</g>
		<g id="Group_274" transform="translate(0 8.611)">
			<path id="Path_4620" class="st2" d="M46.91,9.22v49.02c-0.01,2.92-2.38,5.29-5.3,5.3H13.79c-2.92-0.01-5.29-2.38-5.3-5.3V9.22
				c0.01-2.92,2.38-5.29,5.3-5.3h1.33c2.19,0,3.97,1.77,3.98,3.96c0,0,0,0.01,0,0.01c0,1.46,1.19,2.65,2.65,2.65h11.92
				c1.46,0,2.65-1.19,2.65-2.65c0-2.19,1.77-3.97,3.96-3.97c0,0,0.01,0,0.01,0h1.33C44.54,3.93,46.91,6.3,46.91,9.22z"/>
		</g>
		<g id="Group_275" transform="translate(6.624 8.611)">
			<path id="Path_4621" class="st3" d="M18.43,7.9c0-2.19-1.77-3.97-3.96-3.97c0,0-0.01,0-0.01,0H8.49c2.19,0,3.97,1.77,3.98,3.96
				c0,0,0,0.01,0,0.01c0,1.46,1.19,2.65,2.65,2.65h5.96C19.62,10.55,18.43,9.36,18.43,7.9z"/>
		</g>
		<g id="Group_277" transform="translate(0 8.611)">
			<g id="Group_276">
				<path id="Path_4622" class="st4" d="M14.46,58.24V9.22c0.01-1.95,1.1-3.74,2.83-4.66c-0.64-0.42-1.39-0.64-2.16-0.64h-1.33
					c-2.92,0.01-5.29,2.38-5.3,5.3v49.02c0.01,2.92,2.38,5.29,5.3,5.3h5.96C16.83,63.53,14.46,61.17,14.46,58.24z"/>
			</g>
		</g>
		<g id="Group_281" transform="translate(33.52 61.785)">
			<g id="Group_278" transform="translate(0 10.772)">
				<path id="Path_4623" class="st5" d="M8.49,7.67l3.75-3.75l1.87,1.87l-3.75,3.75L8.49,7.67z"/>
			</g>
			<g id="Group_279" transform="translate(10.774 0)">
				<path id="Path_4624" class="st5" d="M8.49,7.67l3.75-3.75l1.87,1.87l-3.75,3.75L8.49,7.67z"/>
			</g>
			<g id="Group_280" transform="translate(10.771 11.24)">
				<path id="Path_4625" class="st5" d="M8.49,5.8l1.87-1.87l3.75,3.75l-1.87,1.87L8.49,5.8z"/>
			</g>
		</g>
		<g id="Group_282" transform="translate(42.482)">
			<path id="Path_4626" class="st5" d="M12.47,11.87c-2.2,0-3.98-1.78-3.98-3.97c0-2.2,1.78-3.98,3.97-3.98
				c2.2,0,3.98,1.78,3.98,3.97c0,0,0,0,0,0C16.44,10.09,14.66,11.87,12.47,11.87z M12.47,6.57c-0.73,0-1.32,0.59-1.32,1.33
				s0.59,1.32,1.33,1.32c0.73,0,1.32-0.59,1.32-1.33C13.79,7.17,13.2,6.57,12.47,6.57L12.47,6.57z"/>
		</g>
	</g>
	<g id="line" transform="translate(20.309 14.154)">
		<g id="Group_286" transform="translate(14.573 23.185)">
			<g id="Group_283" transform="translate(0 1.987)">
				<path id="Path_4627" d="M16.13,22.47h-5.64V18.5h5.64c0.91,0,1.66-0.74,1.66-1.66s-0.74-1.66-1.66-1.66h-2.01
					c-3.11-0.04-5.6-2.6-5.56-5.71c0.04-3.05,2.5-5.51,5.56-5.56h5.64V7.9h-5.64c-0.91,0-1.66,0.74-1.66,1.66s0.74,1.66,1.66,1.66
					h2.01c3.11,0.04,5.6,2.6,5.56,5.71C21.64,19.97,19.18,22.43,16.13,22.47z"/>
			</g>
			<g id="Group_284" transform="translate(4.637)">
				<path id="Path_4628" d="M8.49,3.92h3.98V7.9H8.49V3.92z"/>
			</g>
			<g id="Group_285" transform="translate(4.637 18.548)">
				<path id="Path_4629" d="M8.49,3.92h3.98V7.9H8.49V3.92z"/>
			</g>
		</g>
		<g id="Group_289">
			<g id="Group_287" transform="translate(7.287)">
				<path id="Path_4630" d="M28.37,14.52H16.44c-2.56,0-4.63-2.08-4.64-4.64c0-1.1-0.89-1.99-1.99-1.99H8.49V3.92h1.32
					c3.29,0,5.96,2.67,5.96,5.96c0,0.37,0.3,0.66,0.66,0.66h11.92c0.37,0,0.66-0.3,0.66-0.66c0-3.29,2.67-5.96,5.96-5.96h1.33V7.9
					h-1.33c-1.1,0-1.99,0.89-1.99,1.99C33,12.45,30.93,14.52,28.37,14.52z"/>
			</g>
			<g id="Group_288">
				<path id="Path_4631" d="M43.6,67.52H15.78c-4.02,0-7.28-3.26-7.29-7.29V11.21c0-4.02,3.26-7.28,7.29-7.29H43.6
					c4.02,0,7.28,3.26,7.29,7.29v49.02C50.89,64.25,47.63,67.51,43.6,67.52z M15.78,7.9c-1.83,0-3.31,1.48-3.31,3.31v49.02
					c0,1.83,1.48,3.31,3.31,3.31H43.6c1.83,0,3.31-1.48,3.31-3.31V11.21c0-1.83-1.48-3.31-3.31-3.31L15.78,7.9z"/>
			</g>
		</g>
	</g>
</g>
</svg>
