<?xml version="1.0" encoding="utf-8"?>
<!-- Generator: Adobe Illustrator 24.2.3, SVG Export Plug-In . SVG Version: 6.00 Build 0)  -->
<svg version="1.1" id="Layer_1" xmlns="http://www.w3.org/2000/svg" xmlns:xlink="http://www.w3.org/1999/xlink" x="0px" y="0px"
	 viewBox="0 0 800 500" style="enable-background:new 0 0 800 500;" xml:space="preserve">
<style type="text/css">
	.st0{fill:#B7D972;}
	.st1{fill:url(#Path_4708_1_);}
	.st2{fill:url(#Path_4709_1_);}
	.st3{fill:url(#Path_4710_1_);}
	.st4{fill:url(#Path_4711_1_);}
	.st5{fill:#9BC1F9;}
	.st6{fill:#EDFDFC;}
	.st7{fill:url(#Ellipse_5_1_);}
	.st8{fill:url(#Path_4717_1_);}
	.st9{fill:url(#Path_4719_1_);}
	.st10{fill:#F47257;}
	.st11{fill:url(#Path_4720_1_);}
	.st12{fill:#50BFA5;}
	.st13{fill:#3C8F7C;}
	.st14{fill:url(#Path_4726_1_);}
	.st15{fill:url(#Path_4727_1_);}
	.st16{fill:url(#Path_4728_1_);}
	.st17{fill:url(#Path_4731_1_);}
	.st18{fill:url(#Path_4732_1_);}
	.st19{fill:url(#Path_4733_1_);}
	.st20{fill:url(#Path_4734_1_);}
	.st21{fill:url(#Rectangle_290_1_);}
	.st22{fill:#847D3D;}
	.st23{fill:url(#Path_4739_1_);}
	.st24{fill:#FFFFFF;}
	.st25{fill:url(#Ellipse_7_1_);}
	.st26{fill:url(#Path_4742_1_);}
	.st27{fill:url(#Path_4743_1_);}
	.st28{fill:url(#Path_4744_1_);}
	.st29{fill:url(#Path_4746_1_);}
	.st30{fill:url(#Path_4747_1_);}
	.st31{fill:url(#Path_4749_1_);}
	.st32{fill:url(#Path_4750_1_);}
	.st33{fill:url(#Path_4751_1_);}
	.st34{fill:url(#Path_4752_1_);}
	.st35{fill:url(#Path_4753_1_);}
	.st36{fill:url(#Path_4754_1_);}
	.st37{fill:url(#Rectangle_295_1_);}
	.st38{fill:url(#Path_4761_1_);}
	.st39{fill:url(#Path_4763_1_);}
	.st40{fill:url(#Path_4764_1_);}
	.st41{fill:url(#Path_4766_1_);}
	.st42{fill:url(#Path_4769_1_);}
	.st43{fill:#13375B;}
	.st44{fill:#473B1E;}
	.st45{fill:url(#Path_4773_1_);}
	.st46{fill:url(#Ellipse_8_1_);}
	.st47{fill:url(#Path_4777_1_);}
	.st48{fill:url(#Path_4780_1_);}
	.st49{fill:url(#Path_4783_1_);}
	.st50{fill:url(#Path_4785_1_);}
	.st51{fill:#002A24;}
	.st52{fill:#F48C7F;}
	.st53{fill:url(#Path_4789_1_);}
	.st54{fill:#F79C8D;}
	.st55{fill:url(#Path_4791_1_);}
	.st56{fill:#F7A491;}
	.st57{fill:#F47458;}
	.st58{fill:url(#Path_4803_1_);}
	.st59{fill:url(#Path_4805_1_);}
	.st60{fill:url(#Path_4806_1_);}
	.st61{fill:url(#Path_4807_1_);}
	.st62{fill:url(#Path_4809_1_);}
	.st63{fill:url(#Path_4810_1_);}
	.st64{fill:url(#Path_4811_1_);}
	.st65{fill:url(#Path_4812_1_);}
	.st66{fill:#F7CC7F;}
	.st67{fill:#FAE0B2;}
	.st68{fill:url(#Path_4821_1_);}
	.st69{fill:url(#Path_4822_1_);}
	.st70{fill:url(#Path_4825_1_);}
	.st71{fill:url(#Path_4827_1_);}
	.st72{fill:url(#Path_4839_1_);}
	.st73{fill:url(#Path_4842_1_);}
	.st74{fill:url(#Path_4843_1_);}
	.st75{fill:url(#Path_4844_1_);}
	.st76{fill:url(#Path_4845_1_);}
	.st77{fill:url(#Path_4846_1_);}
</style>
<g id="Group_429" transform="translate(-1246.992 -486.515)">
	<g id="Group_365" transform="translate(1587.224 685.141)">
		<g id="Group_359" transform="translate(0 90.703)">
			<path id="Path_4696" class="st0" d="M-14.41,99.66c0.01-26.25,4.62-49.15,12.66-68.7l-1.34-0.72
				C-11.21,50-15.87,73.14-15.88,99.66H-14.41z"/>
			<path id="Path_4697" class="st0" d="M-14.37,99.7h-1.55v-0.04c0.01-25.45,4.32-48.8,12.8-69.43l0.02-0.04l1.41,0.75l-0.01,0.03
				c-8.39,20.4-12.65,43.51-12.66,68.69L-14.37,99.7z M-15.85,99.62h1.4c0.01-25.16,4.27-48.25,12.65-68.65l-1.28-0.68
				C-11.54,50.89-15.84,74.22-15.85,99.62L-15.85,99.62z"/>
		</g>
		<g id="Group_360" transform="translate(113.958 0)">
			<path id="Path_4698" class="st0" d="M-20.86,40.1c18.65-4.48,38-5.23,56.94-2.19c0.08-0.53,0.16-1.06,0.24-1.59
				C17.19,33.25-2.37,34-21.21,38.53C-21.1,39.06-20.98,39.58-20.86,40.1z"/>
			<path id="Path_4699" class="st0" d="M-20.89,40.15l-0.37-1.64l0.04-0.01c18.85-4.53,38.41-5.28,57.55-2.21l0.04,0.01l-0.25,1.67
				l-0.04-0.01c-18.94-3.03-38.28-2.29-56.93,2.19L-20.89,40.15z M-21.17,38.56l0.34,1.49c18.63-4.47,37.96-5.21,56.88-2.19
				l0.23-1.52C17.17,33.3-2.35,34.05-21.17,38.56z"/>
		</g>
		<g id="Group_361" transform="translate(192.101 6.01)">
			<path id="Path_4700" class="st0" d="M-24.87,35.75c19.27,5.53,37.09,15.23,52.19,28.43l0.96-1.25
				C13.03,49.59-4.98,39.79-24.45,34.2C-24.59,34.72-24.73,35.24-24.87,35.75z"/>
			<path id="Path_4701" class="st0" d="M27.33,64.23l-0.03-0.03C12.22,51-5.6,41.29-24.88,35.79l-0.04-0.01l0.44-1.62l0.04,0.01
				c9.63,2.78,18.93,6.59,27.75,11.34c8.96,4.84,17.34,10.67,25,17.38l0.03,0.02L27.33,64.23z M-24.83,35.73
				c9.51,2.75,18.71,6.51,27.43,11.22c8.85,4.78,17.14,10.55,24.71,17.18l0.92-1.19C13.01,49.6-4.97,39.8-24.43,34.25L-24.83,35.73z
				"/>
		</g>
		<g id="Group_362" transform="translate(254.948 43.921)">
			<path id="Path_4702" class="st0" d="M-27.81,33.61c11.27,11.68,20.4,25.26,26.96,40.11l1.32-0.76
				c-6.62-15.01-15.85-28.72-27.24-40.53L-27.81,33.61z"/>
			<path id="Path_4703" class="st0" d="M-0.87,73.77l-0.02-0.04c-6.56-14.85-15.68-28.42-26.95-40.1l-0.02-0.02l0.28-0.31l0.82-0.92
				l0.03,0.03C-15.34,44.22-6.12,57.94,0.51,72.95l0.01,0.03L-0.87,73.77z M-27.75,33.61C-16.5,45.28-7.39,58.84-0.83,73.67
				l1.26-0.72c-6.62-14.98-15.82-28.67-27.19-40.45L-27.75,33.61z"/>
		</g>
		<g id="Group_363" transform="translate(292.706 114.505)">
			<path id="Path_4704" class="st0" d="M-28.16,29.13l-1.42,0.48c3.64,15.14,5.44,30.67,5.36,46.25h1.48
				C-22.66,60.12-24.48,44.43-28.16,29.13z"/>
			<path id="Path_4705" class="st0" d="M-24.26,75.9v-0.04c0.08-15.57-1.72-31.1-5.36-46.24l-0.01-0.03l1.49-0.51l0.01,0.04
				c3.68,15.31,5.49,31,5.41,46.74v0.04L-24.26,75.9z M-29.53,29.63c3.63,15.13,5.43,30.63,5.35,46.19h1.4
				c0.08-15.71-1.74-31.37-5.4-46.65L-29.53,29.63z"/>
		</g>
		<g id="Group_364" transform="translate(23.511 22.714)">
			<path id="Path_4706" class="st0" d="M-15.73,79.86C-4.9,61.58,10.13,46.14,28.11,34.81l-0.79-1.39
				C9.16,44.87-6.03,60.47-16.97,78.94L-15.73,79.86z"/>
			<path id="Path_4707" class="st0" d="M-15.72,79.91l-1.3-0.96l0.02-0.03c5.59-9.4,12.28-18.09,19.94-25.9
				c7.34-7.46,15.52-14.05,24.37-19.63l0.03-0.02l0.82,1.45l-0.03,0.02C10.14,46.15-4.88,61.59-15.7,79.88L-15.72,79.91z
				 M-16.92,78.93l1.18,0.87c5.53-9.29,12.14-17.88,19.71-25.6c7.25-7.38,15.34-13.89,24.09-19.41l-0.75-1.32
				C9.16,44.9-6.01,60.48-16.92,78.93L-16.92,78.93z"/>
		</g>
	</g>
	<g id="Group_370" transform="translate(1608.885 763.436)">
		<g id="Group_367" transform="translate(0)">
			<g id="Group_366" transform="translate(5.81)">
				
					<linearGradient id="Path_4708_1_" gradientUnits="userSpaceOnUse" x1="-365.1184" y1="223.2327" x2="-365.839" y2="223.1917" gradientTransform="matrix(121.0146 0 0 -191.9154 44381.4414 42949.2148)">
					<stop  offset="0" style="stop-color:#53CD9F"/>
					<stop  offset="1" style="stop-color:#0D7A5C"/>
				</linearGradient>
				<path id="Path_4708" class="st1" d="M-16.11,213.7c0,0,77.16-38.05,90.43-57.89s-6.24-20.97-6.24-20.97s34.43-33.49,29.59-47.59
					s-22.92-0.63-22.92-0.63S97.13,36.8,86.69,31.85c-19.45-9.23-46.72,43.8-46.72,43.8s5.86-23.04-7.53-22.29
					c-20.19,1.13-19.36,53.24-19.36,53.24S10.8,86.62-1.37,93.11C-23.21,104.76-16.11,213.7-16.11,213.7z"/>
			</g>
			
				<linearGradient id="Path_4709_1_" gradientUnits="userSpaceOnUse" x1="-361.0841" y1="223.1534" x2="-360.131" y2="223.1534" gradientTransform="matrix(114.8169 0 0 -191.0264 41441.6211 42750)">
				<stop  offset="0" style="stop-color:#53CD9F"/>
				<stop  offset="1" style="stop-color:#0D7A5C"/>
			</linearGradient>
			<path id="Path_4709" class="st2" d="M0.05,85.05c9.67-4.96,16.55-0.9,16.55-0.9s1.46-29.66,21.66-30.79
				c13.39-0.75,7.53,22.29,7.53,22.29s27.28-53.03,46.72-43.8L-10.39,212.85C-11.11,200.22-30.07,100.47,0.05,85.05z"/>
		</g>
		<g id="Group_369" transform="translate(27.309 102.119)">
			<g id="Group_368" transform="translate(0.201 6.226)">
				
					<linearGradient id="Path_4710_1_" gradientUnits="userSpaceOnUse" x1="-387.192" y1="114.4848" x2="-387.7935" y2="114.3971" gradientTransform="matrix(144.7153 0 0 -90.245 56212.8828 10389.417)">
					<stop  offset="0" style="stop-color:#53CD9F"/>
					<stop  offset="1" style="stop-color:#0D7A5C"/>
				</linearGradient>
				<path id="Path_4710" class="st3" d="M-18.22,106.88c0,0,64.48,9.21,80.82,2.22s3.26-16.98,3.26-16.98s35.09-6.9,37.79-17.66
					s-14.04-9.71-14.04-9.71s34.21-21.98,29.71-29.32c-8.38-13.66-46.94,8.33-46.94,8.33s13.02-11.99,4.36-16.96
					c-13.06-7.5-33.71,25.34-33.71,25.34s1.28-8.09-8.95-8.99C15.72,41.55-18.22,106.88-18.22,106.88z"/>
			</g>
			
				<linearGradient id="Path_4711_1_" gradientUnits="userSpaceOnUse" x1="-388.3627" y1="120.5937" x2="-387.4095" y2="120.5937" gradientTransform="matrix(144.489 0 0 -91.0251 56095.9297 11046.4307)">
				<stop  offset="0" style="stop-color:#53CD9F"/>
				<stop  offset="1" style="stop-color:#0D7A5C"/>
			</linearGradient>
			<path id="Path_4711" class="st4" d="M28.06,40.06c10.23,0.9,15.16,18.32,15.16,18.32S64.25,19.45,77.3,26.95
				c8.66,4.97-1.59,21.31-1.59,21.31s35.41-20.25,43.79-6.6l-137.73,71.09C-13.53,104.58,10.92,38.56,28.06,40.06z"/>
		</g>
	</g>
	<g id="Group_371" transform="translate(1459.285 603.836)">
		<path id="Path_4712" class="st0" d="M-9.81,248.36h116.03c-4.29-39.53,6.57-73.41,28.34-98.47c21.64-25.05,54.2-41.28,90.26-45.51
			c35.93-4.23,75.36,3.54,107.71,26.48c32.22,22.94,57.35,61.05,61.64,117.5h14.5c4.29-61.29-14.73-111.48-48.74-147.41
			c-33.88-35.94-82.75-57.6-135.13-61.83c-52.24-4.23-107.99,8.98-152.58,42.79C27.77,115.73-5.52,170.15-9.81,248.36z"/>
		<path id="Path_4713" class="st5" d="M408.77,248.48h-14.72l-0.01-0.11c-4.88-64.28-36.19-99.32-61.59-117.41
			c-25.42-18.03-56.13-27.56-88.81-27.56c-6.29,0-12.57,0.37-18.82,1.1c-36.53,4.29-68.56,20.43-90.18,45.47
			c-22.68,26.09-32.47,60.11-28.31,98.37l0.01,0.13H-9.94l0.01-0.12C-5,158.57,37.43,108.23,72.15,81.82
			c19.32-14.59,41.01-25.73,64.12-32.96c22.52-7.08,45.99-10.66,69.59-10.62c6.3,0,12.68,0.26,18.94,0.76
			c25.76,1.98,50.98,8.43,74.54,19.04c22.82,10.18,43.43,24.73,60.66,42.83c17.4,18.37,30.62,40.28,38.76,64.24
			c8.73,25.46,12.1,53.47,10.01,83.26L408.77,248.48z M394.27,248.25h14.29c4.06-58.35-12.78-109.26-48.71-147.22
			c-33.49-35.52-81.45-57.46-135.05-61.79c-6.26-0.51-12.63-0.76-18.92-0.76c-49.12,0-96.56,15.46-133.57,43.53
			C37.62,108.38-4.74,158.63-9.69,248.24h115.78c-2.08-19.3-0.59-37.67,4.42-54.58c4.74-16.17,12.91-31.13,23.97-43.85
			c11.11-12.72,24.62-23.11,39.76-30.59c15.85-7.91,32.97-12.97,50.57-14.96c6.26-0.73,12.55-1.1,18.85-1.1
			c15.53-0.02,30.98,2.23,45.86,6.67c15.4,4.58,29.96,11.65,43.08,20.93C358.02,148.87,389.35,183.95,394.27,248.25L394.27,248.25z"
			/>
	</g>
	<g id="Group_373" transform="translate(1466.147 762.672)">
		<path id="Path_4714" class="st6" d="M44.32,65.69c-3.2,14.08-17.21,22.9-31.3,19.7c-14.08-3.2-22.9-17.21-19.7-31.3
			c3.2-14.08,17.21-22.9,31.3-19.7c0,0,0,0,0,0C38.7,37.59,47.53,51.6,44.32,65.69z"/>
		
			<linearGradient id="Ellipse_5_1_" gradientUnits="userSpaceOnUse" x1="-219.2236" y1="222.8271" x2="-218.2704" y2="222.8271" gradientTransform="matrix(41.8676 -19.1517 -19.1517 -41.8676 13444.7471 5199.75)">
			<stop  offset="0" style="stop-color:#C9CD55"/>
			<stop  offset="0.507" style="stop-color:#659C52"/>
			<stop  offset="1" style="stop-color:#287F50"/>
		</linearGradient>
		<circle id="Ellipse_5" class="st7" cx="18.82" cy="59.89" r="21.94"/>
		<g id="Group_372" transform="translate(18.229 15.687)">
			<path id="Path_4715" class="st6" d="M-9.15,56.44l1.98-3.08c-1.28-0.91-2.44-1.98-3.44-3.19c-0.74-0.91-0.65-2.24,0.21-3.04
				l0.1-0.1c0.9-0.84,2.31-0.79,3.14,0.11c0.04,0.04,0.08,0.08,0.11,0.13c0.88,1.12,1.94,2.09,3.13,2.87
				c1.85,1.19,3.57,1.29,4.41-0.01c0.79-1.23,0.25-2.68-1.62-5.03c-2.72-3.4-4.05-6.54-2.02-9.69c1.83-2.85,5.28-3.8,9.19-2.25
				l1.98-3.08l3.18,2.04l-1.83,2.85c0.98,0.68,1.88,1.46,2.69,2.33c0.82,0.9,0.76,2.3-0.14,3.13l0,0c-0.9,0.84-2.31,0.79-3.15-0.11
				c-0.02-0.02-0.03-0.04-0.05-0.06c-0.75-0.87-1.62-1.62-2.59-2.24c-2.11-1.36-3.37-0.88-3.96,0.02c-0.69,1.07,0.01,2.48,2.1,5.29
				c2.98,3.84,3.39,6.63,1.52,9.55c-1.86,2.89-5.48,4.04-9.63,2.29l-2.13,3.31L-9.15,56.44z"/>
		</g>
	</g>
	<path id="Path_4716" class="st0" d="M1860.68,882.89l19.55-52.48l-19.97,10.33l-23.49-10.33L1860.68,882.89z"/>
	<g id="Group_374" transform="translate(1714.755 873.357)">
		
			<linearGradient id="Path_4717_1_" gradientUnits="userSpaceOnUse" x1="-467.0942" y1="105.4873" x2="-466.141" y2="105.4873" gradientTransform="matrix(81.4131 0 0 -9.7286 38007.0664 1075.0507)">
			<stop  offset="0" style="stop-color:#C7A44F"/>
			<stop  offset="1" style="stop-color:#609A3F"/>
		</linearGradient>
		<path id="Path_4717" class="st8" d="M52.16,53.44h-67.76c-2.64,0.08-4.84-2-4.92-4.63l0,0c0.08-2.64,2.28-4.71,4.92-4.63h67.76
			c2.64-0.08,4.84,2,4.92,4.63l0,0C57.01,51.44,54.8,53.51,52.16,53.44z"/>
		<path id="Path_4718" class="st6" d="M51.07,44.17h-68.33c-2.56,0-4.63-2.07-4.63-4.63v0l0,0c0-2.56,2.07-4.63,4.63-4.64
			c0,0,0,0,0,0h68.33c2.56,0,4.63,2.08,4.63,4.64l0,0C55.71,42.09,53.63,44.17,51.07,44.17L51.07,44.17z"/>
		
			<linearGradient id="Path_4719_1_" gradientUnits="userSpaceOnUse" x1="-467.0982" y1="105.3943" x2="-466.145" y2="105.3943" gradientTransform="matrix(81.4121 0 0 -9.7294 38013.5078 1055.6833)">
			<stop  offset="0" style="stop-color:#C7A44F"/>
			<stop  offset="1" style="stop-color:#609A3F"/>
		</linearGradient>
		<path id="Path_4719" class="st9" d="M58.74,34.9H-9.02c-2.64,0.08-4.84-2-4.92-4.63l0,0c0.08-2.64,2.28-4.71,4.92-4.64h67.76
			c2.64-0.08,4.84,2,4.92,4.64l0,0C63.58,32.9,61.38,34.97,58.74,34.9z"/>
	</g>
	<g id="Group_387" transform="translate(1302.297 766.894)">
		<rect id="Rectangle_289" x="110.86" y="107.53" class="st10" width="254.18" height="26.61"/>
		<g id="Group_376" transform="translate(122.252 34.521)">
			
				<linearGradient id="Path_4720_1_" gradientUnits="userSpaceOnUse" x1="-176.6149" y1="185.044" x2="-175.6617" y2="185.044" gradientTransform="matrix(230.031 0 0 -144.97 40618.5977 26923.916)">
				<stop  offset="0" style="stop-color:#C9CD55"/>
				<stop  offset="0.507" style="stop-color:#659C52"/>
				<stop  offset="1" style="stop-color:#287F50"/>
			</linearGradient>
			<path id="Path_4720" class="st11" d="M175.18,167.18c-56.96-30.2-119.31-48.88-183.5-54.98c2.37-27.73,4.74-55.47,7.1-83.2
				C73,36.05,145.1,57.65,210.95,92.57L175.18,167.18z"/>
			<path id="Path_4721" class="st0" d="M-2.68,96.99c1.61-17.3,3.23-34.59,4.84-51.89c6.72,0.69,12.73-3.65,13.47-9.86
				c61.84,7.81,121.95,25.82,177.89,53.3c-2.5,5.68,0.43,12.7,6.48,15.84l-21.96,46.76c-5.15-2.73-11.54-0.77-14.28,4.38
				c-0.14,0.26-0.27,0.53-0.38,0.8c-49.12-24.13-101.91-39.95-156.21-46.8C7.95,103.38,3.6,97.78-2.53,97
				C-2.58,97-2.63,96.99-2.68,96.99z"/>
			<g id="Group_375" transform="translate(29.502 33.945)">
				<path id="Path_4722" class="st12" d="M100.09,65.9c-5.15,14.69-21.04,22.62-35.88,17.92c-14.77-4.58-24.26-20-20.94-35.45
					C46.59,32.94,62.98,23.7,79.6,28.84C96.22,33.96,105.25,51.04,100.09,65.9z"/>
				<path id="Path_4723" class="st13" d="M64.09,78.58c0.41-1.66,0.83-3.32,1.24-4.98c-2.12-0.69-4.14-1.64-6.02-2.82
					c-1.41-0.88-1.91-2.69-1.16-4.17l0.1-0.18c0.81-1.5,2.68-2.06,4.18-1.25c0.09,0.05,0.19,0.11,0.27,0.17
					c1.7,1.13,3.56,1.99,5.52,2.56c3.02,0.84,5.38,0.3,5.93-1.79c0.52-1.98-0.86-3.75-4.51-6.17c-5.28-3.49-8.65-7.13-7.49-12.24
					c1.05-4.64,5.33-7.41,11.56-6.86c0.41-1.66,0.82-3.32,1.22-4.99c1.83,0.51,3.66,1.03,5.49,1.55c-0.39,1.54-0.78,3.07-1.18,4.61
					c1.7,0.55,3.33,1.28,4.88,2.17c1.55,0.85,2.12,2.79,1.27,4.34l0,0c-0.96,1.51-2.96,1.96-4.47,1c-0.02-0.01-0.04-0.03-0.06-0.04
					c-1.45-0.9-3.01-1.59-4.65-2.05c-3.58-1.02-5.1,0.15-5.45,1.61c-0.43,1.74,1.23,3.35,5.41,6.35c5.89,4.07,7.65,7.76,6.35,12.44
					c-1.29,4.64-5.68,7.55-11.96,6.86c-0.46,1.78-0.92,3.56-1.38,5.34C67.48,79.52,65.79,79.04,64.09,78.58z"/>
				<path id="Path_4724" class="st12" d="M34.52,47.78c-14.61-3.37-29.35-6.11-44.21-8.23l1.03-8c15.06,2.14,30,4.92,44.83,8.34
					L34.52,47.78z"/>
				<path id="Path_4725" class="st12" d="M148.44,88.23c-13.6-6.65-27.42-12.7-41.46-18.15l2.67-7.57
					c14.23,5.52,28.25,11.65,42.04,18.4L148.44,88.23z"/>
			</g>
		</g>
		<g id="Group_378" transform="translate(128.191)">
			
				<linearGradient id="Path_4726_1_" gradientUnits="userSpaceOnUse" x1="-182.5586" y1="219.6181" x2="-181.6054" y2="219.6181" gradientTransform="matrix(217.093 0 0 -162.657 39623.6172 35830.5508)">
				<stop  offset="0" style="stop-color:#C9CD55"/>
				<stop  offset="0.507" style="stop-color:#659C52"/>
				<stop  offset="1" style="stop-color:#287F50"/>
			</linearGradient>
			<path id="Path_4726" class="st14" d="M198.34,112.68c-59.14,12.35-115.45,37.12-165.98,72.98l-40.95-70.67
				C49.83,73.52,114.95,44.9,183.32,30.61L198.34,112.68z"/>
			
				<linearGradient id="Path_4727_1_" gradientUnits="userSpaceOnUse" x1="-182.1454" y1="219.9505" x2="-181.9539" y2="218.3767" gradientTransform="matrix(197.9651 0 0 -141.812 36144.8359 31239.9863)">
				<stop  offset="0" style="stop-color:#C9CD55"/>
				<stop  offset="0.507" style="stop-color:#659C52"/>
				<stop  offset="1" style="stop-color:#287F50"/>
			</linearGradient>
			<path id="Path_4727" class="st15" d="M28.08,169.98L2.84,125.64c5.34-3.72,7.38-11,4.47-16.4C56.43,76.5,110.87,52.56,168.2,38.5
				c1.36,6.06,7.37,9.86,13.43,8.5c0.05-0.01,0.1-0.02,0.15-0.03c3.25,17.05,6.5,34.09,9.75,51.14c-5.71,1.25-9.25,7.34-7.94,13.44
				c-50.35,12.35-98.16,33.37-141.3,62.13C39.39,168.27,32.99,166.55,28.08,169.98z"/>
			<g id="Group_377" transform="translate(38.337 38.454)">
				
					<linearGradient id="Path_4728_1_" gradientUnits="userSpaceOnUse" x1="-220.557" y1="179.2262" x2="-220.6247" y2="179.9372" gradientTransform="matrix(57.875 0 0 -60.7612 12833.4004 11015.9365)">
					<stop  offset="0" style="stop-color:#C9CD55"/>
					<stop  offset="0.507" style="stop-color:#659C52"/>
					<stop  offset="1" style="stop-color:#287F50"/>
				</linearGradient>
				<path id="Path_4728" class="st16" d="M88.96,49.68c4.45,15.11-3.11,31.27-16.54,37.06c-13.44,5.75-29.02-0.48-35.14-14.87
					c-6.12-14.37,0.85-32.14,15.97-38.62C68.37,26.75,84.53,34.59,88.96,49.68z"/>
				<path id="Path_4729" class="st6" d="M69.42,82.65l-1.85-4.75c-1.92,0.79-3.95,1.33-6.01,1.59c-1.58,0.15-3-1-3.17-2.58
					c-0.01-0.07-0.02-0.13-0.03-0.2c-0.3-1.74,0.87-3.39,2.61-3.69c0.02,0,0.05-0.01,0.07-0.01c1.9-0.19,3.76-0.69,5.5-1.48
					c2.7-1.25,4.14-3.18,3.38-5.19c-0.72-1.91-2.71-2.43-6.76-2.04c-5.83,0.59-10.34-0.16-12.33-4.97
					c-1.8-4.35-0.18-9.28,4.72-12.81c-0.62-1.58-1.24-3.16-1.87-4.74c1.63-0.76,3.27-1.52,4.91-2.26c0.56,1.47,1.13,2.94,1.69,4.41
					c1.55-0.64,3.16-1.1,4.81-1.37c1.59-0.25,3.07,0.83,3.32,2.42c0.01,0.07,0.02,0.15,0.03,0.22l0,0c0.18,1.77-1.05,3.37-2.81,3.65
					c-1.58,0.21-3.13,0.66-4.58,1.33c-3.2,1.47-3.68,3.36-3.13,4.75c0.65,1.65,2.76,1.88,7.52,1.61c6.61-0.51,9.95,1.31,11.6,5.85
					c1.62,4.51,0,9.61-5.02,13.06c0.65,1.71,1.3,3.41,1.94,5.12C72.46,81.25,70.94,81.95,69.42,82.65z"/>
				<path id="Path_4730" class="st12" d="M30.5,76.98C17.85,83.58,5.45,90.78-6.7,98.55c-1.23-2.34-2.45-4.68-3.68-7.02
					C1.92,83.65,14.5,76.36,27.34,69.66L30.5,76.98z"/>
				
					<linearGradient id="Path_4731_1_" gradientUnits="userSpaceOnUse" x1="-220.6471" y1="173.702" x2="-220.7338" y2="175.7809" gradientTransform="matrix(45.0288 0 0 -20.793 10058.4951 3732.7944)">
					<stop  offset="0" style="stop-color:#C9CD55"/>
					<stop  offset="0.507" style="stop-color:#659C52"/>
					<stop  offset="1" style="stop-color:#287F50"/>
				</linearGradient>
				<path id="Path_4731" class="st17" d="M137.05,36.69c-13.73,3.36-27.29,7.34-40.68,11.94l-2.24-7.71
					c13.57-4.66,27.32-8.69,41.25-12.11L137.05,36.69z"/>
			</g>
		</g>
		<g id="Group_380" transform="translate(136.982 45.36)">
			
				<linearGradient id="Path_4732_1_" gradientUnits="userSpaceOnUse" x1="-191.3506" y1="174.0672" x2="-190.3974" y2="174.0672" gradientTransform="matrix(220.2 0 0 -116.396 42126.3984 20344.6973)">
				<stop  offset="0" style="stop-color:#C9CD55"/>
				<stop  offset="0.507" style="stop-color:#659C52"/>
				<stop  offset="1" style="stop-color:#287F50"/>
			</linearGradient>
			<path id="Path_4732" class="st18" d="M196.67,112.84c-61.7-3.7-123.5,5.36-181.54,26.61C7.09,113.03-0.95,86.61-9,60.2
				c67.11-24.57,138.56-35.04,209.89-30.76C199.49,57.24,198.08,85.04,196.67,112.84z"/>
			
				<linearGradient id="Path_4733_1_" gradientUnits="userSpaceOnUse" x1="-190.9287" y1="174.7558" x2="-190.7438" y2="172.5778" gradientTransform="matrix(205.3339 0 0 -102.4191 39291.9883 17899.6582)">
				<stop  offset="0" style="stop-color:#C9CD55"/>
				<stop  offset="0.507" style="stop-color:#659C52"/>
				<stop  offset="1" style="stop-color:#287F50"/>
			</linearGradient>
			<path id="Path_4733" class="st19" d="M14.54,123.14l-14.69-49.6c6.16-2.19,9.87-8.69,8.25-14.69
				c56.73-18.72,116.27-27.44,175.99-25.79c-0.12,6.26,5.02,11.46,11.49,11.8c-0.75,17.36-1.5,34.72-2.24,52.08
				c-5.95-0.31-10.88,4.64-11.01,10.9c-52.44-1.45-104.73,6.21-154.54,22.65C26.15,124.49,20.21,121.13,14.54,123.14z"/>
			<g id="Group_379" transform="translate(34.338 16.897)">
				
					<linearGradient id="Path_4734_1_" gradientUnits="userSpaceOnUse" x1="-225.383" y1="155.7684" x2="-225.4488" y2="156.4861" gradientTransform="matrix(59.6478 0 0 -60.2029 13516.9883 9478.9717)">
					<stop  offset="0" style="stop-color:#C9CD55"/>
					<stop  offset="0.507" style="stop-color:#659C52"/>
					<stop  offset="1" style="stop-color:#287F50"/>
				</linearGradient>
				<path id="Path_4734" class="st20" d="M97.62,53.35c0.89,15.81-10.36,29.44-25.02,31.48c-14.67,2-28.65-8.16-31.37-23.71
					c-2.72-15.53,8.33-30.88,24.83-33.14C82.56,25.7,96.74,37.57,97.62,53.35z"/>
				<path id="Path_4735" class="st6" d="M70.58,80.08c-0.24-1.7-0.49-3.39-0.73-5.09c-2.1,0.26-4.23,0.24-6.33-0.06
					c-1.6-0.27-2.71-1.73-2.55-3.34c0.01-0.07,0.01-0.13,0.02-0.2c0.11-1.71,1.59-3,3.31-2.89c0.07,0.01,0.15,0.01,0.22,0.02
					c1.92,0.32,3.87,0.33,5.79,0.03c2.96-0.49,4.84-1.98,4.56-4.13c-0.27-2.04-2.12-3.07-6.22-3.76c-5.92-0.98-10.21-2.9-11.06-8.08
					c-0.77-4.69,1.98-9.03,7.67-11.14c-0.25-1.69-0.5-3.39-0.75-5.08c1.8-0.3,3.6-0.6,5.4-0.88c0.22,1.57,0.43,3.14,0.65,4.72
					c1.69-0.21,3.39-0.23,5.09-0.06c1.68,0.18,2.89,1.68,2.72,3.35c0,0.03-0.01,0.06-0.01,0.09l0,0c-0.24,1.77-1.87,3.01-3.64,2.78
					c-1.61-0.22-3.24-0.19-4.85,0.07c-3.52,0.57-4.43,2.27-4.21,3.77c0.26,1.77,2.31,2.56,7.08,3.55c6.67,1.26,9.56,3.91,10.13,8.73
					c0.56,4.79-2.24,9.3-8.02,11.3c0.25,1.82,0.49,3.65,0.73,5.47C73.91,79.53,72.24,79.8,70.58,80.08z"/>
				<path id="Path_4736" class="st12" d="M33.32,64.26C19.23,67.3,5.26,70.97-8.59,75.27l-2.02-7.77
					c14.03-4.36,28.2-8.08,42.5-11.17C32.36,58.98,32.84,61.62,33.32,64.26z"/>
				<path id="Path_4737" class="st12" d="M148.32,53.54c-14.39-0.39-28.76-0.13-43.11,0.76c-0.14-2.69-0.28-5.37-0.42-8.06
					c14.54-0.91,29.11-1.17,43.72-0.78C148.45,48.16,148.38,50.85,148.32,53.54z"/>
			</g>
		</g>
		
			<linearGradient id="Rectangle_290_1_" gradientUnits="userSpaceOnUse" x1="-54.3544" y1="219.4471" x2="-53.4012" y2="219.4471" gradientTransform="matrix(266.665 0 0 -117.361 14605.2783 25918)">
			<stop  offset="0" style="stop-color:#00503E"/>
			<stop  offset="1" style="stop-color:#023222"/>
		</linearGradient>
		<rect id="Rectangle_290" x="110.86" y="107.53" class="st21" width="254.18" height="111.87"/>
		<rect id="Rectangle_291" x="120.23" y="113.04" class="st22" width="231.39" height="8.69"/>
		<rect id="Rectangle_292" x="123.17" y="136.09" class="st22" width="107.89" height="2.88"/>
		<g id="Group_382" transform="translate(308.476 121.375)">
			<path id="Path_4738" class="st6" d="M26.67,35.16c7.62,10.86,5,25.85-5.86,33.47c-10.86,7.62-25.85,5-33.47-5.86
				c-7.62-10.86-5-25.85,5.86-33.47C4.06,21.67,19.05,24.29,26.67,35.16C26.67,35.16,26.67,35.16,26.67,35.16z"/>
			
				<linearGradient id="Path_4739_1_" gradientUnits="userSpaceOnUse" x1="-363.3062" y1="96.8847" x2="-362.353" y2="96.8847" gradientTransform="matrix(42.3076 0 0 -42.3076 15357.46 4147.9194)">
				<stop  offset="0" style="stop-color:#C9CD55"/>
				<stop  offset="0.507" style="stop-color:#659C52"/>
				<stop  offset="1" style="stop-color:#287F50"/>
			</linearGradient>
			<path id="Path_4739" class="st23" d="M23.51,37.38c6.4,9.11,4.19,21.69-4.92,28.09C9.47,71.86-3.1,69.66-9.5,60.54
				c-6.4-9.11-4.19-21.69,4.92-28.09C4.54,26.06,17.11,28.26,23.51,37.38C23.51,37.38,23.51,37.38,23.51,37.38z"/>
			<g id="Group_381" transform="translate(16.269 9.809)">
				<path id="Path_4740" class="st24" d="M-6.94,53.33l-0.88-3.25c-1.41,0.32-2.85,0.44-4.29,0.38c-1.08-0.06-1.93-0.94-1.94-2.02
					v-0.13c-0.02-1.13,0.88-2.06,2.01-2.07c0.05,0,0.1,0,0.16,0c1.31,0.09,2.62-0.03,3.88-0.36c1.95-0.53,3.08-1.64,2.71-3.01
					c-0.35-1.3-1.67-1.82-4.43-2c-3.99-0.24-6.95-1.28-7.85-4.59c-0.81-3.01,0.67-5.94,4.13-7.65l-0.88-3.25l3.35-0.91l0.81,3.01
					C-9.08,27.24-8,27.1-6.9,27.09c1.12,0,2.03,0.9,2.05,2.02l0,0c0.02,1.13-0.89,2.06-2.02,2.08c-0.02,0-0.05,0-0.07,0
					c-1.05-0.02-2.1,0.11-3.12,0.39c-2.22,0.6-2.68,1.75-2.42,2.71c0.31,1.13,1.7,1.53,4.9,1.83c4.46,0.34,6.61,1.77,7.44,4.85
					c0.82,3.04-0.63,6.23-4.38,7.97l0.94,3.49L-6.94,53.33z"/>
			</g>
		</g>
		<g id="Group_384" transform="translate(259.487 89.819)">
			<circle id="Ellipse_6" class="st6" cx="9.29" cy="50.43" r="24.03"/>
			
				<linearGradient id="Ellipse_7_1_" gradientUnits="userSpaceOnUse" x1="-314.263" y1="128.4056" x2="-313.3098" y2="128.4056" gradientTransform="matrix(42.304 0 0 -42.304 13283.7139 5482.5044)">
				<stop  offset="0" style="stop-color:#C9CD55"/>
				<stop  offset="0.507" style="stop-color:#659C52"/>
				<stop  offset="1" style="stop-color:#287F50"/>
			</linearGradient>
			<circle id="Ellipse_7" class="st25" cx="9.29" cy="50.43" r="20.16"/>
			<g id="Group_383" transform="translate(15.124 10.337)">
				<path id="Path_4741" class="st6" d="M-12.07,53.04l1.14-3.16c-1.33-0.55-2.59-1.28-3.73-2.16c-0.85-0.67-1.04-1.87-0.43-2.76
					l0.07-0.11c0.63-0.93,1.91-1.18,2.84-0.54c0.04,0.03,0.09,0.06,0.13,0.09c1.02,0.83,2.16,1.48,3.39,1.93
					c1.9,0.69,3.46,0.43,3.95-0.91c0.46-1.27-0.32-2.45-2.48-4.18c-3.13-2.49-4.96-5.04-3.79-8.27c1.06-2.93,3.96-4.48,7.78-3.89
					l1.14-3.16l3.26,1.18l-1.06,2.93c1.01,0.41,1.98,0.92,2.88,1.54c0.92,0.64,1.15,1.91,0.51,2.83l0,0
					c-0.64,0.93-1.91,1.17-2.84,0.54c-0.02-0.01-0.04-0.03-0.06-0.04c-0.85-0.62-1.78-1.12-2.78-1.48c-2.16-0.79-3.2-0.11-3.54,0.83
					c-0.4,1.1,0.51,2.22,2.96,4.31c3.46,2.84,4.39,5.25,3.3,8.25c-1.08,2.96-4.09,4.74-8.16,4.01l-1.23,3.4L-12.07,53.04z"/>
			</g>
		</g>
		<rect id="Rectangle_293" x="242.79" y="154.11" class="st22" width="108.82" height="58.32"/>
		
			<linearGradient id="Path_4742_1_" gradientUnits="userSpaceOnUse" x1="-54.5794" y1="217.941" x2="-53.6262" y2="217.941" gradientTransform="matrix(79.842 0 0 -35.3978 4646.6704 7917.1621)">
			<stop  offset="0" style="stop-color:#00503E"/>
			<stop  offset="1" style="stop-color:#023222"/>
		</linearGradient>
		<path id="Path_4742" class="st26" d="M365.05,185.65h-62.9c-2.79,0-5.05,2.8-5.05,6.25l0,0c0,3.45,2.26,6.25,5.05,6.25h-8.16
			c-2.79,0-5.05,2.8-5.05,6.25l0,0c0,3.45,2.26,6.25,5.05,6.25h1.41c-2.79,0-5.05,2.8-5.05,6.25c0,0.85,0.14,1.7,0.42,2.51h74.26
			L365.05,185.65z"/>
		<g id="Group_386" transform="translate(0 193.987)">
			<g id="Group_385">
				
					<linearGradient id="Path_4743_1_" gradientUnits="userSpaceOnUse" x1="-54.3152" y1="8.3722" x2="-53.362" y2="8.3722" gradientTransform="matrix(745.2853 0 0 -4.3031 40477.7578 59.6098)">
					<stop  offset="0" style="stop-color:#53CD9F"/>
					<stop  offset="1" style="stop-color:#0D7A5C"/>
				</linearGradient>
				<path id="Path_4743" class="st27" d="M-2.59,23.58L-2.59,23.58c0,1.13,1.27,2.05,2.83,2.05h704.75c1.56,0,2.83-0.92,2.83-2.05
					l0,0c0-1.13-1.27-2.05-2.83-2.05H0.24C-1.32,21.53-2.59,22.45-2.59,23.58z"/>
			</g>
		</g>
		
			<linearGradient id="Path_4744_1_" gradientUnits="userSpaceOnUse" x1="-54.5902" y1="212.3671" x2="-53.637" y2="212.3671" gradientTransform="matrix(78.043 0 0 -9.8999 4556.3906 2313.2139)">
			<stop  offset="0" style="stop-color:#C7A44F"/>
			<stop  offset="1" style="stop-color:#609A3F"/>
		</linearGradient>
		<path id="Path_4744" class="st28" d="M365.68,215.52h-64.95c-2.61,0-4.72-2.11-4.72-4.72l0,0c0-2.61,2.11-4.72,4.72-4.72h64.95
			c2.61,0,4.72,2.11,4.72,4.72l0,0C370.4,213.41,368.29,215.52,365.68,215.52z"/>
		<path id="Path_4745" class="st6" d="M364.36,206.08h-64.95c-2.61,0-4.72-2.11-4.72-4.72l0,0c0-2.61,2.11-4.72,4.72-4.72
			c0,0,0,0,0,0h64.95c2.61,0,4.72,2.11,4.72,4.72l0,0C369.08,203.97,366.97,206.08,364.36,206.08z"/>
		
			<linearGradient id="Path_4746_1_" gradientUnits="userSpaceOnUse" x1="-54.5941" y1="212.2744" x2="-53.6409" y2="212.2744" gradientTransform="matrix(78.043 0 0 -9.901 4563.0005 2293.6531)">
			<stop  offset="0" style="stop-color:#C7A44F"/>
			<stop  offset="1" style="stop-color:#609A3F"/>
		</linearGradient>
		<path id="Path_4746" class="st29" d="M371.99,196.64h-64.95c-2.61,0-4.72-2.11-4.72-4.72l0,0c0-2.61,2.11-4.72,4.72-4.72h64.95
			c2.61,0,4.72,2.11,4.72,4.72l0,0C376.7,194.53,374.59,196.64,371.99,196.64z"/>
	</g>
	<g id="Group_390" transform="translate(1246.992 764.064)">
		<g id="Group_388" transform="translate(27.016 0)">
			
				<linearGradient id="Path_4747_1_" gradientUnits="userSpaceOnUse" x1="-26.0676" y1="222.5287" x2="-25.1144" y2="222.5287" gradientTransform="matrix(121.3176 0 0 -192.3932 3161.2 42935.4453)">
				<stop  offset="0" style="stop-color:#C9CD55"/>
				<stop  offset="0.507" style="stop-color:#659C52"/>
				<stop  offset="1" style="stop-color:#287F50"/>
			</linearGradient>
			<path id="Path_4747" class="st30" d="M113.27,214.13c0,0-77.35-38.14-90.66-58.03s6.25-21.02,6.25-21.02S-5.65,101.5-0.8,87.37
				s22.98-0.63,22.98-0.63S-0.25,36.79,10.21,31.82c19.49-9.25,46.84,43.91,46.84,43.91s-5.88-23.09,7.55-22.34
				c20.24,1.13,19.41,53.37,19.41,53.37s2.29-20.03,14.49-13.52C120.39,104.91,113.27,214.13,113.27,214.13z"/>
		</g>
		<path id="Path_4748" class="st0" d="M129.91,85.16c-9.53-5.29-19.02,10.17-19.02,10.17s0.96-40.8-19.28-41.93
			c-13.42-0.75-7.55,22.34-7.55,22.34S56.72,22.58,37.23,31.83l103.15,181.46C141.11,200.61,148.79,95.63,129.91,85.16z"/>
		<g id="Group_389" transform="translate(0 107.509)">
			
				<linearGradient id="Path_4749_1_" gradientUnits="userSpaceOnUse" x1="0.9655" y1="114.5618" x2="1.9187" y2="114.5618" gradientTransform="matrix(145.0778 0 0 -89.322 -140.0775 10301.1768)">
				<stop  offset="0" style="stop-color:#C9CD55"/>
				<stop  offset="0.507" style="stop-color:#659C52"/>
				<stop  offset="1" style="stop-color:#287F50"/>
			</linearGradient>
			<path id="Path_4749" class="st31" d="M138.29,107.1c0,0-63.26,7.86-79.65,0.86S54,92.3,54,92.3s-35.17-6.91-37.89-17.7
				s14.08-9.73,14.08-9.73S-4.1,42.83,0.41,35.48c8.4-13.69,47.06,8.36,47.06,8.36s-13.05-12.02-4.37-17
				c13.09-7.52,33.79,25.4,33.79,25.4s-1.29-8.11,8.97-9.01C104.25,41.6,138.29,107.1,138.29,107.1z"/>
		</g>
		
			<linearGradient id="Path_4750_1_" gradientUnits="userSpaceOnUse" x1="1.7293" y1="220.8927" x2="1.472" y2="221.886" gradientTransform="matrix(144.851 0 0 -91.5153 -139.421 20495.1836)">
			<stop  offset="0" style="stop-color:#C9CD55"/>
			<stop  offset="0.507" style="stop-color:#659C52"/>
			<stop  offset="1" style="stop-color:#287F50"/>
		</linearGradient>
		<path id="Path_4750" class="st32" d="M84.78,139.74c-10.25,0.9-10.09,10.86-10.09,10.86s-18.87-29.88-31.96-22.36
			c-8.67,4.99,1.59,21.36,1.59,21.36s-35.5-20.3-43.9-6.61l138.07,71.27C133.79,206.05,101.96,138.23,84.78,139.74z"/>
	</g>
	
		<linearGradient id="Path_4751_1_" gradientUnits="userSpaceOnUse" x1="1247.9163" y1="985.666" x2="1246.6952" y2="977.235" gradientTransform="matrix(18.2427 0 0 -17.5576 -21174.5313 17784.8379)">
		<stop  offset="0" style="stop-color:#53CD9F"/>
		<stop  offset="1" style="stop-color:#0D7A5C"/>
	</linearGradient>
	<path id="Path_4751" class="st33" d="M1585.35,560.38l-0.75-5.15l3.81-3.53c0.29-0.27,0.31-0.72,0.04-1.01
		c-0.11-0.12-0.25-0.19-0.4-0.22l-5.12-0.88l-2.18-4.72c-0.17-0.36-0.59-0.51-0.95-0.35c-0.14,0.07-0.26,0.18-0.33,0.32l-2.42,4.6
		l-5.16,0.62c-0.39,0.05-0.67,0.4-0.63,0.79c0.02,0.16,0.09,0.3,0.2,0.41l3.63,3.72l-1.01,5.1c-0.08,0.39,0.17,0.76,0.56,0.84
		c0.15,0.03,0.31,0.01,0.46-0.06l4.66-2.3l4.54,2.54c0.34,0.19,0.78,0.07,0.97-0.27C1585.35,560.7,1585.38,560.54,1585.35,560.38z"
		/>
	
		<linearGradient id="Path_4752_1_" gradientUnits="userSpaceOnUse" x1="1247.3247" y1="984.7584" x2="1247.9711" y2="976.3636" gradientTransform="matrix(18.2435 0 0 -17.5576 -21272.291 17790.5156)">
		<stop  offset="0" style="stop-color:#FB9A2B"/>
		<stop  offset="1" style="stop-color:#E65925"/>
	</linearGradient>
	<path id="Path_4752" class="st34" d="M1493.18,565.79l-0.75-5.15l3.81-3.53c0.29-0.27,0.31-0.72,0.04-1.01
		c-0.11-0.12-0.25-0.19-0.4-0.22l-5.12-0.88l-2.18-4.72c-0.17-0.36-0.59-0.51-0.95-0.35c-0.14,0.07-0.26,0.18-0.33,0.32l-2.42,4.6
		l-5.16,0.62c-0.39,0.05-0.67,0.4-0.63,0.79c0.02,0.16,0.09,0.3,0.2,0.41l3.63,3.72l-1.01,5.1c-0.08,0.39,0.17,0.76,0.56,0.84
		c0.15,0.03,0.32,0.01,0.46-0.06l4.66-2.3l4.54,2.54c0.34,0.19,0.78,0.07,0.97-0.27C1493.18,566.11,1493.21,565.95,1493.18,565.79z"
		/>
	
		<linearGradient id="Path_4753_1_" gradientUnits="userSpaceOnUse" x1="1247.3717" y1="985.6781" x2="1246.1516" y2="977.2471" gradientTransform="matrix(18.2424 0 0 -17.5597 -20966.0215 17816.9238)">
		<stop  offset="0" style="stop-color:#53CD9F"/>
		<stop  offset="1" style="stop-color:#0D7A5C"/>
	</linearGradient>
	<path id="Path_4753" class="st35" d="M1783.81,589.01l-0.75-5.15l3.81-3.53c0.29-0.27,0.31-0.72,0.04-1.01
		c-0.11-0.11-0.25-0.19-0.4-0.22l-5.12-0.88l-2.18-4.72c-0.17-0.36-0.59-0.51-0.95-0.35c-0.14,0.07-0.26,0.18-0.33,0.32l-2.42,4.6
		l-5.16,0.61c-0.39,0.05-0.67,0.4-0.63,0.79c0.02,0.16,0.09,0.3,0.2,0.41l3.63,3.72l-1.01,5.1c-0.08,0.39,0.18,0.76,0.56,0.84
		c0.15,0.03,0.31,0.01,0.45-0.06l4.66-2.3l4.54,2.54c0.34,0.19,0.78,0.07,0.97-0.27C1783.81,589.33,1783.84,589.17,1783.81,589.01z"
		/>
	
		<linearGradient id="Path_4754_1_" gradientUnits="userSpaceOnUse" x1="1246.7568" y1="984.5657" x2="1247.4031" y2="976.1709" gradientTransform="matrix(18.2424 0 0 -17.5587 -21045.4453 17771.0078)">
		<stop  offset="0" style="stop-color:#FB9A2B"/>
		<stop  offset="1" style="stop-color:#E65925"/>
	</linearGradient>
	<path id="Path_4754" class="st36" d="M1708.11,546.17l-0.75-5.15l3.81-3.53c0.29-0.27,0.31-0.72,0.04-1.01
		c-0.11-0.11-0.25-0.19-0.4-0.22l-5.12-0.88l-2.18-4.72c-0.17-0.36-0.59-0.51-0.95-0.35c-0.14,0.07-0.26,0.18-0.33,0.32l-2.42,4.6
		l-5.16,0.61c-0.39,0.05-0.67,0.4-0.62,0.8c0.02,0.16,0.09,0.3,0.2,0.41l3.63,3.72l-1.01,5.1c-0.08,0.39,0.17,0.76,0.56,0.84
		c0.15,0.03,0.31,0.01,0.46-0.06l4.66-2.3l4.54,2.54c0.34,0.19,0.78,0.07,0.97-0.27C1708.1,546.48,1708.13,546.32,1708.11,546.17z"
		/>
	<path id="Rectangle_294" class="st12" d="M1384.06,803.76h62.86c11.77,0,21.3,9.54,21.3,21.3v38.89c0,11.77-9.53,21.31-21.3,21.31
		c0,0,0,0,0,0h-62.86c-11.77,0-21.3-9.54-21.3-21.3v-38.9C1362.75,813.3,1372.29,803.76,1384.06,803.76z"/>
	<g id="Group_391" transform="translate(1358.463 712.978)">
		
			<linearGradient id="Rectangle_295_1_" gradientUnits="userSpaceOnUse" x1="-110.3465" y1="274.3681" x2="-109.3933" y2="274.3681" gradientTransform="matrix(-131.359 0 0 248.609 -14375.0098 -68058.7578)">
			<stop  offset="0" style="stop-color:#00503E"/>
			<stop  offset="1" style="stop-color:#023222"/>
		</linearGradient>
		<path id="Rectangle_295" class="st37" d="M82.87,270.11H31.91c-20.5,0-37.12-16.62-37.12-37.12V70.26
			c0-20.5,16.62-37.12,37.12-37.12h50.96c20.5,0,37.12,16.62,37.12,37.12v162.73C119.99,253.49,103.37,270.11,82.87,270.11z"/>
		<path id="Rectangle_296" class="st6" d="M113.94,78.61v130.81c0,19.6-15.89,35.49-35.49,35.49H38.18
			c-19.6,0-35.49-15.89-35.49-35.49l0,0V78.61c0-19.6,15.89-35.49,35.49-35.49c0,0,0,0,0,0h40.27
			C98.05,43.12,113.94,59.01,113.94,78.61C113.94,78.61,113.94,78.61,113.94,78.61z"/>
	</g>
	<g id="Group_392" transform="translate(1307.573 903.757)">
		<path id="Path_4755" class="st0" d="M68.43,79.82H4.64C2.08,79.82,0,77.75,0,75.19c0,0,0,0,0,0l0,0c0-2.56,2.07-4.63,4.63-4.63
			c0,0,0,0,0,0h63.79c2.56,0,4.63,2.07,4.64,4.63c0,0,0,0,0,0l0,0C73.07,77.75,70.99,79.82,68.43,79.82
			C68.43,79.82,68.43,79.82,68.43,79.82z"/>
		<path id="Path_4756" class="st6" d="M67.13,70.56H3.34c-2.56,0-4.63-2.07-4.63-4.63c0,0,0,0,0,0l0,0c0-2.56,2.07-4.63,4.63-4.63h0
			h63.79c2.56,0,4.63,2.07,4.63,4.63v0l0,0C71.77,68.48,69.69,70.55,67.13,70.56C67.13,70.56,67.13,70.56,67.13,70.56z"/>
		<path id="Path_4757" class="st0" d="M74.62,61.29H10.82c-2.56,0-4.63-2.07-4.63-4.63c0,0,0,0,0,0l0,0c0-2.56,2.07-4.63,4.63-4.63
			h0h63.79c2.56,0,4.63,2.07,4.64,4.63c0,0,0,0,0,0l0,0C79.25,59.21,77.18,61.29,74.62,61.29C74.62,61.29,74.62,61.29,74.62,61.29z"
			/>
		<path id="Path_4758" class="st0" d="M66.89,52.01H3.1c-2.56,0-4.63-2.07-4.63-4.63v0l0,0c0-2.56,2.07-4.63,4.63-4.63h0h63.79
			c2.56,0,4.63,2.07,4.64,4.63l0,0C71.53,49.94,69.45,52.01,66.89,52.01z"/>
		<path id="Path_4759" class="st6" d="M65.59,42.74H1.8c-2.56,0-4.63-2.07-4.63-4.63v0l0,0c0-2.56,2.07-4.63,4.63-4.64h63.79
			c2.56,0,4.64,2.08,4.64,4.64c0,0,0,0,0,0l0,0C70.23,40.67,68.15,42.74,65.59,42.74z"/>
		<path id="Path_4760" class="st0" d="M73.08,33.47H9.29c-2.56,0-4.63-2.07-4.63-4.63v0l0,0c0-2.56,2.07-4.63,4.63-4.64h63.79
			c2.56,0,4.63,2.07,4.63,4.63c0,0,0,0,0,0l0,0C77.71,31.4,75.64,33.47,73.08,33.47L73.08,33.47z"/>
	</g>
	<g id="Group_393" transform="translate(1700.194 902.531)">
		
			<linearGradient id="Path_4761_1_" gradientUnits="userSpaceOnUse" x1="-452.5458" y1="76.5904" x2="-451.5926" y2="76.5904" gradientTransform="matrix(76.6521 0 0 -9.7242 34670.207 820.0299)">
			<stop  offset="0" style="stop-color:#C7A44F"/>
			<stop  offset="1" style="stop-color:#609A3F"/>
		</linearGradient>
		<path id="Path_4761" class="st38" d="M50.05,79.88h-63.79c-2.56,0-4.63-2.07-4.63-4.63v0l0,0c0-2.56,2.07-4.63,4.63-4.63l0,0
			h63.79c2.56,0,4.63,2.07,4.64,4.63c0,0,0,0,0,0l0,0C54.69,77.81,52.61,79.88,50.05,79.88C50.05,79.88,50.05,79.88,50.05,79.88z"/>
		<path id="Path_4762" class="st6" d="M48.76,70.61h-63.79c-2.56,0-4.63-2.07-4.64-4.63c0,0,0,0,0,0l0,0c0-2.56,2.07-4.63,4.63-4.63
			c0,0,0,0,0,0h63.79c2.56,0,4.63,2.07,4.63,4.63v0l0,0C53.39,68.54,51.32,70.61,48.76,70.61L48.76,70.61z"/>
		
			<linearGradient id="Path_4763_1_" gradientUnits="userSpaceOnUse" x1="-452.5497" y1="76.4968" x2="-451.5966" y2="76.4968" gradientTransform="matrix(76.6531 0 0 -9.7242 34677.1445 800.5819)">
			<stop  offset="0" style="stop-color:#C7A44F"/>
			<stop  offset="1" style="stop-color:#609A3F"/>
		</linearGradient>
		<path id="Path_4763" class="st39" d="M56.24,61.34h-63.8c-2.56,0-4.63-2.07-4.63-4.63v0l0,0c0-2.56,2.07-4.63,4.63-4.63l0,0h63.8
			c2.56,0,4.63,2.07,4.64,4.63c0,0,0,0,0,0l0,0C60.88,59.27,58.8,61.34,56.24,61.34C56.24,61.34,56.24,61.34,56.24,61.34z"/>
		
			<linearGradient id="Path_4764_1_" gradientUnits="userSpaceOnUse" x1="-452.5448" y1="76.4507" x2="-451.5916" y2="76.4507" gradientTransform="matrix(76.6521 0 0 -9.7251 34668.5977 790.9266)">
			<stop  offset="0" style="stop-color:#C7A44F"/>
			<stop  offset="1" style="stop-color:#609A3F"/>
		</linearGradient>
		<path id="Path_4764" class="st40" d="M48.52,52.07h-63.79c-2.56,0-4.63-2.07-4.63-4.63c0,0,0,0,0,0l0,0
			c0-2.56,2.07-4.63,4.63-4.63l0,0h63.79c2.56,0,4.63,2.07,4.64,4.63l0,0C53.15,50,51.08,52.07,48.52,52.07L48.52,52.07z"/>
		<path id="Path_4765" class="st6" d="M47.22,42.8h-63.8c-2.56,0-4.63-2.07-4.63-4.63v0l0,0c0-2.56,2.07-4.63,4.63-4.63l0,0h63.8
			c2.56,0,4.63,2.07,4.63,4.63v0l0,0C51.85,40.73,49.78,42.8,47.22,42.8L47.22,42.8z"/>
		
			<linearGradient id="Path_4766_1_" gradientUnits="userSpaceOnUse" x1="-452.5488" y1="76.3571" x2="-451.5956" y2="76.3571" gradientTransform="matrix(76.6521 0 0 -9.7251 34675.0898 771.4777)">
			<stop  offset="0" style="stop-color:#C7A44F"/>
			<stop  offset="1" style="stop-color:#609A3F"/>
		</linearGradient>
		<path id="Path_4766" class="st41" d="M54.7,33.53h-63.8c-2.56,0-4.63-2.07-4.63-4.63c0,0,0,0,0,0l0,0c0-2.56,2.07-4.63,4.63-4.63
			l0,0h63.8c2.56,0,4.63,2.07,4.63,4.63v0l0,0C59.34,31.46,57.27,33.53,54.7,33.53C54.71,33.53,54.71,33.53,54.7,33.53z"/>
	</g>
	<g id="Group_396" transform="translate(1387.005 771.242)">
		<path id="Path_4767" class="st22" d="M62.5,87.28h-64c-2.79,0-5.06-2.26-5.06-5.06c0,0,0,0,0,0l0,0c0-2.79,2.26-5.06,5.06-5.06
			c0,0,0,0,0,0h64c2.79,0,5.06,2.26,5.06,5.06c0,0,0,0,0,0l0,0C67.56,85.01,65.3,87.28,62.5,87.28L62.5,87.28z"/>
		<g id="Group_395" transform="translate(11.27)">
			<path id="Path_4768" class="st0" d="M47.44,49.32c5.04,14.64-2.75,30.58-17.38,35.62C15.43,89.97-0.52,82.19-5.55,67.56
				s2.75-30.58,17.38-35.62c0,0,0,0,0,0C26.47,26.91,42.41,34.69,47.44,49.32z"/>
			
				<linearGradient id="Path_4769_1_" gradientUnits="userSpaceOnUse" x1="-150.5323" y1="214.0702" x2="-149.5791" y2="214.0702" gradientTransform="matrix(49.3495 0 0 -49.3495 7426.1235 10622.6943)">
				<stop  offset="0" style="stop-color:#C9CD55"/>
				<stop  offset="0.507" style="stop-color:#659C52"/>
				<stop  offset="1" style="stop-color:#287F50"/>
			</linearGradient>
			<path id="Path_4769" class="st42" d="M43.18,50.79c4.23,12.28-2.3,25.66-14.58,29.88S2.94,78.37-1.28,66.09S1.02,40.43,13.3,36.2
				c0,0,0,0,0,0C25.58,31.98,38.96,38.51,43.18,50.79z"/>
			<g id="Group_394" transform="translate(20.541 11.503)">
				<path id="Path_4770" class="st6" d="M-1.57,63.58l0.06-3.93c-1.68-0.1-3.34-0.43-4.93-0.96c-1.19-0.41-1.86-1.68-1.53-2.89
					l0.04-0.15c0.34-1.27,1.65-2.02,2.92-1.68c0.06,0.02,0.12,0.03,0.18,0.06c1.43,0.52,2.94,0.81,4.47,0.85
					c2.36,0.04,3.98-0.84,4.01-2.5c0.03-1.57-1.28-2.58-4.32-3.67c-4.4-1.56-7.38-3.68-7.31-7.68c0.06-3.64,2.67-6.44,7.1-7.24
					l0.06-3.92l4.05,0.07l-0.06,3.64c1.27,0.07,2.53,0.27,3.76,0.61c1.26,0.36,1.99,1.67,1.64,2.93l0,0
					c-0.35,1.27-1.66,2.02-2.93,1.67c-0.03-0.01-0.05-0.02-0.08-0.02c-1.17-0.37-2.39-0.56-3.62-0.57c-2.69-0.04-3.57,1.1-3.59,2.26
					c-0.02,1.36,1.41,2.25,4.9,3.63c4.89,1.82,6.83,4.12,6.77,7.84c-0.06,3.68-2.72,6.77-7.48,7.52l-0.07,4.21L-1.57,63.58z"/>
			</g>
		</g>
	</g>
	<g id="Group_397" transform="translate(1380.653 848.878)">
		<path id="Path_4771" class="st43" d="M76.16,41.24H0.98c-4,0-7.24-3.24-7.24-7.24l0,0c0-4,3.24-7.23,7.23-7.23c0,0,0,0,0,0h75.18
			c4,0,7.24,3.24,7.24,7.23c0,0,0,0,0,0l0,0C83.4,38,80.16,41.24,76.16,41.24z"/>
	</g>
	<g id="Group_398" transform="translate(1380.653 848.878)">
		<path id="Path_4772" class="st44" d="M76.16,41.24H0.98c-4,0-7.24-3.24-7.24-7.24l0,0c0-4,3.24-7.23,7.23-7.23c0,0,0,0,0,0h75.18
			c4,0,7.24,3.24,7.24,7.23c0,0,0,0,0,0l0,0C83.4,38,80.16,41.24,76.16,41.24z"/>
	</g>
	
		<linearGradient id="Path_4773_1_" gradientUnits="userSpaceOnUse" x1="1247.8635" y1="981.6519" x2="1248.8168" y2="981.6519" gradientTransform="matrix(87.6915 0 0 -15.181 -108052.6641 15785.373)">
		<stop  offset="0" style="stop-color:#FB9A2B"/>
		<stop  offset="1" style="stop-color:#E65925"/>
	</linearGradient>
	<path id="Path_4773" class="st45" d="M1457.98,882.89c0-4-3.24-7.23-7.23-7.23h-69.12c-4,0-7.24,3.24-7.24,7.24
		c0,4,3.24,7.24,7.24,7.24h69.12C1454.75,890.12,1457.98,886.88,1457.98,882.89C1457.98,882.89,1457.98,882.89,1457.98,882.89z"/>
	<g id="Group_400" transform="translate(1596.064 567.335)">
		<path id="Path_4774" class="st6" d="M25.18,44.94c11.69,8.49,14.28,24.84,5.79,36.53C22.49,93.15,6.13,95.75-5.55,87.26
			c-11.69-8.49-14.28-24.84-5.79-36.53c0,0,0,0,0,0C-2.86,39.05,13.5,36.46,25.18,44.94z"/>
		
			<linearGradient id="Ellipse_8_1_" gradientUnits="userSpaceOnUse" x1="-348.7943" y1="417.7244" x2="-347.8411" y2="417.7244" gradientTransform="matrix(45.6674 -5.8453 -5.8453 -45.6674 18358.3008 17106.4902)">
			<stop  offset="0" style="stop-color:#C9CD55"/>
			<stop  offset="0.507" style="stop-color:#659C52"/>
			<stop  offset="1" style="stop-color:#287F50"/>
		</linearGradient>
		<circle id="Ellipse_8" class="st46" cx="9.81" cy="66.1" r="21.94"/>
		<g id="Group_399" transform="translate(16.218 12.213)">
			<path id="Path_4775" class="st6" d="M1,67.67l-2.05-3.03c-1.34,0.82-2.78,1.46-4.29,1.91c-1.13,0.32-2.32-0.29-2.71-1.39
				l-0.05-0.13c-0.42-1.16,0.18-2.43,1.34-2.85c0.05-0.02,0.11-0.04,0.16-0.05c1.38-0.37,2.68-0.96,3.87-1.75
				c1.82-1.23,2.59-2.78,1.73-4.05c-0.82-1.21-2.36-1.29-5.27-0.49c-4.19,1.16-7.61,1.14-9.7-1.96c-1.91-2.81-1.41-6.35,1.55-9.34
				l-2.05-3.03l3.13-2.12l1.9,2.81c1.01-0.63,2.08-1.15,3.2-1.55c1.15-0.4,2.41,0.21,2.82,1.36l0,0c0.42,1.16-0.19,2.43-1.34,2.85
				c-0.02,0.01-0.05,0.02-0.07,0.02c-1.09,0.35-2.13,0.85-3.08,1.5c-2.08,1.4-2.14,2.75-1.54,3.65c0.71,1.05,2.29,0.97,5.69,0.15
				c4.71-1.23,7.43-0.51,9.37,2.36c1.92,2.84,1.55,6.63-1.69,9.76l2.2,3.26L1,67.67z"/>
		</g>
	</g>
	<g id="Group_402" transform="translate(1518.01 632.306)">
		<path id="Path_4776" class="st6" d="M38.97,68.86c-3.2,14.08-17.21,22.9-31.3,19.7c-14.08-3.2-22.9-17.21-19.7-31.3
			c3.2-14.08,17.21-22.9,31.3-19.7c0,0,0,0,0,0C33.35,40.77,42.17,54.78,38.97,68.86z"/>
		
			<linearGradient id="Path_4777_1_" gradientUnits="userSpaceOnUse" x1="-270.4066" y1="352.741" x2="-269.4534" y2="352.741" gradientTransform="matrix(46.0499 0 0 -46.05 12443.7285 16306.8047)">
			<stop  offset="0" style="stop-color:#C9CD55"/>
			<stop  offset="0.507" style="stop-color:#659C52"/>
			<stop  offset="1" style="stop-color:#287F50"/>
		</linearGradient>
		<path id="Path_4777" class="st47" d="M34.87,67.93C32.18,79.75,20.42,87.15,8.61,84.46C-3.21,81.77-10.61,70.01-7.92,58.2
			c2.69-11.82,14.44-19.22,26.26-16.53C30.15,44.35,37.56,56.11,34.87,67.93z"/>
		<g id="Group_401" transform="translate(15.159 12.616)">
			<path id="Path_4778" class="st6" d="M-11.44,62.69l1.98-3.08c-1.28-0.91-2.44-1.98-3.44-3.19c-0.74-0.91-0.65-2.24,0.21-3.04
				l0.1-0.1c0.9-0.84,2.31-0.79,3.14,0.11c0.04,0.04,0.08,0.08,0.11,0.13c0.88,1.12,1.94,2.09,3.13,2.87
				c1.85,1.19,3.57,1.29,4.41-0.01c0.79-1.23,0.25-2.68-1.62-5.03c-2.72-3.4-4.05-6.54-2.02-9.69c1.83-2.85,5.28-3.8,9.19-2.25
				l1.98-3.08l3.18,2.04l-1.83,2.85c0.98,0.68,1.88,1.46,2.69,2.33c0.82,0.9,0.76,2.3-0.14,3.13l0,0c-0.9,0.84-2.31,0.79-3.15-0.11
				c-0.02-0.02-0.04-0.04-0.05-0.06c-0.75-0.87-1.62-1.62-2.59-2.24c-2.11-1.36-3.37-0.89-3.96,0.02c-0.69,1.07,0.01,2.48,2.1,5.29
				c2.98,3.84,3.39,6.63,1.52,9.55c-1.86,2.89-5.48,4.04-9.63,2.29l-2.13,3.31L-11.44,62.69z"/>
		</g>
	</g>
	<g id="Group_404" transform="translate(1718.94 551.29)">
		<path id="Path_4779" class="st6" d="M30.2,67.47C29.86,81.91,17.88,93.34,3.44,92.99C-11,92.65-22.43,80.67-22.08,66.23
			S-9.76,40.37,4.68,40.71c0,0,0,0,0,0C19.12,41.05,30.55,53.03,30.2,67.47C30.2,67.47,30.2,67.47,30.2,67.47z"/>
		
			<linearGradient id="Path_4780_1_" gradientUnits="userSpaceOnUse" x1="-471.5409" y1="433.6743" x2="-470.5876" y2="433.6743" gradientTransform="matrix(46.0405 0 0 -46.0402 21692.1074 20033.3105)">
			<stop  offset="0" style="stop-color:#C9CD55"/>
			<stop  offset="0.507" style="stop-color:#659C52"/>
			<stop  offset="1" style="stop-color:#287F50"/>
		</linearGradient>
		<path id="Path_4780" class="st48" d="M26,67.37c-0.29,12.12-10.34,21.7-22.46,21.41c-12.12-0.29-21.7-10.34-21.41-22.46
			c0.29-12.11,10.34-21.7,22.46-21.41C16.7,45.2,26.29,55.26,26,67.37C26,67.37,26,67.37,26,67.37z"/>
		<g id="Group_403" transform="translate(16.299 11.357)">
			<path id="Path_4781" class="st6" d="M-19.36,69.42l1.33-3.41c-1.44-0.63-2.78-1.46-4-2.44c-0.91-0.75-1.08-2.07-0.4-3.02
				l0.08-0.12c0.71-1,2.1-1.23,3.1-0.52c0.05,0.03,0.09,0.07,0.14,0.11c1.08,0.93,2.31,1.67,3.64,2.19c2.05,0.8,3.76,0.55,4.32-0.88
				c0.53-1.36-0.29-2.68-2.59-4.61c-3.34-2.79-5.26-5.61-3.91-9.1c1.23-3.16,4.43-4.77,8.56-4.03l1.33-3.41l3.52,1.37l-1.23,3.16
				c1.09,0.47,2.13,1.06,3.09,1.75c0.98,0.72,1.2,2.1,0.48,3.09l0,0c-0.72,1-2.11,1.23-3.11,0.51c-0.02-0.01-0.04-0.03-0.06-0.05
				c-0.91-0.7-1.91-1.27-2.98-1.68c-2.34-0.91-3.48-0.2-3.87,0.81c-0.46,1.19,0.5,2.43,3.11,4.77c3.69,3.18,4.64,5.82,3.38,9.06
				c-1.25,3.2-4.58,5.05-8.99,4.15l-1.43,3.67L-19.36,69.42z"/>
		</g>
	</g>
	<g id="Group_406" transform="translate(1835.072 616.355)">
		<path id="Path_4782" class="st6" d="M18.88,47.27c9.13,11.19,7.47,27.66-3.72,36.79C3.98,93.2-12.5,91.53-21.63,80.35
			c-9.13-11.19-7.47-27.66,3.72-36.79c0,0,0,0,0,0C-6.73,34.42,9.75,36.08,18.88,47.27C18.88,47.27,18.88,47.27,18.88,47.27z"/>
		
			<linearGradient id="Path_4783_1_" gradientUnits="userSpaceOnUse" x1="-587.791" y1="368.6755" x2="-586.8378" y2="368.6755" gradientTransform="matrix(46.0413 0 0 -46.0414 27039.3203 17038.1563)">
			<stop  offset="0" style="stop-color:#C9CD55"/>
			<stop  offset="0.507" style="stop-color:#659C52"/>
			<stop  offset="1" style="stop-color:#287F50"/>
		</linearGradient>
		<path id="Path_4783" class="st49" d="M15.62,49.93c7.66,9.39,6.27,23.21-3.12,30.87s-23.21,6.27-30.87-3.12
			s-6.27-23.21,3.12-30.87c0,0,0,0,0,0C-5.86,39.15,7.96,40.54,15.62,49.93z"/>
		<g id="Group_405" transform="translate(17.34 10.86)">
			<path id="Path_4784" class="st6" d="M-15.07,68.15l-1.21-3.46c-1.5,0.45-3.06,0.7-4.63,0.75c-1.18,0.02-2.17-0.87-2.27-2.04
				l-0.01-0.14c-0.11-1.22,0.8-2.3,2.02-2.41c0.06-0.01,0.11-0.01,0.17-0.01c1.42,0,2.84-0.24,4.19-0.7
				c2.07-0.73,3.21-2.02,2.7-3.48c-0.48-1.38-1.96-1.85-4.97-1.81c-4.35,0.05-7.65-0.83-8.88-4.36c-1.12-3.2,0.26-6.5,3.88-8.63
				l-1.21-3.46l3.57-1.25l1.12,3.2c1.13-0.35,2.3-0.58,3.49-0.68c1.22-0.09,2.28,0.82,2.38,2.03l0,0c0.11,1.23-0.8,2.3-2.02,2.41
				c-0.03,0-0.05,0-0.08,0.01c-1.14,0.06-2.28,0.28-3.36,0.67c-2.37,0.83-2.77,2.12-2.42,3.13c0.42,1.2,1.96,1.52,5.46,1.6
				c4.86,0.01,7.31,1.4,8.46,4.68c1.13,3.24-0.19,6.81-4.12,9l1.3,3.71L-15.07,68.15z"/>
		</g>
	</g>
	<g id="Group_408" transform="translate(1878.968 721.772)">
		<circle id="Ellipse_9" class="st6" cx="-1.18" cy="61.12" r="26.15"/>
		
			<linearGradient id="Path_4785_1_" gradientUnits="userSpaceOnUse" x1="-631.7339" y1="263.3681" x2="-630.7808" y2="263.3681" gradientTransform="matrix(46.0437 0 0 -46.0436 29064.2461 12187.5322)">
			<stop  offset="0" style="stop-color:#C9CD55"/>
			<stop  offset="0.507" style="stop-color:#659C52"/>
			<stop  offset="1" style="stop-color:#287F50"/>
		</linearGradient>
		<path id="Path_4785" class="st50" d="M16.78,48.52c6.96,9.92,4.56,23.6-5.36,30.57c-9.92,6.96-23.6,4.56-30.57-5.36
			c-6.96-9.92-4.56-23.6,5.36-30.56C-3.87,36.2,9.82,38.6,16.78,48.52C16.78,48.52,16.78,48.52,16.78,48.52z"/>
		<g id="Group_407" transform="translate(20.064 13.034)">
			<path id="Path_4786" class="st6" d="M-18.71,63.52l-0.95-3.54c-1.53,0.34-3.1,0.48-4.67,0.41c-1.17-0.06-2.1-1.02-2.11-2.2v-0.14
				c-0.02-1.23,0.96-2.24,2.19-2.26c0.06,0,0.11,0,0.17,0c1.42,0.1,2.85-0.03,4.23-0.4c2.12-0.57,3.35-1.79,2.95-3.27
				c-0.38-1.41-1.81-1.99-4.82-2.17c-4.35-0.26-7.57-1.39-8.54-5c-0.89-3.28,0.73-6.47,4.5-8.33l-0.95-3.54l3.65-0.99l0.89,3.28
				c1.16-0.27,2.34-0.41,3.53-0.43c1.22,0,2.21,0.98,2.23,2.2l0,0c0.02,1.23-0.97,2.24-2.2,2.26c-0.03,0-0.05,0-0.08,0
				c-1.15-0.03-2.29,0.12-3.4,0.42c-2.42,0.65-2.92,1.91-2.64,2.95c0.33,1.23,1.85,1.66,5.33,1.99c4.85,0.37,7.19,1.93,8.1,5.28
				c0.9,3.31-0.68,6.78-4.77,8.67l1.03,3.8L-18.71,63.52z"/>
		</g>
	</g>
	<g id="Group_412" transform="translate(1416.253 592.676)">
		<g id="Group_411" transform="translate(0)">
			<g id="Group_410">
				<path id="Path_4787" class="st51" d="M5.75,106.86c14.54,5.98,19.22-7.09,18.86-6.75c1.25-0.72,2.54-1.36,3.86-1.94
					c5.83-2.86,5.65-12.94,5.52-19.62c8.36-5.09,10.46-14.85,4.72-20.8c1.77-6.63,2.14-10.79-3.78-14.15
					c-4.48-7.81-17.03-5.16-23.13,0.97c-3.15,3.27-4.88,7.65-4.83,12.19C-0.18,59.72-3.93,67.63-2.3,75.6
					C-11.97,83.56-9.09,100.75,5.75,106.86z"/>
				<path id="Path_4788" class="st52" d="M59.36,129.4c-1.17-1.15-3.22-2.17-3.1-2.34c0.49-0.69,5.57,4.57,5.23,3.09
					c-0.18-0.82-3.82-5.11-5.11-5.27c-1.25-0.16-9.35-1.43-9.35-1.43L28.31,111c0,0-0.93-14.72,3.05-24.63
					c-4.34-1.32-5.19-1.61-9.66-1.26c-2.55,10.06-5.29,26.99-1.98,31.93c1.39,2.08,25.72,10.1,25.72,10.1
					c2.04,0.8,4.13,1.48,6.24,2.04c0.74,0.05,2.79-0.12,3.79,0.03c2.27,0.35,5.09,3.73,5.28,3.34
					C60.75,131.36,60.24,130.22,59.36,129.4z"/>
				
					<linearGradient id="Path_4789_1_" gradientUnits="userSpaceOnUse" x1="-167.0648" y1="393.3608" x2="-168.5108" y2="392.644" gradientTransform="matrix(31.8378 0 0 -58.661 5377.1558 23144.0996)">
					<stop  offset="0" style="stop-color:#53CD9F"/>
					<stop  offset="1" style="stop-color:#0D7A5C"/>
				</linearGradient>
				<path id="Path_4789" class="st53" d="M33.63,85.19c-1.09-2-2.28-3.95-3.57-5.83c-1.82-3.25-6.53-4.9-6.53-4.9
					s-1.58,0.03-3.38,0.12c-0.06,0.23-0.18,0.43-0.34,0.6c-0.68,0.51-4.58-0.15-7.09,1.57c-8.44,7.26-6.1,42.43-5.44,53.54
					l21.07,0.09c0,0,1.39-23.75,6.61-29.89C38.58,96.21,36.24,90.01,33.63,85.19z"/>
				<path id="Path_4790" class="st54" d="M39.41,208.93c0.23-0.42,3.15-7.48,5.54-10.62c3.47-4.57,33.5-45.91,32.26-55.98
					c-0.54-4.4-13.55-8.12-15.09-8.39c-8.28,1.11,0.42,8.24-5.8,14.1c4.04,1.38,6.43,3.11,5.56,4.25
					c-3.5,4.55-22.09,41.24-22.89,41.71c-3.6,2.11-5.01,1.13-5.01,1.13s0.83,20.63,2.55,19.98
					C38.23,214.46,36.86,213.62,39.41,208.93z"/>
				
					<linearGradient id="Path_4791_1_" gradientUnits="userSpaceOnUse" x1="-170.2917" y1="391.0143" x2="-169.3385" y2="391.0143" gradientTransform="matrix(7.34 0 0 -25.7286 1282.3846 10266.5205)">
					<stop  offset="0" style="stop-color:#00503E"/>
					<stop  offset="1" style="stop-color:#023222"/>
				</linearGradient>
				<path id="Path_4791" class="st55" d="M32.45,195.26l3.47,20.79c0.78,2.69,2.1,2.66,2.43,2.3c0.69-0.74,1.01-6.29,1.09-9.45
					c-1.57-4.82-1.42-13.88-0.45-14.9C36.63,194.04,32.45,194.8,32.45,195.26z"/>
				<path id="Path_4792" class="st56" d="M44.86,144.33c4.66-7.72,4.41-6.75,12.52-10.24c3.25,1.31,14.12,8.12,15.5,9.38
					l-17.29,12.54C56.15,154.61,50.13,147.65,44.86,144.33z"/>
				<path id="Path_4793" class="st56" d="M22.05,62.56c0,0-1.41,10.12-2.4,12.58s5.42,7.72,10.76,9.32S28.78,79.02,29,76.4
					c0.22-2.63,1.19-15.08,1.19-15.08L22.05,62.56z"/>
				<path id="Path_4794" class="st57" d="M29.92,64.89c0.16-2.06,0.27-3.57,0.27-3.57l-8.14,1.24c0,0-0.2,1.19-0.43,2.87
					C24.92,67.35,27.89,66.75,29.92,64.89z"/>
				<path id="Path_4795" class="st56" d="M24.6,44.07c-2.12,0.59-3.96,1.93-5.19,3.76c-1.98,3.03-3.34,11.96,3.18,16.13
					s11.6-1.73,11.68-7.48S33.14,43.06,24.6,44.07z"/>
				<path id="Path_4796" class="st56" d="M35.78,54.69c-0.56,1.39-1.66,2.25-2.47,1.92c-0.81-0.33-1.01-1.72-0.45-3.1
					c0.56-1.39,1.66-2.25,2.47-1.92S36.33,53.3,35.78,54.69z"/>
				<path id="Path_4797" class="st56" d="M19.31,55.83c0.48,1.5,0.04,2.97-0.97,3.29s-2.21-0.63-2.68-2.13s-0.04-2.97,0.97-3.29
					C17.64,53.38,18.84,54.33,19.31,55.83z"/>
				<path id="Path_4798" class="st44" d="M43.91,130.97c-3.6-0.33-15.53-1.54-15.53-1.54l-21.15-2.84c0,0-3.74,8.93-3.88,14.53
					c-0.26,9.8,8.77,18.06,16.48,17.59c4.59-0.29,30.59-0.85,35.66-2.73c1.05-7.98,2.25-16.64,7.64-22.38
					C54.51,132.4,48.8,131.42,43.91,130.97z"/>
				<path id="Path_4799" class="st56" d="M44.18,204.9c0.58-0.6,5.22-32.34,8.02-45.66c0.67-3.21,2.72-5.96,5.59-7.53l15.09-8.23
					c5.23,4.78-19.16,58.47-21.39,64.1c-1.54,3.87-2.5,11.88-2.61,12.37c-1.26,5.49,0.38,5.95-1.18,7.11
					c-1.56,1.15-8.56-18.89-8.56-18.89S41.12,208.07,44.18,204.9z"/>
				<path id="Path_4800" class="st22" d="M39.64,132.35L39.64,132.35c0.06,0.85,0.79,1.5,1.64,1.45l25.63,0.06
					c1-0.09,1.84-0.79,2.11-1.75l-0.47,0.31c-0.06-0.85-0.79-1.5-1.64-1.45l-25.63-0.06C40.43,130.85,39.7,131.5,39.64,132.35z"/>
				<g id="Group_409" transform="translate(75.66 60.318)">
					<path id="Path_4801" class="st22" d="M-9.01,73.02c-0.15,0-0.31-0.01-0.46-0.03c-1.33-0.17-2.19-1.01-1.94-1.89l9.78-33.84
						c0.25-0.88,1.53-1.45,2.86-1.28s2.19,1.01,1.94,1.89l-9.78,33.84C-7.07,72.6-8.02,73.12-9.01,73.02z"/>
				</g>
				<path id="Path_4802" class="st56" d="M59.1,128.75c-1.47-0.73-3.74-1.07-3.68-1.27c0.25-0.8,6.77,3.35,5.99,2.05
					c-0.43-0.73-5.28-4.41-6.56-4.16c-1.24,0.24-9.33,1.53-9.33,1.53l-20.84-7.53c0,0-3.97-12.96-3.27-23.62
					c-4.08,0.02-8.12,0.89-11.85,2.55c0.69,10.35,3.34,27.3,8.01,30.97c1.97,1.54,27.59,1.64,27.59,1.64
					c2.19,0.13,4.38,0.13,6.57,0.01c0.72-0.19,2.62-0.98,3.62-1.14c2.27-0.37,6,1.97,6.06,1.54
					C61.02,130.19,60.18,129.26,59.1,128.75z"/>
				
					<linearGradient id="Path_4803_1_" gradientUnits="userSpaceOnUse" x1="-169.862" y1="389.9494" x2="-168.9088" y2="390.6347" gradientTransform="matrix(15.7898 0 0 -26.5146 2678.8215 10453.043)">
					<stop  offset="0" style="stop-color:#53CD9F"/>
					<stop  offset="1" style="stop-color:#0D7A5C"/>
				</linearGradient>
				<path id="Path_4803" class="st58" d="M22.86,84.45c-0.29-3.28-0.69-6.58-4.03-7.99c-2.12-0.84-4.51-0.6-6.42,0.65
					c-2.23,1.43-3.11,4.04-3.4,6.58c-0.71,5.82-0.89,11.7-0.56,17.56c4.14-1.72,9.77-0.81,14.31-0.89
					C23.77,95.27,23.24,88.72,22.86,84.45z"/>
			</g>
			<path id="Path_4804" class="st56" d="M56,125.66c3.56,0.91,3.36,0.84,3.51,0.93c2.52,1.59,2.32,2.27-1.55,0.62
				c-0.1-0.04-0.2-0.06-0.31-0.06l-1.83,0.02c-0.42,0.01-0.77-0.32-0.78-0.74c-0.01-0.23,0.09-0.45,0.27-0.6l0,0
				C55.49,125.66,55.76,125.6,56,125.66z"/>
			
				<linearGradient id="Path_4805_1_" gradientUnits="userSpaceOnUse" x1="-169.2589" y1="390.7587" x2="-168.3057" y2="390.7587" gradientTransform="matrix(15.2404 0 0 -23.7548 2618.1807 9498.6367)">
				<stop  offset="0" style="stop-color:#00503E"/>
				<stop  offset="1" style="stop-color:#023222"/>
			</linearGradient>
			<path id="Path_4805" class="st59" d="M49.03,218.76c-0.07,1.54,0.17,3.08,0.69,4.54c0.85,2.02,4.08,2.78,3.3,3.82
				c-0.78,1.04-7.03,0-7.03,0l-7.23-17.68c-0.3-0.66-0.13-1.43,0.41-1.9c1.45-1.21,3.15-2.09,4.97-2.6
				C44.14,204.94,43.76,216.03,49.03,218.76z"/>
		</g>
	</g>
	<g id="Group_420" transform="translate(1761.861 834.268)">
		
			<linearGradient id="Path_4806_1_" gradientUnits="userSpaceOnUse" x1="-514.2811" y1="148.4976" x2="-513.3279" y2="148.4976" gradientTransform="matrix(77.4021 0 0 -19.209 39839.3672 2896.8484)">
			<stop  offset="0" style="stop-color:#00503E"/>
			<stop  offset="1" style="stop-color:#023222"/>
		</linearGradient>
		<path id="Path_4806" class="st60" d="M102.63,44.6l-64.34,8.87c-2.58,0.36-4.96-1.45-5.32-4.03l0,0
			c-0.36-2.58,1.45-4.96,4.03-5.32c0,0,0,0,0,0l64.34-8.87c2.58-0.36,4.96,1.45,5.32,4.03c0,0,0,0,0,0l0,0
			C107.02,41.86,105.22,44.24,102.63,44.6z"/>
		<g id="Group_413" transform="translate(95.851 17.734)">
			
				<linearGradient id="Path_4807_1_" gradientUnits="userSpaceOnUse" x1="-610.1505" y1="127.8978" x2="-609.1973" y2="127.8978" gradientTransform="matrix(78.0256 0 0 -11.4347 47578.7891 1494.5491)">
				<stop  offset="0" style="stop-color:#00503E"/>
				<stop  offset="1" style="stop-color:#023222"/>
			</linearGradient>
			<path id="Path_4807" class="st61" d="M40.96,37.53l-64.94-1.46c-2.61-0.06-4.67-2.22-4.61-4.82c0,0,0,0,0,0l0,0
				c0.06-2.61,2.22-4.67,4.82-4.61l64.94,1.46c2.61,0.06,4.67,2.22,4.61,4.82c0,0,0,0,0,0l0,0C45.73,35.52,43.57,37.58,40.96,37.53
				C40.96,37.53,40.96,37.53,40.96,37.53z"/>
		</g>
		<path id="Path_4808" class="st6" d="M95.5,67.97L34.93,44.52c-2.43-0.94-3.63-3.67-2.7-6.1l0,0c0.94-2.43,3.67-3.64,6.1-2.7
			L98.9,59.17c2.43,0.94,3.64,3.67,2.7,6.1l0,0C100.66,67.7,97.93,68.91,95.5,67.97z"/>
		
			<linearGradient id="Path_4809_1_" gradientUnits="userSpaceOnUse" x1="-514.3239" y1="150.3958" x2="-513.3707" y2="150.3958" gradientTransform="matrix(73.4446 0 0 -34.498 37837.9922 5243.1899)">
			<stop  offset="0" style="stop-color:#C7A44F"/>
			<stop  offset="1" style="stop-color:#609A3F"/>
		</linearGradient>
		<path id="Path_4809" class="st62" d="M127.28,70.95L66.71,47.5c-2.43-0.94-3.63-3.67-2.7-6.1l0,0c0.94-2.43,3.67-3.64,6.1-2.7
			l60.57,23.45c2.43,0.94,3.64,3.67,2.7,6.1l0,0C132.44,70.68,129.71,71.89,127.28,70.95z"/>
		<g id="Group_419">
			
				<linearGradient id="Path_4810_1_" gradientUnits="userSpaceOnUse" x1="-514.0036" y1="152.0791" x2="-513.0504" y2="152.0791" gradientTransform="matrix(217.4331 0 0 -118.7522 111740.6797 18151.2793)">
				<stop  offset="0" style="stop-color:#53CD9F"/>
				<stop  offset="1" style="stop-color:#0D7A5C"/>
			</linearGradient>
			<path id="Path_4810" class="st63" d="M178.73,148.14c4.94-8.55,8.25-22.2,7.76-29.41c-1.13-16.57-30.17-42.72-30.45-59.33
				c-0.11-6.74,11.53-24.45,11.53-24.45L82.68,65.29L-1.75,34.95c0,0,11.65,17.72,11.53,24.45c-0.28,16.6-29.32,42.75-30.45,59.33
				c-0.49,7.21,2.82,20.87,7.76,29.41H178.73z"/>
			<g id="Group_414" transform="translate(23.441 7.861)">
				
					<linearGradient id="Path_4811_1_" gradientUnits="userSpaceOnUse" x1="-537.1462" y1="141.18" x2="-537.1672" y2="142.0398" gradientTransform="matrix(88.5781 0 0 -31.8311 47598.9141 4572.79)">
					<stop  offset="0" style="stop-color:#53CD9F"/>
					<stop  offset="1" style="stop-color:#0D7A5C"/>
				</linearGradient>
				<path id="Path_4811" class="st64" d="M59.24,57.43L-25.2,27.09c0,0,3.93,5.97,7.2,12.3L59.24,57.43z"/>
				
					<linearGradient id="Path_4812_1_" gradientUnits="userSpaceOnUse" x1="-535.4139" y1="145.1958" x2="-536.5044" y2="144.6496" gradientTransform="matrix(60.3513 0 0 -118.7531 32569.5527 17210.0313)">
					<stop  offset="0" style="stop-color:#53CD9F"/>
					<stop  offset="1" style="stop-color:#0D7A5C"/>
				</linearGradient>
				<path id="Path_4812" class="st65" d="M163.05,110.87c-1.13-16.57-30.17-42.72-30.45-59.33c-0.11-6.74,11.53-24.45,11.53-24.45
					L109.95,39.3c-2.38,4.6-4.43,9.4-4.38,12.24c0.28,16.6,29.32,42.75,30.45,59.33c0.49,7.21-2.82,20.87-7.76,29.41h27.02
					C160.23,131.73,163.54,118.08,163.05,110.87z"/>
			</g>
			<g id="Group_418">
				<g id="Group_415" transform="translate(12.044)">
					<path id="Path_4813" class="st0" d="M70.64,69.92l-92.8-33.92c-1.98-0.7-3.02-2.87-2.32-4.86c0.7-1.98,2.87-3.02,4.86-2.32
						c0.03,0.01,0.05,0.02,0.08,0.03l90.18,32.97l93.14-34.12c1.97-0.72,4.16,0.29,4.88,2.27s-0.29,4.16-2.27,4.88l0,0L70.64,69.92z
						"/>
				</g>
				<path id="Path_4814" class="st0" d="M93.98,66.79c0,6.12-4.96,11.07-11.07,11.07s-11.07-4.96-11.07-11.07
					c0-6.12,4.96-11.07,11.07-11.07c0,0,0,0,0,0C89.02,55.72,93.98,60.68,93.98,66.79z"/>
				<path id="Path_4815" class="st6" d="M87.39,66.79c0,2.47-2.01,4.48-4.48,4.48c-2.47,0-4.48-2.01-4.48-4.48
					c0-2.47,2.01-4.48,4.48-4.48l0,0C85.38,62.31,87.39,64.32,87.39,66.79z"/>
				<g id="Group_416" transform="translate(5.989 5.809)">
					<path id="Path_4816" class="st0" d="M-23.44,33.17l-0.93-1.59c0.31-0.18,7.53-4.4,11.77-4.4v1.85
						C-16.35,29.03-23.37,33.13-23.44,33.17z"/>
				</g>
				<g id="Group_417" transform="translate(208.683 3.824)">
					<path id="Path_4817" class="st66" d="M-22.17,35.49c-0.07-0.06-7.21-6.36-11.7-6.36v-1.85c5.18,0,12.61,6.55,12.92,6.83
						L-22.17,35.49z"/>
				</g>
				<path id="Path_4818" class="st67" d="M192.25,39.31c0,3.15-2.55,5.71-5.71,5.71c-3.15,0-5.71-2.55-5.71-5.71
					c0-3.15,2.55-5.71,5.71-5.71c0,0,0,0,0,0C189.69,33.6,192.25,36.16,192.25,39.31z"/>
				<path id="Path_4819" class="st0" d="M-12.68,39.31c0,3.15-2.55,5.71-5.71,5.71c-3.15,0-5.71-2.55-5.71-5.71
					c0-3.15,2.55-5.71,5.71-5.71c0,0,0,0,0,0C-15.24,33.6-12.68,36.16-12.68,39.31z"/>
			</g>
		</g>
	</g>
	<g id="Group_426" transform="translate(1930.668 665.529)">
		<g id="Group_425" transform="translate(0 0)">
			<g id="Group_422" transform="translate(22.679 49.294)">
				<path id="Path_4820" class="st56" d="M7.23,249.69c0,0-0.63,7.9-0.12,10.46c0.28,1.37,1.81,4.2,1.11,5.5
					c-0.31,0.69-0.84,1.26-1.51,1.62l-18.24,0.29c-0.99,0.02-0.34-0.61,0.46-1.19c1.31-0.95,2.37-1.57,6.56-3.57
					c0.27-0.13,1.27-0.75,1.63-0.97c0.97-0.63,1.85-1.39,2.61-2.27c1.31-1.43,1.43-8.39,1.43-8.39L7.23,249.69z"/>
				
					<linearGradient id="Path_4821_1_" gradientUnits="userSpaceOnUse" x1="-706.9385" y1="270.6987" x2="-706.4343" y2="271.4107" gradientTransform="matrix(26.2881 0 0 -115.426 18567.9004 31535.8652)">
					<stop  offset="0" style="stop-color:#00503E"/>
					<stop  offset="1" style="stop-color:#023222"/>
				</linearGradient>
				<path id="Path_4821" class="st68" d="M-7.03,144.74c0,0-7.84-3.87-6.33,4.54c1.51,8.4,12.99,102.91,12.99,102.91l10.76,0.6
					c0,0,1.37-31.51,1.07-36.03c-0.42-3.89-1.12-7.74-2.08-11.53l-0.91-27.95l-10.15-34.51L-7.03,144.74z"/>
				
					<linearGradient id="Path_4822_1_" gradientUnits="userSpaceOnUse" x1="-707.063" y1="260.3383" x2="-706.1098" y2="260.3383" gradientTransform="matrix(22.8501 0 0 -6.4691 16143.1152 1948.6644)">
					<stop  offset="0" style="stop-color:#FB9A2B"/>
					<stop  offset="1" style="stop-color:#E65925"/>
				</linearGradient>
				<path id="Path_4822" class="st69" d="M-2.88,261.82c3.42,0.97,7.05,0.83,10.38-0.4c0.51,1.43,1.2,3.23,0.83,4.27
					c-0.44,1.27-1.02,1.83-1.58,1.85c-4.4,0.11-16.19-0.01-19.55,0.03c-0.3,0.01-0.55-0.23-0.55-0.53c0-0.13,0.04-0.26,0.13-0.36
					C-12.38,265.71-3.24,262.04-2.88,261.82z"/>
				<path id="Path_4823" class="st56" d="M-13.36,87.94c0,0-6.63-12.75-7.66-17.43c-1.03-4.68-4.59-28.26-4.29-29.77
					c0.3-1.52,5.93-5.17,5.23-6.46c-0.69-1.29-6.06-1.29-7.29-1.18c-1.69,0.19-3.32,0.77-4.75,1.7c-1.06,0.87,1.19,29.12,1.86,35.2
					c0.67,6.08,8.9,24.81,8.9,24.81L-13.36,87.94z"/>
				<g id="Group_421" transform="translate(10.691 36.743)">
					<path id="Path_4824" class="st56" d="M27.59,150.58c0,0,5.47-5.73,6.68-8.05c0.65-1.24,1.24-4.4,2.6-4.96
						c0.68-0.34,1.45-0.44,2.19-0.3l14.34,11.26c0.78,0.61-0.12,0.69-1.11,0.63c-1.62-0.09-2.83-0.27-7.34-1.36
						c-0.29-0.07-1.46-0.21-1.87-0.27c-1.15-0.12-2.31-0.08-3.45,0.12c-1.92,0.29-6.39,5.62-6.39,5.62L27.59,150.58z"/>
					
						<linearGradient id="Path_4825_1_" gradientUnits="userSpaceOnUse" x1="-718.0599" y1="229.688" x2="-717.1067" y2="229.688" gradientTransform="matrix(20.813 0 0 -14.0281 14979.7402 3365.6646)">
						<stop  offset="0" style="stop-color:#FB9A2B"/>
						<stop  offset="1" style="stop-color:#E65925"/>
					</linearGradient>
					<path id="Path_4825" class="st70" d="M43.08,147.53c-2.04-2.9-4.95-5.09-8.32-6.23c0.5-1.44,1.05-3.32,1.99-3.89
						c1.14-0.71,1.93-0.56,2.37-0.22c3.49,2.69,12.63,10.04,15.27,12.12c0.23,0.18,0.27,0.52,0.09,0.76
						c-0.08,0.1-0.19,0.17-0.32,0.2C52.91,150.5,43.5,147.58,43.08,147.53z"/>
					<path id="Path_4826" class="st44" d="M27.72,47.32c-3.4-7.14-10.94-11.07-18.24-9.16c-2.62-3.55-6.53-5.93-10.89-6.62
						c-8.32-1.18-19.05,2.86-17.95,11.53C-22,49.14-21.35,57.5-16.1,61.6c-0.96,7.98,7.04,15.06,16.51,14.11
						c3.81,5.26,10.44,8.35,16.63,7.15c1.36-0.33,2.74-0.59,4.13-0.76c-0.49-0.05,10.8,7.34,18.59-5.83
						C47.71,62.84,39.89,47.82,27.72,47.32z"/>
					
						<linearGradient id="Path_4827_1_" gradientUnits="userSpaceOnUse" x1="-716.8132" y1="234.6352" x2="-715.2899" y2="233.9899" gradientTransform="matrix(62.4082 0 0 -78.4922 44705.457 18541.4453)">
						<stop  offset="0" style="stop-color:#00503E"/>
						<stop  offset="1" style="stop-color:#023222"/>
					</linearGradient>
					<path id="Path_4827" class="st71" d="M-20.87,111.04c0,0,17.58-7.82,17.86-6.92c2.2,7.1,9.06,4.81,13.13,17.31
						c1.71,5.24,3.45,40.06,3.45,40.06s6.93-5.75,16.84-15.8c0.76-0.77,8.21,6.31,8.21,6.31c-19.66,26.57-28.15,27.95-31.43,26.46
						c-6.85-3.1-21.3-46.54-21.28-46.53C-15.82,128.55-20.87,111.04-20.87,111.04z"/>
					<path id="Path_4828" class="st56" d="M8.27,61.98c0,0,25.41-0.03,30.85-0.35c4.92-0.29,24.45,0.21,25.22,0.12
						c0.76-0.09,5.81-8.64,6.65-7.72c0.84,0.92-2.81,4.24-1.68,5.1c1.13,0.86,13.25-1.07,13.09-0.17c-0.3,1.68-7.37,1.46-7.36,2.27
						c0.01,0.81,7.4-0.45,7.9,0.89c0.5,1.34-7.11,0.55-7.42,1.14c-0.3,0.6,7.06,1.7,6.31,2.95c-0.41,0.68-6.53-1.13-6.5-0.21
						c0.03,0.92,4.49,3.03,3.95,3.77c-0.55,0.74-3.5-2.26-6.09-2.3s-4.44-1.39-8.58-0.25c-2.04,0.56-17.62,2.46-30.79,3.59
						c-13.5,1.15-24.56,1.52-24.56,1.52L8.27,61.98z"/>
					<path id="Path_4829" class="st6" d="M-29.41,79.94c-0.17-2.88,0.05-5.76,0.65-8.58c-1.24-4.24-3.86-13.28-4.8-15.05
						c0,0,4.42-8.5,8.95-8.44c0,0,4.62,10.43,8.2,12.29c0.58,0.24,1.18,0.42,1.8,0.54c3.45-0.02,15.52-0.39,17.77-0.43L1.89,77.38
						c-8.74,17.14-6.37,26.13-3.05,29.45c1.56,1.56-21.82,7.91-22.89,5.7C-25.32,109.92-28.72,88.19-29.41,79.94z"/>
					<path id="Path_4830" class="st6" d="M-2.97,60.91c2.22-1.06,18.33-0.53,18.33-0.53s2.25,11.21,0.43,13.91
						c0,0-14.4,2.14-13.99,3.32L-2.97,60.91z"/>
					<path id="Path_4831" class="st56" d="M-7.19,53.71c-0.15,2.89-0.15,5.78,0,8.66c0.29,2.55-2.61,8.52-8.01,8.62
						c-5.4,0.1-0.79-5.73-0.32-8.24c0.47-2.51,1.04-12.32,1.04-12.32L-7.19,53.71z"/>
					<path id="Path_4832" class="st57" d="M-14.48,50.44c0,0-0.13,2.28-0.32,4.92c1.79,2.26,4.88,3.01,7.5,1.83
						c0.03-1.89,0.11-3.48,0.11-3.48L-14.48,50.44z"/>
					<path id="Path_4833" class="st56" d="M-6.74,35.48c2.01,0.71,3.71,2.12,4.77,3.97c1.72,3.06,2.44,11.76-4.15,15.35
						s-11.11-2.44-10.81-7.99S-14.94,33.94-6.74,35.48z"/>
					<path id="Path_4834" class="st56" d="M-18.26,44.98c0.45,1.38,1.46,2.28,2.26,2.02s1.09-1.59,0.64-2.96
						c-0.45-1.38-1.46-2.28-2.26-2.02C-18.42,42.27-18.71,43.6-18.26,44.98z"/>
					<path id="Path_4835" class="st44" d="M-7.66,35.24c0,0,3.35,9.15,6.77,10.19s3.07,5.5,3.07,5.5S2.8,40.6-0.29,38
						C-2.43,36.38-4.99,35.42-7.66,35.24z"/>
					<path id="Path_4836" class="st56" d="M-2.4,47.17c-0.56,1.41-0.24,2.86,0.72,3.24s2.18-0.46,2.74-1.87s0.24-2.86-0.72-3.24
						C-0.62,44.93-1.85,45.76-2.4,47.17z"/>
				</g>
				<path id="Path_4837" class="st57" d="M-33.06,36.96c0,0,7.44,0.32,8.32,0.32c0.87,0,3.42-2.63,3.42-2.63L-33.06,36.96z"/>
			</g>
			<g id="Group_424">
				<path id="Path_4838" class="st6" d="M14.58,46.26c8.13,11.58,5.33,27.55-6.25,35.68s-27.55,5.33-35.68-6.25
					c-8.13-11.58-5.33-27.55,6.25-35.68c0,0,0,0,0,0C-9.52,31.88,6.45,34.68,14.58,46.26z"/>
				
					<linearGradient id="Path_4839_1_" gradientUnits="userSpaceOnUse" x1="-683.5009" y1="319.5104" x2="-682.5477" y2="319.5104" gradientTransform="matrix(45.0979 0 0 -45.0974 30796.5801 14470.0625)">
					<stop  offset="0" style="stop-color:#C9CD55"/>
					<stop  offset="0.507" style="stop-color:#659C52"/>
					<stop  offset="1" style="stop-color:#287F50"/>
				</linearGradient>
				<path id="Path_4839" class="st72" d="M11.21,48.62c6.82,9.71,4.47,23.12-5.24,29.94c-9.71,6.82-23.12,4.47-29.94-5.24
					c-6.82-9.71-4.47-23.12,5.24-29.94c0,0,0,0,0,0C-9.01,36.56,4.39,38.91,11.21,48.62z"/>
				<g id="Group_423" transform="translate(17.342 10.456)">
					<path id="Path_4840" class="st6" d="M-21.24,65.63l-0.94-3.46c-1.5,0.34-3.04,0.47-4.58,0.4c-1.15-0.06-2.05-1-2.07-2.15v-0.14
						c-0.02-1.2,0.94-2.19,2.15-2.21c0.06,0,0.11,0,0.17,0c1.39,0.1,2.79-0.03,4.14-0.39c2.08-0.56,3.28-1.75,2.89-3.21
						c-0.37-1.38-1.78-1.94-4.72-2.13c-4.26-0.26-7.41-1.36-8.37-4.9c-0.87-3.21,0.71-6.33,4.41-8.16l-0.94-3.46l3.57-0.97
						l0.87,3.21c1.13-0.26,2.29-0.4,3.46-0.42c1.19,0,2.17,0.96,2.18,2.16l0,0c0.02,1.2-0.95,2.19-2.15,2.21c-0.03,0-0.05,0-0.08,0
						c-1.12-0.02-2.24,0.11-3.33,0.41c-2.37,0.64-2.86,1.87-2.58,2.89c0.33,1.2,1.81,1.62,5.22,1.95c4.75,0.36,7.05,1.89,7.93,5.17
						c0.88,3.24-0.67,6.64-4.67,8.5l1.01,3.72L-21.24,65.63z"/>
				</g>
			</g>
		</g>
		<path id="Path_4841" class="st56" d="M-2.07,86.58l3.07-2.76c0,0-1.45-1.73-0.85-2.07c0.98-0.54,2.66,1.55,2.51,2.06
			c-0.56,0.79-1.22,1.51-1.95,2.15L-2.07,86.58z"/>
	</g>
	
		<linearGradient id="Path_4842_1_" gradientUnits="userSpaceOnUse" x1="1246.9651" y1="983.7652" x2="1247.9183" y2="983.7652" gradientTransform="matrix(30.6313 0 0 -26.424 -36410.5039 26787.125)">
		<stop  offset="0" style="stop-color:#53CD9F"/>
		<stop  offset="1" style="stop-color:#0D7A5C"/>
	</linearGradient>
	<path id="Path_4842" class="st73" d="M1791.3,779.57l1.35,5.2l5.38,0.98l1.1,5.94l6.06-0.73l1.54,6.66l5.66,0.02l2.52,6.16
		l-2.33,0.96l-1.89-4.61l-5.97-0.02l-1.48-6.4l-6.16,0.74l-1.21-6.55l-5.26-0.95l-1.25-4.82l-3.59,0.1l-0.06-2.52L1791.3,779.57z"/>
	
		<linearGradient id="Path_4843_1_" gradientUnits="userSpaceOnUse" x1="1247.8368" y1="984.8895" x2="1247.2477" y2="974.7885" gradientTransform="matrix(37.8503 0 0 -14.6539 -45372.0273 14951.7451)">
		<stop  offset="0" style="stop-color:#53CD9F"/>
		<stop  offset="1" style="stop-color:#0D7A5C"/>
	</linearGradient>
	<path id="Path_4843" class="st74" d="M1834.12,585.08l5.1,1.7l3.75-3.99l5.58,2.31l2.68-5.48l6.42,2.33l3.09-4.74l6.54,1.23
		l-0.46,2.48l-4.89-0.92l-3.26,5.01l-6.18-2.24l-2.73,5.58l-6.16-2.55l-3.66,3.89l-4.72-1.57l-1.87,3.06l-2.15-1.32L1834.12,585.08z
		"/>
	
		<linearGradient id="Path_4844_1_" gradientUnits="userSpaceOnUse" x1="1247.4017" y1="986.5989" x2="1245.402" y2="979.9323" gradientTransform="matrix(11.1379 0 0 -22.207 -12228.7666 22399.3828)">
		<stop  offset="0" style="stop-color:#53CD9F"/>
		<stop  offset="1" style="stop-color:#0D7A5C"/>
	</linearGradient>
	<path id="Path_4844" class="st75" d="M1656.71,586.41l0.58-6.25l-4.54-1.02l0.35-6.19l-4.24-1.65l-0.33-4.68l-1.87,0.23l0.44,6.26
		l4.02,1.57l-0.37,6.44l4.46,1l-0.52,5.67L1656.71,586.41z"/>
	<g id="Group_427" transform="translate(1413.476 880.331)">
		
			<linearGradient id="Path_4845_1_" gradientUnits="userSpaceOnUse" x1="-165.86" y1="104.9934" x2="-164.9068" y2="104.9934" gradientTransform="matrix(34.024 0 0 -46.8501 5635.4316 4966.5835)">
			<stop  offset="0" style="stop-color:#FB9A2B"/>
			<stop  offset="1" style="stop-color:#E65925"/>
		</linearGradient>
		<path id="Path_4845" class="st76" d="M5.55,69.96L-7.8,46.32l3.02-1.71l9.94,17.61L21.46,25.3l3.18,1.4L5.55,69.96z"/>
	</g>
	<g id="Group_428" transform="translate(1554.307 558.156)">
		
			<linearGradient id="Path_4846_1_" gradientUnits="userSpaceOnUse" x1="-307.0536" y1="429.7599" x2="-306.5418" y2="421.7321" gradientTransform="matrix(23.0691 0 0 -18.359 7071.4102 7827.606)">
			<stop  offset="0" style="stop-color:#FB9A2B"/>
			<stop  offset="1" style="stop-color:#E65925"/>
		</linearGradient>
		<path id="Path_4846" class="st77" d="M-3.7,57.88l-10.68-8.12l1.12-1.47l9.14,6.95L6.08,40.38l1.53,1.05L-3.7,57.88z"/>
	</g>
</g>
</svg>
