<?xml version="1.0" encoding="utf-8"?>
<!-- Generator: Adobe Illustrator 24.2.3, SVG Export Plug-In . SVG Version: 6.00 Build 0)  -->
<svg version="1.1" id="Layer_1" xmlns="http://www.w3.org/2000/svg" xmlns:xlink="http://www.w3.org/1999/xlink" x="0px" y="0px"
	 viewBox="0 0 100 100" style="enable-background:new 0 0 100 100;" xml:space="preserve">
<style type="text/css">
	.st0{fill:#CACAE1;}
	.st1{fill:#A4AFC1;}
	.st2{fill:#7DC242;}
	.st3{fill:#61A527;}
	.st4{fill:#F3F3F1;}
	.st5{fill:#D5DBE1;}
</style>
<g id="Layer_2_1_" transform="translate(0 0)">
	<g id="Group_310">
		<path id="Path_4651" class="st0" d="M13.23,64.86c15.31,8.42,21.46,22.13,28.84,26.18s25.2,8.33,43.86-25.6s0.56-50.37-7.55-54.83
			C40.38-10.28-13.88,49.95,13.23,64.86z"/>
	</g>
</g>
<g id="Group_325" transform="translate(0 5.448)">
	<g id="Group_321" transform="translate(10.267 10.273)">
		<path id="Path_4660" class="st1" d="M13.54,26.41l1.79-1.79l3.57,3.57l-1.79,1.79L13.54,26.41z"/>
	</g>
	<g id="Group_322" transform="translate(0 0.001)">
		<path id="Path_4661" class="st1" d="M13.54,26.41l1.79-1.79l3.57,3.57l-1.79,1.79L13.54,26.41z"/>
	</g>
	<g id="Group_323" transform="translate(10.716 0)">
		<path id="Path_4662" class="st1" d="M13.54,28.19l3.57-3.57l1.79,1.79l-3.57,3.57L13.54,28.19z"/>
	</g>
	<g id="Group_324" transform="translate(0.447 10.266)">
		<path id="Path_4663" class="st1" d="M13.54,28.19l3.57-3.57l1.79,1.79l-3.57,3.57L13.54,28.19z"/>
	</g>
</g>
<g id="Group_326" transform="translate(65.499 25.256)">
	<path id="Path_4664" class="st1" d="M17.33,32.2c-2.09,0-3.79-1.7-3.79-3.79s1.7-3.79,3.79-3.79s3.79,1.7,3.79,3.79l0,0
		C21.11,30.5,19.42,32.2,17.33,32.2z M17.33,27.15c-0.7,0-1.26,0.57-1.26,1.26s0.57,1.26,1.26,1.26c0.7,0,1.26-0.57,1.26-1.26
		C18.59,27.71,18.03,27.15,17.33,27.15z"/>
</g>
<g>
	<g id="Group_311" transform="translate(28.246)">
		<path id="Path_4652" class="st2" d="M36.28,60.73H7.24c-1.4,0-2.53-1.13-2.53-2.53l0,0V41.79c0-1.4,1.13-2.53,2.53-2.53h29.04
			c1.39,0,2.53,1.13,2.53,2.53v16.42C38.81,59.6,37.68,60.73,36.28,60.73z"/>
	</g>
	<g id="Group_312" transform="translate(28.246)">
		<path id="Path_4653" class="st3" d="M10.39,58.2V41.79c0-1.39,1.13-2.53,2.52-2.53H7.24c-1.4,0-2.53,1.13-2.53,2.53v16.42
			c0,1.4,1.13,2.53,2.53,2.53h5.68C11.53,60.73,10.39,59.6,10.39,58.2z"/>
	</g>
	<g id="Group_313" transform="translate(42.137 7.577)">
		<circle id="Ellipse_2" class="st4" cx="7.87" cy="42.42" r="3.16"/>
	</g>
	<g id="Group_327" transform="translate(34.095 7.577)">
		<path id="Path_4665" d="M15.9,47.47c-2.79,0-5.05-2.26-5.05-5.05s2.26-5.05,5.05-5.05s5.05,2.26,5.05,5.05l0,0
			C20.95,45.21,18.69,47.47,15.9,47.47z M15.9,41.16c-0.7,0-1.26,0.57-1.26,1.26c0,0.7,0.57,1.26,1.26,1.26
			c0.7,0,1.26-0.57,1.26-1.26l0,0C17.16,41.72,16.6,41.16,15.9,41.16L15.9,41.16z"/>
	</g>
	<g id="Group_328" transform="translate(26.519 10.734)">
		<path id="Path_4666" d="M10.85,37.37h3.16v3.79h-3.16V37.37z"/>
	</g>
	<g id="Group_329" transform="translate(48.617 10.734)">
		<path id="Path_4667" d="M10.85,37.37h3.16v3.79h-3.16V37.37z"/>
	</g>
	<g id="Group_330" transform="translate(20.205)">
		<path id="Path_4668" d="M44.32,62.63H15.27c-2.44,0-4.42-1.98-4.42-4.42V41.79c0-2.44,1.98-4.42,4.42-4.42h29.04
			c2.44,0,4.42,1.98,4.42,4.42v16.42C48.73,60.65,46.76,62.62,44.32,62.63z M15.27,41.16c-0.35,0-0.63,0.28-0.63,0.63v16.42
			c0,0.35,0.28,0.63,0.63,0.63h29.04c0.35,0,0.63-0.28,0.63-0.63V41.79c0-0.35-0.28-0.63-0.63-0.63H15.27z"/>
	</g>
</g>
<g>
	<g id="Group_314" transform="translate(8.042 27.774)">
		<path id="Path_4654" class="st2" d="M11.43,9.12c0,0-3.66,2.83-12,2.83V-9.51h6.95l0.76,2.8L10.85,7L11.43,9.12L11.43,9.12z"/>
	</g>
	<g id="Group_315" transform="translate(8.042 27.774)">
		<path id="Path_4655" class="st3" d="M5.11,11.44V-9.52h-5.68v21.47C1.34,11.96,3.24,11.79,5.11,11.44z"/>
	</g>
	<g id="Group_316" transform="translate(15.745 32.724)">
		<path id="Path_4656" class="st4" d="M48.55-9.42c0,0.01-1.26,3.16-6.32,3.16c-3.28,0-7.09-1.59-10.73-2.73v1.11
			c0,2.4-1.69,4.47-4.04,4.95L3.14,2.05l-3.72-13.72c4.85-2.27,17.23-7.85,23.24-7.85C30.24-19.52,48.55-9.42,48.55-9.42L48.55-9.42
			z"/>
	</g>
	<g id="Group_318" transform="translate(15.745 32.724)">
		<g id="Group_317">
			<path id="Path_4657" class="st5" d="M21.35-19.44C15-18.77,3.95-13.79-0.57-11.67L3.14,2.05l24.33-4.98
				C27.78-3,28.09-3.1,28.39-3.22l-19.56,4L5.11-12.93C10.38-15.45,15.8-17.63,21.35-19.44z"/>
		</g>
	</g>
	<g id="Group_319" transform="translate(14.396 44.518)">
		<path id="Path_4658" d="M0.78-23.42l1.3,1.33l-1.35,0.55v-1.93l-1.3-1.33l1.35-0.55V-23.42z"/>
	</g>
	<g id="Group_320" transform="translate(45.925 43.761)">
		<path id="Path_4659" d="M3.22-20.03h-3.79v-0.02L3.22-20.03z"/>
	</g>
	<g id="Group_331" transform="translate(0 27.781)">
		<path id="Path_4669" d="M16.26-10.05l5.05,18.66c0.2,0.74-0.07,1.53-0.68,2c-0.17,0.13-4.3,3.2-13.15,3.2
			c-1.04,0-1.89-0.85-1.89-1.89V-9.55c0-1.04,0.85-1.89,1.89-1.89h6.94C15.28-11.44,16.02-10.86,16.26-10.05z M9.37-7.65l0,17.63
			c2.72-0.09,5.4-0.7,7.89-1.79L12.97-7.65H9.37L9.37-7.65z"/>
	</g>
	<g id="Group_332" transform="translate(8.738 41.043)">
		<path id="Path_4670" d="M56.49-19.41c0.83,0.46,1.2,1.47,0.84,2.36c-0.07,0.18-1.81,4.35-8.07,4.35c-2.83,0-5.87-1.01-8.81-1.99
			c-2.65-0.89-5.39-1.8-7.61-1.8c-4.65,0-11.28,2.39-11.35,2.41l-1.29-3.56c0.29-0.11,7.32-2.64,12.64-2.64
			c2.83,0,5.87,1.01,8.81,1.99c2.65,0.89,5.39,1.8,7.61,1.8c1.14,0.04,2.27-0.22,3.27-0.75c-6.09-3.19-17.72-8.72-22.84-8.72
			c-3.91,0-12.1,2.81-22.48,7.7l-1.62-3.43c6.38-3.01,18.01-8.06,24.09-8.06C37.65-29.75,55.71-19.83,56.49-19.41z"/>
	</g>
	<g id="Group_333" transform="translate(12.931 32.767)">
		<path id="Path_4671" d="M36.22-9.07v1.14c-0.01,3.3-2.33,6.13-5.56,6.8L6.34,3.85L5.58,0.14L29.9-4.84
			c1.47-0.3,2.53-1.59,2.53-3.09v-1.14H36.22L36.22-9.07z"/>
	</g>
</g>
<g>
	<g id="Group_314_1_" transform="translate(8.042 27.774)">
		<path id="Path_4654_1_" class="st2" d="M72.68,35.39c0,0,3.66-2.83,12-2.83v21.46h-6.95l-0.76-2.8l-3.71-13.71L72.68,35.39
			L72.68,35.39z"/>
	</g>
	<g id="Group_315_1_" transform="translate(8.042 27.774)">
		<path id="Path_4655_1_" class="st3" d="M79,33.07v20.96h5.68V32.56C82.77,32.55,80.87,32.72,79,33.07z"/>
	</g>
	<g id="Group_316_1_" transform="translate(15.745 32.724)">
		<path id="Path_4656_1_" class="st4" d="M20.15,44.03c0-0.01,1.26-3.16,6.32-3.16c3.28,0,7.09,1.59,10.73,2.73v-1.11
			c0-2.4,1.69-4.47,4.04-4.95l24.32-4.98l3.72,13.72c-4.85,2.27-17.23,7.85-23.24,7.85C38.46,54.13,20.15,44.03,20.15,44.03
			L20.15,44.03z"/>
	</g>
	<g id="Group_318_1_" transform="translate(15.745 32.724)">
		<g id="Group_317_1_">
			<path id="Path_4657_1_" class="st5" d="M47.35,54.05c6.35-0.67,17.4-5.65,21.92-7.77l-3.71-13.72l-24.33,4.98
				c-0.31,0.07-0.62,0.17-0.92,0.29l19.56-4l3.72,13.71C58.32,50.06,52.9,52.24,47.35,54.05z"/>
		</g>
	</g>
	<g id="Group_319_1_" transform="translate(14.396 44.518)">
		<path id="Path_4658_1_" d="M70.62,34.43l-1.3-1.33l1.35-0.55v1.93l1.3,1.33l-1.35,0.55V34.43z"/>
	</g>
	<g id="Group_320_1_" transform="translate(45.925 43.761)">
		<path id="Path_4659_1_" d="M5.12,32.55h3.79v0.02L5.12,32.55z"/>
	</g>
	<g id="Group_331_1_" transform="translate(0 27.781)">
		<path id="Path_4669_1_" d="M83.93,54.53l-5.05-18.66c-0.2-0.74,0.07-1.53,0.68-2c0.17-0.13,4.3-3.2,13.15-3.2
			c1.04,0,1.89,0.85,1.89,1.89v21.47c0,1.04-0.85,1.89-1.89,1.89h-6.94C84.91,55.93,84.17,55.35,83.93,54.53z M90.82,52.14V34.51
			c-2.72,0.09-5.4,0.7-7.89,1.79l4.29,15.84H90.82L90.82,52.14z"/>
	</g>
	<g id="Group_332_1_" transform="translate(8.738 41.043)">
		<path id="Path_4670_1_" d="M26.23,37.37c-0.83-0.46-1.2-1.47-0.84-2.36c0.07-0.18,1.81-4.35,8.07-4.35c2.83,0,5.87,1.01,8.81,1.99
			c2.65,0.89,5.39,1.8,7.61,1.8c4.65,0,11.28-2.39,11.35-2.41l1.29,3.56c-0.29,0.11-7.32,2.64-12.64,2.64
			c-2.83,0-5.87-1.01-8.81-1.99c-2.65-0.89-5.39-1.8-7.61-1.8c-1.14-0.04-2.27,0.22-3.27,0.75c6.09,3.19,17.72,8.72,22.84,8.72
			c3.91,0,12.1-2.81,22.48-7.7l1.62,3.43c-6.38,3.01-18.01,8.06-24.09,8.06C45.07,47.71,27.01,37.79,26.23,37.37z"/>
	</g>
	<g id="Group_333_1_" transform="translate(12.931 32.767)">
		<path id="Path_4671_1_" d="M38.11,43.58v-1.14c0.01-3.3,2.33-6.13,5.56-6.8l24.32-4.98l0.76,3.71l-24.32,4.98
			c-1.47,0.3-2.53,1.59-2.53,3.09v1.14H38.11L38.11,43.58z"/>
	</g>
</g>
</svg>
