<?xml version="1.0" encoding="utf-8"?>
<!-- Generator: Adobe Illustrator 24.2.3, SVG Export Plug-In . SVG Version: 6.00 Build 0)  -->
<svg version="1.1" id="Layer_1" xmlns="http://www.w3.org/2000/svg" xmlns:xlink="http://www.w3.org/1999/xlink" x="0px" y="0px"
	 viewBox="0 0 100 100" style="enable-background:new 0 0 100 100;" xml:space="preserve">
<style type="text/css">
	.st0{fill:#CACAE1;}
	.st1{fill:#F3F3F1;}
	.st2{fill:#D5DBE1;}
	.st3{fill:#7DC242;}
	.st4{fill:#61A527;}
	.st5{fill:#A4AFC1;}
</style>
<g>
	<g id="Layer_2_1_" transform="translate(0 0)">
		<g id="Group_290">
			<path id="Path_4632" class="st0" d="M11.58,76.73c0-19.21-9.95-32.4-9.95-41.66s5.32-28.7,47.9-28.7S98.37,32.52,98.37,42.7
				C98.37,90.38,11.58,110.75,11.58,76.73z"/>
		</g>
	</g>
	<g id="color" transform="translate(12.958 3.138)">
		<g id="Group_291" transform="translate(4.166 16.052)">
			<path id="Path_4633" class="st1" d="M50.23,9.15v8.33H7.18c-3.07,0-5.55-2.49-5.55-5.56v0c0.02-3.06,2.49-5.53,5.55-5.55h40.27
				c1.53-0.01,2.77,1.23,2.78,2.75C50.23,9.13,50.23,9.14,50.23,9.15z"/>
		</g>
		<g id="Group_292" transform="translate(4.166 16.052)">
			<path id="Path_4634" class="st2" d="M7.88,11.92c0.02-3.06,2.5-5.53,5.55-5.55H7.18c-3.06,0.02-5.53,2.5-5.55,5.55
				c0,3.07,2.48,5.55,5.55,5.56c0,0,0,0,0,0h6.25C10.36,17.48,7.88,14.99,7.88,11.92z"/>
		</g>
		<g id="Group_293" transform="translate(4.166 21.607)">
			<path id="Path_4635" class="st1" d="M58.56,14.7v34.72c0,1.53-1.25,2.77-2.78,2.78H7.18c-3.06-0.01-5.54-2.49-5.55-5.55V6.37
				c0,3.07,2.48,5.55,5.55,5.55h48.6C57.32,11.92,58.56,13.17,58.56,14.7z"/>
		</g>
		<g id="Group_294" transform="translate(4.166 21.607)">
			<path id="Path_4636" class="st2" d="M7.88,46.64V11.92h-0.7c-3.07,0-5.55-2.49-5.55-5.55v40.27c0.01,3.06,2.49,5.54,5.55,5.55
				h6.25C10.37,52.18,7.89,49.7,7.88,46.64z"/>
		</g>
		<g id="Group_295" transform="translate(49.99 41.055)">
			<path id="Path_4637" class="st3" d="M18.29,18.87H7.88c-3.45,0-6.25-2.8-6.25-6.25s2.8-6.25,6.25-6.25h10.41V18.87z"/>
		</g>
		<g id="Group_296" transform="translate(49.99 41.055)">
			<path id="Path_4638" class="st4" d="M7.88,12.62c0-3.45,2.79-6.25,6.24-6.25c0,0,0,0,0,0H7.88c-3.45,0-6.25,2.8-6.25,6.25
				s2.8,6.25,6.25,6.25h6.25C10.68,18.87,7.88,16.08,7.88,12.62C7.88,12.62,7.88,12.62,7.88,12.62z"/>
		</g>
		<g id="Group_297" transform="translate(16.885 11.895)">
			<path id="Path_4639" class="st3" d="M27.1,6.37l-6.94,4.17L1.63,21.64h34.38L27.1,6.37z"/>
		</g>
		<g id="Group_298" transform="translate(16.885 11.895)">
			<path id="Path_4640" class="st4" d="M27.1,6.37l-6.94,4.17L1.63,21.64h9.72l18.27-10.96L27.1,6.37z"/>
		</g>
		<g id="Group_299">
			<path id="Path_4641" class="st5" d="M5.8,14.7c-2.3,0-4.17-1.87-4.17-4.17c0-2.3,1.87-4.17,4.17-4.17c2.3,0,4.17,1.87,4.17,4.17
				C9.96,12.84,8.1,14.7,5.8,14.7z M5.8,9.15c-0.77,0-1.39,0.62-1.39,1.38s0.62,1.39,1.38,1.39c0.77,0,1.39-0.62,1.39-1.38
				c0,0,0,0,0-0.01C7.18,9.77,6.56,9.15,5.8,9.15L5.8,9.15z"/>
		</g>
		<g id="Group_303" transform="translate(62.834 1.133)">
			<g id="Group_300" transform="translate(6.249 9.72)">
				<path id="Path_4642" class="st5" d="M1.63,6.37h5.55v2.78H1.63V6.37z"/>
			</g>
			<g id="Group_301">
				<path id="Path_4643" class="st5" d="M1.63,6.37h2.78v5.55H1.63V6.37z"/>
			</g>
			<g id="Group_302" transform="translate(0 15.969)">
				<path id="Path_4644" class="st5" d="M1.63,6.37h2.78v5.55H1.63V6.37z"/>
			</g>
		</g>
	</g>
	<g id="line" transform="translate(15.041 12.951)">
		<g id="Group_304" transform="translate(0 4.165)">
			<path id="Path_4645" d="M5.8,14.01H1.63c0-4.22,3.42-7.63,7.64-7.64h25.69v4.17H9.27C7.35,10.54,5.8,12.09,5.8,14.01z"/>
		</g>
		<g id="Group_305" transform="translate(0 11.802)">
			<path id="Path_4646" d="M57.87,54.28H9.27c-4.22,0-7.63-3.42-7.64-7.64V6.37H5.8v40.27c0,1.92,1.56,3.47,3.47,3.47h48.6
				c0.38,0,0.69-0.31,0.69-0.69V38.31h4.17v11.11C62.73,52.1,60.55,54.27,57.87,54.28z"/>
		</g>
		<g id="Group_306" transform="translate(45.824 29.16)">
			<path id="Path_4647" d="M20.38,23.03H9.96c-4.6,0.05-8.37-3.64-8.42-8.24s3.64-8.37,8.24-8.42c0.06,0,0.12,0,0.18,0h10.41
				c1.15,0,2.08,0.93,2.08,2.08v12.5C22.46,22.1,21.53,23.03,20.38,23.03z M9.96,10.53c-2.3,0-4.17,1.87-4.17,4.17
				s1.87,4.17,4.17,4.17h8.33v-8.33L9.96,10.53z"/>
		</g>
		<g id="Group_307" transform="translate(42.713 4.165)">
			<path id="Path_4648" d="M11.69,19.56H7.52v-8.33c0-0.38-0.31-0.69-0.69-0.69H1.63V6.37h5.19c2.68,0,4.86,2.18,4.86,4.86
				L11.69,19.56z"/>
		</g>
		<g id="Group_308" transform="translate(13.733)">
			<path id="Path_4649" d="M3.77,25.51l-2.14-3.57L27.1,6.67c0.99-0.59,2.26-0.27,2.85,0.71c0,0.01,0.01,0.02,0.01,0.02l8.92,15.27
				l-3.6,2.1l-7.85-13.45L3.77,25.51z"/>
		</g>
		<g id="Group_309" transform="translate(0 11.802)">
			<path id="Path_4650" d="M62.73,25.81h-4.17V14.7c0-0.38-0.31-0.69-0.69-0.69H9.27c-4.21-0.02-7.62-3.43-7.64-7.64H5.8
				c0.02,1.91,1.56,3.45,3.47,3.47h48.6c2.68,0,4.86,2.18,4.86,4.86L62.73,25.81z"/>
		</g>
	</g>
</g>
</svg>
