<?xml version="1.0" encoding="utf-8"?>
<!-- Generator: Adobe Illustrator 24.2.3, SVG Export Plug-In . SVG Version: 6.00 Build 0)  -->
<svg version="1.1" id="Layer_1" xmlns="http://www.w3.org/2000/svg" xmlns:xlink="http://www.w3.org/1999/xlink" x="0px" y="0px"
	 viewBox="0 0 100 100" style="enable-background:new 0 0 100 100;" xml:space="preserve">
<style type="text/css">
	.st0{clip-path:url(#SVGID_1_);}
	.st1{fill:#CACAE1;}
	.st2{fill:#A4AFC1;}
	.st3{fill:#7DC242;}
	.st4{fill:#F3F3F1;}
	.st5{fill:#61A527;}
	.st6{fill:#D5DBE1;}
</style>
<g>
	<g id="Group_354" transform="translate(-142 -121.196)">
		<g>
			<defs>
				<rect id="SVGID_3_" x="142" y="126.05" width="100" height="90.29"/>
			</defs>
			<clipPath id="SVGID_1_">
				<use xlink:href="#SVGID_3_"  style="overflow:visible;"/>
			</clipPath>
			<g id="Group_353" transform="translate(0 0)" class="st0">
				<path id="Path_4688" class="st1" d="M239.28,178.58c-10.28-16.28-8.91-32.79-13.87-40.64c-4.96-7.85-19.87-21.48-55.97,1.31
					s-27.4,48.3-21.94,56.93C173.02,236.61,257.48,207.42,239.28,178.58L239.28,178.58z"/>
			</g>
		</g>
	</g>
	<rect id="Rectangle_283" x="86.68" y="17.67" class="st2" width="5.57" height="2.78"/>
	<rect id="Rectangle_284" x="70.67" y="17.67" class="st2" width="5.57" height="2.78"/>
	<rect id="Rectangle_285" x="80.42" y="7.93" class="st2" width="2.78" height="5.57"/>
	<rect id="Rectangle_286" x="80.42" y="23.94" class="st2" width="2.78" height="5.57"/>
	<path id="Path_4689" class="st2" d="M86.62,75.09c-2.31,0-4.17-1.87-4.17-4.17c0-2.31,1.87-4.17,4.17-4.17
		c2.31,0,4.17,1.87,4.17,4.17C90.79,73.22,88.92,75.09,86.62,75.09z M86.62,69.53c-0.77,0-1.39,0.62-1.39,1.39s0.62,1.39,1.39,1.39
		s1.39-0.62,1.39-1.39l0,0C88.01,70.15,87.39,69.53,86.62,69.53z"/>
	<g>
		<path id="Path_4690" class="st3" d="M57.49,32.5v7.39H11.31V32.5c0.01-2.04,1.66-3.69,3.7-3.69H53.8c2.03-0.01,3.69,1.63,3.7,3.67
			C57.49,32.48,57.49,32.49,57.49,32.5L57.49,32.5z"/>
		<path id="Path_4691" class="st4" d="M57.49,39.89v16.63c0.01,2.03-1.63,3.69-3.67,3.69c-0.01,0-0.02,0-0.03,0H15
			c-2.04-0.01-3.69-1.66-3.7-3.69V39.89H57.49z"/>
		<path id="Path_4692" class="st5" d="M23.32,28.8H15c-2.04,0.01-3.69,1.66-3.7,3.69v7.39h8.31V32.5
			C19.63,30.46,21.28,28.81,23.32,28.8z"/>
		<path id="Path_4693" class="st6" d="M19.62,56.51V39.89h-8.31v16.63c0.01,2.04,1.66,3.69,3.7,3.69h8.31
			C21.28,60.2,19.63,58.55,19.62,56.51z"/>
		<path id="Path_4694" d="M53.81,62.98h-38.8c-3.57,0-6.46-2.9-6.47-6.47V32.5c0-3.57,2.9-6.46,6.47-6.47h38.8
			c3.57,0,6.46,2.9,6.47,6.47v24.02C60.27,60.08,57.38,62.98,53.81,62.98z M12.92,30.18c-0.56,0-1.02,0.46-1.02,1.02v26.61
			c0,0.56,0.46,1.02,1.02,1.02H55.9c0.56,0,1.02-0.46,1.02-1.02V31.2c0-0.56-0.46-1.02-1.02-1.02H12.92z"/>
		<rect id="Rectangle_287" x="11.32" y="38.25" width="46.19" height="4.41"/>
		<path id="Path_4695" d="M46.43,46.78c-0.87,0-1.71,0.28-2.4,0.81c-1.75-1.33-4.25-0.98-5.58,0.77c-1.33,1.75-0.98,4.25,0.77,5.58
			c1.42,1.08,3.39,1.08,4.81,0c1.75,1.33,4.25,0.98,5.58-0.77c1.33-1.75,0.98-4.25-0.77-5.58C48.14,47.06,47.29,46.78,46.43,46.78z
			 M44.02,52.92c-0.12-0.14-0.23-0.29-0.33-0.44h0.66C44.26,52.63,44.14,52.78,44.02,52.92z M44.7,51.73h-1.36
			c-0.06-0.19-0.1-0.39-0.13-0.6h1.61C44.81,51.34,44.76,51.54,44.7,51.73z M43.22,50.39c0.02-0.2,0.07-0.4,0.13-0.6h1.36
			c0.06,0.19,0.1,0.39,0.13,0.6H43.22z M43.69,49.04c0.1-0.16,0.21-0.3,0.33-0.44c0.12,0.14,0.23,0.29,0.33,0.44H43.69z
			 M46.43,53.99c-0.66,0-1.3-0.2-1.84-0.58c0.31-0.35,0.56-0.74,0.73-1.17c0.38-0.95,0.38-2.01,0-2.97
			c-0.17-0.43-0.42-0.83-0.73-1.17c1.47-1.02,3.48-0.66,4.5,0.81c1.02,1.47,0.66,3.48-0.81,4.5C47.73,53.79,47.09,53.99,46.43,53.99
			z"/>
	</g>
	<g>
		<path id="Path_4690_1_" class="st3" d="M86.49,53.04v7.39H40.3v-7.39c0.01-2.04,1.66-3.69,3.7-3.69h38.79
			c2.03-0.01,3.69,1.63,3.7,3.67C86.48,53.02,86.48,53.03,86.49,53.04L86.49,53.04z"/>
		<path id="Path_4691_1_" class="st4" d="M86.49,60.43v16.63c0.01,2.03-1.63,3.69-3.67,3.69c-0.01,0-0.02,0-0.03,0H43.99
			c-2.04-0.01-3.69-1.66-3.7-3.69V60.43H86.49z"/>
		<path id="Path_4692_1_" class="st5" d="M52.31,49.34h-8.31c-2.04,0.01-3.69,1.66-3.7,3.69v7.39h8.31v-7.39
			C48.62,51,50.27,49.35,52.31,49.34z"/>
		<path id="Path_4693_1_" class="st6" d="M48.61,77.06V60.43H40.3v16.63c0.01,2.04,1.66,3.69,3.7,3.69h8.31
			C50.27,80.75,48.62,79.1,48.61,77.06z"/>
		<path id="Path_4694_1_" d="M82.8,83.52H44c-3.57,0-6.46-2.9-6.47-6.47V53.04c0-3.57,2.9-6.46,6.47-6.47h38.8
			c3.57,0,6.46,2.9,6.47,6.47v24.02C89.26,80.63,86.37,83.52,82.8,83.52z M41.91,50.72c-0.56,0-1.02,0.46-1.02,1.02v26.61
			c0,0.56,0.46,1.02,1.02,1.02h42.98c0.56,0,1.02-0.46,1.02-1.02V51.74c0-0.56-0.46-1.02-1.02-1.02H41.91z"/>
		<rect id="Rectangle_287_1_" x="40.31" y="58.79" width="46.19" height="4.41"/>
		<path id="Path_4695_1_" d="M75.42,67.32c-0.87,0-1.71,0.28-2.4,0.81c-1.75-1.33-4.25-0.98-5.58,0.77s-0.98,4.25,0.77,5.58
			c1.42,1.08,3.39,1.08,4.81,0c1.75,1.33,4.25,0.98,5.58-0.77c1.33-1.75,0.98-4.25-0.77-5.58C77.13,67.61,76.28,67.32,75.42,67.32z
			 M73.01,73.46c-0.12-0.14-0.23-0.29-0.33-0.44h0.66C73.25,73.18,73.14,73.32,73.01,73.46z M73.69,72.27h-1.36
			c-0.06-0.19-0.1-0.39-0.13-0.6h1.61C73.8,71.88,73.75,72.08,73.69,72.27z M72.21,70.93c0.02-0.2,0.07-0.4,0.13-0.6h1.36
			c0.06,0.19,0.1,0.39,0.13,0.6H72.21z M72.68,69.59c0.1-0.16,0.21-0.3,0.33-0.44c0.12,0.14,0.23,0.29,0.33,0.44H72.68z
			 M75.42,74.53c-0.66,0-1.3-0.2-1.84-0.58c0.31-0.35,0.56-0.74,0.73-1.17c0.38-0.95,0.38-2.01,0-2.97
			c-0.17-0.43-0.42-0.83-0.73-1.17c1.47-1.02,3.48-0.66,4.5,0.81c1.02,1.47,0.66,3.48-0.81,4.5C76.72,74.33,76.08,74.53,75.42,74.53
			z"/>
	</g>
</g>
</svg>
