<?xml version="1.0" encoding="utf-8"?>
<!-- Generator: Adobe Illustrator 24.2.3, SVG Export Plug-In . SVG Version: 6.00 Build 0)  -->
<svg version="1.1" id="Layer_1" xmlns="http://www.w3.org/2000/svg" xmlns:xlink="http://www.w3.org/1999/xlink" x="0px" y="0px"
	 viewBox="0 0 100 100" style="enable-background:new 0 0 100 100;" xml:space="preserve">
<style type="text/css">
	.st0{fill:#352E81;}
	.st1{fill:none;}
	.st2{opacity:0.3;fill:#FFFFFF;enable-background:new    ;}
	.st3{fill:#FFFFFF;}
</style>
<g>
	<circle class="st0" cx="50" cy="50" r="48"/>
	<g>
		<path id="Path_4078" class="st1" d="M28.15,28.15h43.71v43.71H28.15V28.15z M28.15,28.15h43.71v43.71H28.15V28.15z"/>
		<path id="Path_4079" class="st2" d="M66.39,50v-3.64H50l2.44-9.72l-7.9,7.9v18.21h16.39L66.39,50z"/>
		<path id="Path_4080" class="st3" d="M44.54,66.39h16.39c1.46,0.01,2.79-0.87,3.35-2.22l5.5-12.84c0.17-0.42,0.25-0.87,0.25-1.33
			v-3.64c-0.01-2.01-1.63-3.64-3.64-3.64H54.9l1.73-8.32l0.05-0.58c0-0.72-0.29-1.42-0.8-1.93l-1.93-1.91l-12,12
			c-0.68,0.68-1.06,1.61-1.06,2.57v18.21C40.9,64.76,42.53,66.38,44.54,66.39z M44.54,44.54l7.9-7.9L50,46.36h16.39V50l-5.46,12.75
			H44.54V44.54z M29.97,44.54h7.28v21.85h-7.28V44.54z"/>
	</g>
</g>
</svg>
