<?xml version="1.0" encoding="utf-8"?>
<!-- Generator: Adobe Illustrator 24.2.3, SVG Export Plug-In . SVG Version: 6.00 Build 0)  -->
<svg version="1.1" id="Layer_1" xmlns="http://www.w3.org/2000/svg" xmlns:xlink="http://www.w3.org/1999/xlink" x="0px" y="0px"
	 viewBox="0 0 100 100" style="enable-background:new 0 0 100 100;" xml:space="preserve">
<style type="text/css">
	.st0{fill:#352E81;}
	.st1{opacity:0.3;fill:#FFFFFF;enable-background:new    ;}
	.st2{fill:#FFFFFF;}
	.st3{fill:none;}
</style>
<g>
	<circle class="st0" cx="50" cy="50" r="48"/>
	<g id="Group_414" transform="translate(-208.979 -1331.979)">
		<g id="twotone-3d_rotation-24px" transform="translate(212.248 1334.167)">
			<path id="Path_4176" class="st1" d="M46.73,37.83c-5.01,0-9.07,4.06-9.08,9.08v12.7h18.15V46.9
				C55.8,41.89,51.74,37.83,46.73,37.83z M48.55,55.98h-3.63v-3.63h3.63V55.98z M48.55,48.72h-3.63v-7.26h3.63V48.72z"/>
			<path id="Path_4177" class="st2" d="M46.73,68.69c1.99,0,3.61-1.61,3.61-3.61c0,0,0,0,0-0.01h-7.22
				C43.12,67.07,44.74,68.68,46.73,68.69C46.73,68.69,46.73,68.69,46.73,68.69z M59.44,57.8V46.9c0-5.96-4.16-11.12-9.98-12.4v-2.12
				c0-1.5-1.22-2.72-2.72-2.72c-1.5,0-2.72,1.22-2.72,2.72v2.12c-5.83,1.27-9.98,6.43-9.98,12.4V57.8l-3.63,3.63v1.81h32.67v-1.81
				L59.44,57.8z M55.81,59.61H37.66V46.9c0-5.01,4.06-9.08,9.08-9.08s9.08,4.06,9.08,9.08L55.81,59.61z M44.92,41.46h3.63v7.26
				h-3.63V41.46z M44.92,52.35h3.63v3.63h-3.63V52.35z"/>
		</g>
		<rect id="Rectangle_242" x="237.16" y="1360.16" class="st3" width="43.65" height="43.65"/>
	</g>
</g>
</svg>
