<?xml version="1.0" encoding="utf-8"?>
<!-- Generator: Adobe Illustrator 24.2.3, SVG Export Plug-In . SVG Version: 6.00 Build 0)  -->
<svg version="1.1" id="Layer_1" xmlns="http://www.w3.org/2000/svg" xmlns:xlink="http://www.w3.org/1999/xlink" x="0px" y="0px"
	 viewBox="0 0 100 100" style="enable-background:new 0 0 100 100;" xml:space="preserve">
<style type="text/css">
	.st0{fill:#352E81;}
	.st1{fill:none;}
	.st2{opacity:0.25;fill:#FFFFFF;enable-background:new    ;}
	.st3{fill:#FFFFFF;}
</style>
<circle class="st0" cx="50" cy="50" r="48"/>
<g id="twotone-closed_caption-24px" transform="translate(0 0.002)">
	<path id="Path_4929" class="st1" d="M29.56,30.15h39.97v39.97H29.56V30.15z"/>
	<path id="Path_4930" class="st2" d="M52.87,40.27L39.56,53.6v1.53h1.53l13.33-13.33L52.87,40.27z"/>
	<path id="Path_4931" class="st3" d="M52.87,35.56L36.22,52.22v6.25h6.25l16.65-16.65L52.87,35.56z M41.08,55.13h-1.53V53.6
		l13.33-13.33l1.53,1.53L41.08,55.13z M64.05,36.88c0.65-0.65,0.65-1.7,0-2.35l-3.9-3.9c-0.65-0.65-1.7-0.65-2.35,0l-3.27,3.27
		l6.25,6.25L64.05,36.88z"/>
	<path id="Path_4932" class="st3" d="M29.56,63.46h39.97v6.66H29.56V63.46z"/>
</g>
</svg>
